<?xml version="1.0" encoding="UTF-8"?>
<svg width="114px" height="26px" viewBox="0 0 114 26" version="1.1" xmlns="http://www.w3.org/2000/svg" xmlns:xlink="http://www.w3.org/1999/xlink">
    <title>Path 3</title>
    <g id="1.-Public-User-Pages-VD" stroke="none" stroke-width="1" fill="none" fill-rule="evenodd">
        <g id="SEEDFUND-Home--V-2" transform="translate(-421.000000, -2078.000000)" fill="#25429C" fill-rule="nonzero">
            <g id="Group-56" transform="translate(0.000000, 1870.000000)">
                <g id="Group-55" transform="translate(250.000000, 195.000000)">
                    <path id="Path-3" d="M179.292595,31.4320552 L178.886406,31.7233738 C179.431359,31.3297272 179.976503,30.9425052 180.521837,30.5617081 L181.094353,31.3816011 L180.283043,31.953004 L180.283043,31.953004 L179.889516,32.2360747 C181.028355,34.18708 180.54421,36.7244481 178.690494,38.1071096 C176.698343,39.5930286 173.878809,39.1826461 172.39289,37.1904944 C170.906971,35.1983428 171.317354,32.3788094 173.309506,30.8928904 C175.168771,29.5060893 177.748719,29.7710426 179.292595,31.4320552 Z M173.907393,31.6944703 C172.357942,32.8501851 172.038755,35.0431555 173.19447,36.5926068 C174.350185,38.142058 176.543156,38.4612445 178.092607,37.3055297 C179.642058,36.1498149 179.961245,33.9568445 178.80553,32.4073932 C177.649815,30.857942 175.456844,30.5387555 173.907393,31.6944703 Z M279.594005,25.9508945 L284.410389,34.7856239 L274.452775,33.3378935 L276.727,30.069 L276.583514,29.9767091 L276.583514,29.9767091 L275.95904,29.5767544 L276.495884,28.733073 L277.125305,29.1361959 L277.125305,29.1361959 L277.298,29.248 L279.594005,25.9508945 Z M183.853133,28.3169829 L184.397773,29.1556524 L183.567823,29.6997186 L183.567823,29.6997186 L182.738112,30.2538044 L182.179242,29.424549 C182.737006,29.0486485 183.29497,28.6794596 183.853133,28.3169829 Z M273.063532,26.6268995 L273.923676,27.1400679 L273.923676,27.1400679 L274.78406,27.6631776 L274.261012,28.5154807 L273.40776,27.9967067 L273.40776,27.9967067 L272.554802,27.4878257 L273.063532,26.6268995 Z M187.267032,26.1851559 L187.781235,27.0428246 L186.931006,27.5578863 L186.931006,27.5578863 L186.081029,28.0834378 L185.551289,27.2352774 C186.122994,26.878205 186.694908,26.5281643 187.267032,26.1851559 Z M269.561071,24.6386299 L270.438865,25.1216386 L270.438865,25.1216386 L271.316907,25.6150251 L270.823184,26.4846444 L269.952899,25.9956161 L269.952899,25.9956161 L269.08292,25.5169076 L269.561071,24.6386299 Z M190.754207,24.1829837 L191.235323,25.0596408 L190.366516,25.5419826 L190.366516,25.5419826 L189.497969,26.0352503 L188.999955,25.1680814 C189.584487,24.8323852 190.169238,24.5040192 190.754207,24.1829837 Z M265.988699,22.7787135 L266.884204,23.2289774 L266.884204,23.2289774 L267.779968,23.6900681 L267.318117,24.5770256 L266.430777,24.1202705 L266.430777,24.1202705 L265.543757,23.6742732 L265.988699,22.7787135 Z M194.31995,22.3182226 L194.765129,23.2136639 L193.879942,23.6594685 L193.879942,23.6594685 L192.995025,24.1165856 L192.531555,23.2304726 C193.12746,22.9187927 193.723592,22.6147092 194.31995,22.3182226 Z M262.346622,21.057837 L263.259639,21.4725745 L263.259639,21.4725745 L264.172924,21.8985943 L263.745656,22.8027192 L262.841497,22.3809562 L262.841497,22.3809562 L261.937672,21.9703936 L262.346622,21.057837 Z M197.950185,20.6084941 L198.356606,21.5221799 L197.452584,21.930249 L197.452584,21.930249 L196.548843,22.3500859 L196.122638,21.4454591 C196.731585,21.1585609 197.340767,20.8795723 197.950185,20.6084941 Z M258.641171,19.4893561 L259.570662,19.8654823 L259.570662,19.8654823 L260.500432,20.2533317 L260.110551,21.1741969 L259.190628,20.7904551 L259.190628,20.7904551 L258.271052,20.4183406 L258.641171,19.4893561 Z M201.66744,19.0542553 L202.03196,19.9854506 L201.110395,20.3523566 L201.110395,20.3523566 L200.189123,20.7314583 L199.803315,19.808879 C200.424446,19.5491321 201.045821,19.2975906 201.66744,19.0542553 Z M254.866482,18.0813784 L255.812489,18.4162147 L255.812489,18.4162147 L256.758787,18.7632265 L256.409241,19.7001458 L255.473532,19.3570166 L255.473532,19.3570166 L254.538181,19.0259515 L254.866482,18.0813784 Z M205.458682,17.6729284 L205.778274,18.6204837 L204.841161,18.9428926 L204.841161,18.9428926 L203.904352,19.2778769 L203.562015,18.3382994 C204.193988,18.1080394 204.82621,17.8862488 205.458682,17.6729284 Z M251.028929,16.8470864 L251.989887,17.1374677 L251.989887,17.1374677 L252.95115,17.4404467 L252.644915,18.3924027 L251.694969,18.0929903 L251.694969,18.0929903 L250.745392,17.8060477 L251.028929,16.8470864 Z M209.315025,16.4781015 L209.586823,17.4404558 L208.634755,17.7158647 L208.634755,17.7158647 L207.683004,18.0042162 L207.387061,17.0490105 C208.029461,16.8499818 208.672116,16.6596786 209.315025,16.4781015 Z M247.134895,15.7985998 L248.109589,16.0417183 L248.109589,16.0417183 L249.084601,16.2978335 L248.824565,17.2634324 L247.861568,17.0104729 L247.861568,17.0104729 L246.898947,16.7703655 L247.134895,15.7985998 Z M213.234212,15.4800168 L213.455529,16.4552186 L212.490294,16.6809435 L212.490294,16.6809435 L211.525389,16.9199326 L211.278662,15.9508477 C211.930253,15.7849535 212.582104,15.6280097 213.234212,15.4800168 Z M243.281885,14.9641931 L244.267573,15.1583841 L244.267573,15.1583841 L245.25359,15.3659035 L245.041354,16.3431218 L244.067965,16.1382598 L244.067965,16.1382598 L243.094958,15.9465668 L243.281885,14.9641931 Z M217.149794,14.6995032 L217.319082,15.6850697 L216.342679,15.85958 L216.342679,15.85958 L215.366617,16.0476234 L215.170857,15.0669716 C215.830243,14.9353432 216.489889,14.8128535 217.149794,14.6995032 Z M239.287929,14.3133116 L240.283169,14.4550703 L240.283169,14.4550703 L241.278752,14.6104569 L241.117979,15.5974483 L240.13557,15.4441176 L240.13557,15.4441176 L239.153546,15.304241 L239.287929,14.3133116 Z M221.144439,14.1253543 L221.259406,15.1187235 L220.274521,15.2395934 L220.274521,15.2395934 L219.28999,15.3741911 L219.147742,14.3843601 C219.813048,14.2887488 220.478615,14.2024134 221.144439,14.1253543 Z M235.268874,13.8792132 L236.270666,13.9666343 L236.270666,13.9666343 L237.272813,14.0679041 L237.165494,15.0621287 L236.176938,14.9622321 L236.176938,14.9622321 L235.188766,14.8759993 L235.268874,13.8792132 Z M225.162466,13.7731236 L225.221994,14.7713503 L224.232066,14.8373069 L224.232066,14.8373069 L223.242502,14.9170904 L223.155209,13.9209077 C223.824039,13.8622999 224.493125,13.8130385 225.162466,13.7731236 Z M231.231117,13.6671732 L232.237037,13.6989377 L232.237037,13.6989377 L233.243324,13.7447069 L233.190963,14.7433352 L232.198544,14.6981965 L232.198544,14.6981965 L231.206504,14.6668703 L231.231117,13.6671732 Z M229.20089,13.645725 L229.204393,14.6457189 L228.211278,14.6561348 L228.211278,14.6561348 L227.218538,14.6804244 L227.187093,13.6809189 C227.858107,13.6598083 228.529374,13.648077 229.20089,13.645725 Z"></path>
                </g>
            </g>
        </g>
    </g>
</svg>