<?xml version="1.0" encoding="UTF-8"?>
<svg width="672px" height="498px" viewBox="0 0 672 498" version="1.1" xmlns="http://www.w3.org/2000/svg" xmlns:xlink="http://www.w3.org/1999/xlink">
    <title>Bitmap 2</title>
    <g id="1.-Public-User-Pages-VD" stroke="none" stroke-width="1" fill="none" fill-rule="evenodd">
        <g id="SEEDFUND-Home--V-2" transform="translate(-721.000000, -176.000000)">
            <g id="Bitmap-2" transform="translate(721.000000, 176.000000)">
                <g id="Group-57" transform="translate(117.735562, 9.000000)">
                    <path d="M17.4204534,193.500054 C24.0945798,115.058992 382.189878,-36.3405212 448.669022,37.9573026 C515.148166,112.255126 498.320997,268.53199 359.005267,304.238406 C219.689537,339.944821 10.7463269,271.941117 17.4204534,193.500054 Z" id="Background-Shape" fill="#1E2DBE" opacity="0.0429460392"></path>
                    <g id="Group-43" transform="translate(41.264438, 0.000000)">
                        <path d="M89.5635642,78.5584577 C91.1249774,77.1646495 92.8517287,73.8865978 92.8517287,71.6771677 C92.8517287,67.9540389 94.3410692,65 87.8793048,65 C87.070583,65 79.8468168,67.0102822 76.8914412,70.1428106 C73.7935455,73.4264021 75.0188586,77.8632037 76.8914412,78.9498832 C80.7915475,81.2131562 88.8321158,79.2113912 89.5635642,78.5584577 Z" id="Oval" fill-opacity="0.2" fill="#8FC1F6"></path>
                        <path d="M286.563564,13.5584577 C288.124977,12.1646495 289.851729,8.8865978 289.851729,6.67716774 C289.851729,2.95403895 291.341069,0 284.879305,0 C284.070583,0 276.846817,2.01028218 273.891441,5.14281056 C270.793545,8.42640206 272.018859,12.8632037 273.891441,13.9498832 C277.791547,16.2131562 285.832116,14.2113912 286.563564,13.5584577 Z" id="Oval" fill-opacity="0.2" fill="#8FC1F6"></path>
                        <path d="M402.281782,14.3272803 C403.062489,13.6768365 403.925864,12.147079 403.925864,11.1160116 C403.925864,9.37855151 404.670535,8 401.439652,8 C401.035292,8 397.423408,8.93813169 395.945721,10.3999783 C394.396773,11.932321 395.009429,14.0028284 395.945721,14.5099455 C397.895774,15.5661395 401.916058,14.6319825 402.281782,14.3272803 Z" id="Oval" fill-opacity="0.6" fill="#8FC1F6"></path>
                        <path d="M22.573242,70.6589251 C24.9934021,68.3953706 26.533994,55.9533762 22.573242,56.9918537 C17.4766508,58.3281392 7.51247205,51.9046052 2.93169716,56.9918537 C-1.86998113,62.3244299 0.029230435,69.5298274 2.93169716,71.2946028 C7.29605848,73.9482481 15.0055349,72.991564 19.3817655,71.8554202 C21.0670642,71.4178881 22.2580286,70.9537414 22.573242,70.6589251 Z" id="Oval" fill="#F8D874" opacity="0.445562318"></path>
                    </g>
                    <path d="M431.858084,193.968779 C432.134581,194.179829 432.456394,194.45655 432.858084,194.639068 C432.694489,194.749123 432.531663,194.859177 432.366532,194.968779 C432.330434,194.723308 432.172984,194.397221 431.858084,193.968779 Z M443.908882,189.971098 C442.904491,190.242654 441.904315,190.588541 440.908882,190.971098 C441.035353,190.672783 441.165513,190.378432 441.291457,190.079126 C442.164108,190.026599 443.036758,189.983982 443.908882,189.971098 Z M441.045334,178.678957 C441.695845,179.541201 442.352348,180.418222 443.04263,181.238352 C442.979431,181.381689 442.918957,181.526505 442.855213,181.669843 C442.434615,180.958325 441.835317,180.041406 441.207689,179.13557 C441.130325,178.917854 441.076449,178.763843 441.054132,178.701123 L441.045334,178.678957 L441.045334,178.678957 Z M462.613496,145.594221 C465.971195,144.039275 470.235335,146.300767 468.190543,150.795014 C466.000288,155.60764 458.789485,155.263718 454.72359,154.937585 C455.132133,154.937585 456.664896,150.497617 457.147417,149.84079 C458.57046,147.903151 460.54917,146.552094 462.613496,145.594221 Z M342.124161,306.810692 C342.336465,308.18034 342.663014,309.51823 343.124161,310.810692 C342.463662,309.666572 342.16949,308.296923 342.124161,306.810692 Z M455.170472,136.981435 C458.472097,133.636257 460.406166,138.819915 460.099374,141.48992 C459.737252,144.638103 458.155808,147.436258 456.31836,149.896827 C456.121402,150.157274 456.174255,150.146906 456.14659,149.768262 C456.110667,149.952815 456.041298,150.086771 455.943851,150.181328 C455.944677,151.848526 456.026846,153.559685 455.867463,155.02657 C455.410785,159.227328 454.698103,163.439283 453.767818,167.560828 C453.541543,168.563221 453.290494,169.556074 453.015909,170.538974 C454.774904,169.19236 457.111973,168.036519 458.0212,167.684417 C460.380978,166.771605 463.992699,165.84179 466.191029,167.713033 C468.014851,169.265351 467.971083,171.834992 466.328115,173.489748 C464.37175,175.459696 461.001168,175.207543 458.492742,174.874103 C457.358067,174.723143 451.299444,173.916916 452.793764,172.996639 C452.680626,173.032721 452.443616,173.122301 452.188438,173.247549 C452.029468,173.728216 451.863891,174.206809 451.692534,174.682915 C451.727218,174.705725 451.756535,174.729779 451.793697,174.752589 C451.753231,174.732267 451.725154,174.711116 451.689643,174.690794 C449.973178,179.449358 447.649323,183.944157 444.696606,188.108419 C445.737964,187.760049 446.810703,187.511213 447.889636,187.432001 C451.084731,187.196851 457.632652,190.014084 453.860722,194.055172 C450.244047,197.929126 445.171865,193.303689 441.339651,192.501609 C437.317911,197.536795 432.923314,202.333929 428.339191,206.953145 C428.60015,207.05019 428.823947,207.235573 428.943278,207.512195 C430.726635,206.721728 432.602896,205.555519 434.228521,205.298389 C436.574261,204.928038 441.347083,204.879101 442.991702,207.048117 C445.014546,209.715219 442.59407,211.668577 440.020404,212.024827 C436.288527,212.541575 431.546673,210.482461 428.055522,209.076126 C427.64509,209.126723 427.207406,208.984472 426.959247,208.645226 C426.882033,208.615366 426.804819,208.58592 426.729669,208.557304 C422.091868,213.149978 417.294684,217.574687 412.530533,221.898619 C412.578844,221.898619 412.627154,221.898204 412.677529,221.898204 C413.898503,221.185705 415.197929,220.616701 416.587783,220.355839 C419.80311,219.748265 423.538704,219.940283 425.99469,222.373065 C428.44118,224.795478 429.140649,228.844446 426.351031,231.274325 C420.767254,236.138229 413.551659,224.002523 410.89665,223.372554 C406.057762,227.718051 400.970715,231.748357 395.811822,235.688252 C396.381638,235.54683 396.963427,235.451443 397.560907,235.426145 C402.428286,235.216294 413.484767,241.751128 407.234967,247.282741 C403.371909,250.701832 399.491194,246.606926 396.135952,242.636039 L395.807642,242.246129 C394.555762,240.755071 393.381119,239.317247 392.312826,238.342082 L392.381161,238.40543 L392.261838,238.380586 C388.113732,241.512865 383.94855,244.625069 379.857989,247.833292 L377.811027,249.452587 C380.32606,248.923811 382.728368,248.952427 385.345389,249.895514 C388.05325,250.872608 392.384259,253.18346 390.450191,256.808164 C388.483089,260.494247 383.241615,258.495268 380.52756,257.149898 C380.095811,256.935917 379.541508,256.58293 378.907925,256.16368 L377.752197,255.393625 C376.43352,254.518486 374.926699,253.558165 373.508922,252.978586 C365.892391,259.451626 359.210687,266.670758 353.985729,275.313644 C350.723743,280.710056 348.158335,286.523683 346.251931,292.537207 C345.035087,296.375494 342.69678,302.806647 342.830975,307.89243 C341.457638,297.654509 345.539249,285.658979 349.723676,276.791727 C353.571167,268.637803 359.059149,261.590367 365.383273,255.319298 C365.009257,253.960242 363.669871,252.37526 362.170544,250.718654 L361.85832,250.374937 C358.35224,246.526478 354.288935,242.352515 359.600887,239.755883 C363.726267,237.74861 367.639824,241.6433 368.312041,245.586098 C368.773674,248.295502 367.680289,251.612064 366.570801,254.160139 C368.556897,252.251571 370.614012,250.411433 372.727284,248.638895 C375.647794,246.189109 378.631066,243.818122 381.639938,241.480312 C377.130139,236.774419 373.308661,223.796819 379.777716,222.046261 C389.329967,219.469984 383.897315,236.61392 383.071496,239.837169 C382.884861,239.838413 382.74282,239.774545 382.642483,239.648469 C382.679645,239.94956 382.724239,240.271801 382.781633,240.597361 C388.539245,236.147768 394.373658,231.795635 400.034649,227.227431 C399.56641,226.841736 398.86405,225.425032 398.293822,224.660693 C397.006783,222.937507 395.782919,221.143818 394.923654,219.161843 C393.56642,216.029834 392.358246,211.084228 396.474129,209.499561 C400.950483,207.772643 402.740446,213.388445 402.598818,216.675147 C402.541492,218.001129 402.268633,219.277013 401.964079,220.548734 L401.699559,221.638832 C401.567705,222.184442 401.439677,222.731699 401.329947,223.284218 C401.192861,223.973492 401.416658,227.124579 400.541289,225.728197 C400.55987,226.227112 400.547483,226.587094 400.511973,226.840906 C401.528556,226.016431 402.53812,225.182003 403.541903,224.340939 C403.503503,224.22606 403.477077,224.101642 403.477077,223.958976 C403.477077,222.976906 404.482099,222.651346 405.158032,222.974417 C406.483885,221.840142 407.798176,220.690108 409.091409,219.514775 C411.832303,217.024761 414.614901,214.461755 417.382221,211.840274 C416.838832,211.321452 417.100617,210.656231 416.595628,210.109208 C416.091466,209.563429 415.060017,209.22211 414.460473,208.708264 C412.952527,207.415149 411.741876,205.582891 410.890456,203.797496 C409.484912,200.847551 407.789505,194.724954 412.406247,193.59607 C417.165031,192.430276 419.239489,198.347169 419.350974,201.984315 C419.363319,202.381792 419.096192,204.557837 418.767206,206.787635 L418.676112,207.395799 C418.445361,208.91306 418.19505,210.382417 417.994153,211.257169 C423.115884,206.384141 428.167834,201.314533 432.775905,196.128801 C431.46533,196.047929 427.888707,193.166 427.175612,192.393366 C425.435611,190.508852 422.727749,186.40431 426.052085,184.481641 C429.007692,182.776704 432.390247,185.64785 433.475787,188.322832 C433.654164,188.763271 434.152959,192.801871 434.114145,194.600122 C436.024265,192.398757 437.852629,190.179559 439.562488,187.946675 C440.702531,186.462372 441.77527,184.933692 442.786073,183.368103 C442.569708,183.229999 442.371512,182.998582 442.187767,182.71408 C437.462842,181.65487 431.774599,173.89618 437.509914,171.601087 C440.240485,170.509944 442.998722,173.202343 444.195747,175.351038 C444.441015,175.790647 444.762259,177.953028 445.026521,179.65921 C447.971392,174.451498 450.304332,168.897075 452.158296,163.173859 C451.748689,163.049026 451.41382,162.713513 451.396065,162.16566 C449.150662,160.724488 447.380518,159.529663 445.89776,156.906937 C444.976559,155.277894 443.35754,151.581443 446.352786,150.861064 C450.250653,149.923784 452.354428,155.914083 452.517114,158.818823 C452.536108,159.155995 452.483669,160.131015 452.42421,161.02392 C452.558405,161.012722 452.693014,161.021846 452.823906,161.052121 C453.893755,157.504142 454.788117,153.90059 455.538787,150.283351 C455.206666,150.156887 454.933675,149.76416 454.715571,149.188067 C454.6245,149.329082 454.510803,149.456733 454.371279,149.567265 C454.378516,149.135874 454.399471,148.708595 454.449571,148.291453 C454.427888,148.193888 454.405877,148.092329 454.384836,147.988283 L454.590616,147.483326 C454.429541,147.883649 454.264182,148.283972 454.095395,148.684295 C454.154513,148.405844 454.223913,148.128605 454.32587,147.852172 C454.32559,147.853096 454.332879,147.830419 454.346244,147.788868 C453.687665,144.230323 454.093209,138.070999 455.170472,136.981435 Z" id="Leaf-Bottom" fill="#80BD59" opacity="0.393304869" transform="translate(405.423876, 223.351561) rotate(-12.000000) translate(-405.423876, -223.351561) "></path>
                    <path d="M17,333.936262 C17.2123034,334.963498 17.5388529,335.966915 18,336.936262 C17.3395005,336.078171 17.0453284,335.050935 17,333.936262 Z M128.162437,164.875504 C131.411236,161.569223 133.31436,166.692606 133.012477,169.331564 C132.656149,172.443141 131.100008,175.208759 129.291959,177.640716 C129.098153,177.898136 129.15016,177.887888 129.122937,177.513646 C129.087589,177.696053 129.01933,177.828452 128.923442,177.92191 C128.924102,179.259155 128.977475,180.625014 128.91375,181.867232 C129.534136,180.523289 130.393704,178.18786 130.733241,177.72567 C132.156283,175.78803 134.134994,174.436973 136.19932,173.479101 C139.557018,171.924154 143.821158,174.185646 141.776366,178.679893 C139.67681,183.293228 132.9639,183.168238 128.83012,182.862704 C128.381758,186.964311 127.686455,191.075413 126.782225,195.099323 C126.559571,196.090059 126.312539,197.071368 126.042347,198.042839 C127.773198,196.711883 130.072874,195.569482 130.967553,195.221474 C133.289575,194.319276 136.843508,193.400273 139.006666,195.249757 C140.801306,196.784026 140.758238,199.323787 139.141558,200.959302 C137.216494,202.906343 133.899842,202.657122 131.431551,202.32756 C131.317621,202.312335 131.15324,202.290366 130.951455,202.262222 L130.692193,202.225522 C128.763367,201.948382 124.563404,201.251563 125.823756,200.471927 C125.712429,200.507588 125.479211,200.596127 125.228116,200.719918 C125.071689,201.194996 124.908762,201.668025 124.740146,202.138594 C124.774275,202.161139 124.803123,202.184913 124.83969,202.207458 C124.799873,202.187373 124.772244,202.166467 124.737302,202.146382 C123.0483,206.849614 120.761626,211.292147 117.856153,215.407987 C118.880849,215.063669 119.936425,214.817727 120.998095,214.739435 C124.142068,214.50702 130.585222,217.291494 126.873643,221.285593 C124.625975,223.70385 121.807006,222.771192 119.084947,221.55601 L118.632282,221.35139 C118.557026,221.317026 118.481873,221.282575 118.406838,221.248104 L117.958154,221.041555 C116.766043,220.492901 115.611407,219.972622 114.552909,219.750094 C110.595517,224.726732 106.271233,229.468085 101.760457,234.033589 C102.01724,234.129506 102.237457,234.312733 102.354878,234.586139 C104.109701,233.804863 105.955942,232.652214 107.555557,232.398074 C109.863765,232.03203 114.560222,231.983662 116.178528,234.127457 C118.169006,236.763546 115.787258,238.694191 113.254771,239.046298 C109.582604,239.557037 104.916619,237.521867 101.481327,236.131884 C101.077461,236.181893 100.64678,236.041296 100.402592,235.705995 C100.326613,235.676482 100.250635,235.647379 100.176687,235.619095 C95.6130913,240.158366 90.8926622,244.531625 86.2047373,248.805278 C86.2522748,248.805278 86.2998122,248.804868 86.3493812,248.804868 C87.5508194,248.100654 88.8294552,247.538267 90.1970713,247.280438 C93.3609533,246.679929 97.0367772,246.869714 99.4534679,249.274208 C101.860814,251.668454 102.549091,255.670341 99.8041075,258.071965 C96.5457789,260.922834 92.7227598,257.864853 89.6058281,254.773756 L89.2424645,254.410299 C87.2627246,252.414343 85.599478,250.500996 84.5969961,250.262075 C79.8355303,254.557043 74.8298765,258.540484 69.7535259,262.434567 C70.3142241,262.29479 70.8867052,262.200512 71.4746257,262.175508 C76.2641263,261.968097 87.1437037,268.426945 80.9939004,273.894237 C77.3370772,277.145176 73.6641739,273.523106 70.4509995,269.749032 L70.1202616,269.358343 C69.9557321,269.163004 69.7924765,268.967878 69.6305606,268.773895 L69.3085345,268.387729 C68.2411984,267.10743 67.2353551,265.905508 66.3105137,265.057539 C61.5291391,268.684364 56.724199,272.283316 52.0407434,276.038851 C54.5155355,275.516225 56.8794067,275.544508 59.4545556,276.476628 C62.1190912,277.442361 66.3808041,279.726343 64.4776805,283.308898 C62.5420527,286.95212 57.3844415,284.976385 54.7138114,283.646659 C53.2572148,282.92154 50.3830269,280.581401 47.8074717,279.52385 C40.3128052,285.921623 33.7380089,293.056812 28.5966498,301.599199 C25.3868556,306.932862 22.8624946,312.678888 20.9865933,318.622488 C19.7892181,322.416144 17.4883238,328.772516 17.6203723,333.799162 C16.2690083,323.680286 20.2853142,311.824239 24.4027895,303.060095 C28.1887216,295.000983 33.5888957,288.035495 39.8118336,281.837345 C39.427186,280.433447 38.0049046,278.785633 36.4497947,277.068012 L36.1372698,276.723609 C35.9803899,276.550994 35.8227849,276.377796 35.6653597,276.204191 L35.1945279,275.682325 C32.1233616,272.255469 29.4716675,268.738197 34.1219653,266.4549 C38.1813393,264.470967 42.0322798,268.32037 42.6937413,272.217322 C43.1479881,274.895221 42.0720975,278.173218 40.9803612,280.691665 C42.934679,278.80529 44.9588809,276.986548 47.03834,275.234621 C49.9121216,272.813321 52.8476613,270.469904 55.8083918,268.159278 C51.3707497,263.508104 47.6104147,250.681406 53.975965,248.951204 C63.3753803,246.404884 58.0296507,263.349471 57.2170446,266.535241 C57.0333956,266.53647 56.8936273,266.473345 56.7948957,266.348735 C56.831463,266.646324 56.8753437,266.964819 56.9318198,267.286594 C62.5973099,262.88874 68.3383723,258.587213 73.9087874,254.072127 C73.4480397,253.690917 72.7569182,252.290687 72.1958137,251.535235 C70.929367,249.832086 69.7250847,248.059254 68.879568,246.100326 C67.5440498,243.004735 66.355207,238.116637 70.405236,236.550396 C74.8099676,234.843558 76.5712915,240.39406 76.4319295,243.642545 C76.3755211,244.953108 76.1070281,246.214156 75.8073469,247.47109 L75.5470586,248.548512 C75.4173146,249.087779 75.2913352,249.628672 75.1833602,250.174766 C75.1359655,250.414127 75.1324082,250.95386 75.110374,251.493482 L75.0986655,251.741436 C75.04926,252.64255 74.9194828,253.410953 74.4073213,252.590326 C74.4256049,253.08344 74.4134158,253.439236 74.3784738,253.690097 C75.3787919,252.875209 76.372203,252.050484 77.3599257,251.219199 C77.3221395,251.105656 77.2961361,250.982685 77.2961361,250.841678 C77.2961361,249.871027 78.2850778,249.549253 78.950196,249.868568 C80.2548351,248.747482 81.5480978,247.61082 82.820639,246.449153 C85.5176788,243.988093 88.2557552,241.45489 90.9787984,238.863891 C90.4441036,238.351102 90.7016997,237.693616 90.2047911,237.152954 C89.9843039,236.913206 89.6613281,236.713375 89.3187249,236.520751 L88.8004572,236.233131 C88.5443207,236.087934 88.3004486,235.93759 88.1037979,235.7683 C86.6199791,234.490221 85.4286984,232.679268 84.5909015,230.914634 C83.2078459,227.998991 81.5395654,221.947587 86.0824401,220.831829 C90.765083,219.679591 92.8063496,225.527683 92.9160515,229.122536 C92.9375855,229.818962 92.094913,236.039656 91.5809396,238.287566 C96.6207229,233.471201 101.591841,228.460542 106.126183,223.33511 C104.836577,223.255178 101.31718,220.40676 100.615495,219.64311 C98.9033336,217.780508 96.238798,213.723694 99.509944,211.823382 C102.418261,210.138269 105.746696,212.97603 106.814867,215.619908 C106.99039,216.055225 107.481204,220.046864 107.443012,221.824206 C109.32257,219.648438 111.12168,217.455045 112.804181,215.248125 C113.925983,213.781081 114.981559,212.270177 115.976189,210.722791 C115.763286,210.586294 115.56826,210.357567 115.387456,210.076374 C110.738129,209.02948 105.140898,201.361007 110.784448,199.092602 C113.47133,198.014146 116.185435,200.675239 117.363307,202.798948 C117.541692,203.120099 117.760919,204.371479 117.96816,205.683458 L118.04072,206.14761 C118.088647,206.456834 118.135566,206.763748 118.180789,207.057025 C121.078543,201.909868 123.374155,196.420031 125.198456,190.763364 C124.795403,190.639983 124.465891,190.308372 124.44842,189.766889 C122.238944,188.342475 120.497123,187.161543 119.038089,184.569314 C118.131626,182.959213 116.538512,179.305744 119.485835,178.593742 C123.321336,177.66736 125.39145,183.588005 125.551533,186.458969 C125.570223,186.79222 125.518623,187.755903 125.460115,188.638425 C125.592163,188.627358 125.724618,188.636376 125.853416,188.666298 C126.906148,185.159575 127.7862,181.597924 128.524859,178.022746 C126.498219,177.247619 126.709091,166.351976 128.162437,164.875504 Z" id="Leaf-Bottom" fill="#80BD59" opacity="0.393304869" transform="translate(79.654707, 250.367712) scale(-1, 1) rotate(-12.000000) translate(-79.654707, -250.367712) "></path>
                </g>
                <g id="Group-42" opacity="0.71634266" transform="translate(199.500000, 194.000000) rotate(-20.000000) translate(-199.500000, -194.000000) translate(114.000000, 38.000000)">
                    <path d="M108.716018,67.9811559 C111.279439,64.3260304 116.036414,55.0432115 119.64438,53.7371254 C121.968244,52.8958852 121.290689,61.5978704 121.319387,63.257148 C121.431147,69.6766319 120.806187,76.0554113 120.034413,82.4209978 C118.643984,93.9013071 114.097405,104.125395 107.861434,113.89632 C104.652536,118.924055 100.888752,124.012753 95.6757365,127.149819 C93.2761803,128.594502 90.3889115,128.836389 88.0191991,130.081101 C85.2593231,131.530107 86.7623461,130.358737 85.518564,133.234667 C83.7913092,137.227511 83.2388347,142.378706 82.4396611,146.639212 C78.7702476,166.197252 69.8866663,269.586153 71.4267386,289.480418 C71.5635217,291.243758 69.1047702,291.665434 68.982028,289.512764 C68.3296316,278.098706 73.9749667,199.056529 76.8231339,173.207465 C79.6713012,147.3584 82.5535164,124.522045 85.4435083,115.579078 C88.9494991,104.729358 95.2815192,91.6817323 100.552484,81.563899 C103.000807,76.8633821 105.669528,72.3247954 108.716018,67.9811559 Z" id="Leaf" fill="#C3DAFB"></path>
                    <path d="M127.74262,194.759437 C134.412992,189.862315 141.633168,199.104644 135.597169,204.002518 C132.260326,206.709766 128.771851,205.746724 126.807934,203.490631 C125.53304,205.044662 124.339781,206.669551 123.193215,208.042018 C119.699919,212.224185 116.398228,216.506172 113.242767,220.888001 C106.687786,229.991144 101.070285,239.60842 95.196788,249.049837 C89.4004147,258.368001 83.6503896,267.733893 78.3966348,277.288141 C73.9459587,285.382906 68.0137729,294.905747 66.49,303.78 C68.8019675,284.959245 77.5748365,266.869167 88.0217934,250.27723 C98.3837428,233.821594 110.275284,215.850213 126.319426,202.863785 C124.686525,200.462496 124.641195,197.034837 127.74262,194.759437 Z" id="Leaf" fill="#2E428C" opacity="0.257562682"></path>
                    <path d="M1.16704993,148.858769 C4.89978878,149.58877 10.999042,158.032807 14.0759319,161.25005 C17.7326088,165.073293 21.0501222,169.148326 24.177269,173.417947 C30.9093758,182.608128 36.930062,192.379198 42.0496933,202.568714 C50.3960329,219.179663 57.0825361,236.231378 61.9352177,254.319771 C64.90572,265.392331 66.8289973,276.868608 67.968835,288.264743 C68.1840981,290.413985 70.4374321,306.98424 67.1905158,307.430854 C64.270257,307.833002 65.1722159,294.84872 65.0313345,293.082538 C63.4388238,273.156698 58.6681129,253.769024 52.0320979,234.987923 C50.5866787,230.896638 49.2438331,225.885544 46.9322668,222.203783 C45.2676152,219.551869 46.9203291,220.476677 43.9949228,219.473055 C41.4829952,218.610771 38.6210113,218.821475 36.0487407,217.765967 C30.4607369,215.474364 25.986349,211.025679 22.0642416,206.550825 C14.4422123,197.854338 8.40214182,188.446101 5.25370825,177.302838 C3.50717497,171.124263 1.90220005,164.909748 1.01153751,158.540118 C0.781138619,156.893756 -1.23717899,148.38858 1.16704993,148.858769 Z" id="Leaf" fill="#C3DAFB"></path>
                    <path d="M15.8974314,8.36677944 C29.9578857,32.751151 41.512191,59.5367438 48.9728892,86.6664985 C53.4931819,103.104123 56.6543582,119.971541 59.7952386,136.717115 C64.6583254,162.645549 69.2582476,188.571982 70.5667077,214.960981 C71.8831026,241.502912 74.4861844,272.115912 65.7951089,297.68 C70.1363447,271.725504 66.0031936,244.098965 65.2713803,217.98339 C64.9216643,205.516238 63.9082522,193.170973 62.5788451,180.776672 C61.2887879,168.753534 59.1811993,156.787648 57.2185595,144.859012 C56.2625213,139.04955 55.2584658,133.24883 54.2361978,127.451282 C53.9310158,125.721577 53.8021004,120.588937 52.7048775,119.407299 C51.6005485,118.217881 45.9661159,117.732996 44.1971651,116.860272 C40.6351057,115.102498 37.2845081,112.605709 34.3191422,109.967531 C28.6344969,104.910211 23.6891416,98.3022083 19.7858716,91.7882199 C10.754717,76.7158754 7.14406586,58.3221269 7.32656277,40.8664343 C7.3616272,37.4773276 12.8120728,0.982070303 10.6230862,0.479500422 C10.7548817,0.32514792 10.8795502,0.16577432 10.9971022,0 C12.6543526,2.77475856 14.2805954,5.56832129 15.8974314,8.36677944 Z" id="Leaf" fill="#ADCEFA"></path>
                    <path d="M167.656159,96.3112454 C167.873107,95.9983257 169.285093,93.822063 168.574061,93.9611463 C170.021748,93.6779678 166.582858,96.3613325 170.19,94.7148321 C168.477304,96.3323635 169.465756,98.4335621 169.488616,100.610582 C169.525911,104.145095 168.934535,107.650624 168.26884,111.1093 C167.216937,116.576412 165.649886,121.892042 163.37534,126.977112 C158.417897,138.058637 149.999903,148.726629 140.00618,155.654718 C135.072556,159.075393 130.237384,160.240007 124.610583,161.814757 C121.056456,162.809629 120.774609,164.648125 118.88807,168.097006 C114.960438,175.280288 111.102753,182.43773 107.63893,189.863376 C103.502896,198.730379 99.4878045,207.607156 95.7004079,216.630251 C82.9413474,247.024066 72.5566558,278.512514 67.1029331,311.1 C66.969403,291.896294 71.4118668,272.11812 77.0156053,253.813794 C81.0975916,240.477677 86.4115712,227.622064 92.0794494,214.896594 C93.452891,211.813699 95.5342171,207.848051 96.1174731,204.444401 C96.5258692,202.059635 95.2772818,199.766191 94.7056094,197.254024 C92.4769143,187.471185 92.6364294,176.511252 94.5935551,166.676104 C96.7514363,155.830988 102.991929,150.797401 113.548528,149.26126 C117.409288,148.699356 122.316413,148.905298 125.856539,147.259142 C129.713454,145.466531 131.30449,139.574245 133.497673,135.791859 C139.388487,125.631574 146.387628,115.887241 154.424575,107.326357 C156.649929,104.95574 159.04309,102.768685 161.581967,100.741553 C163.182981,99.4625451 166.565078,97.8868096 167.656159,96.3112454 Z" id="Leaf" fill="#C3DAFB"></path>
                </g>
                <g id="rocket-(2)" transform="translate(171.000000, 153.000000)" fill-rule="nonzero">
                    <path d="M28.787388,230.902879 L28.787388,17.8748136 C28.787388,8.3357232 36.5207304,0.6023808 46.0598208,0.6023808 L310.905882,0.6023808 C320.444972,0.6023808 328.178315,8.3357232 328.178315,17.8748136 L328.178315,230.902879" id="Path" fill="#A3A3A3"></path>
                    <path d="M310.905882,207.872969 L299.39023,207.872969 L292.591135,201.469884 L66.234,201.469884 L57.5754732,207.872969 L46.060518,207.872969 C42.8805888,207.872969 40.3030404,205.29542 40.3030404,202.115491 L40.3030404,17.8748136 C40.3030404,14.6948844 42.8805888,12.117336 46.060518,12.117336 L310.906579,12.117336 C314.086508,12.117336 316.664057,14.6948844 316.664057,17.8748136 L316.664057,202.115491 C316.664057,205.29542 314.085811,207.872969 310.905882,207.872969 Z" id="Path" fill="#FFFFFF"></path>
                    <path d="M293.633449,196.358014 L63.3329508,196.358014 C56.9730924,196.358014 51.8179956,191.20222 51.8179956,184.843058 L51.8179956,35.1472464 C51.8179956,28.787388 56.9737896,23.6322912 63.3329508,23.6322912 L293.634146,23.6322912 C299.994005,23.6322912 305.149102,28.7880852 305.149102,35.1472464 L305.149102,184.843058 C305.149102,191.202917 299.993308,196.358014 293.633449,196.358014 Z" id="Path" fill="#F4F6F7"></path>
                    <path d="M5.7574776,225.145402 L5.7574776,237.724284 L345.451445,237.724284 L356.9664,230.902879 L356.9664,225.145402 C356.9664,221.965472 354.388852,219.387924 351.208922,219.387924 L11.5149552,219.387924 C8.335026,219.387924 5.7574776,221.96617 5.7574776,225.145402 L5.7574776,225.145402 Z" id="Path" fill="#DAD8DB"></path>
                    <path d="M11.5149552,219.387924 L5.7574776,219.387924 C2.5775484,219.387924 0,221.965472 0,225.145402 L0,230.902879 C0,237.26204 5.155794,242.417834 11.5149552,242.417834 L345.451445,242.417834 C351.810606,242.417834 356.9664,237.26204 356.9664,230.902879 L23.0299104,230.902879 C16.6707492,230.902879 11.5149552,225.747782 11.5149552,219.387924 L11.5149552,219.387924 Z" id="Path" fill="#C8C5C9"></path>
                    <line x1="328.179012" y1="230.902879" x2="28.787388" y2="230.902879" id="Path" fill="#6F6571"></line>
                </g>
                <g id="Group-51" transform="translate(279.555066, 46.814402)">
                    <path d="M64.7696725,0.291004361 C26.9972932,3.32303738 2.88959656,34.7754627 0.144309802,62.2191586 C-0.199140978,65.6525189 -1.03862068,86.0799532 12.9830281,112.246355 C16.2244527,118.295317 24.5097599,126.859641 37.8389497,137.939329 C44.7670276,144.633094 49.0333205,149.957324 50.6378285,153.912019 C52.2423365,157.866714 52.9953593,165.047514 52.8968969,175.454417 L87.0016464,175.454417 L88.3482836,153.912019 C87.8890554,149.373429 93.4729533,143.407942 105.099977,136.015556 C122.540513,124.926978 155.4151,96.3786607 134.338752,39.3872686 C120.312287,1.45907507 82.7748371,-1.15429124 64.7696725,0.291004361 Z" id="Path-5" fill="#F8D874"></path>
                    <path d="M51.765393,176.45219 L87.8229711,176.45219 C89.5924307,177.30609 90.254143,178.958636 89.8081078,181.409827 C89.3620726,183.861019 87.640126,185.351806 84.642268,185.88219 C84.5436191,188.556463 84.135888,190.348879 83.4190746,191.259437 C82.7022612,192.169995 81.281008,192.700913 79.1553148,192.85219 L77.7877077,199 L61.0953249,198.467269 L61.0953249,192.85219 C59.2882676,192.725209 57.8419133,192.194291 56.7562621,191.259437 C55.6706109,190.324582 55.3063889,188.532167 55.6635961,185.88219 C52.8763844,184.352463 51.2646786,183.060002 50.8284789,182.004808 C50.3922791,180.949613 50.7045838,179.09874 51.765393,176.45219 Z" id="Path-6" fill="#E2C567" opacity="0.812727108"></path>
                    <path d="M77.1848591,50.0499379 C80.8467428,50.9261705 82.6776846,53.820194 82.6776846,58.7320082 C82.068955,65.2009681 81.1948578,70.0010288 80.055393,73.1321905 C78.9159281,76.2633521 76.4057458,80.763031 72.5248461,86.6312269 C74.3440141,105.397075 75.4373474,119.434415 75.8048461,128.743245 C76.1658974,137.888763 76.6162371,151.231276 77.155865,168.770785 L77.1848591,169.714417 L74.122958,169.714417 C73.7911334,151.526371 73.2584294,137.869314 72.5248461,128.743245 C71.7912627,119.617176 70.1703518,106.482407 67.6621131,89.3389353 C67.3620191,102.867606 67.3620191,114.64176 67.6621131,124.661396 C67.9573669,134.519426 68.738884,149.215566 70.0066643,168.749816 L70.0694062,169.714417 L66.6577566,169.714417 C64.7697145,149.556648 63.7180325,134.538974 63.5027107,124.661396 C63.2873888,114.783818 63.2873888,103.009665 63.5027107,89.3389353 C57.6040081,84.6872568 53.8656053,80.7048042 52.2875023,77.3915773 C49.9203479,72.421737 48.1127627,57.4614353 52.2875023,54.1632842 C55.070662,51.9645169 57.2740561,51.7253502 58.8976846,53.4457842 C61.9650538,58.2406361 64.0237734,62.4066561 65.0738435,65.9438441 C66.0939115,69.3799697 66.9372168,74.8335367 67.6037593,82.3045452 L67.6621131,82.9689874 L68.7542341,56.4353676 C70.7127671,51.3021818 73.5229754,49.1737052 77.1848591,50.0499379 Z M55.1815258,58.6124249 C52.856057,60.3239613 54.4573391,71.7611366 56.3298461,75.1368129 C57.578184,77.3872637 60.0474375,80.1124113 63.7376065,83.3122556 C63.4928531,78.380937 63.0785822,74.6342595 62.494794,72.072223 C61.9110057,69.5101866 60.617833,65.7635091 58.6152758,60.8321905 C57.8764216,58.2113224 56.7318383,57.4714005 55.1815258,58.6124249 Z M75.8048461,58.0932966 C74.2463478,57.5689038 73.3914693,58.4818684 73.2402107,60.8321905 L73.2402107,60.8321905 L71.6450544,78.1205238 L78.1425935,63.9611097 C78.1425935,60.5736271 77.3633443,58.6176894 75.8048461,58.0932966 Z" id="Combined-Shape" fill="#FDF1D2"></path>
                </g>
                <path d="M341.831055,248.543457 C345.143212,248.543457 347.743029,248.543457 349.630507,248.543457 C351.517986,248.543457 354.192257,248.543457 357.65332,248.543457 L366.542969,301.604492 C376.571615,280.411784 388.337891,273.02474 401.841797,279.443359 C415.345703,285.861979 419.498698,299.704102 414.300781,320.969727 C418.561522,317.695486 423.097329,317.695486 427.908203,320.969727 C432.719077,324.243967 434.697593,328.677561 433.84375,334.270508 C442.354199,327.930606 452.214551,327.930606 463.424805,334.270508 C474.635059,340.61041 480.289681,349.384824 480.388672,360.59375 L237.873047,360.59375 C229.747396,355.067708 227.836914,348.232422 232.141602,340.087891 C236.446289,331.943359 244.869248,330.004232 257.410479,334.270508 C251.526149,319.549154 255.420898,308.048503 269.094727,299.768555 C282.768555,291.488607 296.559245,294.096354 310.466797,307.591797 C308.973958,297.939453 311.941406,292.613607 319.369141,291.614258 C326.796875,290.614909 332.324219,293.944987 335.951172,301.604492 L341.831055,248.543457 Z" id="Path-7" fill="#8E9EC6" opacity="0.758153161"></path>
                <path d="M349,254.849662 L352.361939,254.849662 C353.946548,278.762164 355.159235,293.158191 356,298.037743 C356.840765,302.917294 358.968607,307.537304 362.383527,311.897771 C365.326926,305.931009 369.441054,303.728959 374.725911,305.291621 C380.010769,306.854284 382.158364,309.920993 381.168699,314.49175 C389.582165,310.00749 397.148979,310.00749 403.869141,314.49175 C410.589302,318.976011 413.073424,325.682846 411.321505,334.612254 C417.367585,329.95372 424.485677,330.550407 432.675781,336.402316 C440.865885,342.254225 444.551193,348.40334 443.731703,354.849662 L268.326407,354.849662 C262.007674,344.385237 262.698351,335.534658 270.398437,328.297925 C278.098524,321.061192 286.132378,320.448136 294.5,326.458756 C294.726997,322.840576 296.678819,320.385128 300.355469,319.092413 C304.032118,317.799698 307.293444,318.960501 310.139446,322.574822 C310.235718,316.502667 313.507595,312.557064 319.955078,310.738012 C326.402561,308.91896 331.90366,310.170206 336.458376,314.49175 C339.806509,309.55562 342.110965,304.468694 343.371745,299.230972 C344.632524,293.99325 346.508609,279.19948 349,254.849662 Z" id="Path-8" fill="#D5E9F2"></path>
                <path d="M389.665787,337.166843 C387.3344,337.166843 385.103965,337.521045 383.018449,338.142866 C381.064488,333.225513 375.708066,329.666843 369.33263,329.666843 C365.777159,329.666843 362.563235,330.809674 360.038738,332.635176 C360.381693,331.691546 360.618419,330.707651 360.618419,329.666843 C360.618419,324.144016 355.416415,319.666843 348.999472,319.666843 C342.58253,319.666843 337.380525,324.144016 337.380525,329.666843 C337.380525,330.707651 337.617252,331.691546 337.960206,332.635176 C335.435709,330.809674 332.221434,329.666843 328.666315,329.666843 C322.290527,329.666843 316.934457,333.225513 314.980495,338.142866 C312.89498,337.521347 310.664193,337.166843 308.333157,337.166843 C297.103596,337.166843 288,345.001972 288,354.666843 L410,354.666843 C410,345.001669 400.895349,337.166843 389.665787,337.166843 L389.665787,337.166843 Z" id="Path" fill="#FFFFFF" fill-rule="nonzero" opacity="0.667650799"></path>
                <g id="ðŸ˜Human/Standing" opacity="0.817927871" transform="translate(568.802754, 369.469558) scale(-1, 1) rotate(-5.000000) translate(-568.802754, -369.469558) translate(476.302754, 249.969558)">
                    <g id="Head/Front" transform="translate(91.871267, 0.560852)">
                        <g id="Head" transform="translate(0.114800, 1.898498)" fill="#E1B993">
                            <path d="M21.9781933,5.273667 C25.3171632,11.5099203 24.9204068,27.328694 20.6050857,28.4432864 C18.8840431,28.8878098 15.2175995,27.7988179 11.4861212,25.5449878 L13.8288,42.1480751 L0,42.1480751 L4.76025894,19.9130504 C2.10543571,16.7902947 0.308650233,12.9633883 0.608914524,8.67525972 C1.47410987,-3.68075132 18.6392234,-0.962586318 21.9781933,5.273667 Z"></path>
                        </g>
                        <path d="M14.5958921,1.10205567 C18.4759668,1.43554072 21.9406874,2.62108496 22.9226171,3.32515048 C22.9226171,7.00601942 22.2108428,8.09812243 16.1313194,8.0018576 C14.6378262,8.79220252 13.4896244,10.153044 12.29379,11.9371252 C12.8221446,19.3266436 14.222435,23.0214349 16.493741,23.0214349 C19.9007001,23.0214349 22.7912628,20.854187 24.2861546,20.854187 C25.37588,20.854187 25.1325778,22.2206485 24.4102508,23.2337826 C23.8143078,24.0696508 20.9121152,24.8753279 20.9121152,26.1712043 C20.9121152,26.8689839 21.5769416,26.9003564 22.1906276,26.9006651 L22.4484174,26.9007479 C22.8658909,26.9038904 23.205088,26.9374919 23.205088,27.2330915 C23.205088,28.5043819 23.6080746,30.8946351 21.4060953,30.8946351 C19.1776189,30.8946351 12.7881821,30.0808853 11.6932057,26.7667119 C10.9866752,24.6282506 10.5298047,20.1973975 10.3225941,13.4741525 C10.1883105,13.4542573 10.0502275,13.4459155 9.9102,13.4459155 C8.00084116,13.4459155 6.453,14.996902 6.453,16.9101408 C6.453,17.8814047 6.85189857,18.7593115 7.49449015,19.3883402 C6.69454094,20.5197575 5.79802737,21.7016744 4.77071857,22.921259 C0.911341973,20.6010848 -1.95253494,13.8090652 1.82063211,7.28437404 C2.86354736,4.08802928 5.22456153,2.38074139 8.0129761,1.58799284 C10.2717356,0.64122654 12.6165418,0.534477802 14.5958921,1.10205567 Z" id="Hair" fill="#525168"></path>
                    </g>
                    <g id="Group" transform="translate(5.762413, 93.568079)" opacity="0.553438408">
                        <g id="Bottom/Skinny-Jeans-1" transform="translate(86.430000, 68.995822) rotate(5.000000) translate(-86.430000, -68.995822) ">
                            <polygon id="Leg" fill="#191847" points="73.7536 5.7434537e-14 94.6437092 73.457114 109.885349 127.598967 121.002 127.598967 104.805579 5.7434537e-14"></polygon>
                            <path d="M68.1669619,0 C67.6837757,37.8606484 66.0361198,58.5108749 65.528794,61.9506794 C65.0214683,65.3904839 57.3504374,87.2732465 42.5157014,127.598967 L54.0317991,127.598967 C72.917553,88.9133285 83.460064,67.0305659 85.6593321,61.9506794 C87.8586002,56.8707929 94.6457562,36.2205664 104.8684,0 L68.1669619,0 Z" id="Leg" fill="#2F3676"></path>
                            <g id="Left-Shoe" transform="translate(41.486400, 114.896808)" fill="#191847">
                                <path d="M0,23.0948357 L0.5762,10.9700469 L12.6764,10.9700469 C18.413971,15.0116432 25.904571,18.2834116 35.1482,20.7853521 L35.1482,23.0948357 L13.2526,23.0948357 L5.762,21.9400939 L5.762,23.0948357 L0,23.0948357 Z" id="Shoe"></path>
                            </g>
                            <g id="Left-Shoe" transform="translate(108.325600, 114.896808)" fill="#191847">
                                <path d="M0,23.0948357 L0.5762,10.9700469 L12.6764,10.9700469 C18.413971,15.0116432 25.904571,18.2834116 35.1482,20.7853521 L35.1482,23.0948357 L13.2526,23.0948357 L5.762,21.9400939 L5.762,23.0948357 L0,23.0948357 Z" id="Shoe"></path>
                            </g>
                        </g>
                    </g>
                    <g id="Body/Long-Sleeve-1" transform="translate(28.248717, 31.483058)">
                        <path d="M28.9230064,45.7669828 L39.1285331,47.2521051 C28.1738048,71.06838 22.3008451,83.6638055 21.509654,85.0383817 C19.729474,88.131178 21.8230852,93.5180954 22.6415299,96.3698007 C18.5053368,97.5666334 19.8262969,91.1631186 14.5963441,92.7602777 C9.82268568,94.2180906 5.88339713,97.5228791 1.15552788,93.5931208 C0.574264138,93.1099801 0.0846206856,91.5301209 1.93214433,90.6096092 C6.53499947,88.3162787 13.293055,84.1197769 14.3435723,82.5731428 C15.7761402,80.4640308 20.6359516,68.1953108 28.9230064,45.7669828 L28.9230064,45.7669828 Z M107.684782,52.1608472 L125.078313,66.9367215 C129.957315,68.6297389 133.995214,70.5937303 137.19201,72.8286956 C137.241204,72.8803513 137.2909,72.935337 137.339849,72.9928366 L137.43638,73.1109459 C138.068352,73.917463 138.419525,75.0741777 135.529767,74.6467216 C132.278789,74.1658335 128.837664,73.806517 128.308709,74.8920349 C127.779754,75.9775529 129.664477,77.4520974 128.64763,78.8955041 C127.969731,79.8577752 125.274195,77.1369393 120.561021,70.7329965 L102.931031,61.9164625 L107.684782,52.1608472 Z" id="Skin" fill="#E1B993"></path>
                        <path d="M68.8549371,6.31355322 L74.9719962,3.67486979 C83.9871476,21.5400282 96.7214698,39.0158784 114.612168,53.410385 C115.508942,54.1319117 117.66083,51.8948766 118.586966,52.6027212 C120.53394,54.0907907 120.686283,58.094241 122.767642,59.5185955 L118.298382,69.0823239 C115.952347,67.9607188 110.729627,68.9992967 108.4327,67.9261424 C107.354682,67.4224784 109.177624,64.7956511 108.115145,64.296468 C92.450549,56.9367927 78.6386999,49.8491873 71.5130363,36.6957659 C68.6136443,31.3437136 69.2400442,12.9826265 68.8549371,6.31355322 Z" id="Coat-Back" fill="#C5CFD6" transform="translate(95.811290, 36.378597) rotate(5.000000) translate(-95.811290, -36.378597) "></path>
                        <path d="M49.858,69.7042445 C66.3829979,71.7886655 79.8464211,71.7886655 90.2482695,69.7042445 C91.5369888,69.4459987 90.8459115,67.4682245 90.2482695,65.8790061 C80.9414285,41.1307396 77.8384459,19.1726417 77.8384459,1.98305324 C76.1307578,2.9173851 73.1421424,3.0574064 68.8726,2.40311716 C57.3982694,20.1175408 52.1239283,40.4428151 49.858,69.7042445 Z" id="Shirt" fill="#E26640" opacity="0.716819586"></path>
                        <path d="M66.0369019,0.700531452 L66.0192711,0.999531452 L70.8019623,1 C71.5212801,4.9343638 77.2425171,29.8294959 77.3568699,44.6176001 L77.358608,45.0625988 C77.358608,47.1465469 85.371952,52.0806983 85.371952,52.0806983 C85.371952,52.0806983 90.9779989,65.6655399 90.9779989,69.7212321 L90.9779989,69.7212321 L47.8345477,76.058216 C48.1509312,69.9101145 50.5603362,54.910628 53.9287389,39.4030506 C42.2546843,49.0296757 33.894548,60.2433183 28.8473639,73.0434479 C28.7407693,73.3137819 29.2077993,73.6220915 29.7272172,73.9350445 L30.0409845,74.1231068 C30.5605081,74.4365837 31.0281722,74.7480375 30.92274,75.0241357 C30.0479956,77.3148542 26.4163736,79.51829 25.5780029,81.9893664 L25.5780029,81.9893664 L14.5903083,79.1631133 C14.8693611,77.9582126 14.7445855,76.2928276 14.5953842,74.5990663 L14.5138597,73.6749795 C14.3683186,71.985184 14.2673339,70.3455771 14.5903083,69.1882668 C14.79824,68.4431878 16.9894802,69.9391704 17.2234878,69.1882668 C21.252743,56.258847 35.8731085,35.3095432 61.0845844,6.34035541 C60.2438171,5.86246484 59.3691892,5.3831393 59.4829033,5.0816288 C60.1382546,3.34397912 64.491559,2.40478488 65.1454979,1 L65.1454979,1 L65.7712711,0.999531452 L66.0369019,0.700531452 Z" id="Coat-Front" fill="#DDE3E9"></path>
                    </g>
                </g>
                <g id="humaaan-11" opacity="0.827807049" transform="translate(0.000000, 242.000000)">
                    <g id="Head/Front" transform="translate(54.056017, 45.159119) rotate(-15.000000) translate(-54.056017, -45.159119) translate(7.056017, 13.659119)">
                        <g id="Head" transform="translate(69.351176, 21.360000)" fill="#E1B993">
                            <path d="M21.4388016,5.11500244 C24.6958261,11.1636306 24.3088069,26.5064777 20.0993929,27.5875362 C18.4208507,28.0186182 14.8452446,26.9627873 11.2059331,24.7774608 L13.4894118,40.88 L0,40.88 L4.64397542,19.314578 C2.05400901,16.2856579 0.301054813,12.5736602 0.593970463,8.41425418 C1.43793207,-3.57001152 18.1817771,-0.93362576 21.4388016,5.11500244 Z"></path>
                        </g>
                        <path d="M83.1013554,19.5037438 C81.32349,19.2132612 76.536509,19.0135463 75.6537042,19.0136753 C75.0895502,19.0136753 74.4781792,19.142091 74.1440473,18.6259783 C73.8704204,18.203341 73.97066,17.4885449 73.8889976,16.9980896 C73.7941764,16.4283414 73.6594916,15.8659423 73.5232587,15.3049615 C73.1355883,13.7086609 72.5493739,12.1899771 71.7291382,10.764124 C70.1900674,8.0890538 67.9353867,5.99365952 65.0889444,4.77435459 C61.9456535,3.42805217 58.3887616,3.11977702 55.0077082,3.39285387 C51.3895373,3.68501259 48.1142708,4.87505007 44.6981271,5.99494884 C41.4427279,7.06211463 38.0330346,7.48217336 34.6282437,6.96103235 C31.19778,6.4360234 28.6057423,4.58353602 25.7122118,2.82529754 C22.7500488,1.02528526 19.3648671,-0.151988008 15.8630618,0.118639151 C12.5942458,0.371344836 9.58151149,1.71610009 6.87852649,3.51250228 C4.34957388,5.19325295 2.26286224,7.21541415 1.08475709,10.0614475 C-0.182621902,13.1229252 -0.181460826,16.4833951 1.90267065,19.1890221 C4.92353247,23.1108596 10.5316587,24.1250345 15.1973782,24.0242101 C17.896106,23.966062 20.5465845,23.4752199 23.0945014,22.5823695 C26.4924549,21.3915584 29.4288162,19.3732651 32.6077133,17.7357065 C34.099567,16.9672749 35.641605,16.3361554 37.2579519,15.881543 C38.8264366,15.4402106 40.3713127,15.2377882 41.7914377,16.1818244 C43.2937411,17.1805276 44.6399443,18.1615672 46.3585948,18.7867559 C48.0073228,19.3865451 49.7537101,19.7220248 51.5102892,19.708487 C54.927981,19.6821849 58.2970366,18.6212079 61.616424,17.9105376 C64.3232792,17.3311196 67.2195189,16.7536355 69.9791386,17.3106194 C71.130668,17.5430829 72.8126801,18.0229658 73.2286034,19.2153241 C66.228476,20.4793682 63.4791834,29.1048837 65.4526256,35.4368372 C66.5177193,38.8544237 72.9201442,42.8495462 75.4094912,41.0528694 C76.9865641,39.9146229 76.0291188,38.4203114 75.4094912,37.4338568 C74.2228715,35.5447528 73.8168819,33.1181336 76.0126057,31.8029037 C77.9065787,30.6685646 79.8979609,33.3623189 79.9356313,33.3593534 C80.4561804,33.3184822 84.9541769,30.7839856 88.0532145,27.0855122 C91.1104267,27.2660767 91.5742501,25.2576137 90.8442477,23.6150685 C90.1142453,21.9725232 85.5578053,19.9053653 83.1013554,19.5037438 Z" id="hair" fill="#6F6E8D"></path>
                    </g>
                    <g id="Bottom/Skinny-Jeans-1" transform="translate(51.850000, 119.210000)">
                        <polygon id="Leg" fill="#B28B67" points="63.699 0 99.536983 61.4897211 126.405159 113.474097 132.192326 113.474097 87.1743196 2.51963111e-13"></polygon>
                        <g id="Right-Shoe" transform="translate(121.575000, 98.500837)" fill="#D9D9D9">
                            <path d="M0.944431763,13.5904503 C0.636343921,14.5700184 0.4823,15.3370801 0.4823,15.8916354 C0.4823,16.7842243 0.627189771,18.0867336 0.916969313,19.7991632 C1.92591128,19.7991632 10.9934426,19.7991632 28.1195633,19.7991632 C28.8264623,17.4007456 28.4183992,16.1059172 26.8953741,15.9146778 C25.3723489,15.7234385 24.107146,15.5507646 23.0997654,15.3966563 L10.9077532,9.81851012 C10.4311323,9.60044432 9.86797751,9.81004462 9.64991171,10.2866655 C9.64370752,10.3002258 9.63782381,10.3139305 9.63226547,10.3277681 L9.00126767,11.8986511 L9.00126767,11.8986511 C7.59134471,12.5737814 6.44563592,12.9113465 5.56414131,12.9113465 C5.01984278,12.9113465 4.31793613,12.7398904 3.45842135,12.3969783 L3.45842769,12.3969624 C2.48477122,12.0085124 1.38056568,12.4829159 0.992115588,13.4565723 C0.974555314,13.5005874 0.95864956,13.5452447 0.944431763,13.5904503 Z" id="shoe"></path>
                        </g>
                        <path d="M116.466576,113.474097 L136.28515,104.654239 C127.274397,87.6729014 119.220851,70.1741819 112.124512,52.1580804 C105.028173,34.1419789 97.4069691,16.7559521 89.2609,0 L57.7397365,0 C66.7964136,21.19551 76.3977058,40.4543517 86.5436132,57.7765249 C96.6895205,75.0986982 106.663842,93.6645557 116.466576,113.474097 Z" id="Pant" fill="#E48C71"></path>
                        <path d="M61.3437497,0 C57.9613172,21.6079102 51.437531,49.2145168 50.8218615,50.0664649 C50.4114152,50.6344303 35.6352417,55.7159337 6.49334122,65.310975 L7.74343911,70.5483476 C42.4950871,65.4024649 60.8062419,61.4100774 62.6769035,58.5711851 C65.4828959,54.3128467 79.4935946,20.6718791 84.9202,0 L61.3437497,0 Z" id="Leg" fill="#B28B67"></path>
                        <path d="M10.9681613,61.3764391 L14.3094076,81.1243642 C26.7484145,78.5450592 36.904122,75.0839763 45.7067706,71.9198802 C55.8970857,68.2569899 63.5731622,67.2165914 66.7171226,64.1472921 C72.5769144,58.4266556 79.2553474,37.0442249 86.7524216,-5.68434189e-14 L56.6951098,-5.68434189e-14 C51.9451401,30.3342356 49.2895979,46.1380523 48.7284832,47.4114499 C48.1673685,48.6848475 31.734561,53.7350253 10.9681613,61.3764391 Z" id="Pant" fill="#F9987A"></path>
                        <g id="Group" transform="translate(-1.893800, 66.327197)" fill="#D9D9D9">
                            <g id="Left-Shoe" transform="translate(14.710150, 9.899582) rotate(80.000000) translate(-14.710150, -9.899582) ">
                                <path d="M0.944431763,13.5904503 C0.636343921,14.5700184 0.4823,15.3370801 0.4823,15.8916354 C0.4823,16.7842243 0.627189771,18.0867336 0.916969313,19.7991632 C1.92591128,19.7991632 10.9934426,19.7991632 28.1195633,19.7991632 C28.8264623,17.4007456 28.4183992,16.1059172 26.8953741,15.9146778 C25.3723489,15.7234385 24.107146,15.5507646 23.0997654,15.3966563 L10.9077532,9.81851012 C10.4311323,9.60044432 9.86797751,9.81004462 9.64991171,10.2866655 C9.64370752,10.3002258 9.63782381,10.3139305 9.63226547,10.3277681 L9.00126767,11.8986511 L9.00126767,11.8986511 C7.59134471,12.5737814 6.44563592,12.9113465 5.56414131,12.9113465 C5.01984278,12.9113465 4.31793613,12.7398904 3.45842135,12.3969783 L3.45842769,12.3969624 C2.48477122,12.0085124 1.38056568,12.4829159 0.992115588,13.4565723 C0.974555314,13.5005874 0.95864956,13.5452447 0.944431763,13.5904503 Z" id="shoe"></path>
                            </g>
                        </g>
                    </g>
                    <g id="Body/Long-Sleeve-1" transform="translate(131.732152, 79.535373) rotate(-30.000000) translate(-131.732152, -79.535373) translate(79.232152, 39.535373)">
                        <path d="M93.2542948,28.2475445 C94.2772662,28.0370148 95.8717148,27.1883243 97.5053297,26.2846958 L98.0218892,25.9981935 C100.432781,24.6590094 102.807043,23.3338417 103.441034,23.8892757 C105.082443,25.3273012 103.618862,29.7428729 101.894416,31.9393834 C98.6714278,36.0446587 96.002933,37.448539 89.4073336,39.2869286 C85.9588138,40.2481337 82.2303539,42.1747864 78.221954,45.0668868 L77.6933022,35.7538357 L86.9767383,30.6557453 C88.2793358,25.7009003 89.8364324,23.2079503 91.6480282,23.1768952 C93.0397104,22.5295801 90.6161055,28.7904894 93.2542948,28.2475445 Z M77.2760925,7.02509825 C77.137882,7.27032464 76.999985,7.5170858 76.8637221,7.76401736 L76.5937666,8.2577034 C75.1697985,10.8875953 74.0319387,13.4333849 74.7830088,14.2392403 C75.6514335,15.1710106 77.8169284,13.8693685 78.8529459,15.4175129 C79.5436243,16.4496091 75.8440475,18.0800306 67.7542157,20.3087773 L52.3975018,34.364705 L44.5929164,25.9908285 L65.7273117,14.419549 C69.2418322,10.2474658 72.7046139,7.00725856 76.1156567,4.69892743 C77.1579616,4.26393053 78.9806889,4.00063932 77.2760925,7.02509825 Z" id="Skin" fill="#E1B993"></path>
                        <path d="M34.9417118,21.1544288 C40.3785684,21.9567838 47.287243,22.1637902 55.1701151,20.19059 C55.9142569,20.0043202 54.3834645,17.0803058 55.1445505,16.8538458 C57.1815067,16.2477523 61.5612649,18.211258 63.7085688,17.2821715 L66.3515657,27.0372127 C64.6308386,28.2769712 62.4898137,31.8558538 60.5800904,32.9098379 C59.9237689,33.2720645 59.5626764,31.2076516 58.8910179,31.542054 C52.0862541,34.9299798 44.5860763,36.8127148 38.2485345,35.62575 C31.326853,34.3293812 29.1050152,25.3596824 34.9417118,21.1544288 Z" id="Sleeve" fill="#AFB9C5" transform="translate(48.970896, 26.358791) rotate(-9.000000) translate(-48.970896, -26.358791) "></path>
                        <path d="M34.7932846,6.25277607e-12 C35.7294822,11.0016824 37.7116044,23.3882986 39.3555379,35.5727651 C40.4068235,36.6067097 41.5880342,37.348685 42.8978887,37.7983821 C49.0175251,39.8993657 59.9772519,38.6195347 73.7532993,34.5754636 C74.9501908,34.2241063 70.6156573,31.2513291 71.8703432,30.853586 C72.7579578,30.5722067 74.8863529,31.314557 77.3053688,31.4391206 C78.5506995,31.503247 80.7169329,31.4468852 83.804069,31.2700351 C87.8817731,36.4269076 89.7475264,41.0258582 89.4013289,45.0668868 C88.2108436,45.6885383 86.5976628,45.9142426 84.9605145,47.3827475 C82.2923374,49.7760744 79.6872799,53.5630721 79.6872799,53.5630721 C79.6872799,53.5630721 79.3516307,52.6309052 78.9897443,51.6325892 L78.8685682,51.2985552 C78.4035886,50.0178077 77.9519023,48.7861643 78.1590192,49.4103532 C78.1590192,49.4103532 58.3023607,56.5905952 41.446039,54.1423086 C41.5922875,55.9632212 41.7112871,57.7589226 41.7985973,59.5229045 C41.879788,61.1632513 42.2094011,63.1665498 42.5623762,65.2528403 L42.6805911,65.9509602 C42.7200787,66.1844354 42.7595459,66.4185512 42.7986842,66.6529235 L42.9148031,67.3564259 C43.6973179,72.1637027 44.2118165,76.9173946 41.7985973,78.3090105 C34.7932846,82.3487201 11.0996665,76.3275189 0.0956645731,78.3090105 C2.13631329,58.1272926 2.88269982,51.0821066 5.01553318,38.5820405 C7.65206901,23.1298853 16.0460022,6.25277607e-12 17.8986014,6.25277607e-12 L17.8986014,6.25277607e-12 Z" id="Clothes" fill="#C5CFD6"></path>
                    </g>
                </g>
            </g>
        </g>
    </g>
</svg>