<?xml version="1.0" encoding="UTF-8"?>
<svg width="11px" height="11px" viewBox="0 0 11 11" version="1.1" xmlns="http://www.w3.org/2000/svg" xmlns:xlink="http://www.w3.org/1999/xlink">
    <title>Path</title>
    <g id="2.-INCUBATOR-Forms-VD" stroke="none" stroke-width="1" fill="none" fill-rule="evenodd">
        <g id="SEEDFUND-Incubator-Application-2" transform="translate(-970.000000, -1004.000000)" fill="#777777" fill-rule="nonzero">
            <g id="Group-14" transform="translate(251.000000, 782.000000)">
                <g id="Group-10" transform="translate(320.000000, 205.000000)">
                    <g id="cancel" transform="translate(399.000000, 17.000000)">
                        <path d="M6.10769451,5.50002417 L10.8741395,0.733546029 C11.0419535,0.565731657 11.0419535,0.293653665 10.8741395,0.125860778 C10.7063256,-0.0419321084 10.4342482,-0.0419535928 10.2664558,0.125860778 L5.49998926,4.89233892 L0.733544238,0.125860778 C0.565730276,-0.0419535928 0.293652948,-0.0419535928 0.125860471,0.125860778 C-0.0419320061,0.29367515 -0.0419534904,0.565753142 0.125860471,0.733546029 L4.89230549,5.5 L0.125860471,10.2664808 C-0.0419534904,10.4342952 -0.0419534904,10.7063732 0.125860471,10.8741661 C0.20975671,10.9580625 0.319734903,11 0.429713097,11 C0.53969129,11 0.649647999,10.9580625 0.733565722,10.8741661 L5.49998926,6.10770942 L10.2664343,10.8741661 C10.3503305,10.9580625 10.4603087,11 10.5702869,11 C10.6802651,11 10.7902218,10.9580625 10.8741395,10.8741661 C11.0419535,10.7063517 11.0419535,10.4342737 10.8741395,10.2664808 L6.10769451,5.50002417 Z" id="Path"></path>
                    </g>
                </g>
            </g>
        </g>
    </g>
</svg>