<?xml version="1.0" encoding="UTF-8"?>
<svg width="46px" height="45px" viewBox="0 0 46 45" version="1.1" xmlns="http://www.w3.org/2000/svg" xmlns:xlink="http://www.w3.org/1999/xlink">
    <title>Group 5</title>
    <g id="3.-DPIIT-Dashboard-" stroke="none" stroke-width="1" fill="none" fill-rule="evenodd">
        <g id="SEEDFUND-DPIIT--Incubator-Documents" transform="translate(-856.000000, -608.000000)" fill-rule="nonzero">
            <g id="Group-5" transform="translate(856.000000, 608.000000)">
                <g id="file-(2)" opacity="0.264148801" transform="translate(12.000000, 0.000000)" fill="#000000">
                    <path d="M3.456,41.472 L29.7216,41.472 C31.6294079,41.4698573 33.1754573,39.9238079 33.1776,38.016 L33.1776,8.9856 C33.1776,8.80227981 33.1047884,8.62646549 32.9751648,8.4968352 L24.6807648,0.2024352 C24.5511345,0.0728115875 24.3753202,0 24.192,0 L3.456,0 C1.54819213,0.00214267012 0.00214267012,1.54819213 0,3.456 L0,38.016 C0.00214267012,39.9238079 1.54819213,41.4698573 3.456,41.472 Z M24.8832,2.3598432 L30.8177568,8.2944 L26.9568,8.2944 C25.8121153,8.2931144 24.8844856,7.36548472 24.8832,6.2208 L24.8832,2.3598432 Z M1.3824,3.456 C1.38373311,2.31133499 2.31133499,1.38373311 3.456,1.3824 L23.5008,1.3824 L23.5008,6.2208 C23.5029427,8.12860787 25.0489921,9.67465733 26.9568,9.6768 L31.7952,9.6768 L31.7952,38.016 C31.7938669,39.160665 30.866265,40.0882669 29.7216,40.0896 L3.456,40.0896 C2.31133499,40.0882669 1.38373311,39.160665 1.3824,38.016 L1.3824,3.456 Z" id="Shape"></path>
                    <g id="Group-3" transform="translate(8.747200, 13.240000)">
                        <path d="M0.529661538,5.6256 L13.2415385,5.6256 C13.5340625,5.6256 13.7712,5.31613922 13.7712,4.9344 C13.7712,4.55266078 13.5340625,4.2432 13.2415385,4.2432 L0.529661538,4.2432 C0.237137548,4.2432 0,4.55266078 0,4.9344 C0,5.31613922 0.237137548,5.6256 0.529661538,5.6256 Z" id="Path"></path>
                        <path d="M0.683507692,9.6256 L17.0876923,9.6256 C17.4651832,9.6256 17.7712,9.31613922 17.7712,8.9344 C17.7712,8.55266078 17.4651832,8.2432 17.0876923,8.2432 L0.683507692,8.2432 C0.306016817,8.2432 0,8.55266078 0,8.9344 C0,9.31613922 0.306016817,9.6256 0.683507692,9.6256 Z" id="Path"></path>
                        <path d="M0.375815385,13.6256 L9.39538462,13.6256 C9.60294172,13.6256 9.7712,13.3161392 9.7712,12.9344 C9.7712,12.5526608 9.60294172,12.2432 9.39538462,12.2432 L0.375815385,12.2432 C0.168258279,12.2432 0,12.5526608 0,12.9344 C0,13.3161392 0.168258279,13.6256 0.375815385,13.6256 Z" id="Path"></path>
                        <path d="M0.375815385,1.6256 L9.39538462,1.6256 C9.60294172,1.6256 9.7712,1.31613922 9.7712,0.9344 C9.7712,0.552660781 9.60294172,0.2432 9.39538462,0.2432 L0.375815385,0.2432 C0.168258279,0.2432 0,0.552660781 0,0.9344 C0,1.31613922 0.168258279,1.6256 0.375815385,1.6256 Z" id="Path"></path>
                    </g>
                </g>
                <g id="Group-2" transform="translate(0.000000, 31.800000)">
                    <path d="M0,1.84 L0,10.96 C8.04974895e-16,11.9762039 0.82379606,12.8 1.84,12.8 L26.16,12.8 C27.1762039,12.8 28,11.9762039 28,10.96 L28,1.84 C28,0.82379606 27.1762039,1.39642258e-15 26.16,0 L1.84,0 C0.82379606,-3.53709696e-17 -3.46493695e-16,0.82379606 0,1.84 Z" id="Path" fill="#6BABF0"></path>
                    <g id="Group" transform="translate(4.000000, 3.200000)" fill="#FFFFFF">
                        <path d="M18.786125,7.74 L16.754375,7.74 C15.4472825,7.74 14.384,6.72735 14.384,5.4825 L14.384,2.2575 C14.384,1.01265 15.4472825,0 16.754375,0 L18.786125,0 C19.346888,0 19.802,0.43344 19.802,0.9675 C19.802,1.50156 19.346888,1.935 18.786125,1.935 L16.754375,1.935 C16.567454,1.935 16.41575,2.07948 16.41575,2.2575 L16.41575,5.4825 C16.41575,5.66052 16.567454,5.805 16.754375,5.805 L18.786125,5.805 C19.346888,5.805 19.802,6.23844 19.802,6.7725 C19.802,7.30656 19.346888,7.74 18.786125,7.74 Z" id="Path"></path>
                        <path d="M10.239625,7.74 L9.562375,7.74 C8.2552825,7.74 7.192,6.72735 7.192,5.4825 L7.192,2.2575 C7.192,1.01265 8.2552825,0 9.562375,0 L10.239625,0 C11.5467175,0 12.61,1.01265 12.61,2.2575 L12.61,5.4825 C12.61,6.72735 11.5467175,7.74 10.239625,7.74 Z M9.562375,1.935 C9.375454,1.935 9.22375,2.07948 9.22375,2.2575 L9.22375,5.4825 C9.22375,5.66052 9.375454,5.805 9.562375,5.805 L10.239625,5.805 C10.426546,5.805 10.57825,5.66052 10.57825,5.4825 L10.57825,2.2575 C10.57825,2.07948 10.426546,1.935 10.239625,1.935 L9.562375,1.935 Z" id="Shape"></path>
                        <path d="M3.047625,7.74 L1.015875,7.74 C0.455112,7.74 0,7.30656 0,6.7725 L0,0.9675 C0,0.43344 0.455112,0 1.015875,0 L3.047625,0 C4.3547175,0 5.418,1.01265 5.418,2.2575 L5.418,5.4825 C5.418,6.72735 4.3547175,7.74 3.047625,7.74 Z M2.03175,5.805 L3.047625,5.805 C3.234546,5.805 3.38625,5.66052 3.38625,5.4825 L3.38625,2.2575 C3.38625,2.07948 3.234546,1.935 3.047625,1.935 L2.03175,1.935 L2.03175,5.805 Z" id="Shape"></path>
                    </g>
                </g>
            </g>
        </g>
    </g>
</svg>