<?xml version="1.0" encoding="UTF-8"?>
<svg width="19px" height="19px" viewBox="0 0 19 19" version="1.1" xmlns="http://www.w3.org/2000/svg" xmlns:xlink="http://www.w3.org/1999/xlink">
    <title>download (2)</title>
    <g id="Symbols" stroke="none" stroke-width="1" fill="none" fill-rule="evenodd" fill-opacity="0.4">
        <g id="Rowicon/download" fill="#000000" fill-rule="nonzero">
            <g id="download-(2)">
                <path d="M8.4558004,14.1947843 C8.63279413,14.3717871 8.87285462,14.4712271 9.123168,14.4712271 C9.37348138,14.4712271 9.61354187,14.3717871 9.7905356,14.1947843 L13.3497115,10.6356084 C13.7182757,10.2670415 13.7182757,9.66947937 13.3497115,9.30091248 C12.9811446,8.93234832 12.3835825,8.93234832 12.0150156,9.30091248 L10.066944,11.2489841 L10.066944,0.943776 C10.066944,0.422542908 9.64440109,-2.2353106e-15 9.123168,-2.2353106e-15 C8.60193491,-2.2353106e-15 8.179392,0.422542908 8.179392,0.943776 L8.179392,11.2489841 L6.23132036,9.30091248 C5.86275347,8.93234832 5.26519137,8.93234832 4.89662448,9.30091248 C4.52806032,9.66947937 4.52806032,10.2670415 4.89662448,10.6356084 L8.4558004,14.1947843 Z" id="Path"></path>
                <path d="M17.30256,8.179392 C16.7813269,8.179392 16.358784,8.60193491 16.358784,9.123168 L16.358784,16.358784 L1.887552,16.358784 L1.887552,9.123168 C1.887552,8.60193491 1.46500909,8.179392 0.943776,8.179392 C0.422542908,8.179392 0,8.60193491 0,9.123168 L0,16.673376 C0,17.5420978 0.70423818,18.246336 1.57296,18.246336 L16.673376,18.246336 C17.5420978,18.246336 18.246336,17.5420978 18.246336,16.673376 L18.246336,9.123168 C18.246336,8.60193491 17.8237931,8.179392 17.30256,8.179392 L17.30256,8.179392 Z" id="Path"></path>
            </g>
        </g>
    </g>
</svg>