<?xml version="1.0" encoding="UTF-8"?>
<svg width="17px" height="17px" viewBox="0 0 17 17" version="1.1" xmlns="http://www.w3.org/2000/svg" xmlns:xlink="http://www.w3.org/1999/xlink">
    <title>edit</title>
    <g id="Symbols" stroke="none" stroke-width="1" fill="none" fill-rule="evenodd" fill-opacity="0.4">
        <g id="Rowicon/Edit" fill="#000000" fill-rule="nonzero">
            <g id="edit">
                <path d="M10.1177478,2.74359117 L1.10325812,11.7587306 C1.05790629,11.8042124 1.02515941,11.8616493 1.00956566,11.9233746 L0.0103958364,15.9338284 C-0.0194922099,16.0545501 0.0159836068,16.1829387 0.104088304,16.2710434 C0.170751596,16.3377067 0.261585225,16.3746119 0.354498022,16.3746119 C0.382956632,16.3746119 0.412064974,16.3711033 0.440393612,16.3639562 L4.45084742,15.3646564 C4.51335238,15.3490626 4.57013963,15.3164457 4.61549149,15.2710938 L13.6307608,6.25660421 L10.1177478,2.74359117 Z" id="Path"></path>
                <path d="M15.8640464,1.51441349 L14.8605883,0.51095536 C14.1899269,-0.159706029 13.021045,-0.159056297 12.3511633,0.51095536 L11.1219856,1.74013308 L14.6348687,5.25301614 L15.8640464,4.02383842 C16.1990522,3.68896255 16.3835783,3.24324108 16.3835783,2.76919094 C16.3835783,2.2951408 16.1990522,1.8494193 15.8640464,1.51441349 Z" id="Path"></path>
            </g>
        </g>
    </g>
</svg>