<?xml version="1.0" encoding="UTF-8"?>
<svg width="48px" height="48px" viewBox="0 0 48 48" version="1.1" xmlns="http://www.w3.org/2000/svg" xmlns:xlink="http://www.w3.org/1999/xlink">
    <title>A3BC4C6C-C273-4ECC-8831-027F7D5AED8A</title>
    <g id="2.-INCUBATOR-Forms" stroke="none" stroke-width="1" fill="none" fill-rule="evenodd">
        <g id="SEEDFUND-Formsubmission-Error" transform="translate(-611.000000, -337.000000)" fill="#D00C0C" fill-rule="nonzero">
            <g id="menu" transform="translate(408.000000, 292.000000)">
                <g id="Group" transform="translate(55.500000, 45.000000)">
                    <g id="error" transform="translate(147.500000, 0.000000)">
                        <path d="M24,0 C10.735125,0 0,10.7340937 0,24 C0,37.2649688 10.7340937,48 24,48 C37.264875,48 48,37.2659063 48,24 C48,10.7350313 37.2659063,0 24,0 Z M24,44.25 C12.80775,44.25 3.75,35.1930938 3.75,24 C3.75,12.8076563 12.8069063,3.75 24,3.75 C35.19225,3.75 44.25,12.8069063 44.25,24 C44.25,35.1923437 35.1930937,44.25 24,44.25 Z" id="Shape"></path>
                        <path d="M31.4670714,28.8943352 L26.072793,23.5000171 L31.4670714,18.1056989 C32.1774912,17.3952739 32.1775822,16.243403 31.4671624,15.532887 C30.7565607,14.822371 29.6046982,14.822462 28.8943694,15.532887 L23.5,20.9272051 L18.1056306,15.532887 C17.3953018,14.822371 16.2432574,14.822371 15.5328376,15.532887 C14.8224178,16.243403 14.8224178,17.3952739 15.5329286,18.1056989 L20.927207,23.5000171 L15.5329286,28.8943352 C14.8224178,29.6048512 14.8223268,30.7567221 15.5328376,31.4671471 C16.2435303,32.1777541 17.3953927,32.1774812 18.1056306,31.4671471 L23.5,26.072829 L28.8943694,31.4671471 C29.6046073,32.1775721 30.7566517,32.1776631 31.4671624,31.4671471 C32.1776732,30.7566311 32.1775822,29.6047602 31.4670714,28.8943352 Z" id="Path"></path>
                    </g>
                </g>
            </g>
        </g>
    </g>
</svg>