<?xml version="1.0" encoding="UTF-8"?>
<svg width="430px" height="447px" viewBox="0 0 430 447" version="1.1" xmlns="http://www.w3.org/2000/svg" xmlns:xlink="http://www.w3.org/1999/xlink">
    <title>B7462BF9-A446-496A-9B6F-B8DF8CDFB9F1</title>
    <g id="1.-PUBLIC-User" stroke="none" stroke-width="1" fill="none" fill-rule="evenodd">
        <g id="SEEDFUND-Home--V-2" transform="translate(-196.000000, -2545.000000)">
            <g id="Group-33" transform="translate(196.000000, 2403.000000)">
                <g id="Group-39" transform="translate(0.000000, 142.000000)">
                    <path d="M25.8227673,257.63814 C35.3321755,191.940211 125.759227,207.356914 189.015582,187.082552 C252.271936,166.808189 337.636427,68.3381427 387.191143,114.707285 C436.745859,161.076428 379.661683,310.60475 266.059188,335.814613 C152.456693,361.024475 16.313359,323.336068 25.8227673,257.63814 Z" id="Background-Shape" fill="#DDE3E9" opacity="0.264194222" transform="translate(215.249905, 223.065171) scale(-1, 1) rotate(50.000000) translate(-215.249905, -223.065171) "></path>
                    <path d="M310.38893,85.0733126 C310.678843,85.2946031 311.016269,85.5847502 311.437449,85.7761238 C311.265917,85.8915178 311.09519,86.0069119 310.922048,86.121831 C310.884198,85.8644501 310.719109,85.5225419 310.38893,85.0733126 Z M319.718142,81.3622787 C319.01606,81.6470101 318.316925,82.0096791 317.621105,82.4107971 L317.888529,81.4755478 L317.888529,81.4755478 C318.498523,81.420472 319.108516,81.3757878 319.718142,81.3622787 Z M317.209322,72.7177714 C317.889795,73.3190677 318.578151,73.9321162 319.301924,74.5053966 L319.105414,74.8070144 L319.105414,74.8070144 C318.66441,74.3096549 318.036035,73.6687171 317.377955,73.0355263 C317.301908,72.8928518 317.247505,72.7893159 317.221721,72.7408062 L317.209322,72.7177714 Z M335.205384,46.6238452 C337.971577,45.3195331 341.484528,47.2165057 339.799955,50.9863466 C337.995544,55.0232483 332.055027,54.7347615 328.705396,54.4611965 C329.041969,54.4611965 330.304714,50.7368859 330.702232,50.1859298 C331.874585,48.5606092 333.504718,47.427323 335.205384,46.6238452 Z M238.552322,174.877804 C238.774926,175.954881 239.117319,177.006982 239.60084,178.02336 C238.908294,177.123636 238.599849,176.04656 238.552322,174.877804 Z M328.985364,39.9414302 C331.616344,37.2700347 333.157553,41.4096048 332.913078,43.5418196 C332.624513,46.055899 331.364301,48.2904521 329.900087,50.2554149 C329.743136,50.4634036 329.785253,50.4551238 329.763208,50.1527454 C329.734581,50.3001258 329.679303,50.4071009 329.601651,50.4826127 C329.602309,51.814005 329.667787,53.1805036 329.540779,54.3519301 C329.176864,57.706575 328.608946,61.0701621 327.867626,64.3615493 C327.687314,65.1620406 327.487259,65.9549145 327.26845,66.7398398 C328.670147,65.664459 330.532496,64.7414266 331.257035,64.4602445 C333.137482,63.7312907 336.015568,62.988758 337.767361,64.4830968 C339.220717,65.7227488 339.185839,67.7748152 337.876601,69.0962717 C336.317624,70.6694342 333.631695,70.4680694 331.632796,70.2017909 C330.728602,70.081237 325.900643,69.4373995 327.091428,68.7024843 C327.001272,68.731298 326.812404,68.8028355 326.609059,68.9028555 C326.48238,69.2867071 326.350436,69.6689028 326.213886,70.0491114 C326.241525,70.0673269 326.264887,70.0865361 326.2945,70.1047516 L326.292322,70.1027714 L326.251561,70.0800778 L326.251561,70.0800778 L326.211583,70.055404 C324.843776,73.8555023 322.991956,77.4449624 320.639013,80.7704624 C321.468844,80.492261 322.323682,80.2935457 323.183456,80.230288 C325.729544,80.0425021 330.947412,82.2922901 327.941659,85.519426 C326.076813,87.5212096 323.726353,86.6811884 321.472189,85.6653478 L320.860242,85.3859442 L320.860242,85.3859442 L320.456225,85.2007664 L320.456225,85.2007664 L320.056274,85.0206161 C319.327232,84.6971249 318.622604,84.416933 317.963943,84.2787804 C314.759123,88.2997838 311.257183,92.1306829 307.604214,95.8195007 C307.812166,95.8969996 307.990504,96.0450425 308.085595,96.2659476 C309.506706,95.6346955 311.00185,94.7033832 312.297268,94.4980441 C314.166527,94.2022896 317.969865,94.1632089 319.28042,95.8953436 C320.892372,98.0252401 318.963557,99.5851549 316.91267,99.869649 C313.938834,100.282314 310.160173,98.6379455 307.378166,97.5148731 C307.051103,97.5552785 306.702324,97.4416796 306.504573,97.1707645 C306.443043,97.1469186 306.381513,97.123404 306.321628,97.1005517 C302.625885,100.768173 298.803134,104.301662 295.006706,107.754671 L295.006706,107.754671 L295.123843,107.75434 C296.096805,107.185351 297.132284,106.730956 298.239823,106.522636 C300.802033,106.03744 303.778831,106.190782 305.735943,108.133554 C307.685486,110.068048 308.242875,113.301476 306.019901,115.241931 C301.570335,119.126152 295.820414,109.434808 293.704706,108.931727 C289.848722,112.401958 285.794987,115.620483 281.684,118.766808 C282.138071,118.653872 282.601684,118.577698 283.0778,118.557495 C286.956488,118.389912 295.76711,123.608506 290.786807,128.025946 C286.446809,131.875392 282.078844,123.797948 278.89574,120.886107 L279.012322,120.994771 L278.828771,120.936785 L278.828771,120.936785 L275.021623,123.814507 C272.440438,125.76913 269.868173,127.735822 267.339634,129.758743 C269.343798,129.336473 271.258135,129.359326 273.343571,130.112457 C275.501395,130.892745 278.952664,132.738148 277.411455,135.632767 C275.843923,138.576402 271.667128,136.980056 269.504368,135.905669 C268.32477,135.31979 265.997163,133.429014 263.911398,132.574539 C257.841982,137.743785 252.517506,143.508846 248.353873,150.41089 C245.754481,154.720361 243.710174,159.363012 242.191011,164.165298 C241.221339,167.230481 239.358003,172.366277 239.46494,176.427686 C238.370563,168.251878 241.623093,158.672477 244.957553,151.591258 C248.02352,145.07969 252.39675,139.451743 257.43628,134.443787 C257.084937,133.164384 255.664576,131.634263 254.2266,130.05528 L253.939081,129.738892 L253.939081,129.738892 L253.652962,129.42156 C251.184728,126.668291 249.084756,123.849082 252.828446,122.015141 C256.115854,120.412171 259.234467,123.522396 259.770139,126.671039 C260.138002,128.834717 259.266712,131.483261 258.38259,133.518105 C259.965258,131.993959 261.60452,130.524459 263.288531,129.108944 C265.615809,127.152593 267.993101,125.259167 270.390793,123.392237 C266.797052,119.634201 263.751815,109.270537 268.906837,107.872575 C276.518778,105.81521 272.189638,119.506029 271.531565,122.080054 C271.38284,122.081048 271.269651,122.030044 271.189695,121.929362 C271.219308,122.169807 271.254844,122.427144 271.300581,122.687129 C275.888672,119.133769 280.537964,115.658239 285.04906,112.010158 C284.675933,111.702149 284.116241,110.570797 283.661841,109.96041 C282.636233,108.584307 281.660967,107.151901 280.976241,105.569134 C279.894697,103.067971 278.931935,99.1185053 282.211775,97.8530202 C285.778864,96.4739363 287.20524,100.958609 287.09238,103.583306 C287.014069,105.39857 286.431016,107.096261 286.081249,108.861184 C286.047112,109.033196 286.041058,109.397197 286.027582,109.782365 L286.01249,110.130118 C285.972352,110.856855 285.866964,111.475003 285.452789,110.812899 C285.467595,111.211323 285.457724,111.498798 285.429427,111.701487 C286.239516,111.043077 287.044012,110.376719 287.8439,109.705061 C287.8133,109.613321 287.792242,109.513963 287.792242,109.400033 C287.792242,108.61577 288.593117,108.355784 289.131751,108.613783 C290.188289,107.707973 291.235613,106.789577 292.266157,105.850978 C294.450304,103.862501 296.667684,101.815734 298.87289,99.7222685 C298.439877,99.3079471 298.648487,98.776715 298.246074,98.3398726 C297.84432,97.9040238 297.022386,97.6314527 296.544624,97.2211057 C295.342981,96.1884487 294.378245,94.7252419 293.699771,93.2994599 C292.579729,90.9436904 291.228703,86.0543013 294.907666,85.1527964 C298.699816,84.2218153 300.352898,88.9469332 300.441738,91.851488 C300.459177,92.4141834 299.776754,97.4403548 299.360523,99.2566124 C303.441897,95.3651051 307.467664,91.3166127 311.139716,87.1753866 C310.095353,87.1108041 307.245235,84.8093501 306.676988,84.1923392 C305.290426,82.6874023 303.132602,79.409594 305.781679,77.8741874 C308.136925,76.5126566 310.832396,78.8054996 311.697434,80.9416887 C311.839578,81.2934147 312.237055,84.5185635 312.206125,85.9546125 C313.72825,84.1966447 315.185226,82.4244358 316.547768,80.6412974 C317.456239,79.4559609 318.311077,78.2351868 319.116559,76.9849365 C318.944144,76.8746496 318.786206,76.6898444 318.639785,76.4626466 C314.874615,75.6167819 310.341802,69.4208399 314.912125,67.5880228 C317.088046,66.7166564 319.286013,68.8667555 320.239891,70.5826619 C320.435339,70.9337255 320.69133,72.6605612 320.901914,74.0230855 C323.248605,69.8643062 325.107664,65.4286502 326.58504,60.8581991 C326.258635,60.7585103 325.991786,60.4905759 325.977638,60.0530711 C324.188335,58.9021785 322.777753,57.9480141 321.596182,55.8535551 C320.8621,54.5526325 319.571946,51.6007173 321.95878,51.0254366 C325.064889,50.2769424 326.741332,55.0606812 326.870973,57.3803508 C326.886109,57.64961 326.844321,58.4282426 326.79694,59.1412992 C326.903877,59.132357 327.011143,59.1396433 327.115447,59.1638203 C327.967982,56.3304718 328.680676,53.4527435 329.278865,50.564086 C329.025451,50.4673847 328.815236,50.1757338 328.645254,49.7472495 C328.535722,49.9025278 328.388429,50.0429834 328.192623,50.1593226 C328.203461,49.6747295 328.243652,49.196735 328.360337,48.7391485 C328.355888,48.7144255 328.350752,48.6885441 328.345691,48.6624765 L328.422602,48.5205365 C328.253711,48.835346 328.080329,49.1501554 327.903353,49.4649648 C327.96534,49.2459945 328.038106,49.0279763 328.14501,48.8105928 C328.144159,48.8126983 328.210023,48.6587949 328.304441,48.4394548 C327.813813,45.5800454 328.140113,40.7981644 328.985364,39.9414302 Z" id="Leaf-Bottom" fill="#80BD59" opacity="0.393304869" transform="translate(289.395710, 108.547566) rotate(-12.000000) translate(-289.395710, -108.547566) "></path>
                    <g id="onboarding-img1" transform="translate(4.503353, 0.559594)">
                        <g id="Background" opacity="0.953216" transform="translate(122.290258, 215.673601)" fill="#E82219">
                            <path d="M11.49963,11.4638802 C11.6074982,11.2563537 11.6580436,11.0295862 11.6580436,10.8055676 C11.6580436,10.349284 11.446004,9.90605681 11.0663077,9.66142285 L8.21180473,7.82460653 L11.0663077,5.98710324 C11.446004,5.74246929 11.6586586,5.29855495 11.6580436,4.84295852 C11.6580436,4.6189397 11.6068818,4.39217235 11.49963,4.18464571 C11.1729431,3.55313272 10.4486846,3.33736017 9.88283853,3.70156232 L7.0283356,5.53906577 L7.0283356,1.86405903 C7.0283356,1.13565456 6.49824005,0.544684887 5.84486647,0.544684887 C5.19149289,0.544684887 4.66139734,1.13565456 4.66139734,1.86405903 L4.66139734,5.53906577 L1.80689457,3.70156232 C1.24043196,3.33667304 0.51678982,3.55313272 0.190103108,4.18464571 C0.0822347882,4.39217235 0.0310743644,4.6189397 0.0310743644,4.84227139 C0.0310743644,5.29855495 0.243729092,5.74246929 0.623425439,5.98641611 L3.47792821,7.8239194 L0.623425439,9.66142285 C0.243112584,9.90605681 0.0310743644,10.349284 0.0310743644,10.8055676 C0.0310743644,11.0295862 0.0828511389,11.2563537 0.190103108,11.4638802 C0.51678982,12.0947061 1.24043196,12.3111659 1.80689457,11.9469636 L4.66139734,10.1094603 L4.66139734,13.7844671 C4.66139734,14.5128715 5.19149289,15.1038412 5.84486647,15.1038412 C6.49824005,15.1038412 7.0283356,14.5128715 7.0283356,13.7844671 L7.0283356,10.1094603 L9.88283853,11.9469636 C10.4486846,12.3111659 11.1729431,12.0947061 11.49963,11.4638802 Z" id="Path"></path>
                        </g>
                        <g id="Group-42" opacity="0.71634266" transform="translate(103.243460, 161.484936) rotate(-28.000000) translate(-103.243460, -161.484936) translate(42.743460, 55.484936)">
                            <path d="M73.0570351,11.3211766 C75.0524463,8.46467712 78.7553584,1.2101061 81.5638623,0.189393077 C83.3727985,-0.468040479 82.8453775,6.33260594 82.8677167,7.62934003 C82.9547124,12.6461999 82.468233,17.631249 81.8674702,22.6059878 C80.7851365,31.5779089 77.2460001,39.5680866 72.391812,47.2041145 C69.8939498,51.1333156 66.9641556,55.1101599 62.9062535,57.5617931 C61.0383973,58.6908198 58.7908971,58.8798563 56.9462718,59.8526046 C54.7979364,60.9850107 55.9679156,60.0695793 54.999734,62.3171333 C53.6552089,65.4375615 53.2251531,69.4632465 52.6030625,72.7928544 C49.7467273,88.077564 42.8315933,168.876525 44.0304124,184.423996 C44.1368867,185.802055 42.2229519,186.131597 42.1274071,184.449274 C41.6195704,175.529129 46.0139973,113.757259 48.2310602,93.5560813 C50.4481231,73.3549037 52.6916895,55.5081736 54.9413094,48.5191986 C57.6704335,40.0400866 62.5993879,29.8432996 66.7023983,21.9361606 C68.6082158,18.2626824 70.6855944,14.7157533 73.0570351,11.3211766 Z" id="Leaf" fill="#C3DAFB"></path>
                            <path d="M87.9569759,110.361086 C93.169875,106.55806 98.8124466,113.735504 94.0953101,117.539114 C91.4875651,119.641519 88.7613201,118.893637 87.2265184,117.141591 C86.2301873,118.348426 85.2976551,119.610289 84.4016128,120.676125 C81.6716009,123.923929 79.0913269,127.24925 76.6253329,130.652108 C71.5026113,137.721463 67.1125315,145.190085 62.5223906,152.522137 C57.9925217,159.758474 53.498874,167.031874 49.3930619,174.45155 C45.9148561,180.737814 41.2788498,188.133099 40.0880205,195.024702 C41.8948243,180.408806 48.7508261,166.360343 56.9151285,153.475311 C65.0129975,140.696129 74.306243,126.739843 86.8447486,116.654793 C85.5686356,114.78999 85.5332106,112.128125 87.9569759,110.361086 Z" id="Leaf" fill="#2E428C" opacity="0.257562682"></path>
                            <path d="M1.62359182,88.3428354 C4.53611933,88.9118725 9.29515646,95.4940102 11.6959476,98.0018559 C14.5491266,100.982079 17.137668,104.158572 19.5776729,107.486747 C24.8305039,114.650505 29.5282379,122.267068 33.5229098,130.209809 C40.035271,143.158065 45.2525191,156.449899 49.0388993,170.549826 C51.3566799,179.1809 52.8573469,188.126673 53.746723,197.009975 C53.9146854,198.685313 55.6728843,211.601848 53.1394274,211.949984 C50.86085,212.263459 51.5646175,202.142194 51.4546926,200.765453 C50.2121113,185.233235 46.4896901,170.120518 41.3118362,155.480624 C40.1840254,152.291462 39.1362492,148.385308 37.3326137,145.51537 C36.0337434,143.4482 37.3232991,144.169089 35.0407053,143.386765 C33.0807348,142.714613 30.8476274,142.878857 28.8405732,142.056087 C24.4804465,140.269779 20.9892357,136.802023 17.9289505,133.313869 C11.9817436,126.534946 7.26888473,119.201213 4.8122705,110.515025 C3.44951076,105.698817 2.19720413,100.854595 1.50225084,95.88946 C1.32247852,94.6061184 -0.25234517,87.976323 1.62359182,88.3428354 Z" id="Leaf" fill="#C3DAFB"></path>
                            <path d="M14.5301298,36.5801574 C22.110469,49.5656187 28.3396813,63.8298076 32.3619286,78.2772736 C34.7989304,87.0308368 36.5031989,96.0132788 38.1965253,104.930835 C40.8183359,118.738559 43.298268,132.545218 44.0036912,146.598208 C44.7133923,160.732639 46.1167782,177.035045 41.4312041,190.648743 C43.7716719,176.82714 41.5433877,162.11512 41.148849,148.207738 C40.9603084,141.568578 40.4139529,134.994328 39.6972366,128.393965 C39.0017347,121.991258 37.8654815,115.619039 36.8073738,109.266657 C36.2919499,106.172932 35.7506387,103.083862 35.1995087,99.9964815 C35.0349775,99.0753578 34.965476,96.3420623 34.373936,95.7128021 C33.7785648,95.0793986 30.7409026,94.8211816 29.7872174,94.3564279 C27.8668229,93.4203572 26.0604328,92.0907367 24.4617305,90.6858223 C21.3969974,87.9926369 18.7308338,84.473663 16.6264842,81.0047548 C11.757565,72.9782471 9.81097352,63.182985 9.90936213,53.8872678 C9.92826623,52.0824596 12.8667365,32.6475625 11.6865996,32.3799279 C11.7576538,32.2977302 11.8248657,32.2128586 11.8882409,32.1245785 C12.7817057,33.6022266 13.6584534,35.0898885 14.5301298,36.5801574 Z" id="Leaf" fill="#DCE2F1"></path>
                            <path d="M118.807469,33.4865431 C118.977247,33.2423124 120.082231,31.5437608 119.525796,31.6523139 C120.658718,31.4312958 117.967532,33.5256356 120.790388,32.2405583 C119.450076,33.5030256 120.223613,35.1429905 120.241503,36.842133 C120.270689,39.6007858 119.807893,42.336817 119.286938,45.0362797 C118.463746,49.3033062 117.237413,53.4521032 115.457412,57.4209505 C111.577845,66.0699715 104.990142,74.3962348 97.1693144,79.8035398 C93.3083881,82.4733433 89.5245084,83.3823129 85.1211197,84.6113897 C82.3397528,85.3878779 82.1191861,86.8228061 80.6428299,89.5146239 C77.5691672,95.1211044 74.5502432,100.707418 71.8395454,106.503062 C68.6027926,113.42367 65.4606862,120.351907 62.496768,127.394344 C52.5118588,151.116418 44.3850688,175.692842 40.1171271,201.127055 C40.01263,186.138751 43.4891867,170.70208 47.8745269,156.415734 C51.0689833,146.007026 55.2275657,135.973347 59.6631,126.041242 C60.7379197,123.635072 62.3667114,120.539923 62.8231524,117.883408 C63.1427526,116.022122 62.1656406,114.232111 61.7182645,112.27139 C59.9741456,104.63598 60.098978,96.0818598 61.6305737,88.4056238 C63.3192755,79.941117 68.202923,76.0124521 76.4642434,74.8135094 C79.4855736,74.3749483 83.3257622,74.5356839 86.0961732,73.2508752 C89.1144945,71.8517606 90.3595975,67.2528887 92.0759255,64.3007743 C96.6859241,56.3707717 102.16327,48.7654149 108.452775,42.0837298 C110.19428,40.2334862 112.067106,38.526511 114.053965,36.9443544 C115.306877,35.9461016 117.953618,34.7162555 118.807469,33.4865431 Z" id="Leaf" fill="#C3DAFB"></path>
                        </g>
                        <g id="Mobile3" transform="translate(235.139403, 161.662767) rotate(-3.000000) translate(-235.139403, -161.662767) translate(111.639403, 7.162767)">
                            <g id="Group" transform="translate(213.307063, 252.169611) scale(-1, 1) translate(-213.307063, -252.169611) translate(180.173880, 204.357171)"></g>
                            <rect id="Container" stroke="#CBC7C7" stroke-width="1.1544" fill="#E2E0E0" x="0.0223149542" y="0.387832965" width="158.271458" height="308.2248" rx="7.34499583"></rect>
                            <rect id="Container" stroke="#CBC7C7" stroke-width="1.08368587" fill="#FFFFFF" x="4.48885642" y="26.850119" width="148.9176" height="240.1152" rx="6.89506944"></rect>
                            <circle id="Touch" fill="#FFFFFF" cx="80.2838905" cy="288.075263" r="13.8768814"></circle>
                            <g id="Camera" transform="translate(64.699709, 16.678423)" fill="#FFFFFF">
                                <ellipse id="Lens" cx="1.85025086" cy="1.87525425" rx="1.85025086" ry="1.87525425"></ellipse>
                                <rect id="Sensor" x="8.32612885" y="0" width="19.427634" height="3.75050849" rx="1.83624896"></rect>
                            </g>
                            <g id="Rows" transform="translate(9.416007, 33.326175)">
                                <g id="Row" transform="translate(-0.000000, 0.000000)">
                                    <rect id="Container" fill="#FAF9F9" x="3.31056071e-12" y="0.0634785954" width="135.768407" height="41.5584" rx="3.67249791"></rect>
                                    <rect id="Container" fill="#FFFFFF" x="0.287733253" y="56.9204483" width="135.768407" height="42.9892557" rx="3.67249791"></rect>
                                    <g id="Text-Stuff" transform="translate(8.263120, 9.449764)" fill="#E4ECED">
                                        <rect id="Label" x="0" y="0" width="82.5171876" height="8.13088179" rx="2.75437344"></rect>
                                        <rect id="Label" x="0" y="13.5514696" width="55.3882492" height="8.13088179" rx="2.75437344"></rect>
                                    </g>
                                    <g id="Check" transform="translate(114.831935, 13.864068)">
                                        <circle id="Background" fill="#E4ECED" cx="6.42687135" cy="6.42687135" r="6.42687135"></circle>
                                        <circle id="Indicator" fill="#F2F2F2" cx="6.42687135" cy="6.42687135" r="2.75437344"></circle>
                                    </g>
                                </g>
                            </g>
                            <g id="Seed-Fund-Scheme_final" transform="translate(69.802075, 147.289811) rotate(1.000000) translate(-69.802075, -147.289811) translate(13.302075, 103.789811)">
                                <g id="Group" transform="translate(-0.000000, 0.000000)">
                                    <g transform="translate(35.059988, 11.526571)" fill="#2B3F88" fill-rule="nonzero">
                                        <path d="M14.6723648,18.3224457 C14.6723648,20.4836778 13.9279404,22.1646361 12.4390916,23.3413069 C10.9502428,24.5179778 9.05316123,25.11832 6.72383328,25.11832 C4.15436842,25.11832 1.9691226,24.5900188 0.168095832,23.5574302 L0.168095832,20.387623 C1.94510891,21.7323897 4.10634104,22.404773 6.65179221,22.404773 C8.18866838,22.404773 9.3893529,22.0685814 10.2538457,21.3721843 C11.1183386,20.699801 11.5745987,19.7152397 11.5745987,18.4185004 C11.5745987,17.8901993 11.478544,17.4099254 11.2624207,16.977679 C11.0462975,16.5454326 10.7101059,16.1612136 10.2298321,15.8010082 C9.74955825,15.4408028 9.31731183,15.1526386 8.8850654,14.9365153 C8.45281898,14.6963784 7.87649041,14.4322279 7.1560797,14.0720225 C7.01199756,13.9999814 6.79587435,13.9039267 6.50771006,13.7838582 C5.45110769,13.3275981 4.65865591,12.9433791 4.13035473,12.6552148 C3.57803985,12.3670505 2.92967021,11.9348041 2.20925951,11.3584755 C1.46483511,10.7821469 0.936533921,10.1337773 0.576328567,9.36533921 C0.240136903,8.62091481 0.0720410708,7.73240827 0.0720410708,6.74784697 C0.0720410708,4.65865591 0.816465469,3.02572497 2.30531427,1.84905415 C3.79416306,0.672383328 5.6672309,0.0720410708 7.94853148,0.0720410708 C10.0617362,0.0720410708 11.862763,0.456260115 13.3516118,1.20068451 L13.3516118,4.29845056 C11.862763,3.33790295 10.0857499,2.83361545 8.02057255,2.83361545 C6.53172375,2.83361545 5.35505293,3.16980712 4.49056008,3.86620413 C3.62606723,4.56260115 3.16980712,5.47512138 3.16980712,6.57975113 C3.16980712,7.1560797 3.28987557,7.68438089 3.50599878,8.140641 C3.74613568,8.59690112 4.15436842,9.02914754 4.73069698,9.43738028 C5.30702555,9.84561301 5.81131305,10.1337773 6.21954578,10.3499005 C6.62777852,10.5660237 7.27614815,10.854188 8.140641,11.238407 C8.95710647,11.5986124 9.60547611,11.8867767 10.0377225,12.1028999 C10.469969,12.3190231 11.0462975,12.6312011 11.7426945,13.0874612 C12.4390916,13.5437213 12.9673927,13.9759677 13.3035844,14.4082142 C13.6637898,14.8404606 13.9759677,15.3927755 14.2401183,16.0891725 C14.5282826,16.7855695 14.6723648,17.5299939 14.6723648,18.3224457 Z" id="Path"></path>
                                        <polygon id="Path" points="33.258961 24.8541694 19.5471439 24.8541694 19.5471439 0.288164283 33.0668515 0.288164283 33.0668515 2.88164283 22.5008278 2.88164283 22.5008278 11.2864344 31.8421533 11.2864344 31.8421533 13.879913 22.5008278 13.879913 22.5008278 22.2606909 33.258961 22.2606909"></polygon>
                                        <polygon id="Path" points="51.5333793 24.8541694 37.8215622 24.8541694 37.8215622 0.288164283 51.3412698 0.288164283 51.3412698 2.88164283 40.7752461 2.88164283 40.7752461 11.2864344 50.1165716 11.2864344 50.1165716 13.879913 40.7752461 13.879913 40.7752461 22.2606909 51.5333793 22.2606909"></polygon>
                                        <path d="M63.5402245,24.8541694 L56.0959805,24.8541694 L56.0959805,0.288164283 L63.3961423,0.288164283 C67.0222095,0.288164283 69.9999071,1.41680773 72.3052214,3.65008092 C74.6345494,5.90736781 75.7872065,8.81302433 75.7872065,12.3910642 C75.7872065,15.9450903 74.7065904,18.8987742 72.569372,21.3001433 C70.4081399,23.6774986 67.4064286,24.8541694 63.5402245,24.8541694 Z M63.3481149,2.90565652 L59.0736781,2.90565652 L59.0736781,22.2606909 L63.4921971,22.2606909 C66.5419357,22.2606909 68.8232363,21.324157 70.3841262,19.4270754 C71.9450161,17.5540076 72.7134541,15.2006659 72.7134541,12.3670505 C72.7134541,9.70153087 71.8489613,7.44424398 70.0959619,5.61920352 C68.3909899,3.81817675 66.133703,2.90565652 63.3481149,2.90565652 Z" id="Shape"></path>
                                        <polygon id="Path" points="11.4305166 44.4733544 3.28987557 44.4733544 3.28987557 53.8627073 0.696397018 53.8627073 0.696397018 32.2263723 12.55916 32.2263723 12.55916 34.5076729 3.28987557 34.5076729 3.28987557 42.1680401 11.4305166 42.1680401"></polygon>
                                        <path d="M32.1543313,45.6500252 C32.1543313,48.4356133 31.4579343,50.548818 30.0411265,51.9656257 C28.6483325,53.4064472 26.6792099,54.1268579 24.1817861,54.1268579 C21.7323897,54.1268579 19.7872808,53.4304609 18.3944867,52.0136531 C17.0016927,50.6208591 16.3052957,48.5796954 16.3052957,45.8901621 L16.3052957,32.2263723 L18.8987742,32.2263723 L18.8987742,45.8661484 C18.8987742,47.8592847 19.379048,49.3241198 20.315582,50.2606537 C21.2761296,51.1971877 22.5488552,51.6774615 24.1577724,51.6774615 C27.7358123,51.6774615 29.5128253,49.6843252 29.5128253,45.6980526 L29.5128253,32.2263723 L32.1063039,32.2263723 L32.1063039,45.6500252 L32.1543313,45.6500252 Z" id="Path"></path>
                                        <path d="M39.6706163,53.8627073 L37.0771378,53.8627073 L37.0771378,32.2263723 L40.3429997,32.2263723 L45.7700937,41.327561 L51.245215,50.6929002 C51.1491603,48.6277228 51.1251466,45.5059431 51.1251466,41.3515746 L51.1251466,32.2023587 L53.7186251,32.2023587 L53.7186251,53.8386936 L50.4527633,53.8386936 L45.0256693,44.7855324 C43.9450532,42.9604919 42.9364782,41.2795336 41.9999443,39.69463 C41.0874241,38.1337402 40.4390544,37.0050967 40.0548354,36.3086997 L39.5025205,35.3241384 C39.5985753,37.5574116 39.6706163,40.6791913 39.6706163,44.7134913 L39.6706163,53.8627073 L39.6706163,53.8627073 Z" id="Path"></path>
                                        <path d="M65.1971691,53.8627073 L58.6414316,53.8627073 L58.6414316,32.2263723 L65.0771006,32.2263723 C68.2709214,32.2263723 70.8884137,33.2109336 72.9295774,35.2040699 C74.970741,37.1731925 76.0033297,39.7426574 76.0033297,42.8884508 C76.0033297,46.0102306 75.0667958,48.6277228 73.1697143,50.7169139 C71.248619,52.8301186 68.6071131,53.8627073 65.1971691,53.8627073 Z M65.0530869,34.5557003 L61.3069513,34.5557003 L61.3069513,51.5814067 L65.1971691,51.5814067 C67.8626887,51.5814067 69.9038524,50.7409275 71.2726327,49.0839829 C72.6414131,47.4270383 73.3378101,45.3618609 73.3378101,42.8644371 C73.3378101,40.5110955 72.569372,38.5419729 71.0324958,36.9330556 C69.471606,35.3481521 67.4784697,34.5557003 65.0530869,34.5557003 Z" id="Shape"></path>
                                        <path d="M9.26928444,70.7443315 C9.26928444,72.0170571 8.83703802,73.0016184 7.94853148,73.6980154 C7.08403863,74.3944125 5.95539519,74.7546178 4.56260115,74.7546178 C3.04973866,74.7546178 1.75299939,74.4424398 0.672383328,73.8180839 L0.672383328,71.9450161 C1.7289857,72.7374678 3.00171128,73.1216869 4.51457377,73.1216869 C5.427094,73.1216869 6.12349102,72.9295774 6.65179221,72.5213446 C7.18009339,72.1131119 7.42023029,71.5367833 7.42023029,70.7683452 C7.42023029,70.4561673 7.34818922,70.168003 7.22812077,69.9278661 C7.10805232,69.6877292 6.9159428,69.4475923 6.62777852,69.2314691 C6.33961423,69.0153458 6.07546364,68.84725 5.83532674,68.7031679 C5.59518983,68.5590857 5.23498448,68.3909899 4.80273805,68.1988804 C4.70668329,68.150853 4.58661484,68.1028256 4.41851901,68.0307845 C3.79416306,67.7666339 3.33790295,67.526497 3.00171128,67.3584012 C2.68953331,67.1903054 2.30531427,66.9261548 1.84905415,66.5899631 C1.41680773,66.2537715 1.08061606,65.8695524 0.88850654,65.4132923 C0.696397018,64.9570322 0.576328567,64.4527447 0.576328567,63.8524024 C0.576328567,62.6277042 1.00857499,61.6431429 1.89708153,60.9467459 C2.78558807,60.2503489 3.89021782,59.8901435 5.23498448,59.8901435 C6.48369637,59.8901435 7.54029875,60.1062668 8.42880529,60.5625269 L8.42880529,62.3875673 C7.54029875,61.8112388 6.50771006,61.5230745 5.28301186,61.5230745 C4.41851901,61.5230745 3.6981083,61.7391977 3.19382081,62.1474304 C2.66551962,62.5556632 2.42538272,63.0839643 2.42538272,63.7563477 C2.42538272,64.0925393 2.49742379,64.4047173 2.64150593,64.6928816 C2.78558807,64.9570322 3.02572497,65.2211828 3.36191664,65.4613197 C3.6981083,65.7014566 4.01028628,65.8695524 4.25042318,65.9896209 C4.49056008,66.1096893 4.87477913,66.2777852 5.40308031,66.5179221 C5.88335412,66.7340453 6.26757316,66.9021411 6.53172375,67.0222095 C6.79587435,67.142278 7.13206601,67.3343875 7.54029875,67.5985381 C7.94853148,67.8626887 8.26070945,68.1268393 8.47683267,68.3669762 C8.69295588,68.6071131 8.86105171,68.9433048 9.02914754,69.3515375 C9.19724337,69.8318113 9.26928444,70.2640577 9.26928444,70.7443315 Z" id="Path"></path>
                                        <path d="M22.5728689,73.8661113 C21.6843623,74.4664535 20.4596641,74.7786315 18.8987742,74.7786315 C16.7135284,74.7786315 14.9365153,74.1062482 13.567735,72.7614815 C12.1989547,71.4167149 11.5265713,69.5916744 11.5265713,67.2863601 C11.5265713,65.1011143 12.2229683,63.3241012 13.6157624,61.9553209 C15.0085564,60.5865406 16.7375421,59.8901435 18.8507469,59.8901435 C20.3636094,59.8901435 21.5883076,60.1542941 22.5248415,60.6585816 L22.5248415,62.4355947 C21.9004855,62.099403 21.324157,61.8592661 20.8198695,61.715184 C20.315582,61.5711019 19.6672123,61.4990608 18.8267332,61.4990608 C17.2658433,61.4990608 15.9450903,62.027362 14.9125017,63.0839643 C13.879913,64.1405667 13.3516118,65.5333608 13.3516118,67.2383328 C13.3516118,69.0153458 13.879913,70.4321536 14.9125017,71.5127696 C15.9450903,72.569372 17.3138707,73.0976732 19.0188427,73.0976732 C20.387623,73.0976732 21.5642939,72.7374678 22.5488552,71.9930434 L22.5488552,73.8661113 L22.5728689,73.8661113 Z" id="Path"></path>
                                        <polygon id="Path" points="35.6843437 74.586522 33.9313444 74.586522 33.9313444 68.0067709 26.8953331 68.0067709 26.8953331 74.586522 25.1423337 74.586522 25.1423337 60.0582394 26.8953331 60.0582394 26.8953331 66.445881 33.9313444 66.445881 33.9313444 60.0582394 35.6843437 60.0582394"></polygon>
                                        <polygon id="Path" points="47.0908466 74.586522 38.998233 74.586522 38.998233 60.0582394 46.9947919 60.0582394 46.9947919 61.5951155 40.7512324 61.5951155 40.7512324 66.5659494 46.2743812 66.5659494 46.2743812 68.1028256 40.7512324 68.1028256 40.7512324 73.0496458 47.1148603 73.0496458 47.1148603 74.586522"></polygon>
                                        <path d="M51.3892972,74.586522 L49.6362978,74.586522 L50.6929002,60.0582394 L52.9021597,60.0582394 L54.8232549,65.3652649 L57.1525828,72.1371256 C57.993062,69.7837839 58.8095275,67.526497 59.6019793,65.3652649 L61.5951155,60.0582394 L63.8043751,60.0582394 L65.0771006,74.586522 L63.3241012,74.586522 L62.8198138,68.84725 L62.2915126,62.411581 C61.5230745,64.5487995 60.7546364,66.6860179 59.9381709,68.84725 L57.9210209,74.2503303 L56.2640763,74.2503303 L54.3429811,68.84725 L52.1337216,62.5316495 C52.1337216,63.0839643 51.9896394,65.1971691 51.7254888,68.84725 L51.3892972,74.586522 Z" id="Path"></path>
                                        <polygon id="Path" points="76.3635351 74.586522 68.2709214 74.586522 68.2709214 60.0582394 76.2674803 60.0582394 76.2674803 61.5951155 70.0239208 61.5951155 70.0239208 66.5659494 75.5470696 66.5659494 75.5470696 68.1028256 70.0239208 68.1028256 70.0239208 73.0496458 76.3635351 73.0496458"></polygon>
                                    </g>
                                    <g transform="translate(-0.000000, 0.000000)" fill-rule="nonzero" id="Path">
                                        <path d="M29.4888117,0.168095832 C13.7598445,0.792451779 0.816465469,11.6706535 0.0480273805,24.9502242 C-0.384219044,32.1303176 2.61749224,38.9502056 8.4047916,44.1851901 C12.4631053,47.8112573 14.6483511,52.3018174 14.6483511,56.8884323 L14.6483511,58.0410894 C14.6483511,59.0256507 15.6088987,59.8421162 16.7615558,59.8421162 L29.4888117,59.8421162 L29.4888117,0.168095832 C29.5128253,0.168095832 29.4888117,0.168095832 29.4888117,0.168095832 Z" fill="#F4DD7A"></path>
                                        <path d="M25.6226075,71.1045369 C24.4459367,71.1045369 23.5094028,71.9210024 23.5094028,72.9055637 C23.5094028,73.890125 24.4699504,74.7065904 25.6226075,74.7065904 L29.5128253,74.7065904 L29.5128253,71.1285506 L25.6226075,71.1285506 L25.6226075,71.1045369 Z" fill="#EFC618"></path>
                                        <path d="M20.2435409,63.6602929 C19.0668701,63.6602929 18.1303362,64.4767584 18.1303362,65.4613197 C18.1303362,66.4698947 19.0908838,67.2623465 20.2435409,67.2623465 L29.5128253,67.2623465 L29.5128253,63.6843066 L20.2435409,63.6843066 L20.2435409,63.6602929 Z" fill="#EFC618"></path>
                                    </g>
                                    <g transform="translate(4.562601, 0.000000)" fill="#EFC618" fill-rule="nonzero" id="Path">
                                        <path d="M24.9262105,0.168095832 C11.6466398,0.792451779 0.720410708,11.6706535 0.0720410708,24.9502242 C-0.288164283,32.1303176 2.2332732,38.9502056 7.13206601,44.1851901 C10.54201,47.8112573 12.4150779,52.3018174 12.4150779,56.8884323 L12.4150779,58.0410894 C12.4150779,59.0256507 13.2315433,59.8421162 14.2161046,59.8421162 L24.9502242,59.8421162 L24.9262105,0.168095832 C24.9502242,0.168095832 24.9262105,0.168095832 24.9262105,0.168095832 Z"></path>
                                        <path d="M21.6603486,71.1045369 C20.6757873,71.1045369 19.8593219,71.9210024 19.8593219,72.9055637 C19.8593219,73.890125 20.6757873,74.7065904 21.6603486,74.7065904 L24.9502242,74.7065904 L24.9502242,71.1285506 L21.6603486,71.1285506 L21.6603486,71.1045369 Z"></path>
                                        <path d="M17.1217612,63.6602929 C16.1371999,63.6602929 15.3207344,64.4767584 15.3207344,65.4613197 C15.3207344,66.4698947 16.1371999,67.2623465 17.1217612,67.2623465 L24.9502242,67.2623465 L24.9502242,63.6843066 L17.1217612,63.6843066 L17.1217612,63.6602929 Z"></path>
                                    </g>
                                    <g transform="translate(33.619166, 0.000000)">
                                        <path d="M13.879913,7.61233982 C14.8404606,7.61233982 15.6088987,6.77186066 15.6088987,5.73927198 C15.6088987,4.70668329 14.8404606,3.86620413 13.879913,3.86620413 C12.9193654,3.86620413 12.1509273,4.70668329 12.1509273,5.73927198 C12.1269136,6.77186066 12.9193654,7.61233982 13.879913,7.61233982 M17.1217612,8.76499695 L15.7769945,8.76499695 L15.7769945,7.78043565 C15.2967207,8.69295588 14.2401183,9.07717492 13.2075296,8.93309278 C11.5025576,8.66894219 10.5900374,7.13206601 10.6380648,5.61920352 C10.6620785,4.82675174 11.0462975,3.96225889 11.5745987,3.43395771 C12.1989547,2.80960176 13.0154201,2.59347855 13.7598445,2.61749224 C15.1046112,2.64150593 15.6088987,3.4579714 15.8010082,3.67409461 L15.8010082,2.80960176 L17.1457749,2.80960176 L17.1457749,8.76499695 L17.1217612,8.76499695 Z" id="Shape" fill="#CD6B55" fill-rule="nonzero"></path>
                                        <path d="M65.4132923,7.61233982 C66.3738399,7.61233982 67.142278,6.77186066 67.142278,5.73927198 C67.142278,4.70668329 66.3738399,3.86620413 65.4132923,3.86620413 C64.4527447,3.86620413 63.6843066,4.70668329 63.6843066,5.73927198 C63.6843066,6.77186066 64.4527447,7.61233982 65.4132923,7.61233982 M68.6551405,8.76499695 L67.3103738,8.76499695 L67.3103738,7.78043565 C66.8301,8.69295588 65.7734977,9.07717492 64.740909,8.93309278 C63.035937,8.66894219 62.1234167,7.13206601 62.1714441,5.61920352 C62.1954578,4.82675174 62.5796768,3.96225889 63.107978,3.43395771 C63.732334,2.80960176 64.5487995,2.59347855 65.2932238,2.61749224 C66.6379905,2.64150593 67.142278,3.4579714 67.3343875,3.67409461 L67.3343875,2.80960176 L68.6791542,2.80960176 L68.6791542,8.76499695 L68.6551405,8.76499695 Z" id="Shape" fill="#CD6B55" fill-rule="nonzero"></path>
                                        <path d="M0.0960547611,7.9005041 L0.768438089,6.9159428 C1.56088987,7.34818922 1.9691226,7.63635351 2.61749224,7.68438089 C4.27443687,7.82846303 4.2023958,6.57975113 3.57803985,6.4116553 C2.83361545,6.19553209 1.94510891,6.29158685 1.20068451,5.90736781 C0.456260115,5.49913507 0.240136903,4.85076543 0.312177974,4.25042318 C0.384219044,3.50599878 0.84047916,2.88164283 1.89708153,2.66551962 C2.9536839,2.42538272 4.34647794,2.66551962 5.21097079,3.31388926 L4.41851901,4.32246425 C3.9382452,4.08232735 3.57803985,3.89021782 3.24184819,3.81817675 C2.32932796,3.62606723 1.87306784,3.91423151 1.80102677,4.27443687 C1.7289857,4.56260115 1.89708153,4.85076543 2.2332732,4.9468202 C2.68953331,5.06688865 3.50599878,5.09090234 4.05831366,5.21097079 C4.92280651,5.427094 5.35505293,6.00342257 5.427094,6.72383328 C5.59518983,8.52486005 3.91423151,9.17322968 2.37735534,9.00513385 C1.53687618,8.90907909 0.792451779,8.57288743 0.0960547611,7.9005041" id="Path" fill="#CD6B55" fill-rule="nonzero"></path>
                                        <path d="M10.54201,8.62091481 C10.0617362,8.69295588 9.29329814,8.81302433 8.62091481,8.71696957 C7.44424398,8.57288743 7.22812077,7.9005041 7.22812077,6.79587435 L7.22812077,4.01028628 L6.02743626,4.01028628 L6.02743626,2.76157438 L7.1560797,2.76157438 L7.1560797,1.08061606 L8.62091481,1.08061606 L8.62091481,2.76157438 L10.2538457,2.76157438 L10.2538457,4.01028628 L8.62091481,4.01028628 L8.62091481,6.79587435 C8.62091481,7.32417553 8.93309278,7.46825767 9.55744873,7.46825767 L10.157791,7.46825767 L10.54201,8.62091481 Z" id="Path" fill="#CD6B55" fill-rule="nonzero"></path>
                                        <path d="M18.2744183,8.78901064 L18.2744183,2.78558807 L19.6431986,2.78558807 L19.6431986,3.53001247 C20.1474861,2.88164283 20.699801,2.61749224 21.3481707,2.61749224 C22.020554,2.61749224 22.4768141,2.78558807 23.029129,3.14579343 L22.2847046,4.4425327 C21.9725266,4.15436842 21.2521159,3.77014937 20.6277599,4.05831366 C20.2195272,4.25042318 19.7392534,4.56260115 19.7392534,5.73927198 L19.7392534,8.76499695 L18.2744183,8.76499695 L18.2744183,8.78901064 Z" id="Path" fill="#CD6B55" fill-rule="nonzero"></path>
                                        <path d="M28.1200313,8.62091481 C26.9193468,8.8850654 25.9107718,8.95710647 25.3344432,8.28472314 C25.0702926,7.97254517 24.8061421,7.51628506 24.8061421,6.79587435 L24.8061421,4.01028628 L23.6054575,4.01028628 L23.6054575,2.76157438 L24.734101,2.76157438 L24.734101,1.08061606 L26.1989361,1.08061606 L26.1989361,2.76157438 L27.831867,2.76157438 L27.831867,4.01028628 L26.1989361,4.01028628 L26.2229498,6.79587435 C26.2229498,7.32417553 26.5351278,7.46825767 27.1594837,7.46825767 L27.8078533,7.46825767 L28.1200313,8.62091481 Z" id="Path" fill="#CD6B55" fill-rule="nonzero"></path>
                                        <path d="M39.1423151,3.98627259 C40.1268764,3.98627259 40.9193282,4.77872436 40.9193282,5.76328567 C40.9193282,6.74784697 40.1268764,7.54029875 39.1423151,7.54029875 C38.1577538,7.54029875 37.3653021,6.74784697 37.3653021,5.76328567 C37.3893158,4.77872436 38.1817675,3.98627259 39.1423151,3.98627259 M35.8044122,11.3104481 L37.2212199,11.3104481 L37.2212199,7.87649041 C37.7014937,8.78901064 38.7340824,9.07717492 39.7666711,8.90907909 C41.4716431,8.6449285 42.3841633,7.1560797 42.3361359,5.64321721 C42.3121223,4.85076543 41.9279032,3.98627259 41.399602,3.4579714 C40.7752461,2.83361545 39.9587806,2.61749224 39.2143562,2.64150593 C37.8695896,2.66551962 37.4133294,3.48198509 37.2212199,3.6981083 L37.2212199,2.83361545 L35.8044122,2.83361545 L35.8044122,11.3104481 Z" id="Shape" fill="#CD6B55" fill-rule="nonzero"></path>
                                        <path d="M33.6191664,8.74098326 L33.6191664,7.85247672 C33.0668515,8.62091481 32.2743997,8.90907909 31.5059616,8.86105171 C30.2572497,8.78901064 29.0805789,7.82846303 29.0805789,6.29158685 L29.0805789,2.76157438 L30.5214003,2.76157438 L30.5214003,5.85934043 C30.5214003,7.03601125 31.3138521,7.58832613 32.0822902,7.54029875 C32.8027009,7.49227136 33.4990979,6.96397018 33.4990979,5.6672309 L33.4990979,2.76157438 L34.9399193,2.76157438 L34.9399193,8.74098326 L33.6191664,8.74098326 Z" id="Path" fill="#CD6B55" fill-rule="nonzero"></path>
                                        <path d="M46.8747234,2.76157438 L46.8747234,3.65008092 C47.4270383,2.88164283 48.2194901,2.59347855 48.9879282,2.64150593 C50.23664,2.713547 51.4133109,3.67409461 51.4133109,5.21097079 L51.4133109,8.74098326 L49.9724895,8.74098326 L49.9724895,5.64321721 C49.9724895,4.46654639 49.1800377,3.91423151 48.4115996,3.96225889 C47.6911889,4.01028628 46.9947919,4.53858746 46.9947919,5.83532674 L46.9947919,8.74098326 L45.5539704,8.74098326 L45.5539704,2.76157438 L46.8747234,2.76157438 Z" id="Path" fill="#CD6B55" fill-rule="nonzero"></path>
                                        <path d="M43.8970258,0.168095832 C44.3772996,0.168095832 44.7855324,0.576328567 44.7855324,1.05660237 C44.7855324,1.53687618 44.3772996,1.94510891 43.8970258,1.94510891 C43.416752,1.94510891 43.0085193,1.53687618 43.0085193,1.05660237 C43.0085193,0.552314876 43.3927383,0.168095832 43.8970258,0.168095832" id="Path" fill="#CD6B55" fill-rule="nonzero"></path>
                                        <rect id="Rectangle" fill="#CD6B55" fill-rule="nonzero" x="43.1285877" y="2.73756069" width="1.53687618" height="6.00342257"></rect>
                                        <path d="M55.3755698,3.98627259 C56.3601311,3.98627259 57.1525828,4.77872436 57.1525828,5.76328567 C57.1525828,6.74784697 56.3601311,7.54029875 55.3755698,7.54029875 C54.3910085,7.54029875 53.5985567,6.74784697 53.5985567,5.76328567 C53.5985567,4.77872436 54.3910085,3.98627259 55.3755698,3.98627259 M58.7134727,0.192109522 L57.296665,0.192109522 L57.296665,3.62606723 C56.8163912,2.713547 55.7357751,2.4734101 54.7512138,2.59347855 C53.0222281,2.78558807 52.1097079,4.37049163 52.181749,5.90736781 C52.2297763,6.69981959 52.5179406,7.46825767 53.0942692,8.04458624 C53.7186251,8.66894219 54.5350906,8.8850654 55.279515,8.86105171 C56.6242817,8.83703802 57.0805418,8.02057255 57.2726513,7.80444934 L57.2726513,8.66894219 L58.689459,8.66894219 L58.689459,0.192109522 L58.7134727,0.192109522 Z" id="Shape" fill="#CD6B55" fill-rule="nonzero"></path>
                                        <path d="M60.706609,0.168095832 C61.1868828,0.168095832 61.5951155,0.576328567 61.5951155,1.05660237 C61.5951155,1.53687618 61.1868828,1.94510891 60.706609,1.94510891 C60.2263352,1.94510891 59.8181025,1.53687618 59.8181025,1.05660237 C59.8181025,0.552314876 60.2023215,0.168095832 60.706609,0.168095832" id="Path" fill="#2B3F88"></path>
                                        <rect id="Rectangle" fill="#2B3F88" x="59.9381709" y="2.73756069" width="1.53687618" height="6.00342257"></rect>
                                        <path d="M48.6997639,15.3927755 L54.3669948,15.3927755 L54.3669948,9.70153087 L61.4750471,9.70153087 L61.4750471,11.2143934 L55.8798573,11.2143934 C55.8798573,13.1114749 55.8798573,15.0085564 55.8798573,16.905638 L48.6997639,16.905638 L48.6997639,15.3927755 Z" id="Path" fill="#77A05D"></path>
                                    </g>
                                    <polygon id="Path" fill="#2B3F88" fill-rule="nonzero" points="29.3927569 59.8421162 19.691226 30.6654825 29.536839 33.5951527 29.464798 33.8352896 20.0994588 31.0737152 29.6328938 59.7700751"></polygon>
                                    <polygon id="Path" fill="#2B3F88" fill-rule="nonzero" points="29.3927569 59.8421162 14.6963784 25.6706349 29.536839 33.5951527 29.464798 33.8352896 20.0994588 31.0737152 29.6328938 59.7700751"></polygon>
                                </g>
                            </g>
                            <g id="Group-61" transform="translate(21.004829, 211.191545)">
                                <path d="M4.70467929,0.654819762 C31.6705595,2.00658426 51.4765866,2.68303398 64.1227606,2.6841689 C76.6647653,2.68529447 95.2329943,2.02335769 119.827448,0.698358556 L119.827448,0.698359758 C122.309466,0.564643745 124.429938,2.46831897 124.563654,4.95033739 C124.577377,5.20506788 124.569418,5.46050399 124.539862,5.71388596 C123.834489,11.7611158 123.481894,15.975484 123.482079,18.3569906 C123.482275,20.8845165 123.880149,25.3755259 124.675701,31.8300189 L124.675706,31.8300184 C124.963819,34.1675457 123.401023,36.3318914 121.091545,36.793792 C109.361951,39.1397356 96.4615006,39.3650077 82.3901936,37.4696084 C67.3624422,35.4453764 41.4930424,34.8665051 4.78199435,35.7329944 L4.78199461,35.7330054 C2.29706225,35.7916572 0.235079911,33.8247681 0.176428153,31.3398358 C0.171580571,31.1344555 0.180800982,30.9289843 0.2040247,30.7248638 C0.677685618,26.5617087 0.914422032,23.2660827 0.914233941,20.8379855 C0.914020082,18.0772237 0.607245081,12.9708865 -0.00609106153,5.51897384 L-0.00610077089,5.51897464 C-0.20999275,3.04172748 1.63292575,0.868234762 4.11017291,0.664342783 C4.30791515,0.648067436 4.50651723,0.644886156 4.70467929,0.654819762 Z" id="Rectangle-Copy-2" fill="#25429C" fill-rule="nonzero" opacity="0.691428961"></path>
                                <text id="Apply-Now" font-family="MarkerFelt-Thin, Marker Felt" font-size="17.8248133" font-weight="300" line-spacing="19" fill="#FFFFFF">
                                    <tspan x="24.1898301" y="25.0862926">Apply Now</tspan>
                                </text>
                            </g>
                        </g>
                        <g id="Group-4" transform="translate(210.215200, 161.616000)">
                            <g id="Group" transform="translate(89.041579, 133.191024) scale(-1, 1) translate(-89.041579, -133.191024) translate(0.041579, 0.691024)">
                                <g id="Head/Front" transform="translate(49.179395, 34.737632) rotate(-3.000000) translate(-49.179395, -34.737632) translate(1.679395, 3.237632)">
                                    <g id="Head" transform="translate(70.740306, 21.217207)" fill="#E8BC93">
                                        <path d="M21.0673472,5.04975102 C24.2679396,11.0212177 23.8876261,26.168338 19.7511455,27.2356056 C18.101474,27.6612431 14.5871281,26.6185584 11.0103963,24.4605455 L13.2556906,40.3584992 L4.54747351e-13,40.3584992 L4.56336734,19.0680137 C2.01835513,16.0777644 0.295844136,12.4131815 0.583679173,8.30691464 C1.41301808,-3.52446935 17.8667548,-0.921715619 21.0673472,5.04975102 Z"></path>
                                    </g>
                                    <path d="M84.2522457,19.3846309 C82.5051841,19.0978539 77.8011435,18.9006868 76.9336344,18.9008141 C76.3792552,18.9008141 75.7784769,19.0275917 75.4501343,18.518063 C75.1812483,18.1008171 75.2797511,17.3951396 75.1995037,16.910941 C75.1063253,16.348461 74.9739741,15.7932364 74.8401016,15.2394119 C74.4591481,13.6634751 73.8830906,12.164165 73.0770665,10.7565013 C71.5646621,8.11555661 69.3490466,6.046893 66.5519224,4.84314258 C63.4630931,3.51401476 59.9678288,3.20967224 56.6453565,3.47926549 C53.0898749,3.76769717 49.8713566,4.9425535 46.5144019,6.04816587 C43.3154066,7.10171796 39.9647906,7.51641806 36.6189919,7.00192518 C33.2479654,6.4836137 30.700838,4.65475825 27.8574416,2.91894939 C24.9466019,1.14189964 21.6200728,-0.0203553102 18.1789406,0.246819494 C14.966761,0.496301445 12.0062261,1.82390183 9.35007375,3.59738756 C8.26660199,4.32081498 2.81579541,6.06304656 1.14793018,9.60722786 C-1.00975034,14.1922571 0.819540456,20.9108074 2.25257106,23.1677098 C5.43094184,28.1733757 14.9767678,29.4313096 17.5247909,29.3759917 C20.1767597,29.3185854 22.7813154,28.8340049 25.2850864,27.9525445 C28.624166,26.7769244 31.5096511,24.7843783 34.6334699,23.1677098 C36.0994753,22.409081 37.6147955,21.7860125 39.2031371,21.3371996 C40.7444459,20.9014972 42.2625551,20.701657 43.6580746,21.6336503 C45.1343487,22.6196132 46.4572272,23.5881378 48.1460999,24.205351 C49.7662616,24.7974888 51.4823906,25.1286888 53.2085346,25.1153237 C56.5670106,25.0893572 59.8776931,18.5133534 63.1395679,17.811749 C65.7995234,17.2397225 68.6455821,16.6696054 71.3573879,17.2194839 C72.4889656,17.4489819 74.1418347,17.922743 74.5505516,19.0998905 C67.6717102,20.3478094 64.9700526,28.8632903 66.9093025,35.1144679 C67.9559421,38.4884567 74.2474368,42.432614 76.6936527,40.6588571 C78.2434009,39.5351311 77.3025445,38.0598824 76.6936527,37.0860118 C75.5275927,35.2210069 75.1286374,32.8253437 77.2863175,31.526892 C79.1474751,30.4070235 81.104354,33.0664139 81.1413718,33.0634863 C81.6529017,33.0231365 86.0729647,30.5209721 89.1183076,26.8696797 C92.1225497,27.0479408 92.5783367,25.0650995 91.8609825,23.4435079 C91.1436284,21.8219164 86.6661345,19.781129 84.2522457,19.3846309 Z" id="hair" fill="#8F8F8F"></path>
                                </g>
                                <g id="Bottom/Skinny-Jeans-1" transform="translate(9.322013, 117.343793)">
                                    <polygon id="Leg" fill="#E8BC93" points="67.3302081 0 96.0961316 72.7331146 115.389556 134.222832 123.00811 134.222832 93.5127052 2.98034558e-13"></polygon>
                                    <path d="M62.5563608,18.3539985 C62.2500448,43.9129143 48.4775742,73.3256845 47.7638644,74.9188972 C47.2880578,75.9810391 34.3455566,91.2521456 8.93636076,120.732217 L15.8678247,126.428767 C42.2438432,98.4419781 56.3157061,82.9647538 58.0834136,79.9970941 C60.7349748,75.5456046 73.393466,45.4540768 80.3242512,21.0023453 L62.5563608,18.3539985 Z" id="Leg" fill="#E8BC93"></path>
                                    <g id="Left-Shoe" transform="translate(20.164007, 129.031036) rotate(33.000000) translate(-20.164007, -129.031036) translate(2.164007, 120.031036)" fill="#989696">
                                        <path d="M2.33112431,6.01346345 C1.57865164,8.04049619 1.20241531,9.53978511 1.20241531,10.5113302 C1.20241531,11.6145684 1.37831498,13.2244486 1.73011434,15.340971 C2.95617797,15.3408414 13.9750183,15.3396766 34.7866352,15.3374766 C35.6459701,12.3729465 35.1502619,10.7725935 33.2995106,10.5364176 C31.4487594,10.3002418 29.9113107,10.0869798 28.6871646,9.89663166 L13.1625893,2.67346128 C12.9597628,2.57909155 12.7188377,2.66701309 12.624468,2.86983955 C12.6210912,2.87709728 12.6179302,2.88445352 12.6149893,2.89189856 L11.5551637,5.57491529 L11.5551637,5.57491529 C9.84174091,6.40955603 8.44943454,6.82693303 7.3782446,6.82704626 C6.44796508,6.8271446 5.13886493,6.40807499 3.45094415,5.56983744 L3.45095725,5.56981105 C3.05022386,5.37080303 2.56403739,5.53433375 2.36502937,5.93506714 C2.35235702,5.96058488 2.34103961,5.98675334 2.33112431,6.01346345 Z" id="shoe" transform="translate(18.198889, 8.916559) rotate(-6.000000) translate(-18.198889, -8.916559) "></path>
                                    </g>
                                    <g id="Right-Shoe" transform="translate(110.700364, 116.511712)" fill="#989696">
                                        <path d="M1.71219103,14.4986233 C0.961452467,16.4356059 0.586083183,17.8685383 0.586083183,18.7974204 C0.586083183,19.8532192 0.762150896,21.3938922 1.11428632,23.4194395 C2.34033633,23.4194395 13.3590542,23.4194395 34.1704399,23.4194395 C35.0294522,20.5824714 34.5335805,19.0508836 32.6828249,18.8246761 C30.8320692,18.5984686 29.2946151,18.3942214 28.0704624,18.2119344 L12.5359661,11.2936351 C12.3316101,11.202625 12.0921685,11.2945101 12.0011584,11.4988661 C11.999642,11.502271 11.9981727,11.5056966 11.9967509,11.5091421 L10.9381953,14.0743191 L10.9381953,14.0743191 C9.22487968,14.8728969 7.83263284,15.2721858 6.7614548,15.2721858 C5.82785126,15.2721858 4.51266627,14.8681227 2.81589982,14.0599966 L2.81590266,14.0599906 C2.41196249,13.8676043 1.92854438,14.0391026 1.73615809,14.4430428 C1.7274795,14.4612646 1.71948491,14.4798044 1.71219103,14.4986233 Z" id="shoe"></path>
                                    </g>
                                    <polygon id="Pant" fill="#E6967D" points="110.700364 126.428767 122.89351 123.962212 96.0482841 0 63.6051063 0"></polygon>
                                    <path d="M11.1730499,116.511712 L23.9681277,124.219158 C51.7219076,94.4752806 67.675998,75.4393668 71.8303989,67.1114161 C75.9847998,58.7834654 83.0413407,36.4129934 93.0000216,0 L59.3814626,0 C55.6330221,32.3679337 53.443613,49.3050197 52.8132353,50.811258 C52.1828575,52.3174964 38.3027957,74.2176475 11.1730499,116.511712 Z" id="Pant" fill="#F2AE9A"></path>
                                </g>
                                <g id="Body/Long-Sleeve-1" transform="translate(92.003822, 99.020193) rotate(-14.000000) translate(-92.003822, -99.020193) translate(17.503822, 46.020193)">
                                    <path d="M29.4323835,55.2295917 L41.465766,57.6141563 C30.090244,78.786862 23.6732539,90.6054778 22.2147956,93.0700039 L22.1284366,93.2146105 C22.0753534,93.3025458 22.0312489,93.3735429 21.9961232,93.4276019 C20.0203019,96.4684218 21.8637831,102.041356 22.5447574,104.976102 C20.5669562,105.435908 19.8659074,104.306425 19.1468926,103.093712 L18.9733211,102.801834 C18.1847315,101.488132 17.2543735,100.217884 14.5512748,100.888292 C13.5989977,101.12447 12.6746763,101.43204 11.769916,101.744208 L11.2782998,101.914536 C7.6866009,103.161063 4.38345851,104.286844 0.831621217,101.017058 C0.265925334,100.496284 -0.1481908,98.8684912 1.78055302,98.0336043 C6.58575726,95.9535966 13.6850418,92.0588241 14.8361914,90.5467163 C15.0873591,90.2167917 15.4228941,89.6382821 15.8427965,88.8111878 L16.0042146,88.489375 C18.26431,83.932017 22.7403663,72.8454226 29.4323835,55.2295917 Z M110.100243,60.0950928 L133.193959,62.6517644 C138.276812,61.3028522 142.803689,60.6607887 146.77459,60.7255739 C147.83853,60.9587423 149.424146,61.7590644 146.405613,63.2032751 C143.387081,64.6474858 140.277179,66.3023187 140.448255,67.5180108 C140.61933,68.7337028 143.04971,68.904106 143.012492,70.6989516 C142.98768,71.8955154 139.163535,71.1361203 131.540057,68.4207663 L111.63771,71.0205907 L110.100243,60.0950928 Z" id="Skin" fill="#E8BC93"></path>
                                    <path d="M60.9196077,20.8756706 L65.902335,19.6514096 C77.8542103,28.732462 84.5940897,52.3473644 92.233773,54.9211196 C99.4567844,57.354501 109.02619,53.644927 120.357036,48.7661578 L124.638762,55.9487553 C115.014978,67.5581085 93.2210243,78.4841257 83.5583503,74.0552086 C68.1097433,66.9742909 61.9549956,37.6722793 60.9196077,20.8756706 Z" id="Coat-Back" fill="#8292B7" transform="translate(92.779185, 47.357010) rotate(25.000000) translate(-92.779185, -47.357010) "></path>
                                    <path d="M52.0359337,73.9971724 C79.9351153,73.6446557 93.7857783,72.9703855 93.5879225,71.974362 C90.1626817,54.7313896 80.2973652,34.6072152 80.2973652,10.062278 L68.5793032,7.13766608 C57.8597936,24.355987 54.1528014,45.5552264 52.0359337,73.9971724 Z" id="Shirt" fill="#DDE3E9"></path>
                                    <path d="M67.8618793,0.716399 C69.8186978,3.28261136 71.221894,5.09989059 72.0714679,6.1682367 C72.6563902,6.90378117 74.7166925,7.72229496 78.252375,8.62377809 C77.1004681,27.6234136 77.2367267,40.7482164 78.6611509,47.9981865 C82.2366567,66.1966354 81.3550109,77.3876227 79.4264195,82.8594681 C79.2719152,83.2978314 82.6167629,83.2010169 82.4442374,83.6126598 L82.4442374,83.6126598 L41.1206111,83.6126598 C41.5975086,76.8207932 42.8626709,69.3536742 44.6467885,61.70708 C36.7546075,75.5442285 30.0248803,85.701027 24.4580405,92.1782663 L15.0403469,90.3360054 C20.750811,54.9658243 36.6522557,28.3167657 62.7446809,10.3888294 C64.5306732,6.68282056 66.261676,3.41242371 67.8618793,0.716399 Z" id="Coat-Front" fill="#8E9EC6"></path>
                                </g>
                            </g>
                        </g>
                        <g id="humaaan-10" transform="translate(8.195200, 170.851200)">
                            <g id="Head/Front" transform="translate(33.272248, 0.000000)">
                                <g id="Head" transform="translate(0.773162, 2.418856)" fill="#E8BC93">
                                    <path d="M24.2902287,5.82013838 C27.9804475,12.7026088 27.5419536,30.1605659 22.7726745,31.3906554 C20.8706552,31.881223 16.8187465,30.6794956 12.6948888,28.1923075 L15.2835454,46.5155706 L0,46.5155706 L5.26124827,21.9767583 C2.32702247,18.530366 0.34111075,14.3068102 0.672970376,9.57421318 C1.6291815,-4.06216055 20.6000098,-1.06233207 24.2902287,5.82013838 Z"></path>
                                </g>
                                <path d="M2.57705601,8.50269383 C6.06052827,-5.82644004 25.7801785,3.06917814 29.5743693,0.65175937 C30.4037692,5.85356273 27.7286374,10.0479099 18.3235184,9.23720281 C16.249305,10.3973861 14.7730946,12.5729143 12.9960113,15.4266944 C12.5636732,15.2563677 12.0922547,15.1628476 11.5990067,15.1628476 C9.48878943,15.1628476 7.77812034,16.8745515 7.77812034,18.9860452 C7.77812034,20.0576679 8.2187465,21.0263147 8.92860341,21.7204864 C8.04520926,22.9695174 7.05432613,24.273996 5.91886831,25.6200514 C1.70961306,23.0931419 -1.42817785,15.7600044 2.49765114,8.64717398 Z" id="Hair" fill="#8F8F8F"></path>
                            </g>
                            <g id="Bottom/Skinny-Jeans-1" transform="translate(0.000000, 118.281324)">
                                <polygon id="Leg" fill="#A6B2BA" points="28.5216612 0 46.986871 72.1923041 60.4592789 125.401924 70.2855222 125.401924 55.9691631 0"></polygon>
                                <path d="M23.5835135,0 C23.156415,37.2087507 21.700017,57.5034145 21.2515811,60.8839912 C20.8031451,64.264568 14.0225585,85.7705456 0.90982129,125.401924 L11.0891438,125.401924 C27.7826615,87.3823881 37.1014102,65.8764105 39.0453899,60.8839912 C40.9893695,55.891572 46.9886804,35.5969082 56.0246916,0 L23.5835135,0 Z" id="Leg" fill="#C5CFD6"></path>
                                <g id="Left-Shoe" transform="translate(0.000000, 123.115140)" fill="#7F7C7C">
                                    <path d="M0,12.500515 L0.509315379,0.58449507 L11.2049383,0.58449507 C16.2764988,4.55650172 22.8975987,7.77193567 31.0682381,10.2307969 L31.0682381,12.500515 L11.7142537,12.500515 L5.09315379,11.365656 L5.09315379,12.500515 L0,12.500515 Z" id="Shoe"></path>
                                </g>
                                <g id="Right-Shoe" transform="translate(59.080584, 123.115140)" fill="#7F7C7C">
                                    <path d="M0,12.500515 L0.509315379,0.58449507 L11.2049383,0.58449507 C16.2764988,4.55650172 22.8975987,7.77193567 31.0682381,10.2307969 L31.0682381,12.500515 L11.7142537,12.500515 L5.09315379,11.365656 L5.09315379,12.500515 L0,12.500515 Z" id="Shoe"></path>
                                </g>
                            </g>
                            <path d="M90.8538657,62.9739457 L109.569788,81.1254452 C115.015431,83.4347337 119.47736,85.9846544 122.955575,88.7752075 C123.737773,89.7132073 124.589324,91.5104635 120.909119,90.7062171 C117.228914,89.9019707 113.321509,89.2205699 112.629821,90.4104089 C111.938134,91.600248 113.976248,93.4235042 112.697923,94.9806973 C111.845707,96.0188261 108.979636,92.7167417 104.09971,85.0744443 L84.6376269,73.6671012 L90.8538657,62.9739457 Z" id="Skin" fill="#E8BC93" transform="translate(104.137459, 79.070437) rotate(-60.000000) translate(-104.137459, -79.070437) "></path>
                            <g id="Body/Long-Sleeve-1" transform="translate(11.204938, 34.668664)" fill="#99A4B9">
                                <path d="M44.6981541,0 C45.5203758,10.5743045 48.8404104,21.9616897 52.355868,33.4699183 L52.9778028,35.5018957 L52.9778028,35.5018957 L53.6009831,37.5355366 C54.3470924,39.9722233 55.0898303,42.4106707 55.8074489,44.8443402 C64.3035756,47.3986613 73.3733585,47.2683541 83.0169183,44.4543999 C84.1797608,48.6916781 85.7601727,52.7948585 87.7581539,56.7639409 C77.4081048,59.5030107 68.2628202,61.3199542 60.2552989,62.2829003 C62.7069802,74.653184 63.0474996,86.4648787 58.1961608,96.7910105 C51.6509726,110.72252 13.3252595,97.8203888 0.438980246,100.359844 C7.93366063,72.553592 11.065055,63.700957 11.0776095,46.9147618 C11.091358,28.5320892 22.7440762,0 24.9135696,0 L24.9135696,0 Z" id="Clothes"></path>
                            </g>
                        </g>
                    </g>
                    <path d="M363.847234,53.9815763 C366.596252,51.5602392 369.636364,45.8655758 369.636364,42.0273324 C369.636364,35.5594768 372.258492,30.4276916 360.881933,30.4276916 C359.4581,30.4276916 346.739964,33.9199733 341.53674,39.3618321 C336.082596,45.0661192 338.239878,52.7737742 341.53674,54.6615644 C348.403253,58.5933443 362.559448,55.1158586 363.847234,53.9815763 Z" id="Oval" fill-opacity="0.2" fill="#8FC1F6"></path>
                    <path d="M294.711782,42.6540265 C296.086291,41.3907201 297.606347,38.4195914 297.606347,36.4170296 C297.606347,33.0424963 298.917411,30.3650431 293.229131,30.3650431 C292.517215,30.3650431 286.158147,32.1871032 283.556535,35.0263339 C280.829463,38.0024837 281.908104,42.0238688 283.556535,43.0088029 C286.989791,45.0601663 294.067889,43.245826 294.711782,42.6540265 Z" id="Oval" fill-opacity="0.30201049" fill="#F8D874"></path>
                </g>
            </g>
        </g>
    </g>
</svg>