<?xml version="1.0" encoding="UTF-8"?>
<svg width="259px" height="268px" viewBox="0 0 259 268" version="1.1" xmlns="http://www.w3.org/2000/svg" xmlns:xlink="http://www.w3.org/1999/xlink">
    <title>BB77500E-C2FB-4027-960C-1493B2FAB408</title>
    <g id="5.-INCUBATOR-Dashboard-" stroke="none" stroke-width="1" fill="none" fill-rule="evenodd">
        <g id="SEEDFUND--Incubator-Dashboard-blank" transform="translate(-339.000000, -563.000000)">
            <g id="Group-2" transform="translate(327.000000, 563.285943)">
                <g id="Group-39" transform="translate(12.934053, -0.000000)">
                    <path d="M14.9617735,154.267927 C20.6129656,114.86728 74.8956137,124.191825 112.841501,112.084079 C150.787389,99.9763323 201.934936,40.9819035 231.71448,68.8384414 C261.494025,96.6949792 227.362236,186.340624 159.205449,201.366116 C91.0486621,216.391607 9.31058135,193.668574 14.9617735,154.267927 Z" id="Background-Shape" fill="#DDE3E9" opacity="0.264194222" transform="translate(128.609088, 133.740519) scale(-1, 1) rotate(50.000000) translate(-128.609088, -133.740519) "></path>
                    <path d="M185.463634,51.110857 C185.637582,51.2436314 185.840038,51.4177196 186.092745,51.5325438 L185.783505,51.7399681 L185.783505,51.7399681 C185.760795,51.5855396 185.661741,51.3803946 185.463634,51.110857 Z M191.061161,48.8842367 C190.639912,49.0550756 190.220431,49.2726769 189.802939,49.5133478 C189.855982,49.3256744 189.910572,49.140495 189.963393,48.9521981 C190.32939,48.9191527 190.695386,48.8923422 191.061161,48.8842367 Z M189.554909,43.6966786 C189.964153,44.0583101 190.377166,44.4261392 190.81143,44.7701075 C190.771671,44.8302244 190.733626,44.8909612 190.693524,44.9510781 C190.428922,44.6526624 190.051897,44.2680997 189.657049,43.8881853 C189.608378,43.7968736 189.574484,43.7322805 189.560444,43.7059751 L189.554909,43.6966786 L189.554909,43.6966786 Z M200.353506,28.0411766 C202.013222,27.2585893 204.120993,28.3967729 203.110249,30.6586775 C202.027602,33.0808184 198.463292,32.9077264 196.453514,32.7435874 C196.655457,32.7435874 197.413104,30.5090011 197.651615,30.1784274 C198.355027,29.203235 199.333107,28.5232633 200.353506,28.0411766 Z M142.361669,104.993552 C142.495231,105.639798 142.700667,106.271059 142.99078,106.880885 C142.575252,106.341051 142.390185,105.694805 142.361669,104.993552 Z M196.621494,24.0317276 C198.200082,22.4288903 199.124808,24.9126324 198.978123,26.1919613 C198.804984,27.7004089 198.048857,29.0411408 197.170328,30.2201184 L197.170328,30.2201184 L197.119628,30.2886535 C197.086387,30.331399 197.098121,30.294587 197.0882,30.1585167 C197.071025,30.246945 197.037858,30.31113 196.991266,30.3564371 C196.991661,31.1552725 197.030948,31.9751717 196.954743,32.6780276 C196.736394,34.6908145 196.395643,36.7089667 195.950851,38.683799 C195.842664,39.1640938 195.722631,39.6398182 195.591346,40.1107734 C196.432364,39.4655449 197.549774,38.9117255 197.984497,38.7430162 C199.112765,38.3056439 200.839617,37.8601243 201.890692,38.7567275 C202.762706,39.5005188 202.741779,40.7317586 201.956236,41.5246325 C201.02085,42.46853 199.409293,42.3477111 198.209953,42.187944 C197.667437,42.1156117 194.770662,41.7293092 195.485132,41.28836 C195.431039,41.3056483 195.317718,41.3485708 195.195712,41.4085828 C195.119704,41.6388938 195.040538,41.8682112 194.958608,42.0963363 C194.975191,42.1072656 194.989208,42.1187911 195.006976,42.1297205 L195.001669,42.1259323 L194.981212,42.1149162 L194.981212,42.1149162 L194.957226,42.1001119 C194.136542,44.3801709 193.02545,46.5338469 191.613684,48.5291469 C192.111582,48.3622261 192.624485,48.2429969 193.140349,48.2050423 C194.668002,48.0923707 197.798723,49.4422435 195.995271,51.3785251 C194.266051,53.2347244 191.840917,51.018453 190.008641,50.6341377 C188.08575,53.0467398 185.984585,55.3452792 183.792804,57.5585699 C183.917575,57.6050692 184.024578,57.693895 184.081633,57.8264381 C184.934299,57.4476868 185.831386,56.8888994 186.608637,56.765696 C187.730192,56.5882432 190.012195,56.5647948 190.798528,57.6040757 C191.765699,58.8820135 190.60841,59.8179625 189.377878,59.9886589 C187.593576,60.2362581 185.32638,59.2496368 183.657175,58.5757933 C183.460938,58.6000366 183.25167,58.5318773 183.13302,58.3693282 L183.13302,58.3693282 L183.023253,58.3272005 C180.805807,60.5277734 178.512156,62.6478666 176.234299,64.7196719 L176.234299,64.7196719 L176.304582,64.7194732 C176.888359,64.3780804 177.509646,64.105443 178.17417,63.9804511 C179.711496,63.6893333 181.497574,63.7813384 182.671841,64.9470022 C183.841568,66.1076981 184.176001,68.0477552 182.842217,69.2120279 C180.172477,71.5425606 176.722524,65.7277545 175.4531,65.425906 C173.139509,67.5080445 170.707268,69.4391595 168.240676,71.3269545 C168.513118,71.2591926 168.791286,71.2134881 169.076956,71.2013665 C171.404168,71.1008165 176.690542,74.231973 173.70236,76.8824372 C171.098362,79.1921047 168.477582,74.3456381 166.56772,72.5985335 L166.637669,72.6639323 L166.52575,72.6302937 C164.681021,74.026166 162.829341,75.4138593 161.005987,76.8381317 L159.634056,77.9221155 C160.836555,77.6687535 161.985157,77.6824649 163.236418,78.1343434 C164.531113,78.6025166 166.601874,79.709758 165.677149,81.4465294 C164.73663,83.2127107 162.230553,82.2549031 160.932897,81.6102708 C160.225138,81.2587435 158.828574,80.1242781 157.577115,79.6115927 C153.935465,82.7131405 150.74078,86.1721772 148.2426,90.3134033 C146.682964,92.8990864 145.45638,95.684677 144.544882,98.5660483 C143.963079,100.405158 142.845077,103.486636 142.90924,105.923481 C142.252613,101.017996 144.204132,95.2703556 146.204808,91.0216245 C148.044388,87.1146837 150.668326,83.7379152 153.692044,80.7331416 C153.507678,80.0617804 152.832708,79.2753571 152.089134,78.4548906 L151.839314,78.180252 C150.206494,76.3883506 148.471736,74.4788952 150.927344,73.2759538 C152.899789,72.314172 154.770956,74.180307 155.092359,76.0694931 C155.313077,77.3676999 154.790303,78.9568259 154.25983,80.1777325 C155.20943,79.2632448 156.192988,78.3815452 157.203394,77.5322361 C158.599761,76.3584251 160.026137,75.2223699 161.464752,74.1022119 C159.308507,71.8473898 157.481365,65.6291917 160.574378,64.7904146 C164.10355,63.8365451 163.354658,68.5246907 162.649779,71.4175311 L162.567316,71.7491338 C162.390215,72.4477167 162.226987,73.0106991 162.149215,73.314902 C162.05998,73.3154982 161.992067,73.284896 161.944093,73.2244866 C161.961861,73.3687539 161.983183,73.5231556 162.010624,73.6791471 C164.763479,71.547131 167.553054,69.461813 170.259712,67.2729644 C170.035835,67.0881592 169.70002,66.4093478 169.42738,66.0431156 C168.812015,65.2174537 168.226856,64.3580101 167.816021,63.4083499 C167.167094,61.9076522 166.589437,59.5379726 168.557341,58.7786816 C170.697595,57.9512312 171.55342,60.6420347 171.485704,62.2168531 C171.438717,63.3060115 171.088885,64.324626 170.879025,65.3835796 C170.813481,65.7138444 170.920484,67.223683 170.501949,66.5546087 C170.510833,66.7936632 170.50491,66.966148 170.487932,67.0877617 C170.973986,66.6927158 171.456683,66.2929007 171.936616,65.8899061 C171.918256,65.834862 171.905621,65.7752474 171.905621,65.7068894 C171.905621,65.2363316 172.386146,65.0803401 172.709326,65.2351393 C173.343249,64.6916531 173.971644,64.1406156 174.58997,63.5774566 C175.900458,62.3843701 177.230886,61.1563098 178.55401,59.9002306 C178.294202,59.6516378 178.419368,59.3328985 178.177921,59.0707931 C177.936868,58.8092838 177.443707,58.6457411 177.15705,58.3995329 C176.436065,57.7799387 175.857223,56.9020146 175.450138,56.0465454 C174.778113,54.6330837 173.967498,51.6994503 176.174875,51.1585473 C178.450166,50.5999587 179.442015,53.4350294 179.495319,55.1777623 C179.50076,55.3533232 179.392655,56.2530386 179.252506,57.2295442 L179.185843,57.6833344 C179.071935,58.4408816 178.946485,59.1849351 178.846589,59.6208369 C181.295414,57.2859325 183.710874,54.8568371 185.914106,52.3721014 C185.287488,52.333352 183.577417,50.9524796 183.236469,50.582273 C182.404532,49.6793109 181.109837,47.7126259 182.699283,46.7913819 C184.112431,45.9744634 185.729713,47.3501692 186.248736,48.6318827 C186.334023,48.8429183 186.572509,50.7780076 186.553951,51.639637 C187.467226,50.5848563 188.341411,49.5215309 189.158936,48.4516479 C189.704019,47.740446 190.216922,47.0079815 190.700211,46.2578314 C190.596762,46.1916592 190.501999,46.0807761 190.414147,45.9444574 C188.155045,45.4369386 185.435357,41.7193734 188.177551,40.6196832 C189.483104,40.0968633 190.801884,41.3869228 191.374211,42.4164666 C191.491479,42.6271048 191.645074,43.6632062 191.771424,44.4807208 C193.179439,41.9854532 194.294874,39.3240596 195.1813,36.581789 C194.985457,36.5219757 194.825348,36.361215 194.816858,36.0987121 C193.743277,35.4081766 192.896928,34.8356779 192.187985,33.5790026 C191.747536,32.798449 190.973444,31.0272998 192.405544,30.6821314 C194.269209,30.2330349 195.275075,33.1032782 195.35286,34.49508 C195.361941,34.6566355 195.336868,35.1238151 195.30844,35.551649 C195.372602,35.5462837 195.436961,35.5506554 195.499544,35.5651617 C196.011065,33.8651526 196.438682,32.1385156 196.797595,30.4053211 C196.645389,30.3472403 196.519156,30.1719475 196.417112,29.914421 C196.351782,30.0083164 196.263382,30.0926307 196.14585,30.1624631 C196.152347,29.8719399 196.176429,29.5853696 196.24631,29.3110179 C196.244071,29.2968456 196.240885,29.2808022 196.237745,29.2646394 L196.283837,29.1791914 C196.182503,29.3680771 196.078473,29.5569627 195.972288,29.7458483 C196.00948,29.6144662 196.05314,29.4836553 196.117282,29.3532252 C196.116769,29.3544951 196.156705,29.261177 196.213832,29.1284722 C195.918703,27.4128545 196.114524,24.5455851 196.621494,24.0317276 Z" id="Leaf-Bottom" fill="#80BD59" opacity="0.393304869" transform="translate(172.867702, 65.195409) rotate(-12.000000) translate(-172.867702, -65.195409) "></path>
                    <g id="onboarding-img1" transform="translate(2.669192, 15.954931)">
                        <g id="Background" opacity="0.953216" transform="translate(72.918196, 113.981341)" fill="#E82219">
                            <path d="M6.87120204,6.56091374 C6.93582953,6.43621927 6.966113,6.29996361 6.966113,6.16535964 C6.966113,5.89119685 6.83907289,5.62487911 6.61158388,5.47788821 L4.90135402,4.37421774 L6.61158388,3.2701345 C6.83907289,3.12314361 6.96648148,2.85641299 6.966113,2.58266307 C6.966113,2.448059 6.93546025,2.31180345 6.87120204,2.18710887 C6.67547281,1.80765763 6.2415449,1.67800841 5.90252724,1.89684312 L4.19229738,3.00092646 L4.19229738,0.792759879 C4.19229738,0.355090363 3.87469909,-2.84624734e-14 3.48324074,-2.84624734e-14 C3.09178239,-2.84624734e-14 2.7741841,0.355090363 2.7741841,0.792759879 L2.7741841,3.00092646 L1.06395433,1.89684312 C0.7245673,1.67759554 0.291008662,1.80765763 0.0952795331,2.18710887 C0.0306519513,2.31180345 0,2.448059 0,2.5822502 C0,2.85641299 0.127408686,3.12314361 0.354897691,3.26972163 L2.06512746,4.37380487 L0.354897691,5.47788821 C0.127039314,5.62487911 0,5.89119685 0,6.16535964 C0,6.29996361 0.0310212279,6.43621927 0.0952795331,6.56091374 C0.291008662,6.93995211 0.7245673,7.0700143 1.06395433,6.85117949 L2.7741841,5.74709626 L2.7741841,7.95526284 C2.7741841,8.39293235 3.09178239,8.74802272 3.48324074,8.74802272 C3.87469909,8.74802272 4.19229738,8.39293235 4.19229738,7.95526284 L4.19229738,5.74709626 L5.90252724,6.85117949 C6.2415449,7.0700143 6.67547281,6.93995211 6.87120204,6.56091374 Z" id="Path"></path>
                        </g>
                        <g id="Group-42" opacity="0.71634266" transform="translate(61.635462, 81.050254) rotate(-28.000000) translate(-61.635462, -81.050254) translate(25.664232, 17.415406)">
                            <path d="M43.3437841,6.71547431 C44.5393028,4.99911643 46.7578435,0.640130883 48.4405138,0.0268246906 C49.524309,-0.368201199 49.2083131,3.71803897 49.2216973,4.49719533 C49.2738194,7.51162852 48.9823531,10.5069479 48.6224156,13.4960722 C47.9739527,18.8869456 45.8535355,23.6879282 42.9452263,28.2761162 C41.448672,30.6370181 39.6933326,33.026547 37.2621053,34.4996367 C36.1430091,35.1780243 34.7964552,35.2916088 33.6912774,35.8760949 C32.4041365,36.5565131 33.1051109,36.0064665 32.5250403,37.356933 C31.7194896,39.2318752 31.4618285,41.6507506 31.0891129,43.6513806 C29.3777852,52.8353596 25.2346931,101.384268 25.9529464,110.72613 C26.0167388,111.554152 24.8700353,111.75216 24.8127912,110.741319 C24.5085289,105.381555 27.1413796,68.2652754 28.4696975,56.1271846 C29.7980153,43.9890938 31.1422123,33.2656978 32.4900362,29.0662984 C34.1251473,23.9715344 37.0782517,17.8446874 39.5365049,13.0935995 C40.6783449,10.8863513 41.9229732,8.75514153 43.3437841,6.71547431 Z" id="Leaf" fill="#C3DAFB"></path>
                            <path d="M52.2708457,66.2246489 C55.394071,63.9395608 58.7747277,68.2522036 55.9485307,70.5376431 C54.3861419,71.8008953 52.7527557,71.351522 51.8332038,70.298787 C51.2362679,71.0239265 50.6775561,71.7821302 50.1407067,72.4225489 C48.5050636,74.3740261 46.9591337,76.3720808 45.4816727,78.4167239 C42.4124759,82.6644201 39.7822296,87.1520204 37.0321199,91.5575614 C34.3181213,95.9055907 31.625824,100.27589 29.1658922,104.73408 C27.0819808,108.511249 24.3043916,112.954784 23.5909252,117.095676 C24.6734429,108.313561 28.7811069,99.8723932 33.6726183,92.1302859 C38.5243273,84.4517796 44.092227,76.0659983 51.6044725,70.0062891 C50.8399098,68.8858025 50.8186854,67.2863933 52.2708457,66.2246489 Z" id="Leaf" fill="#2E428C" opacity="0.257562682"></path>
                            <path d="M0.545576756,52.9947508 C2.29057113,53.3366627 5.14187226,57.2916096 6.58026797,58.7984751 C8.28970461,60.5891735 9.84058788,62.4978031 11.3024779,64.497572 C14.4496277,68.8019919 17.2642,73.3784837 19.657544,78.1509634 C23.5593212,85.9310601 26.6851521,93.9175989 28.9537014,102.389688 C30.3423626,107.575761 31.2414633,112.950923 31.7743188,118.288549 C31.8749508,119.295193 32.9283476,127.056229 31.4104673,127.265411 C30.045294,127.453765 30.4669451,121.372296 30.4010854,120.545067 C29.6566126,111.21237 27.4263833,102.131734 24.3241548,93.3351997 C23.648445,91.4189581 23.0206867,89.0719043 21.9400672,87.3474718 C21.1618698,86.1053905 21.9344865,86.5385443 20.5669069,86.0684764 C19.3926219,85.6646069 18.0546912,85.7632949 16.8521967,85.2689249 C14.2398964,84.195603 12.1481932,82.1119653 10.3146721,80.0160708 C6.75149808,75.9428837 3.92786389,71.5363327 2.45602269,66.3171447 C1.63954694,63.4232757 0.889247413,60.5125735 0.472877242,57.5292198 C0.36516953,56.7581105 -0.578360947,52.7745279 0.545576756,52.9947508 Z" id="Leaf" fill="#C3DAFB"></path>
                            <path d="M8.27832295,21.8925994 C12.8199622,29.6950509 16.5520953,38.2658393 18.9619606,46.9467517 C20.4220513,52.2064226 21.4431366,57.6036177 22.4576661,62.9618254 C24.028482,71.2583421 25.5142937,79.5542186 25.9369368,87.9981061 C26.3621429,96.4909282 27.2029592,106.286401 24.3956722,114.466335 C25.7979261,106.161479 24.4628852,97.3216067 24.2265037,88.965209 C24.1135426,84.9760001 23.7862024,81.0257925 23.3567933,77.0598945 C22.9400944,73.2127603 22.2593265,69.3839454 21.6253781,65.5670496 C21.3165701,63.7081524 20.9922521,61.8520521 20.6620514,59.996967 C20.5634752,59.4435001 20.5218345,57.8011707 20.1674227,57.423073 C19.8107156,57.0424859 17.9907488,56.8873334 17.4193635,56.6080813 C16.2687898,56.0456333 15.1865199,55.2467168 14.228683,54.4025592 C12.3924971,52.7843303 10.7951077,50.6699177 9.53432025,48.5855876 C6.61718504,43.7627758 5.45091581,37.8771892 5.50986378,32.2917594 C5.52118987,31.2073213 7.28172742,19.5296583 6.57466722,19.3688472 C6.61723824,19.3194579 6.65750717,19.2684619 6.69547739,19.2154179 C7.23078255,20.1032783 7.756072,20.9971557 8.27832295,21.8925994 Z" id="Leaf" fill="#DCE2F1"></path>
                            <path d="M70.7544265,20.0337687 C70.8561461,19.8870201 71.5181797,18.8664274 71.1848003,18.9316527 C71.8635728,18.7988516 70.2511916,20.0572578 71.9424603,19.2851055 C71.1394342,20.0436723 71.6028864,21.0290625 71.6136046,22.0500103 C71.6310912,23.7075759 71.3538145,25.3515491 71.0416922,26.9735497 C70.5484901,29.5374377 69.813752,32.0302861 68.7472931,34.4150099 C66.4229126,39.6118655 62.4759955,44.6147886 57.7902713,47.8638249 C55.4770589,49.4680045 53.2100078,50.0141685 50.5717877,50.7526722 C48.9053762,51.2192334 48.7732272,52.0814252 47.8886919,53.6988322 C46.0471559,57.0675452 44.2384158,60.4241407 42.6143446,63.9065144 C40.6750957,68.0648352 38.7925529,72.2277392 37.0167686,76.4592618 C31.0344696,90.7129205 26.1654331,105.479924 23.608364,120.762339 C23.5457562,111.756459 25.6286797,102.481172 28.2560862,93.8970701 C30.1699938,87.6428882 32.6615421,81.614046 35.3190216,75.646236 C35.9629827,74.2004639 36.9388472,72.3407107 37.2123166,70.7445157 C37.4037999,69.6261423 36.8183789,68.5505951 36.5503407,67.3724752 C35.5053797,62.7846586 35.580171,57.6448252 36.4978021,53.0324779 C37.5095608,47.9464896 40.4355202,45.5859098 45.3851585,44.8655125 C47.1953403,44.6019984 49.496128,44.6985781 51.1559755,43.9265872 C52.9643545,43.0859144 53.7103381,40.3226337 54.7386486,38.5488247 C57.5006557,33.7839989 60.7823199,29.21424 64.5505768,25.199479 C65.5939713,24.0877406 66.7160451,23.0620866 67.9064399,22.1114311 C68.6571022,21.5116203 70.2428548,20.7726543 70.7544265,20.0337687 Z" id="Leaf" fill="#C3DAFB"></path>
                        </g>
                        <g id="Mobile3" transform="translate(140.350571, 96.209672) rotate(-3.000000) translate(-140.350571, -96.209672) translate(66.425192, 3.742232)">
                            <g id="Group" transform="translate(127.970849, 151.069067) scale(-1, 1) translate(-127.970849, -151.069067) translate(108.090939, 122.381603)"></g>
                            <rect id="Container" stroke="#CBC7C7" stroke-width="0.69264" fill="#E2E0E0" x="0" y="5.68434189e-14" width="94.962875" height="184.93488" rx="4.4069975"></rect>
                            <rect id="Container" stroke="#CBC7C7" stroke-width="0.650211519" fill="#FFFFFF" x="2.67992488" y="15.8773716" width="89.35056" height="144.06912" rx="4.13704166"></rect>
                            <circle id="Touch" fill="#FFFFFF" cx="48.1569453" cy="172.612458" r="8.32612885"></circle>
                            <g id="Camera" transform="translate(38.806436, 9.774354)" fill="#FFFFFF">
                                <ellipse id="Lens" cx="1.11015051" cy="1.12515255" rx="1.11015051" ry="1.12515255"></ellipse>
                                <rect id="Sensor" x="4.99567731" y="0" width="11.6565804" height="2.25030509" rx="1.10174937"></rect>
                            </g>
                            <g id="Seed-Fund-Scheme_final" transform="translate(45.500000, 61.000000) rotate(-1.000000) translate(-45.500000, -61.000000) translate(7.000000, 31.000000)">
                                <g id="Group" transform="translate(0.000000, -0.000000)">
                                    <g transform="translate(24.274893, 7.962085)" fill="#2B3F88" fill-rule="nonzero">
                                        <path d="M10.0902943,12.7125732 C10.0902943,14.2180095 9.57582207,15.3889044 8.54687758,16.2085308 C7.5179331,17.0281572 6.20685867,17.446334 4.59705843,17.446334 C2.8212994,17.446334 1.31107443,17.0783384 0.0663835152,16.3590744 L0.0663835152,14.1511012 C1.29447855,15.0878171 2.78810764,15.5561751 4.54727079,15.5561751 C5.60940704,15.5561751 6.43920098,15.3219961 7.03665261,14.8369111 C7.63410425,14.3685531 7.94942595,13.6827432 7.94942595,12.7794815 C7.94942595,12.4114859 7.88304243,12.0769445 7.73367952,11.7758573 C7.58431661,11.47477 7.35197431,11.2071369 7.02005673,10.9562308 C6.68813916,10.7053248 6.38941334,10.5045999 6.09068752,10.3540563 C5.7919617,10.1867856 5.39366061,10.0027878 4.89578425,9.7518818 C4.79620897,9.70170059 4.64684607,9.63479231 4.44769552,9.55115696 C3.71747685,9.23334263 3.16981285,8.96570951 2.80470352,8.76498467 C2.42299831,8.56425983 1.97490958,8.26317257 1.47703321,7.86172289 C0.962560971,7.46027321 0.597451637,7.00864232 0.348513455,6.47337608 C0.116171152,5.95483691 0,5.33593532 0,4.65012545 C0,3.19487037 0.514472243,2.05742961 1.54341673,1.23780318 C2.57236121,0.418176749 3.86683976,0 5.44344825,0 C6.90388558,0 8.14857649,0.26763312 9.17752098,0.786172289 L9.17752098,2.94396432 C8.14857649,2.27488152 6.92048146,1.92361305 5.49323588,1.92361305 C4.4642914,1.92361305 3.65109334,2.15779203 3.0536417,2.64287706 C2.45619006,3.12796209 2.14086837,3.76359074 2.14086837,4.53303596 C2.14086837,4.93448564 2.22384776,5.30248118 2.37321067,5.62029551 C2.53916946,5.93810984 2.8212994,6.2391971 3.21960049,6.52355729 C3.61790158,6.80791748 3.96641503,7.00864232 4.24854497,7.15918595 C4.53067491,7.30972958 4.97876364,7.51045442 5.57621528,7.77808754 C6.14047516,8.02899359 6.58856389,8.22971843 6.8872897,8.38026206 C7.18601552,8.53080569 7.58431661,8.7482576 8.0655971,9.06607193 C8.54687758,9.38388626 8.91198692,9.68497352 9.14432922,9.98606078 C9.3932674,10.287148 9.60901383,10.6718706 9.79156849,11.1569557 C9.99071904,11.6420407 10.0902943,12.1605799 10.0902943,12.7125732 Z" id="Path"></path>
                                        <polygon id="Path" points="22.9355045 17.2623362 13.4592577 17.2623362 13.4592577 0.15054363 22.8027375 0.15054363 22.8027375 1.95706719 15.5005508 1.95706719 15.5005508 7.81154168 21.9563477 7.81154168 21.9563477 9.61806524 15.5005508 9.61806524 15.5005508 15.4558127 22.9355045 15.4558127"></polygon>
                                        <polygon id="Path" points="35.5649683 17.2623362 26.0887215 17.2623362 26.0887215 0.15054363 35.4322012 0.15054363 35.4322012 1.95706719 28.1300146 1.95706719 28.1300146 7.81154168 34.5858114 7.81154168 34.5858114 9.61806524 28.1300146 9.61806524 28.1300146 15.4558127 35.5649683 15.4558127"></polygon>
                                        <path d="M43.8629077,17.2623362 L38.7181853,17.2623362 L38.7181853,0.15054363 L43.7633324,0.15054363 C46.2693101,0.15054363 48.3271991,0.936715919 49.9204034,2.49233343 C51.5302037,4.064678 52.3268059,6.08865347 52.3268059,8.5809869 C52.3268059,11.0565933 51.5799913,13.1140229 50.1029581,14.7867299 C48.609329,16.4427098 46.5348442,17.2623362 43.8629077,17.2623362 Z M43.7301407,1.97379426 L40.7760742,1.97379426 L40.7760742,15.4558127 L43.8297159,15.4558127 C45.9373925,15.4558127 47.514001,14.8034569 48.5927331,13.4820184 C49.6714653,12.1773069 50.2025334,10.5380541 50.2025334,8.56425983 C50.2025334,6.70755506 49.6050817,5.13521048 48.3935826,3.86395316 C47.2152752,2.60942292 45.6552626,1.97379426 43.7301407,1.97379426 Z" id="Shape"></path>
                                        <polygon id="Path" points="7.84985067 30.9283524 2.22384776 30.9283524 2.22384776 37.4686367 0.431492849 37.4686367 0.431492849 22.3975467 8.62985698 22.3975467 8.62985698 23.9866183 2.22384776 23.9866183 2.22384776 29.3225537 7.84985067 29.3225537"></polygon>
                                        <path d="M22.1720941,31.7479788 C22.1720941,33.6883189 21.6908136,35.1603011 20.7116567,36.1471982 C19.7490958,37.1508224 18.3882337,37.6526345 16.6622623,37.6526345 C14.9694827,37.6526345 13.6252165,37.1675495 12.6626555,36.1806524 C11.7000946,35.2104823 11.2188141,33.7886813 11.2188141,31.9152495 L11.2188141,22.3975467 L13.011169,22.3975467 L13.011169,31.8985224 C13.011169,33.2868693 13.3430866,34.3072205 13.9903258,34.9595762 C14.654161,35.611932 15.5337426,35.9464734 16.6456664,35.9464734 C19.1184524,35.9464734 20.3465474,34.5581266 20.3465474,31.781433 L20.3465474,22.3975467 L22.1389023,22.3975467 L22.1389023,31.7479788 L22.1720941,31.7479788 Z" id="Path"></path>
                                        <path d="M27.3666041,37.4686367 L25.5742492,37.4686367 L25.5742492,22.3975467 L27.8312888,22.3975467 L31.5819574,28.7371062 L35.3658177,35.2606635 C35.2994342,33.8221355 35.2828383,31.6476164 35.2828383,28.7538333 L35.2828383,22.3808196 L37.0751932,22.3808196 L37.0751932,37.4519097 L34.8181537,37.4519097 L31.0674851,31.1458043 C30.3206706,29.874547 29.6236437,28.7036521 28.9764044,27.5996655 C28.345761,26.5124059 27.8976723,25.7262336 27.6321382,25.2411486 L27.250433,24.5553387 C27.3168165,26.1109562 27.3666041,28.2854753 27.3666041,31.0956231 L27.3666041,37.4686367 L27.3666041,37.4686367 Z" id="Path"></path>
                                        <path d="M45.0080233,37.4686367 L40.4773484,37.4686367 L40.4773484,22.3975467 L44.9250439,22.3975467 C47.1322958,22.3975467 48.9412466,23.0833566 50.3518963,24.4717034 C51.762546,25.8433231 52.4761688,27.6331196 52.4761688,29.8243658 C52.4761688,31.9988849 51.8289295,33.8221355 50.5178551,35.2773906 C49.1901848,36.7493727 47.3646381,37.4686367 45.0080233,37.4686367 Z M44.908448,24.0200725 L42.319491,24.0200725 L42.319491,35.8795651 L45.0080233,35.8795651 C46.8501659,35.8795651 48.2608156,35.2941176 49.2067807,34.1399498 C50.1527457,32.985782 50.6340262,31.547254 50.6340262,29.8076387 C50.6340262,28.1683858 50.1029581,26.7967661 49.0408219,25.6760524 C47.9620897,24.5720658 46.5846318,24.0200725 44.908448,24.0200725 Z" id="Shape"></path>
                                        <path d="M6.35622158,49.2277669 C6.35622158,50.1143016 6.05749576,50.8001115 5.44344825,51.2851965 C4.84599661,51.7702816 4.06599031,52.0211876 3.10342934,52.0211876 C2.05788897,52.0211876 1.16171152,51.8037357 0.41489697,51.3688319 L0.41489697,50.0641204 C1.14511564,50.6161137 2.02469721,50.8837469 3.07023758,50.8837469 C3.70088097,50.8837469 4.18216146,50.7499303 4.54727079,50.4655701 C4.91238013,50.1812099 5.07833891,49.7797602 5.07833891,49.244494 C5.07833891,49.0270421 5.02855128,48.8263173 4.94557188,48.6590466 C4.86259249,48.4917759 4.72982546,48.3245052 4.53067491,48.1739615 C4.33152437,48.0234179 4.1489697,47.9063284 3.98301091,47.805966 C3.81705213,47.7056036 3.56811394,47.5885141 3.26938812,47.4546975 C3.20300461,47.4212434 3.12002522,47.3877892 3.00385406,47.337608 C2.57236121,47.1536103 2.25703952,46.9863396 2.02469721,46.8692501 C1.80895079,46.7521606 1.54341673,46.5681628 1.22809503,46.3339838 C0.929369213,46.0998049 0.69702691,45.8321717 0.564259879,45.5143574 C0.431492849,45.1965431 0.348513455,44.8452746 0.348513455,44.4270979 C0.348513455,43.5740173 0.647239273,42.8882074 1.26128679,42.4031224 C1.8753343,41.9180374 2.63874473,41.6671313 3.56811394,41.6671313 C4.43109964,41.6671313 5.16131831,41.8176749 5.77536582,42.1354893 L5.77536582,43.4067466 C5.16131831,43.0052969 4.44769552,42.8045721 3.6013057,42.8045721 C3.00385406,42.8045721 2.5059777,42.9551157 2.15746424,43.2394759 C1.79235491,43.5238361 1.62639612,43.8918316 1.62639612,44.3601896 C1.62639612,44.5943686 1.67618376,44.8118205 1.77575903,45.0125453 C1.8753343,45.1965431 2.04129309,45.3805408 2.2736354,45.5478115 C2.5059777,45.7150822 2.72172412,45.8321717 2.88768291,45.9158071 C3.0536417,45.9994424 3.31917576,46.1165319 3.68428509,46.2838026 C4.01620267,46.4343463 4.28173673,46.5514357 4.4642914,46.6350711 C4.64684607,46.7187064 4.87918837,46.852523 5.16131831,47.0365208 C5.44344825,47.2205185 5.65919467,47.4045163 5.80855758,47.571787 C5.95792049,47.7390577 6.07409164,47.9732367 6.19026279,48.2575969 C6.30643395,48.5921383 6.35622158,48.8932255 6.35622158,49.2277669 Z" id="Path"></path>
                                        <path d="M15.5503384,51.402286 C14.9362909,51.8204628 14.0899011,52.0379147 13.011169,52.0379147 C11.500944,52.0379147 10.272849,51.5695567 9.32688389,50.6328408 C8.3809188,49.6961249 7.91623419,48.4248676 7.91623419,46.8190689 C7.91623419,45.2969055 8.39751468,44.0591023 9.36007565,43.1056593 C10.3226366,42.1522163 11.5175399,41.6671313 12.9779772,41.6671313 C14.0235176,41.6671313 14.8699074,41.8511291 15.5171467,42.2023975 L15.5171467,43.4402007 C15.0856538,43.2060217 14.6873527,43.038751 14.3388393,42.9383886 C13.9903258,42.8380262 13.5422371,42.787845 12.9613813,42.787845 C11.8826492,42.787845 10.9698759,43.1558405 10.2562531,43.8918316 C9.54263031,44.6278227 9.17752098,45.5979928 9.17752098,46.7856147 C9.17752098,48.0234179 9.54263031,49.010315 10.2562531,49.7630332 C10.9698759,50.4990243 11.915841,50.8670198 13.0941484,50.8670198 C14.0401135,50.8670198 14.8533115,50.6161137 15.5337426,50.0975746 L15.5337426,51.402286 L15.5503384,51.402286 Z" id="Path"></path>
                                        <polygon id="Path" points="24.6116883 51.9040981 23.4001891 51.9040981 23.4001891 47.320881 18.5375966 47.320881 18.5375966 51.9040981 17.3260975 51.9040981 17.3260975 41.7842208 18.5375966 41.7842208 18.5375966 46.2336214 23.4001891 46.2336214 23.4001891 41.7842208 24.6116883 41.7842208"></polygon>
                                        <polygon id="Path" points="32.4947307 51.9040981 26.9019195 51.9040981 26.9019195 41.7842208 32.4283472 41.7842208 32.4283472 42.8547533 28.1134187 42.8547533 28.1134187 46.3172568 31.9304708 46.3172568 31.9304708 47.3877892 28.1134187 47.3877892 28.1134187 50.8335657 32.5113266 50.8335657 32.5113266 51.9040981"></polygon>
                                        <path d="M35.465393,51.9040981 L34.2538939,51.9040981 L34.9841125,41.7842208 L36.5109334,41.7842208 L37.8386037,45.4809033 L39.4484039,50.197937 C40.0292597,48.5586841 40.5935196,46.9863396 41.1411836,45.4809033 L42.5186415,41.7842208 L44.0454623,41.7842208 L44.9250439,51.9040981 L43.7135448,51.9040981 L43.3650313,47.9063284 L42.999922,43.4234737 C42.4688539,44.9121829 41.9377857,46.4008921 41.3735259,47.9063284 L39.979472,51.6699192 L38.8343564,51.6699192 L37.5066861,47.9063284 L35.9798652,43.507109 C35.9798652,43.8918316 35.88029,45.3638138 35.6977353,47.9063284 L35.465393,51.9040981 Z" id="Path"></path>
                                        <polygon id="Path" points="52.725107 51.9040981 47.1322958 51.9040981 47.1322958 41.7842208 52.6587234 41.7842208 52.6587234 42.8547533 48.343795 42.8547533 48.343795 46.3172568 52.1608471 46.3172568 52.1608471 47.3877892 48.343795 47.3877892 48.343795 50.8335657 52.725107 50.8335657"></polygon>
                                    </g>
                                    <g transform="translate(-0.000000, -0.000000)" fill-rule="nonzero" id="Path">
                                        <path d="M20.3748615,0 C9.5045609,0.434903819 0.559382226,8.01226652 0.0283141038,17.2623362 C-0.270411715,22.2637301 1.80407314,27.014218 5.80367993,30.6607193 C8.60838345,33.1865068 10.1186084,36.3144689 10.1186084,39.5093393 L10.1186084,40.3122386 C10.1186084,40.9980485 10.7824436,41.5667689 11.5790458,41.5667689 L20.3748615,41.5667689 L20.3748615,0 C20.3914574,0 20.3748615,0 20.3748615,0 Z" fill="#F4DD7A"></path>
                                        <path d="M17.702925,49.4117647 C16.889727,49.4117647 16.2424877,49.9804851 16.2424877,50.666295 C16.2424877,51.3521048 16.9063228,51.9208252 17.702925,51.9208252 L20.3914574,51.9208252 L20.3914574,49.4284918 L17.702925,49.4284918 L17.702925,49.4117647 Z" fill="#EFC618"></path>
                                        <path d="M13.9854482,44.226373 C13.1722501,44.226373 12.5250108,44.7950934 12.5250108,45.4809033 C12.5250108,46.1834402 13.188846,46.7354335 13.9854482,46.7354335 L20.3914574,46.7354335 L20.3914574,44.2431001 L13.9854482,44.2431001 L13.9854482,44.226373 Z" fill="#EFC618"></path>
                                    </g>
                                    <g transform="translate(3.174703, 0.000000)" fill="#EFC618" fill-rule="nonzero" id="Path">
                                        <path d="M17.2001583,0 C8.02263733,0.434903819 0.471512474,8.01226652 0.0234237466,17.2623362 C-0.225514436,22.2637301 1.51705284,27.014218 4.90261212,30.6607193 C7.25922691,33.1865068 8.55370545,36.3144689 8.55370545,39.5093393 L8.55370545,40.3122386 C8.55370545,40.9980485 9.11796533,41.5667689 9.79839636,41.5667689 L17.2167542,41.5667689 L17.2001583,0 C17.2167542,0 17.2001583,0 17.2001583,0 Z"></path>
                                        <path d="M14.9431188,49.4117647 C14.2626878,49.4117647 13.6984279,49.9804851 13.6984279,50.666295 C13.6984279,51.3521048 14.2626878,51.9208252 14.9431188,51.9208252 L17.2167542,51.9208252 L17.2167542,49.4284918 L14.9431188,49.4284918 L14.9431188,49.4117647 Z"></path>
                                        <path d="M11.8064977,44.226373 C11.1260667,44.226373 10.5618068,44.7950934 10.5618068,45.4809033 C10.5618068,46.1834402 11.1260667,46.7354335 11.8064977,46.7354335 L17.2167542,46.7354335 L17.2167542,44.2431001 L11.8064977,44.2431001 L11.8064977,44.226373 Z"></path>
                                    </g>
                                    <g transform="translate(23.295736, 0.000000)">
                                        <path d="M9.52603443,5.18539169 C10.1898696,5.18539169 10.7209377,4.59994424 10.7209377,3.88068023 C10.7209377,3.16141623 10.1898696,2.57596878 9.52603443,2.57596878 C8.86219928,2.57596878 8.33113116,3.16141623 8.33113116,3.88068023 C8.31453528,4.59994424 8.86219928,5.18539169 9.52603443,5.18539169 M11.7664781,5.98829105 L10.8371089,5.98829105 L10.8371089,5.30248118 C10.5051913,5.93810984 9.77497262,6.20574296 9.06134983,6.10538054 C7.88304243,5.92138277 7.25239904,4.85085029 7.2855908,3.79704488 C7.30218667,3.24505158 7.56772073,2.64287706 7.93283007,2.27488152 C8.36432292,1.8399777 8.9285828,1.68943407 9.44305504,1.70616114 C10.3724243,1.72288821 10.7209377,2.29160859 10.8537047,2.44215222 L10.8537047,1.8399777 L11.783074,1.8399777 L11.783074,5.98829105 L11.7664781,5.98829105 Z" id="Shape" fill="#CD6B55" fill-rule="nonzero"></path>
                                        <path d="M45.1407903,5.18539169 C45.8046255,5.18539169 46.3356936,4.59994424 46.3356936,3.88068023 C46.3356936,3.16141623 45.8046255,2.57596878 45.1407903,2.57596878 C44.4769552,2.57596878 43.9458871,3.16141623 43.9458871,3.88068023 C43.9458871,4.59994424 44.4769552,5.18539169 45.1407903,5.18539169 M47.381234,5.98829105 L46.4518648,5.98829105 L46.4518648,5.30248118 C46.1199472,5.93810984 45.3897285,6.20574296 44.6761057,6.10538054 C43.4977983,5.92138277 42.867155,4.85085029 42.9003467,3.79704488 C42.9169426,3.24505158 43.1824766,2.64287706 43.547586,2.27488152 C43.9790788,1.8399777 44.5433387,1.68943407 45.057811,1.70616114 C45.9871802,1.72288821 46.3356936,2.29160859 46.4684607,2.44215222 L46.4684607,1.8399777 L47.3978299,1.8399777 L47.3978299,5.98829105 L47.381234,5.98829105 Z" id="Shape" fill="#CD6B55" fill-rule="nonzero"></path>
                                        <path d="M-2.61896854e-13,5.38611653 L0.464684607,4.70030666 C1.01234861,5.00139392 1.29447855,5.20211876 1.74256727,5.2355729 C2.88768291,5.33593532 2.83789528,4.46612768 2.40640243,4.34903819 C1.89193018,4.19849456 1.27788267,4.26540284 0.763410425,3.99776972 C0.248938182,3.71340953 0.0995752728,3.26177865 0.149362909,2.8436019 C0.199150546,2.32506273 0.514472243,1.89015891 1.24469091,1.73961528 C1.97490958,1.57234458 2.93747055,1.73961528 3.53492219,2.19124617 L2.98725818,2.89378311 C2.65534061,2.72651241 2.40640243,2.59269585 2.17406012,2.54251464 C1.54341673,2.40869808 1.22809503,2.60942292 1.1783074,2.86032897 C1.12851976,3.06105381 1.24469091,3.26177865 1.47703321,3.32868693 C1.79235491,3.41232227 2.35661479,3.42904934 2.73832,3.51268469 C3.33577164,3.66322832 3.63449746,4.064678 3.68428509,4.5664901 C3.80045625,5.82102035 2.63874473,6.27265124 1.57660849,6.15556175 C0.995752728,6.08865347 0.481280485,5.85447449 -2.61896854e-13,5.38611653" id="Path" fill="#CD6B55" fill-rule="nonzero"></path>
                                        <path d="M7.21920728,5.88792863 C6.8872897,5.93810984 6.35622158,6.02174519 5.89153698,5.95483691 C5.07833891,5.85447449 4.928976,5.38611653 4.928976,4.61667131 L4.928976,2.6763312 L4.09918206,2.6763312 L4.09918206,1.80652356 L4.87918837,1.80652356 L4.87918837,0.635628659 L5.89153698,0.635628659 L5.89153698,1.80652356 L7.02005673,1.80652356 L7.02005673,2.6763312 L5.89153698,2.6763312 L5.89153698,4.61667131 C5.89153698,4.98466685 6.1072834,5.08502927 6.53877625,5.08502927 L6.95367322,5.08502927 L7.21920728,5.88792863 Z" id="Path" fill="#CD6B55" fill-rule="nonzero"></path>
                                        <path d="M12.5630803,6.00501812 L12.5630803,1.82325063 L13.5090453,1.82325063 L13.5090453,2.3417898 C13.8575588,1.89015891 14.239264,1.70616114 14.6873527,1.70616114 C15.1520373,1.70616114 15.467359,1.82325063 15.8490643,2.07415668 L15.334592,2.97741846 C15.1188456,2.77669362 14.6209692,2.5090605 14.1894764,2.70978534 C13.9073464,2.8436019 13.5754289,3.06105381 13.5754289,3.88068023 L13.5754289,5.98829105 L12.5630803,5.98829105 L12.5630803,6.00501812 Z" id="Path" fill="#CD6B55" fill-rule="nonzero"></path>
                                        <path d="M19.3673906,5.88792863 C18.5375966,6.0719264 17.8405697,6.12210761 17.4422686,5.65374965 C17.259714,5.43629774 17.0771593,5.11848341 17.0771593,4.61667131 L17.0771593,2.6763312 L16.2473653,2.6763312 L16.2473653,1.80652356 L17.0273717,1.80652356 L17.0273717,0.635628659 L18.0397203,0.635628659 L18.0397203,1.80652356 L19.16824,1.80652356 L19.16824,2.6763312 L18.0397203,2.6763312 L18.0563161,4.61667131 C18.0563161,4.98466685 18.2720626,5.08502927 18.7035554,5.08502927 L19.1516441,5.08502927 L19.3673906,5.88792863 Z" id="Path" fill="#CD6B55" fill-rule="nonzero"></path>
                                        <path d="M26.9848989,2.65960413 C27.66533,2.65960413 28.212994,3.21159744 28.212994,3.8974073 C28.212994,4.58321717 27.66533,5.13521048 26.9848989,5.13521048 C26.3044679,5.13521048 25.7568039,4.58321717 25.7568039,3.8974073 C25.7733998,3.21159744 26.3210638,2.65960413 26.9848989,2.65960413 M24.6780718,7.76136047 L25.6572286,7.76136047 L25.6572286,5.36938946 C25.9891462,6.00501812 26.702769,6.20574296 27.4163918,6.08865347 C28.5946992,5.9046557 29.2253426,4.86757736 29.1921508,3.81377195 C29.1755549,3.26177865 28.9100209,2.65960413 28.5449115,2.29160859 C28.1134187,1.85670477 27.5491588,1.70616114 27.0346866,1.72288821 C26.1053174,1.73961528 25.7899957,2.30833566 25.6572286,2.45887929 L25.6572286,1.85670477 L24.6780718,1.85670477 L24.6780718,7.76136047 Z" id="Shape" fill="#CD6B55" fill-rule="nonzero"></path>
                                        <path d="M23.1678468,5.97156398 L23.1678468,5.35266239 C22.7861416,5.88792863 22.2384776,6.08865347 21.7074095,6.05519933 C20.8444238,6.00501812 20.0312257,5.33593532 20.0312257,4.26540284 L20.0312257,1.80652356 L21.0269784,1.80652356 L21.0269784,3.96431558 C21.0269784,4.78394201 21.5746424,5.16866462 22.1057106,5.13521048 C22.6035869,5.10175634 23.0848674,4.7337608 23.0848674,3.83049902 L23.0848674,1.80652356 L24.0806201,1.80652356 L24.0806201,5.97156398 L23.1678468,5.97156398 Z" id="Path" fill="#CD6B55" fill-rule="nonzero"></path>
                                        <path d="M32.3287719,1.80652356 L32.3287719,2.42542515 C32.7104771,1.89015891 33.2581411,1.68943407 33.7892092,1.72288821 C34.6521949,1.77306942 35.465393,2.44215222 35.465393,3.51268469 L35.465393,5.97156398 L34.4696403,5.97156398 L34.4696403,3.81377195 C34.4696403,2.99414553 33.9219763,2.60942292 33.3909082,2.64287706 C32.8930318,2.6763312 32.4117513,3.04432674 32.4117513,3.94758851 L32.4117513,5.97156398 L31.4159986,5.97156398 L31.4159986,1.80652356 L32.3287719,1.80652356 Z" id="Path" fill="#CD6B55" fill-rule="nonzero"></path>
                                        <path d="M30.2708829,0 C30.6028005,0 30.8849305,0.28436019 30.8849305,0.618901589 C30.8849305,0.953442989 30.6028005,1.23780318 30.2708829,1.23780318 C29.9389654,1.23780318 29.6568354,0.953442989 29.6568354,0.618901589 C29.6568354,0.26763312 29.9223695,0 30.2708829,0" id="Path" fill="#CD6B55" fill-rule="nonzero"></path>
                                        <rect id="Rectangle" fill="#CD6B55" fill-rule="nonzero" x="29.7398148" y="1.78979649" width="1.06213624" height="4.18176749"></rect>
                                        <path d="M38.203713,2.65960413 C38.884144,2.65960413 39.431808,3.21159744 39.431808,3.8974073 C39.431808,4.58321717 38.884144,5.13521048 38.203713,5.13521048 C37.523282,5.13521048 36.975618,4.58321717 36.975618,3.8974073 C36.975618,3.21159744 37.523282,2.65960413 38.203713,2.65960413 M40.5105402,0.01672707 L39.5313833,0.01672707 L39.5313833,2.40869808 C39.1994657,1.77306942 38.4526512,1.60579872 37.7722202,1.68943407 C36.5773169,1.82325063 35.9466735,2.92723725 35.9964611,3.99776972 C36.0296529,4.54976303 36.2288034,5.08502927 36.6271045,5.48647895 C37.0585974,5.92138277 37.6228573,6.0719264 38.1373295,6.05519933 C39.0666987,6.03847226 39.3820204,5.46975188 39.5147874,5.31920825 L39.5147874,5.92138277 L40.4939443,5.92138277 L40.4939443,0.01672707 L40.5105402,0.01672707 Z" id="Shape" fill="#CD6B55" fill-rule="nonzero"></path>
                                        <path d="M41.8879981,-6.59917901e-14 C42.2199157,-6.59917901e-14 42.5020456,0.28436019 42.5020456,0.618901589 C42.5020456,0.953442989 42.2199157,1.23780318 41.8879981,1.23780318 C41.5560805,1.23780318 41.2739506,0.953442989 41.2739506,0.618901589 C41.2739506,0.26763312 41.5394846,-6.59917901e-14 41.8879981,-6.59917901e-14" id="Path" fill="#2B3F88"></path>
                                        <rect id="Rectangle" fill="#2B3F88" x="41.35693" y="1.78979649" width="1.06213624" height="4.18176749"></rect>
                                        <path d="M33.5900587,10.6049624 L37.5066861,10.6049624 L37.5066861,6.64064678 L42.4190662,6.64064678 L42.4190662,7.69445219 L38.5522265,7.69445219 C38.5522265,9.01589072 38.5522265,10.3373292 38.5522265,11.6587678 L33.5900587,11.6587678 L33.5900587,10.6049624 Z" id="Path" fill="#77A05D"></path>
                                    </g>
                                    <polygon id="Path" fill="#2B3F88" fill-rule="nonzero" points="20.308478 41.5667689 13.603743 21.2433789 20.4080533 23.2840814 20.3582656 23.4513521 13.8858729 21.5277391 20.4744368 41.5165877"></polygon>
                                    <polygon id="Path" fill="#2B3F88" fill-rule="nonzero" points="20.308478 41.5667689 10.1518002 17.7641483 20.4080533 23.2840814 20.3582656 23.4513521 13.8858729 21.5277391 20.4744368 41.5165877"></polygon>
                                </g>
                            </g>
                            <g id="Group-61" transform="translate(9.686549, 109.748245)">
                                <path d="M2.8101416,-0.00149853921 C19.8771779,0.855255592 32.4062572,1.28399124 40.3973796,1.28470839 C48.3259779,1.28541994 60.0772147,0.865528545 75.6510899,0.0250342159 L75.6510896,0.0250281762 C77.1402968,-0.0553416878 78.4126904,1.08674665 78.4930603,2.57595389 C78.5013432,2.729432 78.4965075,2.88333709 78.4786056,3.03599246 C78.0219422,6.93012887 77.7936694,9.63766336 77.7937873,11.1585959 C77.793912,12.7669362 78.0496336,15.6372521 78.560952,19.7695435 L78.5609515,19.7695435 C78.7342587,21.1701499 77.7998169,22.4679926 76.416561,22.7478795 C68.9925743,24.250043 60.8223452,24.4006023 51.9058739,23.1995572 C42.4173047,21.9214508 26.0680458,21.5579812 2.85809706,22.1091486 L2.8580972,22.1091547 C1.36714312,22.1445605 0.129784005,20.9646054 0.0943782738,19.4736513 C0.0914223799,19.349177 0.097078942,19.2246474 0.11130747,19.1009537 C0.421201885,16.4069307 0.576088715,14.2804876 0.575967959,12.7216243 C0.575831771,10.9635382 0.378363126,7.69561248 -0.0164379755,2.91784714 L-0.0164321396,2.91784665 C-0.139249741,1.43154463 0.96607278,0.12709543 2.45237481,0.00427782935 C2.57137154,-0.00555522829 2.69088945,-0.00748491962 2.8101416,-0.00149853921 Z" id="Rectangle-Copy-2" fill="#25429C" fill-rule="nonzero" opacity="0.691428961"></path>
                                <text id="Apply-Now" font-family="MarkerFelt-Thin, Marker Felt" font-size="15" font-weight="300" line-spacing="11.4" fill="#FFFFFF">
                                    <tspan x="9.21423083" y="19.3352907">Apply Now</tspan>
                                </text>
                            </g>
                        </g>
                        <g id="Group-4" transform="translate(140.179423, 68.349449)">
                            <g id="Group" transform="translate(52.757150, 78.493155) scale(-1, 1) translate(-52.757150, -78.493155) translate(-0.000000, -0.000000)">
                                <g id="Head/Front" transform="translate(29.069079, 19.847893) rotate(-3.000000) translate(-29.069079, -19.847893) translate(0.924417, 1.447761)">
                                    <g id="Head" transform="translate(42.365711, 12.598289)" fill="#E8BC93">
                                        <path d="M12.6450749,3.02820852 C14.5661393,6.60914669 14.3378669,15.6924933 11.8550623,16.3325069 C10.8648578,16.5877602 8.75535383,15.9624335 6.60844128,14.6682313 L7.9563506,24.2019756 L0,24.2019756 L2.73833605,11.4337915 C1.2111465,9.64076368 0.177598222,7.44349878 0.350336793,4.98144752 C0.848123842,-2.11353552 10.7240105,-0.552729646 12.6450749,3.02820852 Z"></path>
                                    </g>
                                    <path d="M50.4758675,11.4993389 C49.4272436,11.327366 46.6037773,11.2091298 46.0830797,11.2092062 C45.7503293,11.2092062 45.3897293,11.2852315 45.192651,10.9796799 C45.0312598,10.7294681 45.0903833,10.3062911 45.0422171,10.0159293 C44.9862894,9.67862427 44.9068494,9.34567004 44.8264962,9.01355545 C44.5978397,8.06850587 44.2520776,7.16940732 43.7682846,6.32526684 C42.860507,4.74155883 41.5306469,3.50103336 39.8517528,2.77917455 C37.997771,1.98213006 35.8998383,1.79962352 33.9056189,1.9612918 C31.7715424,2.13425702 29.8397185,2.83878877 27.8248021,3.50179667 C25.9046963,4.13358533 23.8935845,4.38227053 21.8853642,4.07374211 C19.8620016,3.76292377 18.3331609,2.66620521 16.6264933,1.62528435 C14.8793446,0.559632359 12.8826903,-0.137342664 10.8172488,0.0228753374 C8.88922951,0.172483381 7.11225282,0.968611899 5.51797304,2.03212663 C4.86764999,2.46594784 1.59595866,3.51072024 0.59487007,5.63607652 C-0.700216181,8.38560312 0.397763498,12.4145485 1.25789929,13.767956 C3.16562579,16.7697278 8.89523581,17.5240791 10.4246141,17.4909064 C12.0163828,17.4564813 13.5796931,17.1658906 15.0825103,16.6373009 C17.0866977,15.9323112 18.818628,14.7374314 20.6936112,13.767956 C21.5735392,13.3130255 22.4830669,12.939387 23.4364237,12.6702452 C24.3615504,12.4089654 25.2727522,12.2891263 26.110373,12.8480192 C26.9964645,13.4392763 27.7904846,14.0200761 28.8041823,14.3902034 C29.7766382,14.7452935 30.8066957,14.9439058 31.8427645,14.9358911 C33.858594,14.9203196 35.8457368,10.9768557 37.8035842,10.5561212 C39.4001468,10.2130914 41.1084124,9.87120646 42.7360965,10.2009548 C43.4152938,10.3385789 44.4073814,10.6226816 44.6527021,11.3285873 C40.5238736,12.0769328 38.9022806,17.1834523 40.06626,20.932126 C40.6944756,22.9554222 44.4707661,25.320634 45.9390375,24.2569566 C46.8692297,23.5830864 46.3045074,22.6984169 45.9390375,22.1144112 C45.2391432,20.9960148 44.9996816,19.5593959 46.2947676,18.7807471 C47.4118744,18.1091902 48.5864352,19.7039597 48.6086541,19.7022041 C48.9156854,19.6780072 51.5687022,18.1775223 53.3965825,15.9879342 C55.1997933,16.0948329 55.4733664,14.9057729 55.042795,13.9333453 C54.6122236,12.9609177 51.9247355,11.7371088 50.4758675,11.4993389 Z" id="hair" fill="#8F8F8F"></path>
                                </g>
                                <g id="Bottom/Skinny-Jeans-1" transform="translate(6.152517, 69.734509)">
                                    <polygon id="Leg" fill="#E8BC93" points="39.6967811 0 56.962707 43.6162172 68.543035 80.4900525 73.1158555 80.4900525 55.4120789 1.78723819e-13"></polygon>
                                    <path d="M36.8314152,11.0064307 C36.6475578,26.3334689 28.3810247,43.9715665 27.9526407,44.926976 C27.6670514,45.5639158 19.8986838,54.7216138 4.64753802,72.4000702 L8.80795177,75.8161478 C24.6394053,59.0331753 33.0856401,49.7518736 34.1466561,47.9722428 C35.7381802,45.3027967 43.3360788,27.2576652 47.4960852,12.5945776 L36.8314152,11.0064307 Z" id="Leg" fill="#E8BC93"></path>
                                    <g id="Left-Shoe" transform="translate(11.514008, 77.399656) rotate(33.000000) translate(-11.514008, -77.399656) translate(0.965176, 72.502812)" fill="#989696">
                                        <path d="M1.02454392,3.15499497 C0.573054418,4.37052678 0.347309669,5.26960146 0.347309669,5.85221901 C0.347309669,6.51380974 0.452978867,7.479234 0.664317263,8.74849179 C1.40021969,8.74849179 8.01389873,8.7484195 20.5053544,8.74827492 C21.020972,6.97055199 20.7233493,6.01082288 19.6124863,5.86908759 C18.5016232,5.7273523 17.5788105,5.5993758 16.8440482,5.4851581 L7.52536186,1.15259349 C7.40365015,1.0960057 7.25910984,1.14879907 7.20252205,1.27051078 C7.20051478,1.27482812 7.19863481,1.27920352 7.19688457,1.2836313 L6.5609095,2.89253417 L6.5609095,2.89253417 C5.53253395,3.39295481 4.69687376,3.64316865 4.05392892,3.64317568 C3.49548223,3.64318178 2.70957375,3.39172872 1.69620349,2.88881648 L1.69617143,2.88888108 C1.45574397,2.76956249 1.16411216,2.86774063 1.04479357,3.1081681 C1.03722849,3.12341176 1.0304693,3.13904225 1.02454392,3.15499497 Z" id="shoe" transform="translate(10.548926, 4.896209) rotate(-6.000000) translate(-10.548926, -4.896209) "></path>
                                    </g>
                                    <g id="Right-Shoe" transform="translate(65.728481, 69.869139)" fill="#989696">
                                        <path d="M1.02774256,8.69433382 C0.577100674,9.8559571 0.351779731,10.7152924 0.351779731,11.2723396 C0.351779731,11.9054756 0.457459359,12.8293784 0.668818615,14.0440481 C1.4047202,14.0440481 8.01839164,14.0440481 20.5098329,14.0440481 C21.0254306,12.3427898 20.7277977,11.4243352 19.6169344,11.2886842 C18.506071,11.1530333 17.583258,11.0305514 16.8484953,10.9212384 L7.52415593,6.77241937 C7.40152384,6.71785483 7.25787759,6.77303447 7.20331304,6.89566656 C7.20242565,6.89766095 7.20156516,6.89966721 7.20073182,6.90168479 L6.56534008,8.44001474 L6.56534008,8.44001474 C5.53697118,8.91890173 4.70131468,9.15834522 4.05837059,9.15834522 C3.49791533,9.15834522 2.7083561,8.91596411 1.6896929,8.43120188 L1.68965812,8.43127497 C1.44729935,8.31594109 1.15733216,8.41891511 1.04199828,8.66127388 C1.03683968,8.67211401 1.03208451,8.68314155 1.02774256,8.69433382 Z" id="shoe"></path>
                                    </g>
                                    <polygon id="Pant" fill="#E6967D" points="65.7284812 75.8161478 73.0470701 74.337017 56.9339879 0 37.4608948 0"></polygon>
                                    <path d="M5.99004695,69.8691394 L13.6699278,74.4911007 C30.3283434,56.6544467 39.9043316,45.2390885 42.3978924,40.2450262 C44.8914531,35.2509639 49.1269407,21.8359552 55.1043552,0 L34.9257731,0 C32.6758785,19.4102347 31.361748,29.5669787 30.9833817,30.4702319 C30.6050155,31.3734851 22.2739039,44.5064543 5.99004695,69.8691394 Z" id="Pant" fill="#F2AE9A"></path>
                                </g>
                                <g id="Body/Long-Sleeve-1" transform="translate(54.907051, 58.722705) rotate(-14.000000) translate(-54.907051, -58.722705) translate(10.552605, 27.430300)">
                                    <path d="M17.4501348,32.6901889 L24.6728298,34.1201522 C17.4091778,47.6273208 13.5138116,54.7861279 12.9867315,55.5965737 C11.800801,57.4200768 12.9072981,60.7620252 13.3160335,62.5219183 C10.7518568,63.1175038 11.7630894,59.2665087 8.51817333,60.0705615 C5.55636446,60.8044636 3.04510768,62.6879178 0.283342215,60.1477792 C-0.0562006205,59.8354841 -0.30476203,58.859338 0.852911493,58.3586774 C3.73709842,57.1113491 7.99824169,54.7757521 8.68918643,53.8689792 C9.63141302,52.6324322 12.5517292,45.5728355 17.4501348,32.6901889 Z M65.8687192,35.6079074 L79.7300641,37.1410789 C82.7809018,36.3321703 85.4980307,35.947141 87.8814508,35.985991 C88.5200503,36.1258162 89.4717714,36.6057492 87.6599832,37.471806 L87.2572835,37.6661838 C85.5824627,38.4834344 83.9891713,39.3842259 84.0842484,40.0592444 C84.1869316,40.7882642 85.6456978,40.8904508 85.6233588,41.9667745 C85.6084661,42.6843237 83.3131319,42.2289335 78.7373562,40.6006041 L66.7915395,42.1596533 L65.8687192,35.6079074 Z" id="Skin" fill="#E8BC93"></path>
                                    <path d="M36.3565619,12.0935826 L39.3470718,11.3582611 C46.5177759,16.8023236 50.5575936,30.9644805 55.1418109,32.5065482 C59.4760029,33.9645109 65.2196081,31.7376068 72.0205408,28.8090828 L74.5886029,33.1161104 C68.8107093,40.0810959 55.72935,46.6387836 49.9314762,43.9844645 C40.6618811,39.7407598 36.9744058,22.1675091 36.3565619,12.0935826 Z" id="Coat-Back" fill="#8292B7" transform="translate(55.472582, 27.972913) rotate(25.000000) translate(-55.472582, -27.972913) "></path>
                                    <path d="M31.0172718,43.9446345 C47.7629606,43.733239 56.0764264,43.3288962 55.9576691,42.731606 C53.9017659,32.3914297 47.9803908,20.323469 47.9803908,5.60448831 L40.9469579,3.85067216 C34.5128778,14.1760656 32.2878613,26.8887156 31.0172718,43.9446345 Z" id="Shirt" fill="#DDE3E9"></path>
                                    <path d="M40.5163447,-1.13625223e-13 C41.6908693,1.53889293 42.5330978,2.62866952 43.0430303,3.26932978 C43.3941132,3.71041727 44.630751,4.20125939 46.7529437,4.74185612 C46.0615444,16.1354591 46.1433297,24.0060728 46.9982998,28.3536973 C49.1443953,39.2668488 48.6152125,45.9778021 47.4576304,49.25913 C47.3648936,49.5220054 49.3725432,49.4639482 49.2689896,49.7108001 L49.2689896,49.7108001 L24.4656604,49.7108001 C24.7519282,45.6375519 25.5114078,41.1593048 26.5824136,36.5734378 C21.8454257,44.8718605 17.8059025,50.9629805 14.4644272,54.8473786 L8.81172494,53.7426211 C12.2391958,32.5324629 21.7832537,16.5519209 37.4438984,5.80099517 C38.5164758,3.57868157 39.55568,1.61705501 40.5163447,-1.13625223e-13 Z" id="Coat-Front" fill="#8E9EC6"></path>
                                </g>
                            </g>
                        </g>
                        <g id="humaaan-10" transform="translate(2.731603, 67.900780)">
                            <g id="Head/Front" transform="translate(20.392313, 0.000000)">
                                <g id="Head" transform="translate(0.042475, 1.389314)" fill="#E8BC93">
                                    <path d="M14.5795176,3.49019042 C16.7944664,7.61743464 16.5312729,18.0865319 13.668649,18.8241855 C12.5271459,19.1183331 10.0955263,18.3978848 7.62058955,16.9067256 L9.17351262,27.8942163 L0,27.8942163 L3.15846598,13.1795558 C1.39697783,11.1127227 0.204721213,8.57973007 0.403931293,5.74141454 C0.977869773,-2.43597539 12.3645689,-0.63705379 14.5795176,3.49019042 Z"></path>
                                </g>
                                <path d="M1.12485016,5.03911951 C3.21470531,-3.55579546 15.0520928,1.77937904 17.3295785,0.329630593 C17.8273304,3.44857113 16.2221937,5.96353982 10.5790184,5.47831501 C9.33206549,6.17308236 8.44577505,7.47805122 7.37874353,9.19002448 C7.11912211,9.08759279 6.83629572,9.03156478 6.54037927,9.03156478 C5.27378149,9.03156478 4.24700112,10.0580305 4.24700112,11.3242401 C4.24700112,11.9667133 4.51134932,12.5474635 4.93724349,12.9637202 C4.40773546,13.7124732 3.81280596,14.4950048 3.13103806,15.3024866 C0.609474262,13.7901145 -1.27147681,9.40678685 1.06382721,5.14920845 Z" id="Hair" fill="#8F8F8F"></path>
                            </g>
                            <g id="Bottom/Skinny-Jeans-1" transform="translate(0.000000, 70.869118)">
                                <polygon id="Leg" fill="#A6B2BA" points="17.1193145 0 28.2025305 43.2919068 36.2889595 75.200376 42.186882 75.200376 33.5938954 0"></polygon>
                                <path d="M14.155332,0 C13.8989783,22.3131508 13.0248169,34.4833496 12.755656,36.5105963 C12.4864951,38.5378431 8.4166412,51.4344363 0.546094305,75.200376 L6.65594262,75.200376 C16.675751,52.4010177 22.2690643,39.5044245 23.4358827,36.5105963 C24.6027011,33.5167682 28.2036165,21.3465694 33.6272248,0 L14.155332,0 Z" id="Leg" fill="#C5CFD6"></path>
                                <g id="Left-Shoe" transform="translate(0.000000, 74.179556)" fill="#7F7C7C">
                                    <path d="M0,7.14573708 L0.305702044,-2.84063057e-14 L6.72544496,-2.84063057e-14 C9.76950464,2.38191236 13.7436312,4.31012713 18.6478247,5.78464431 L18.6478247,7.14573708 L7.03114701,7.14573708 L3.05702044,6.46519069 L3.05702044,7.14573708 L0,7.14573708 Z" id="Shoe"></path>
                                </g>
                                <g id="Right-Shoe" transform="translate(35.461437, 74.179556)" fill="#7F7C7C">
                                    <path d="M0,7.14573708 L0.305702044,-2.84063057e-14 L6.72544496,-2.84063057e-14 C9.76950464,2.38191236 13.7436312,4.31012713 18.6478247,5.78464431 L18.6478247,7.14573708 L7.03114701,7.14573708 L3.05702044,6.46519069 L3.05702044,7.14573708 L0,7.14573708 Z" id="Shoe"></path>
                                </g>
                            </g>
                            <path d="M54.5324337,37.7027958 L65.766143,48.5876735 C69.0347353,49.9724956 71.712881,51.5016189 73.8005804,53.1750433 C74.2700727,53.7375382 74.7811915,54.8153074 72.5722535,54.3330211 C70.3633155,53.8507348 68.0180068,53.4421159 67.602841,54.1556324 C67.1876752,54.8691489 68.4109951,55.9625098 67.6437172,56.8963193 C67.1321986,57.5188589 65.4119212,55.5386821 62.4828851,50.9557888 L50.8013239,44.1150924 L54.5324337,37.7027958 Z" id="Skin" fill="#E8BC93" transform="translate(62.505543, 47.355337) rotate(-60.000000) translate(-62.505543, -47.355337) "></path>
                            <g id="Body/Long-Sleeve-1" transform="translate(6.988930, 20.728712)" fill="#99A4B9">
                                <path d="M26.565308,0 C26.9862474,5.40862294 28.4978976,11.1719674 30.2427319,17.0324441 L30.606778,18.246258 C30.9124537,19.2587837 31.2233031,20.2736687 31.5349312,21.2895928 L32.2820835,23.7291299 L32.2820835,23.7291299 L32.6525617,24.9491273 C32.8484442,25.5973651 33.0424987,26.2453812 33.2335853,26.8928332 C38.3331543,28.42378 43.7769157,28.3456028 49.5650544,26.6581842 C50.2630175,29.1991732 51.2116146,31.6597471 52.410846,34.0399059 C46.1982046,35.6825415 40.7087632,36.7721443 35.9022999,37.3495759 C37.3746001,44.7678891 37.5789275,51.8509217 34.6671019,58.0431316 C30.7385392,66.3975073 7.73462193,58.6604238 0,60.1832709 C4.49846835,43.5085621 6.37799859,38.1998598 6.38553407,28.1336012 C6.39378622,17.1099754 13.3879983,0 14.6901749,0 L14.6901749,0 Z" id="Clothes"></path>
                            </g>
                        </g>
                    </g>
                    <path d="M217.96587,32.0681916 C219.614298,30.6161229 221.437279,27.2010502 221.437279,24.899267 C221.437279,21.0205132 223.009619,17.9429968 216.187749,17.9429968 C215.333958,17.9429968 207.707621,20.0373078 204.587546,23.3007744 C201.317008,26.7216185 202.610607,31.3438763 204.587546,32.4759785 C208.705,34.8338552 217.193659,32.7484174 217.96587,32.0681916 Z" id="Oval" fill-opacity="0.2" fill="#8FC1F6"></path>
                    <path d="M176.509303,25.2750936 C177.333517,24.5174925 178.245008,22.7357154 178.245008,21.5347851 C178.245008,19.5110875 179.031178,17.9054267 175.620243,17.9054267 C175.193347,17.9054267 171.380179,18.9981108 169.820141,20.700789 C168.184872,22.4855772 168.831672,24.8971899 169.820141,25.487852 C171.878868,26.7180485 176.123198,25.629994 176.509303,25.2750936 Z" id="Oval" fill-opacity="0.30201049" fill="#F8D874"></path>
                </g>
            </g>
        </g>
    </g>
</svg>