<?xml version="1.0" encoding="UTF-8"?>
<svg width="22px" height="18px" viewBox="0 0 22 18" version="1.1" xmlns="http://www.w3.org/2000/svg" xmlns:xlink="http://www.w3.org/1999/xlink">
    <title>8D5E6A74-745A-4D50-B6F2-427B70829B9F</title>
    <g id="1.-PUBLIC-User" stroke="none" stroke-width="1" fill="none" fill-rule="evenodd">
        <g id="SEEDFUND-Home--V-2" transform="translate(-821.000000, -4349.000000)" fill-rule="nonzero">
            <g id="Group-13" transform="translate(-114.000000, 4127.000000)">
                <g id="Group-19" transform="translate(844.000000, 189.000000)">
                    <g id="youtube" transform="translate(91.000000, 33.000000)">
                        <path d="M13.9597408,7.32475284 L9.35248797,4.61296559 C9.08757532,4.45704299 8.77445333,4.46286225 8.51479119,4.6283696 C8.25496995,4.79404809 8.1,5.08672392 8.1,5.41157702 L8.1,10.7885972 C8.1,11.1119098 8.25401529,11.4040722 8.51208638,11.5699218 C8.64684977,11.6565265 8.79625094,11.7 8.94597038,11.7 C9.08312033,11.7 9.22058853,11.6635439 9.34707837,11.5902894 L13.9544903,8.92522758 C14.2279947,8.76690878 14.3987162,8.46105395 14.3999946,8.12678734 C14.4011028,7.79252072 14.2324497,7.48529665 13.9597408,7.32475284 L13.9597408,7.32475284 Z M9.32209862,10.1121907 L9.32209862,6.09346039 L12.7654859,8.12028345 L9.32209862,10.1121907 Z" id="Shape" fill="#AFAFAF"></path>
                        <path d="M21.4409741,4.03592108 L21.4399854,4.02558626 C21.4216933,3.84386559 21.2395963,2.22749909 20.4878076,1.40536385 C19.6188506,0.438368779 18.633714,0.3208963 18.1599323,0.264571498 C18.1207114,0.259920816 18.0847864,0.25561465 18.0526516,0.251136204 L18.0149139,0.247002275 C15.1593692,0.029971012 10.8468838,0.000344494138 10.8037079,0.000172247069 L10.7999176,0 L10.7961273,0.000172247069 C10.7529514,0.000344494138 6.44046598,0.029971012 3.55921359,0.247002275 L3.52114624,0.251136204 C3.4904946,0.255442414 3.45671191,0.259404064 3.41996291,0.263882509 C2.95161934,0.320379548 1.97702958,0.438024307 1.10560069,1.43998549 C0.389572223,2.25333613 0.18259138,3.83508098 0.161333008,4.01283995 L0.158861093,4.03592108 C0.152434129,4.11153755 0,5.91169164 0,7.71890788 L0,9.40830713 C0,11.2155234 0.152434129,13.0156775 0.158861093,13.0914662 L0.160014659,13.1028345 C0.178306724,13.281627 0.36023893,14.868367 1.10856699,15.6908467 C1.92561396,16.6254593 2.95870543,16.7491327 3.51438971,16.8156201 C3.60222473,16.8261272 3.67786503,16.835084 3.72944544,16.8445576 L3.77937793,16.851792 C5.42813853,17.0157712 10.597551,17.0965551 10.8167266,17.0998278 L10.8233183,17.1 L10.8299101,17.0998278 C10.873086,17.0996555 15.1854066,17.070029 18.0409512,16.8529977 L18.078689,16.8488638 C18.1147788,16.8438686 18.155318,16.8393902 18.1998123,16.8345673 C18.6655192,16.7828932 19.6348356,16.6755832 20.4942345,15.6872295 C21.210263,14.8737066 21.4174086,13.2919618 21.4385022,13.1143751 L21.4409741,13.091294 C21.4474011,13.0155053 21.6,11.2155234 21.6,9.40830713 L21.6,7.71890788 C21.6,5.91169164 21.4474011,4.11170979 21.4409741,4.03592108 L21.4409741,4.03592108 Z M20.3340551,9.40830713 C20.3340551,11.0809984 20.1943101,12.8036414 20.1811266,12.9617642 C20.1274038,13.397377 19.9090522,14.3981325 19.560184,14.794473 C19.0222975,15.4130122 18.4697444,15.4743322 18.0663295,15.5189441 C18.0175506,15.5242838 17.9723971,15.5294512 17.9315282,15.5347909 C15.1695864,15.7435543 11.0199172,15.7755923 10.8287565,15.776798 C10.6143599,15.7735253 5.52058777,15.6920525 3.92208922,15.5368578 C3.84018678,15.5229058 3.75169259,15.5122265 3.65841936,15.5012027 C3.18529673,15.4445334 2.53765765,15.3670223 2.03965118,14.794473 L2.02795082,14.7813822 C1.68517999,14.4081228 1.47309058,13.4723045 1.41920304,12.9669316 C1.40915064,12.8473921 1.26578013,11.104424 1.26578013,9.40830713 L1.26578013,7.71890788 C1.26578013,6.04811131 1.40519559,4.32736312 1.41870865,4.16596758 C1.48281342,3.6528436 1.70528484,2.71271908 2.03965118,2.33274206 C2.59401707,1.69542791 3.1785402,1.62480659 3.56514612,1.57812762 C3.6020599,1.57364922 3.63650181,1.56951529 3.66830698,1.56520913 C6.47045845,1.35541217 10.6499554,1.32423546 10.7999176,1.32302972 C10.9498799,1.32406323 15.1278936,1.35541217 17.9051613,1.56520913 C17.9392736,1.56968753 17.9765169,1.57416597 18.0165618,1.57898889 C18.4142089,1.6263568 19.0152114,1.69801158 19.5667758,2.31293364 L19.5718844,2.31861778 C19.9146552,2.69187719 20.1267446,3.64405899 20.1806322,4.15959445 C20.1901902,4.27241629 20.3340551,6.01917381 20.3340551,7.71890788 L20.3340551,9.40830713 Z" id="Shape" fill="#DFE8F5"></path>
                        <g id="Group-66" transform="translate(8.000000, 4.000000)" fill="#DFE8F5">
                            <path d="M5.95974083,3.32475284 L1.35248797,0.612965587 C1.08757532,0.45704299 0.774453328,0.462862254 0.514791187,0.628369601 C0.25496995,0.794048093 0.1,1.08672392 0.1,1.41157702 L0.1,6.78859715 C0.1,7.11190982 0.254015289,7.40407221 0.512086384,7.56992185 C0.646849772,7.65652653 0.796250936,7.7 0.945970375,7.7 C1.08312033,7.7 1.22058853,7.6635439 1.34707837,7.59028936 L5.95449032,4.92522758 C6.22799471,4.76690878 6.39871624,4.46105395 6.39999457,4.12678734 C6.40110281,3.79252072 6.2324497,3.48529665 5.95974083,3.32475284 L5.95974083,3.32475284 Z M1.32209862,6.11219075 L1.32209862,2.09346039 L4.76548589,4.12028345 L1.32209862,6.11219075 Z" id="Shape"></path>
                        </g>
                    </g>
                </g>
            </g>
        </g>
    </g>
</svg>