<?xml version="1.0" encoding="UTF-8"?>
<svg width="12px" height="21px" viewBox="0 0 12 21" version="1.1" xmlns="http://www.w3.org/2000/svg" xmlns:xlink="http://www.w3.org/1999/xlink">
    <title>98CEABCE-7A50-4187-9D77-7EE2D593BB14</title>
    <g id="1.-PUBLIC-User" stroke="none" stroke-width="1" fill="none" fill-rule="evenodd">
        <g id="SEEDFUND-Home--V-2" transform="translate(-781.000000, -4347.000000)" fill="#DFE8F5" fill-rule="nonzero">
            <g id="Group-13" transform="translate(-114.000000, 4127.000000)">
                <g id="Group-19" transform="translate(844.000000, 189.000000)">
                    <path d="M58.4122107,52 L55.0264537,52 C54.4609243,52 54.0008872,51.5430603 54.0008872,50.9813385 L54.0008872,43.3960113 L52.0255666,43.3960113 C51.4600371,43.3960113 51,42.9389114 51,42.3773499 L51,39.1270218 C51,38.5653 51.4600371,38.1083603 52.0255666,38.1083603 L54.0008872,38.1083603 L54.0008872,36.4807129 C54.0008872,34.8668442 54.5110896,33.493782 55.4761675,32.5102081 C56.4456005,31.5221481 57.8003872,31 59.3940641,31 L61.9762078,31.0041656 C62.5407694,31.005127 63,31.4620667 63,32.0228271 L63,35.0406799 C63,35.6024018 62.5401242,36.0593414 61.9747561,36.0593414 L60.2362287,36.0599823 C59.7060247,36.0599823 59.5710138,36.1655655 59.5421405,36.1979294 C59.494556,36.2516022 59.4379386,36.4033279 59.4379386,36.8222961 L59.4379386,38.1082001 L61.8441003,38.1082001 C62.025244,38.1082001 62.200742,38.1525803 62.3515606,38.2362137 C62.6769095,38.4167786 62.8791838,38.7582016 62.8791838,39.127182 L62.8778934,42.3775101 C62.8778934,42.9389114 62.4178563,43.3958511 61.8523268,43.3958511 L59.4379386,43.3958511 L59.4379386,50.9813385 C59.4379386,51.5430603 58.9777401,52 58.4122107,52 L58.4122107,52 Z M55.240342,50.7688904 L58.1983224,50.7688904 L58.1983224,42.8448639 C58.1983224,42.4697952 58.5056053,42.1647415 58.8830551,42.1647415 L61.6384386,42.1647415 L61.6395677,39.3394699 L58.8828938,39.3394699 C58.505444,39.3394699 58.1983224,39.0344162 58.1983224,38.6593476 L58.1983224,36.8222961 C58.1983224,36.3413238 58.24752,35.794342 58.6130333,35.3832245 C59.0546819,34.8862305 59.7507057,34.8288727 60.2359061,34.8288727 L61.7605452,34.8282318 L61.7605452,32.2349548 L59.3930962,32.2311096 C56.8319219,32.2311096 55.240342,33.8595581 55.240342,36.4807129 L55.240342,38.6593476 C55.240342,39.034256 54.9332204,39.3394699 54.5557706,39.3394699 L52.2394548,39.3394699 L52.2394548,42.1647415 L54.5557706,42.1647415 C54.9332204,42.1647415 55.240342,42.4697952 55.240342,42.8448639 L55.240342,50.7688904 Z" id="Shape"></path>
                </g>
            </g>
        </g>
    </g>
</svg>