<?xml version="1.0" encoding="UTF-8"?>
<svg width="18px" height="15px" viewBox="0 0 18 15" version="1.1" xmlns="http://www.w3.org/2000/svg" xmlns:xlink="http://www.w3.org/1999/xlink">
    <title>ECEF7C73-B11E-42AE-95AB-26ADFB94BC0A</title>
    <g id="1.-PUBLIC-User" stroke="none" stroke-width="1" fill="none" fill-rule="evenodd">
        <g id="SEEDFUND-Home--V-2" transform="translate(-730.000000, -4352.000000)" fill="#DFE8F5" fill-rule="nonzero">
            <g id="Group-13" transform="translate(-114.000000, 4127.000000)">
                <g id="Group-19" transform="translate(844.000000, 189.000000)">
                    <path d="M6.84899916,51 C3.84479096,51 1.47037336,50.4702171 0.334388253,49.5467704 L0.312278265,49.5287506 L0.292228255,49.508513 C0.0223768692,49.2359978 -0.0660629772,48.8785122 0.04984266,48.5278187 L0.0604169807,48.4987097 C0.20104183,48.1437192 0.545600167,47.9047486 0.918997601,47.9025308 C1.68749043,47.8890852 2.35985299,47.7966296 2.97000554,47.6171245 C1.99675523,47.1602526 1.32068478,46.3691823 0.918448286,45.2242304 C0.783179275,44.8671606 0.899908868,44.4712789 1.21164561,44.2352193 C1.28854983,44.1768628 1.37547904,44.1327835 1.46748946,44.1032587 C0.926688023,43.4731193 0.527198104,42.7560689 0.303489212,41.9977115 L0.296485461,41.9741471 L0.291678939,41.9500283 C0.215736036,41.5664833 0.385611944,41.1721263 0.696936691,41.0023241 C0.8275365,40.9266409 0.969397336,40.8874131 1.11180745,40.8840864 C0.958273665,40.5503038 0.846625234,40.2076499 0.780432695,39.8629168 C0.596686537,38.9075888 0.748297703,37.9499045 1.23087166,37.0164776 L1.3425201,36.7910911 C1.43192125,36.6107543 1.60275847,36.4840611 1.79968817,36.451764 C1.99661791,36.4196055 2.19849146,36.4853086 2.3395283,36.6276652 L2.54291247,36.8332298 C4.14966124,38.5334695 5.58886867,39.3402032 8.077132,39.8921643 C8.18823112,38.9281037 8.60117929,38.031964 9.26736206,37.3266958 C10.0601621,36.4875264 11.118831,36.0166545 12.2483617,36.0005753 L12.2557774,36.0005753 C13.0798885,36.0005753 14.1021652,36.475467 14.7204202,36.8103585 C15.2507846,36.6351504 15.8897762,36.3638827 16.5528004,36.0770902 C16.8630265,35.9301594 17.2454876,35.9973872 17.4893838,36.2435657 C17.7284736,36.4848927 17.7948034,36.8251902 17.6679115,37.1559233 C17.619709,37.2913492 17.5650521,37.4242801 17.5042154,37.5543 C17.5949898,37.5963001 17.6780738,37.6532704 17.7482489,37.7241022 C17.9604222,37.9382609 18.048862,38.2734296 17.9734684,38.5781033 L17.965366,38.6070736 C17.7113074,39.4334905 17.2232403,40.1066002 16.5777943,40.5290958 C16.469991,46.3233011 12.1471502,51 6.84899916,51 L6.84899916,51 Z M1.34663998,48.9533638 C2.41711915,49.5646517 4.45714077,49.9344739 6.84899916,49.9344739 C9.14857248,49.9344739 11.3186446,48.9379776 12.9593137,47.12851 C14.6134409,45.3042107 15.5243438,42.8816532 15.5243438,40.3070361 L15.5243438,40.2780658 C15.5243438,40.044917 15.6515105,39.8321445 15.8561306,39.7226394 C16.271276,39.5007183 16.6074573,39.1227178 16.826085,38.6393707 C16.6005908,38.6752717 16.3713888,38.5839251 16.2309013,38.3934694 C16.0676172,38.1721028 16.0658319,37.8731123 16.2263695,37.6498051 C16.313024,37.5292109 16.3915762,37.4037652 16.461614,37.2740224 C15.8890895,37.5167356 15.3454042,37.7343596 14.8734046,37.8789341 C14.7018807,37.9313302 14.5107188,37.9108153 14.3540265,37.8225182 C13.5137106,37.3499829 12.7310729,37.0674875 12.2592106,37.0661014 C10.5180168,37.0929925 9.10229263,38.5982023 9.10229263,40.4231947 C9.10229263,40.6118484 9.01934595,40.7887199 8.87501321,40.908621 C8.73054318,41.0283836 8.54267717,41.076344 8.35920569,41.0397499 C5.49012915,40.4692145 3.78999673,39.6136887 2.02202376,37.820439 C1.76865185,38.4332516 1.69943806,39.0504999 1.81657964,39.6599858 C1.93536918,40.2773727 2.2513631,40.8960072 2.73050384,41.4489386 C2.91260202,41.6588002 2.93677191,41.9590382 2.79065391,42.1959296 C2.64508522,42.4319893 2.3683674,42.5423261 2.10236119,42.4703854 C1.89444517,42.4141081 1.70328327,42.3402268 1.52200905,42.2452762 C1.8912866,43.0549207 2.526433,43.8037137 3.32486356,44.3559521 C3.55626283,44.5160513 3.65294242,44.8144873 3.56010805,45.0817352 C3.46713635,45.3493989 3.20744729,45.5216961 2.92674691,45.5006268 C2.62091532,45.4777555 2.3499653,45.4191217 2.10057592,45.3202899 C2.54826831,46.2405485 3.26361482,46.7469056 4.36567971,46.9404108 C4.62811531,46.9865692 4.8324608,47.1957378 4.8742088,47.4609064 C4.91609416,47.7260751 4.78604363,47.9888873 4.5507991,48.1148875 C3.61146906,48.6175019 2.58479783,48.8872449 1.34663998,48.9533638 Z" id="Shape"></path>
                </g>
            </g>
        </g>
    </g>
</svg>