<?xml version="1.0" encoding="UTF-8"?>
<svg width="168px" height="106px" viewBox="0 0 168 106" version="1.1" xmlns="http://www.w3.org/2000/svg" xmlns:xlink="http://www.w3.org/1999/xlink">
    <title>Group 63</title>
    <g id="1.-Public-User-Pages-VD" stroke="none" stroke-width="1" fill="none" fill-rule="evenodd">
        <g id="SEEDFUND-Home--V-2" transform="translate(-844.000000, -3244.000000)">
            <g id="Group-27" transform="translate(334.000000, 3145.000000)">
                <g id="Group-24" transform="translate(400.000000, 81.000000)">
                    <g id="Group-63" transform="translate(110.293431, 18.365603)">
                        <path d="M74.6247919,80.0805972 C81.8246416,73.3903178 89.7868838,57.6556694 89.7868838,47.0504052 C89.7868838,29.1793869 96.654398,15 66.8584844,15 C63.1293785,15 29.81979,24.6493545 16.1922246,39.6854907 C1.90748313,55.4467299 7.55753809,76.7433776 16.1922246,81.9594393 C34.1760479,92.8231497 71.2520018,83.2146776 74.6247919,80.0805972 Z" id="Oval" fill-opacity="0.562855114" fill="#E9EDFB"></path>
                        <path d="M84.5812923,9.03897183 C85.6085378,8.10976636 86.7445584,5.92439853 86.7445584,4.45144516 C86.7445584,1.9693593 87.7243876,0 83.4732268,0 C82.941173,0 78.1886953,1.34018812 76.2443692,3.42854037 C74.2062799,5.61760137 75.012407,8.57546911 76.2443692,9.29992213 C78.8102286,10.8087708 84.1000762,9.47426078 84.5812923,9.03897183 Z" id="Oval" fill-opacity="0.2" fill="#8FC1F6"></path>
                        <path d="M102.488015,14.5194859 C103.001637,14.0548832 103.569648,12.9621993 103.569648,12.2257226 C103.569648,10.9846796 104.059562,10 101.933982,10 C101.667955,10 99.2917161,10.6700941 98.319553,11.7142702 C97.3005084,12.8088007 97.7035719,14.2877346 98.319553,14.6499611 C99.6024827,15.4043854 102.247407,14.7371304 102.488015,14.5194859 Z" id="Oval" fill-opacity="0.6" fill="#8FC1F6"></path>
                        <path d="M15.1703794,24.4623549 C16.7968515,22.9756262 17.8322084,14.8035806 15.1703794,15.4856646 C11.745208,16.3633523 5.04876753,12.144301 1.97025125,15.4856646 C-1.25672348,18.9881622 0.0196443554,23.7207506 1.97025125,24.8798754 C4.90332648,26.6228203 10.0844911,25.9944591 13.0255431,25.2482268 C14.1581504,24.9608506 14.9585398,24.6559937 15.1703794,24.4623549 Z" id="Oval" fill="#F8D874" opacity="0.445562318"></path>
                        <g id="leaves" transform="translate(23.917095, 33.634397)">
                            <path d="M52.0637019,5.83939919 C47.6045146,9.22172155 44.2994038,13.898453 42.9959329,18.670441 C41.504095,24.1316901 42.7162791,29.0661532 46.2315252,32.3226651 C45.0216233,34.497747 43.8970395,36.7425637 43.0062904,38.919982 C42.1882198,36.836562 41.0989218,34.970794 39.8670759,33.3081199 C41.6136392,30.4669619 41.8555494,26.9960331 40.4834378,23.4390141 C39.1913777,20.0897619 36.5746049,17.0014763 33.1148331,14.7426407 C29.3829563,12.3062327 24.9888986,11.0184736 20.4078785,11.0184736 C14.5295317,11.0184736 8.49915725,13.1892419 2.96892939,17.2960524 L0,19.5009693 L3.53947223,20.4855254 C9.37831988,22.1095577 14.0383382,26.7183516 18.1497577,30.7845433 C22.3471975,34.9359266 26.3120314,38.8568971 30.9051646,38.8581552 C33.1674986,38.8581552 35.3276616,37.9332691 37.4901067,36.042339 C39.5651271,39.0373451 41.0411653,42.7092111 41.0411653,47.1744014 L41.0411653,70 L44.5521982,70 C44.5521982,70 44.5553581,47.9332178 44.5553581,46.7459272 C44.5553581,43.8774504 46.1988726,39.6491431 49.127074,34.3658258 C51.3016322,35.5680339 53.3336425,36.1548495 55.3126362,36.1548495 C61.7659145,36.1548495 65.9624766,29.833237 70.4055131,23.1406637 C74.3712247,17.1668271 78.866049,10.3958919 85.5538644,6.88937673 L88.8157895,5.1790744 L85.4695996,3.64850119 C80.1761909,1.22754991 74.8998107,0 69.7868691,0 C63.2284353,0 57.0997519,2.01925669 52.0637019,5.83939919 Z M20.7925838,28.3015934 C17.1348962,24.6690672 13.0767978,20.6387302 7.99342105,18.2680614 C12.1258663,15.7956652 16.3570866,14.5454545 20.609726,14.5454545 C29.1466905,14.5454545 35.5987572,19.7137199 37.5599207,24.8188377 C38.0677804,26.1411129 38.5928107,28.3301645 37.7351668,30.5212178 C34.5591405,27.2062488 31.0634229,24.9411291 28.8880697,23.5316849 C28.2518732,23.1193156 27.7024146,22.7633604 27.3354598,22.4953021 L25.2838411,25.4614133 C25.7309842,25.7884334 26.3193863,26.169684 27.000368,26.6108064 C29.2412172,28.0628341 32.6415231,30.2668081 35.5769842,33.4392859 C34.0479175,34.7924979 32.6101912,35.4545455 31.1967161,35.4545455 C27.9941375,35.4536355 24.6568494,32.1392124 20.7925838,28.3015934 Z M67.6164195,21.2376967 C63.576492,27.4028835 60.0873926,32.7272727 55.5326629,32.7272727 C54.1967527,32.7272727 52.7659922,32.3016393 51.182427,31.4339463 C51.3380163,31.174198 51.495172,30.9130056 51.6561565,30.6491057 C55.1047052,24.9940292 58.6068574,20.4151302 58.6418389,20.3694622 L55.9183295,18.1214389 C55.6198556,18.5104296 51.9454064,23.3283186 48.3661557,29.2956707 C46.2611747,26.9436759 45.6396876,23.587706 46.6745133,19.7497847 C47.7625944,15.7147507 50.5724263,11.7205111 54.3840168,8.79161865 C57.4442884,6.43998481 62.6175466,3.63636364 69.8822108,3.63636364 C73.4426655,3.63636364 77.1099792,4.31849629 80.8223684,5.66850162 C75.1285647,9.7741135 71.1702608,15.8145706 67.6164195,21.2376967 L67.6164195,21.2376967 Z" id="Shape" fill="#80BD59" fill-rule="nonzero"></path>
                            <line x1="10.3618421" y1="69.5" x2="89.3092105" y2="69.5" id="Line" stroke="#FF8962" stroke-width="3" opacity="0.3" stroke-linecap="square"></line>
                        </g>
                        <path d="M165.703938,39.1295335 L157.787287,31.1356767 L160.594369,28.3006835 C161.29455,27.5936747 161.679888,26.6543858 161.679888,25.6551536 C161.679888,24.6553863 161.29455,23.7150271 160.594369,23.0090886 L152.359695,14.6941074 C150.960394,13.2811601 148.517977,13.2811601 147.118676,14.6941074 L144.311594,17.5285655 L142.908052,16.1113364 C142.483492,15.6826354 141.797622,15.6826354 141.373062,16.1113364 L122.919249,34.745115 C122.494689,35.1732809 122.494689,35.8663744 122.919249,36.2945403 L126.493827,39.9045137 L123.237272,43.1928276 L119.686546,43.1928276 C118.464278,40.6045649 115.854899,38.8084091 112.831561,38.8084091 C112.231028,38.8084091 111.746043,39.2981238 111.746043,39.9045137 L111.746043,53.0577692 C111.746043,53.6636239 112.231028,54.1538738 112.831561,54.1538738 C115.854899,54.1538738 118.463218,52.3571828 119.686546,49.7694553 L136.263493,49.7694553 L145.715135,59.3127373 C145.92662,59.5268203 146.20489,59.6343969 146.48263,59.6343969 C146.76037,59.6343969 147.038641,59.5268203 147.250126,59.3127373 L165.703938,40.6789588 C166.128499,40.2507929 166.128499,39.5576994 165.703938,39.1295335 Z M159.059378,35.5200952 L142.140557,52.6039134 L129.563809,39.9045137 L146.48263,22.8201604 L159.059378,35.5200952 Z M148.653667,16.2435327 C149.234589,15.6596215 150.243782,15.6596215 150.824704,16.2435327 L159.059378,24.559049 C159.349309,24.8523426 159.508851,25.2403681 159.508851,25.6551536 C159.508851,26.0694042 159.349309,26.4574295 159.059378,26.7512583 L156.252296,29.5857163 L145.846584,19.0785259 L148.653667,16.2435327 Z M142.140557,18.4357419 L144.94764,21.2707352 L128.028818,38.3545533 L125.221736,35.5200952 L142.140557,18.4357419 Z M128.028818,41.453939 L129.750382,43.1928276 L126.307254,43.1928276 L128.028818,41.453939 Z M113.917079,51.8508767 L113.917079,41.1098006 C116.390768,41.6198532 118.259153,43.8329356 118.259153,46.4795358 C118.259153,49.1266713 116.390768,51.3418945 113.917079,51.8508767 Z M120.343263,47.5772461 C120.394147,47.2175867 120.43019,46.8536457 120.43019,46.4811414 C120.43019,46.108102 120.394147,45.744161 120.343263,45.3850368 L131.921419,45.3850368 L134.092456,47.5772461 L120.343263,47.5772461 Z M146.48263,56.9883318 L143.675548,54.1538738 L160.594369,37.0695205 L163.401452,39.9045137 L146.48263,56.9883318 Z" id="Shape" fill="#E26640" fill-rule="nonzero"></path>
                        <g id="Group-25" transform="translate(106.811832, 55.634397)" fill="#BCDAFA" fill-rule="nonzero">
                            <polygon id="Path" points="5.92105263 3 8.88157895 3 8.88157895 6 5.92105263 6"></polygon>
                            <polygon id="Path" points="5.92105263 9 8.88157895 9 8.88157895 12 5.92105263 12"></polygon>
                            <polygon id="Path" points="5.92105263 16 8.88157895 16 8.88157895 19 5.92105263 19"></polygon>
                            <polygon id="Path" points="0 12 2.96052632 12 2.96052632 15 0 15"></polygon>
                            <polygon id="Path" points="0 6 2.96052632 6 2.96052632 9 0 9"></polygon>
                            <polygon id="Path" points="0 0 2.96052632 0 2.96052632 3 0 3"></polygon>
                        </g>
                    </g>
                </g>
            </g>
        </g>
    </g>
</svg>