<?xml version="1.0" encoding="UTF-8"?>
<svg width="18px" height="18px" viewBox="0 0 18 18" version="1.1" xmlns="http://www.w3.org/2000/svg" xmlns:xlink="http://www.w3.org/1999/xlink">
    <title>24232F59-FA08-4C82-B24F-122775F85A85</title>
    <g id="1.--Public-User" stroke="none" stroke-width="1" fill="none" fill-rule="evenodd">
        <g id="SEEDFUND-Portfolio-Details" transform="translate(-339.000000, -1774.000000)" fill="#25429C" fill-rule="nonzero">
            <g id="Group-11" transform="translate(339.000000, 1596.000000)">
                <path d="M14.2223364,180.338478 L4.56252902,180.338478 C3.75069716,180.338478 3.09254048,180.996632 3.09254048,181.808461 C3.09254048,182.62029 3.75069716,183.278444 4.56252902,183.278444 L10.6735328,183.278444 L3.12285863,190.829154 C2.548898,191.403112 2.548898,192.333876 3.12285863,192.907961 C3.40980737,193.194909 3.78600519,193.338478 4.162203,193.338478 C4.53840082,193.338478 4.9146618,193.194909 5.20154737,192.907898 L12.7524111,185.357251 L12.7524111,191.468242 C12.7524111,192.280071 13.4105678,192.938225 14.2223996,192.938225 C15.0342315,192.938225 15.6923882,192.280071 15.6923882,191.468242 L15.6923882,181.808461 C15.6923882,180.996632 15.0341683,180.338478 14.2223364,180.338478 Z" id="Path" transform="translate(9.192388, 186.838478) scale(-1, 1) rotate(45.000000) translate(-9.192388, -186.838478) "></path>
            </g>
        </g>
    </g>
</svg>