<?xml version="1.0" encoding="UTF-8"?>
<svg width="22px" height="24px" viewBox="0 0 22 24" version="1.1" xmlns="http://www.w3.org/2000/svg" xmlns:xlink="http://www.w3.org/1999/xlink">
    <title>Fill 1</title>
    <g id="Symbols" stroke="none" stroke-width="1" fill="none" fill-rule="evenodd">
        <g id="notifaction/withnumber" transform="translate(0.000000, -7.000000)" fill="#333333">
            <g id="icon-notifaction" transform="translate(-1.000000, 0.000000)">
                <g id="icon/notification" transform="translate(0.000000, 6.780000)">
                    <g id="icon-notifaction" transform="translate(0.520000, 0.000000)">
                        <g id="Group-3" transform="translate(0.621500, 0.414333)">
                            <path d="M2.38015206,19.0570981 L4.76536638,14.2916325 L4.76536638,7.94098693 C4.76536638,4.43215105 7.60717603,1.5903414 11.1160119,1.5903414 C14.6248478,1.5903414 17.4716204,4.43215105 17.4716204,7.94098693 L17.4716204,14.2916325 L19.8518718,19.0570981 L2.38015206,19.0570981 Z M11.1160119,22.2324209 C10.0807316,22.2324209 9.2082375,21.569365 8.87869478,20.647241 L13.353329,20.647241 C13.0237863,21.569365 12.1512922,22.2324209 11.1160119,22.2324209 L11.1160119,22.2324209 Z M19.0568003,14.2916325 L19.0568003,7.94098693 C19.0568003,3.55568653 15.5013123,0.00019851971 11.1160119,0.00019851971 C6.73071151,0.00019851971 3.1752235,3.55568653 3.1752235,7.94098693 L3.1752235,14.2916325 L0.678800958,19.2883794 C0.608729901,19.8023023 0.608729901,20.122784 0.678800958,20.2498244 C0.92301914,20.6925974 1.46505642,20.647241 1.63049951,20.647241 C2.99987751,20.647241 4.86538126,20.647241 7.22701079,20.647241 C7.59526485,22.4577407 9.19731891,23.8225637 11.1160119,23.8225637 C13.0396679,23.8225637 14.6407294,22.4577407 15.0089834,20.647241 C17.6760526,20.647241 19.6763546,20.647241 21.0098892,20.647241 C21.1829095,20.647241 21.5567547,20.5409046 21.6945664,20.2498244 C21.7469167,20.1392524 21.7469167,19.9130734 21.6945664,19.5712875 L19.0568003,14.2916325 Z" id="Fill-1"></path>
                        </g>
                    </g>
                </g>
            </g>
        </g>
    </g>
</svg>