<?xml version="1.0" encoding="UTF-8"?>
<svg width="345px" height="312px" viewBox="0 0 345 312" version="1.1" xmlns="http://www.w3.org/2000/svg" xmlns:xlink="http://www.w3.org/1999/xlink">
    <title>Group 37</title>
    <g id="1.-Public-User-Pages-VD" stroke="none" stroke-width="1" fill="none" fill-rule="evenodd">
        <g id="SEEDFUND-Home--V-2" transform="translate(-277.000000, -1326.000000)">
            <g id="Group-23" transform="translate(252.000000, 790.000000)">
                <g id="Group-40" transform="translate(25.945685, 516.000000)">
                    <g id="Group-37" transform="translate(0.000000, 20.090909)">
                        <path d="M291.662754,116.909091 C281.418945,116.909091 196.482167,163.698331 159.047409,205.047705 C119.807396,248.391113 110.659995,289.726547 136.965033,300.620028 C165.397472,312.394512 230.168587,318.089215 277.711453,294.705966 C324.7096,271.590629 373.51177,116.909091 291.662754,116.909091 Z" id="Oval" fill-opacity="0.562855114" fill="#E9EDFB"></path>
                        <g id="Group-46" transform="translate(0.000000, 0.909091)">
                            <g id="plant" transform="translate(205.651453, 259.872611) scale(-1, 1) translate(-205.651453, -259.872611) translate(166.651453, 255.372611)"></g>
                            <g id="idea" transform="translate(174.891453, 43.992611)" fill-rule="nonzero">
                                <path d="M40.534067,119.390873 C40.534067,120.833466 39.3662477,122.007089 37.9307893,122.007089 L26.2991226,122.007089 C24.8636642,122.007089 23.6958449,120.833466 23.6958449,119.390873 L23.6958449,117.539928 L40.534067,117.539928 L40.534067,119.390873 Z M45.6677308,116.043482 C45.6677308,116.889174 44.6742757,117.577296 43.4528399,117.577296 L42.7496226,117.577296 L21.4802893,117.577296 L20.8275867,117.577296 C19.6061509,117.577296 18.6126958,116.889174 18.6126958,116.043482 L18.6126958,107.317296 L45.6677308,107.317296 L45.6677308,116.043482 L45.6677308,116.043482 Z M28.6597971,102.864163 L28.6597971,74.7009866 L35.5621388,74.7009866 L35.5621388,102.864163 L28.6597971,102.864163 L28.6597971,102.864163 Z M55.4436481,80.3504546 C49.5675516,86.6026543 46.1520512,94.5368027 45.7155868,102.86394 L39.9932499,102.86394 L39.9932499,74.7009866 L41.9845912,74.7009866 C45.5259352,74.7009866 48.4072652,71.805559 48.4072652,68.2463919 L48.4072652,67.9012741 C48.4072652,64.342107 45.5259352,61.4466794 41.9845912,61.4466794 C38.4432473,61.4466794 35.5621388,64.342107 35.5621388,67.9012741 L35.5621388,70.2478529 L28.6597971,70.2478529 L28.6597971,67.9012741 C28.6597971,64.342107 25.7786886,61.4466794 22.2373447,61.4466794 L21.8008802,61.4466794 C18.2595362,61.4466794 15.3784278,64.342107 15.3784278,67.9012741 L15.3784278,68.2463919 C15.3784278,71.8053364 18.2595362,74.7009866 21.8008802,74.7009866 L24.228686,74.7009866 L24.228686,102.86394 L18.5670553,102.86394 C18.1441058,94.4423962 14.7983954,86.581502 9.03839406,80.5633144 C3.04088519,74.2968647 -0.132455013,66.0498837 0.103501653,57.3420034 C0.567438984,40.1996653 14.834952,26.1549269 31.9084662,26.0338017 C40.5256479,25.9730164 48.6168568,29.2941635 54.7215985,35.3858277 C60.8270049,41.47816 64.1891105,49.5951094 64.1891105,58.2410911 C64.1891105,66.498537 61.0831231,74.3503023 55.4436481,80.3504546 Z M39.9932499,70.2478529 L39.9932499,67.9012741 C39.9932499,66.7975649 40.8865619,65.8998131 41.9845912,65.8998131 C43.0828421,65.8998131 43.9761541,66.7977875 43.9761541,67.9012741 L43.9761541,68.2463919 C43.9761541,69.3501011 43.0828421,70.2478529 41.9845912,70.2478529 L39.9932499,70.2478529 Z M24.2284644,67.9012741 L24.2284644,70.2478529 L24.2284644,70.2478529 L21.8006587,70.2478529 C20.7026293,70.2478529 19.8093173,69.3501011 19.8093173,68.2463919 L19.8093173,67.9012741 C19.8093173,66.7975649 20.7026293,65.8998131 21.8006587,65.8998131 L22.2371231,65.8998131 C23.3351524,65.8998131 24.2284644,66.7980102 24.2284644,67.9012741 Z" id="Shape" fill="#F8D874"></path>
                                <path d="M54.7797353,50.4166578 C52.8876497,45.6306212 49.6695624,41.5575753 45.473714,38.6378372 C41.1727986,35.6451617 36.1313487,34.0831803 30.9072982,34.1206589 C29.6907687,34.1294114 28.7114657,35.1413329 28.72,36.380819 C28.7286465,37.6149189 29.7132358,38.6091111 30.9222763,38.6091111 C30.9275627,38.6091111 30.9330693,38.6091111 30.9381355,38.6091111 C30.989898,38.6088867 31.0403389,38.6086622 31.0918812,38.6086622 C39.7657389,38.6086622 47.4492804,43.8882041 50.6937996,52.0937679 C51.0396174,52.9685673 51.8653949,53.5 52.7374283,53.5 C53.0114393,53.5 53.2902961,53.4477095 53.5599018,53.3368448 C54.6881046,52.8736365 55.2345848,51.5661504 54.7797353,50.4166578 Z" id="Path" fill="#FFFFFF"></path>
                                <g id="Group-50" transform="translate(29.620000, 10.620000) rotate(-90.000000) translate(-29.620000, -10.620000) translate(19.620000, -15.880000)" fill="#F8D874">
                                    <path d="M8.42859014,0.691405385 C7.50647425,-0.230468462 6.01210825,-0.230468462 5.08975629,0.691405385 L0.69140986,5.08972335 C-0.230469953,6.0115972 -0.230469953,7.50642567 0.69140986,8.4285356 C1.1524678,8.88959056 1.75658828,9.12 2.36094482,9.12 C2.96530137,9.12 3.56918577,8.88959056 4.03024371,8.4285356 L8.42859014,4.03021763 C9.35046995,3.10834378 9.35046995,1.61351531 8.42859014,0.691405385 Z" id="Path"></path>
                                    <path d="M8.42857224,48.4098551 L4.03034804,44.0114233 C3.10844436,43.0895256 1.61403968,43.0895256 0.691427758,44.0114233 C-0.230475919,44.933321 -0.230475919,46.4281882 0.691427758,47.3500859 L5.08988804,51.7485177 C5.55095792,52.2095846 6.15509403,52.44 6.75923014,52.44 C7.36336625,52.44 7.96750236,52.2093485 8.42857224,51.7485177 C9.35047592,50.82662 9.35047592,49.3317528 8.42857224,48.4098551 Z" id="Path"></path>
                                    <path d="M17.16636,23.94 L11.33364,23.94 C10.111268,23.94 9.12,24.960756 9.12,26.22 C9.12,27.479244 10.111268,28.5 11.33364,28.5 L17.16636,28.5 C18.388732,28.5 19.38,27.479244 19.38,26.22 C19.38,24.960756 18.388732,23.94 17.16636,23.94 Z" id="Path"></path>
                                </g>
                                <path d="M52.0614543,165.272737 L17.837466,131.048541 C16.9155623,130.126644 15.4211577,130.126644 14.4985457,131.048541 C13.5766421,131.970439 13.5766421,133.465306 14.4985457,134.387204 L48.7227701,168.6114 C49.1838399,169.072467 49.787976,169.302882 50.3921122,169.302882 C50.9962483,169.302882 51.6003844,169.072231 52.0614543,168.6114 C52.9833579,167.689502 52.9833579,166.194635 52.0614543,165.272737 Z" id="Path" fill="#80BD59" transform="translate(33.280000, 149.830000) rotate(45.000000) translate(-33.280000, -149.830000) "></path>
                            </g>
                            <path d="M224.877305,174.261304 C218.466856,179.108655 213.715488,185.81108 211.841641,192.65002 C209.697002,200.47677 211.439616,207.548561 216.493071,212.215608 C214.753738,215.332811 213.137056,218.549954 211.856531,221.670505 C210.680487,218.684667 209.114532,216.010755 207.343652,213.627905 C209.854481,209.55612 210.202246,204.581783 208.229723,199.484067 C206.37228,194.68411 202.610454,190.258155 197.636748,187.020921 C192.271868,183.529201 185.955049,181.683658 179.369456,181.683658 C170.918849,181.683658 162.24969,184.794679 154.299533,190.680325 L150.031453,193.840286 L155.119735,195.251295 C163.513559,197.578766 170.212718,204.183826 176.123222,210.011259 C182.157386,215.960785 187.857161,221.580096 194.460168,221.581899 C197.712459,221.581899 200.817871,220.256405 203.926563,217.546432 C206.909576,221.838703 209.031502,249.901012 209.031502,256.300268 L209.031502,261.652611 L214.078901,261.652611 C214.078901,261.652611 214.083443,257.38776 214.083443,255.686203 C214.083443,251.575266 216.446131,222.715497 220.655661,215.143749 C223.781767,216.866685 226.702949,217.707675 229.547915,217.707675 C238.825033,217.707675 244.857936,208.647902 251.245167,199.056488 C256.946203,190.495127 263.407883,180.791409 273.022167,175.766072 L277.711453,173.314965 L272.90103,171.121434 C265.291319,167.651865 257.706089,165.892611 250.355815,165.892611 C240.927527,165.892611 232.117041,168.786494 224.877305,174.261304 Z M179.792646,205.912835 C174.545466,200.763492 168.723872,195.050227 161.431453,191.689649 C167.359702,188.184866 173.42965,186.412611 179.530325,186.412611 C191.777131,186.412611 201.033021,193.738964 203.846432,200.975802 C204.574988,202.850213 205.328177,205.953336 204.097834,209.059297 C199.541627,204.360113 194.526803,201.149158 191.406123,199.151179 C190.49346,198.566618 189.705228,198.062029 189.178808,197.682038 L186.235634,201.886694 C186.877088,202.350267 187.721188,202.890714 188.698098,203.516034 C191.912735,205.574378 196.790685,208.698655 201.001787,213.195849 C198.808246,215.114116 196.745738,216.052611 194.71802,216.052611 C190.123722,216.051321 185.336175,211.35291 179.792646,205.912835 Z M247.187734,195.973444 C241.337458,204.912579 236.284845,212.632611 229.689077,212.632611 C227.754527,212.632611 225.682623,212.015469 223.38944,210.757369 C223.614751,210.38075 223.84233,210.002037 224.075454,209.619399 C229.069345,201.419891 234.140861,194.780774 234.191518,194.714558 L230.247566,191.455065 C229.815342,192.019077 224.494321,199.004715 219.311158,207.657003 C216.262906,204.246757 215.362921,199.38081 216.861467,193.816064 C218.437132,187.965517 222.506089,182.17412 228.025707,177.927409 C232.457329,174.517687 239.948796,170.452611 250.468858,170.452611 C255.624802,170.452611 260.93549,171.441661 266.311453,173.399084 C258.066176,179.351965 252.334101,188.11025 247.187734,195.973444 L247.187734,195.973444 Z" id="Shape" fill="#80BD59" fill-rule="nonzero"></path>
                            <path d="M241.998023,260.002959 C236.805544,257.336726 232.889412,255.793277 230.249627,255.372611 C220.387769,253.801064 211.461648,255.372611 205.730143,255.372611 C200.565106,255.372611 194.511858,251.695154 186.066033,252.96582 C182.920591,253.439049 177.439771,255.784762 169.623572,260.002959 C168.51302,260.002959 167.614121,260.901858 167.614121,262.012411 C167.614121,263.123466 168.51302,264.021863 169.623572,264.021863 L241.998023,264.021863 C243.109078,264.021863 257.761453,265.132918 257.761453,264.021863 C257.761453,262.91131 243.108575,260.002959 241.998023,260.002959 Z" id="Path" fill="#F8B19C" fill-rule="nonzero"></path>
                            <g id="Group-45" transform="translate(115.562752, 127.142843) scale(-1, 1) rotate(-10.000000) translate(-115.562752, -127.142843) translate(55.062752, 70.142843)" fill-rule="nonzero">
                                <path d="M20.8376869,73.6521108 C19.9399937,73.8696728 19.3415068,75.0444732 19.4997944,76.2783285 L20.0726104,80.7434437 C20.2308979,81.977299 21.0856257,82.7999031 21.983319,82.5823411 C22.8810122,82.3647791 23.4795707,81.1905372 23.3212115,79.9561234 L22.7483955,75.4910083 C22.590108,74.257153 21.7353802,73.4345489 20.8376869,73.6521108 Z" id="Path" fill="#BCDAFA" transform="translate(21.410512, 78.117226) rotate(10.000000) translate(-21.410512, -78.117226) "></path>
                                <path d="M2.51220322,104.731875 C1.61450996,104.92768 1.01602313,105.984995 1.17431067,107.095459 L1.7471267,111.114042 C1.9054859,112.225008 2.76014202,112.964846 3.65783528,112.769041 C4.55593492,112.573147 5.15408703,111.516424 4.99613421,110.405368 L4.42331818,106.386785 C4.26503064,105.276321 3.41030286,104.535981 2.51220322,104.731875 Z" id="Path" fill="#BCDAFA" transform="translate(3.085179, 108.750453) rotate(10.000000) translate(-3.085179, -108.750453) "></path>
                                <path d="M15.3834456,91.9834891 C14.4857523,92.2010376 13.8872655,93.3757651 14.045553,94.6095438 L14.6184407,99.0749403 C14.7767283,100.308719 15.631456,101.131272 16.5291493,100.913724 C17.4268426,100.696175 18.0253294,99.5214477 17.8670419,98.2876689 L17.2941542,93.8222724 C17.1358666,92.5884937 16.2811388,91.7659406 15.3834456,91.9834891 Z" id="Path" fill="#BCDAFA" transform="translate(15.956297, 96.448606) rotate(10.000000) translate(-15.956297, -96.448606) "></path>
                                <path d="M7.90936123,82.5421935 C7.01166797,82.7597419 6.41318114,83.9344694 6.57146868,85.1682482 L7.14435636,89.6336447 C7.30264391,90.8674235 8.15737169,91.6899765 9.05506494,91.472428 C9.9527582,91.2548795 10.551245,90.080152 10.3929575,88.8463733 L9.82006981,84.3809768 C9.66178227,83.147198 8.80705449,82.324645 7.90936123,82.5421935 Z" id="Path" fill="#BCDAFA" transform="translate(8.482213, 87.007311) rotate(10.000000) translate(-8.482213, -87.007311) "></path>
                                <g id="Group-44" transform="translate(26.706450, 0.496851)">
                                    <g id="watering-can-(1)" transform="translate(46.683954, 42.536223) scale(-1, 1) translate(-46.683954, -42.536223) translate(0.183954, 0.036223)">
                                        <path d="M20.8609276,26.0396327 L25.5805276,22.1032127 L24.3081076,15.7409327 C23.7920476,13.1604527 24.5948476,10.5090527 26.4555076,8.64839272 C29.5171276,5.58659272 34.4988076,5.58677272 37.5606076,8.64839272 L39.4488076,10.5364127 L42.0935476,8.33051272 C42.6148276,7.89563272 43.1866876,7.53239272 43.7923876,7.24331272 L41.3789476,4.82987272 C36.2116876,-0.33738728 27.8042476,-0.33720728 22.6371676,4.82987272 C19.4968876,7.97015272 18.1420276,12.4447727 19.0128676,16.7998727 L20.8609276,26.0396327 Z" id="Path" fill="#DCE2F1"></path>
                                        <path d="M32.19372,82.12964 L2.3724,52.30832 C0.76716,50.70308 -0.09468,48.4817 0.00827999999,46.2137 C0.11124,43.94588 1.17054,41.81144 2.91456,40.35812 L44.37144,5.78066 C45.45036,4.88066 47.0394,4.95878 48.02508,5.9603 L51.6546,9.64814 C54.66204,8.22416 58.37202,8.75426 60.8562,11.23826 L72.3114,22.69346 C74.79522,25.17728 75.3372,28.8743 73.93014,31.86518 L78.55704,36.49226 C79.54506,37.48028 79.61598,39.0587 78.72084,40.1315 L62.7795,59.23184 L76.42332,59.23184 C77.1444,59.23184 77.82246,58.95104 78.3324,58.4411 L80.56926,56.20424 C82.09908,54.67424 84.13308,53.83184 86.29668,53.83184 L89.46,53.83184 C90.95112,53.83184 92.16,55.04072 92.16,56.53184 L92.4186921,74.453753 C92.4186921,75.944873 91.2098121,77.153753 89.7186921,77.153753 L86.5553721,77.153753 C84.3917721,77.153753 82.3577721,76.311173 80.8279521,74.781353 L78.5910921,72.544313 C78.0811521,72.034373 77.4030921,71.753573 76.6820121,71.753573 L53.9642469,70.9721562 L44.14392,81.58748 C42.69042,83.3315 40.55616,84.3908 38.28834,84.49376 C38.16666,84.49934 38.0448,84.50204 37.92366,84.50204 C35.78364,84.50204 33.71292,83.64884 32.19372,82.12964 Z" id="Path" fill-opacity="0.348475743" fill="#9BABD8"></path>
                                    </g>
                                </g>
                            </g>
                            <path d="M33.5169543,23.4726111 L73.1234175,55.7591722 C79.0314002,57.6831317 92.1887886,50.7855473 97.0167854,53.0762872 C101.189454,55.0560937 93.8828171,63.7439757 97.248786,65.9977503 C98.934848,67.6976315 107.007828,74.6834184 96.876539,72.5525111 C86.7452498,70.4216038 85.3314579,69.3836333 84.1869789,71.8260874 C83.0424999,74.2685416 89.8977554,76.6231709 87.6724964,79.8831208 C86.1889905,82.0564207 73.9616537,78.5084297 63.1355648,64.4050145 L23.2314526,45.4230943 L33.5169543,23.4726111 Z" id="Arm" fill="#E8BC93" transform="translate(62.561453, 51.972611) scale(1, -1) rotate(-59.000000) translate(-62.561453, -51.972611) "></path>
                            <path d="M44.4183712,21.0943161 C46.4437576,22.7101514 51.3054302,17.6984357 53.3971463,19.2836121 C57.7944659,22.6160564 58.1369938,31.5835578 62.837896,34.77323 L52.7387235,56.197349 C47.4398395,53.6859274 35.6421105,56.0143624 30.4541348,53.6114495 C28.0192594,52.4836891 32.1380474,46.598985 29.73827,45.4812556 C21.7254059,41.7491537 5.69920907,40.6142327 3.18748959,35.9363881 C0.480705275,30.8952533 12.4917845,4.25256515 15.5034706,2.99906013 C20.3689366,0.973986548 31.2040801,10.5520717 44.4183712,21.0943161 Z" id="Coat-Back" fill="#A7B4D4" transform="translate(32.815584, 29.461902) rotate(5.000000) translate(-32.815584, -29.461902) "></path>
                        </g>
                        <path d="M298.04514,78.275343 C299.866788,76.6956937 301.881331,72.9805684 301.881331,70.4765477 C301.881331,66.2570017 303.618895,62.9090909 296.08017,62.9090909 C295.136661,62.9090909 286.708934,65.1874107 283.260996,68.7376095 C279.646784,72.4590132 281.076316,77.4873884 283.260996,78.7189585 C287.81112,81.2840012 297.191783,79.0153342 298.04514,78.275343 Z" id="Oval" fill-opacity="0.2" fill="#8FC1F6"></path>
                        <path d="M320.663313,296.083137 C322.658452,294.317647 324.864857,290.165448 324.864857,287.366837 C324.864857,282.650874 326.767903,278.909091 318.511204,278.909091 C317.477837,278.909091 308.247469,281.455448 304.471156,285.423318 C300.512734,289.582534 302.078412,295.202482 304.471156,296.578943 C309.454625,299.445755 319.728685,296.910186 320.663313,296.083137 Z" id="Oval" fill-opacity="0.343121722" fill="#8FC1F6"></path>
                        <path d="M340.381531,121.755857 C341.595964,120.640811 342.938992,118.018369 342.938992,116.250825 C342.938992,113.272322 344.097368,110.909091 339.071552,110.909091 C338.442546,110.909091 332.824061,112.517317 330.525436,115.023339 C328.115961,117.650213 329.068982,121.199654 330.525436,122.068997 C333.558851,123.879616 339.812627,122.278204 340.381531,121.755857 Z" id="Oval" fill-opacity="0.6" fill="#8FC1F6"></path>
                        <path d="M126.433416,239.437956 C129.047189,237.048649 130.711028,223.915432 126.433416,225.011603 C120.929097,226.422127 110.167784,219.64173 105.220548,225.011603 C100.034735,230.640434 102.085883,238.246131 105.220548,240.108949 C109.934058,242.910019 118.260292,241.900186 122.986621,240.700923 C124.806744,240.239084 126.092985,239.749151 126.433416,239.437956 Z" id="Oval" fill="#F8D874" opacity="0.512945131"></path>
                    </g>
                </g>
            </g>
        </g>
    </g>
</svg>