<?xml version="1.0" encoding="UTF-8"?>
<svg width="221px" height="251px" viewBox="0 0 221 251" version="1.1" xmlns="http://www.w3.org/2000/svg" xmlns:xlink="http://www.w3.org/1999/xlink">
    <title>objectives</title>
    <g id="1.-Public-User-Pages-VD" stroke="none" stroke-width="1" fill="none" fill-rule="evenodd">
        <g id="SEEDFUND-About" transform="translate(-493.000000, -2329.000000)">
            <g id="Group-9" transform="translate(172.000000, 2255.000000)">
                <g id="objectives" transform="translate(321.000000, 74.000000)">
                    <g id="Group-33" transform="translate(15.000000, 0.000000)">
                        <path d="M162.964977,16.3695967 C153.182772,16.3695967 72.0733929,61.0504315 36.3255105,100.536531 C-1.14627868,141.926809 -9.88148181,181.399596 15.2382056,191.802198 C42.3894289,203.046103 104.241844,208.484193 149.642345,186.154634 C194.522674,164.080914 241.125733,16.3695967 162.964977,16.3695967 Z" id="Oval" fill-opacity="0.562855114" fill="#E9EDFB"></path>
                        <path d="M99.9908249,235.366252 C101.812474,233.786603 103.827017,230.071478 103.827017,227.567457 C103.827017,223.347911 105.564581,220 98.0258556,220 C97.0823468,220 88.6546196,222.27832 85.2066814,225.828519 C81.5924697,229.549922 83.0220017,234.578297 85.2066814,235.809868 C89.7568054,238.37491 99.1374684,236.106243 99.9908249,235.366252 Z" id="Oval" fill-opacity="0.2" fill="#8FC1F6"></path>
                        <path d="M201.327217,10.8467662 C202.541649,9.73171964 203.884678,7.10927824 203.884678,5.3417342 C203.884678,2.36323116 205.043054,0 200.017237,0 C199.388231,0 193.769746,1.60822575 191.471121,4.11424845 C189.061646,6.74112165 190.014668,10.2905629 191.471121,11.1599066 C194.504537,12.9705249 200.758312,11.3691129 201.327217,10.8467662 Z" id="Oval" fill-opacity="0.6" fill="#8FC1F6"></path>
                        <path d="M118.379101,28.5288653 C120.992874,26.1395578 122.656714,13.0063416 118.379101,14.1025123 C112.874783,15.5130358 102.11347,8.73263885 97.1662329,14.1025123 C91.9804204,19.7313426 94.0315689,27.3370401 97.1662329,29.1998585 C101.879743,32.0009286 110.205978,30.9910953 114.932307,29.7918325 C116.752429,29.329993 118.038671,28.8400603 118.379101,28.5288653 Z" id="Oval" fill="#F8D874" opacity="0.512945131"></path>
                    </g>
                    <g id="Group-31" transform="translate(127.100000, 60.200000)" fill-rule="nonzero">
                        <g id="idea" transform="translate(15.000000, 0.000000)">
                            <path d="M35.0214339,98.1537142 C35.0214339,99.4001143 34.012438,100.414125 32.7722019,100.414125 L22.722442,100.414125 C21.4822059,100.414125 20.47321,99.4001143 20.47321,98.1537142 L20.47321,96.5544977 L35.0214339,96.5544977 L35.0214339,98.1537142 Z M39.4569194,95.2615686 C39.4569194,95.9922466 38.5985742,96.5867841 37.5432537,96.5867841 L36.9356739,96.5867841 L18.55897,96.5867841 L17.9950349,96.5867841 C16.9397144,96.5867841 16.0813692,95.9922466 16.0813692,95.2615686 L16.0813692,87.7221441 L39.4569194,87.7221441 L39.4569194,95.2615686 L39.4569194,95.2615686 Z M24.7620647,83.8746365 L24.7620647,59.5416524 L30.7256879,59.5416524 L30.7256879,83.8746365 L24.7620647,83.8746365 L24.7620647,83.8746365 Z M47.9033119,64.4227928 C42.8263646,69.8246934 39.8753723,76.6797975 39.498267,83.8744442 L34.5541679,83.8744442 L34.5541679,59.5416524 L36.2746868,59.5416524 C39.334408,59.5416524 41.8238771,57.040003 41.8238771,53.9648826 L41.8238771,53.6667008 C41.8238771,50.5915804 39.334408,48.089931 36.2746868,48.089931 C33.2149656,48.089931 30.7256879,50.5915804 30.7256879,53.6667008 L30.7256879,55.6941449 L24.7620647,55.6941449 L24.7620647,53.6667008 C24.7620647,50.5915804 22.272787,48.089931 19.2130658,48.089931 L18.8359605,48.089931 C15.7762393,48.089931 13.2869616,50.5915804 13.2869616,53.6667008 L13.2869616,53.9648826 C13.2869616,57.0398106 15.7762393,59.5416524 18.8359605,59.5416524 L20.9335847,59.5416524 L20.9335847,83.8744442 L16.0419358,83.8744442 C15.6765074,76.5982303 12.7858136,69.8064177 7.80917246,64.6067037 C2.62732481,59.1924911 -0.114441131,52.0670995 0.0894254279,44.543491 C0.490267282,29.7325108 12.8173986,17.5978568 27.5689148,17.4932046 C35.0141598,17.4406862 42.0049642,20.3101573 47.2794611,25.5733552 C52.5545323,30.8371302 55.4593914,37.8501745 55.4593914,45.3203027 C55.4593914,52.4547359 52.7758184,59.2386612 47.9033119,64.4227928 Z M34.5541679,55.6941449 L34.5541679,53.6667008 C34.5541679,52.7130961 35.3259895,51.9374385 36.2746868,51.9374385 C37.2235756,51.9374385 37.9953972,52.7132884 37.9953972,53.6667008 L37.9953972,53.9648826 C37.9953972,54.9184874 37.2235756,55.6941449 36.2746868,55.6941449 L34.5541679,55.6941449 Z M20.9333933,53.6667008 L20.9333933,55.6941449 L20.9333933,55.6941449 L18.8357691,55.6941449 C17.8870717,55.6941449 17.1152502,54.9184874 17.1152502,53.9648826 L17.1152502,53.6667008 C17.1152502,52.7130961 17.8870717,51.9374385 18.8357691,51.9374385 L19.2128744,51.9374385 C20.1615717,51.9374385 20.9333933,52.7134808 20.9333933,53.6667008 Z" id="Shape" fill="#F8D874"></path>
                            <path d="M48.3296913,35.5599923 C46.6949294,31.4248567 43.9145019,27.9057451 40.2892889,25.3830913 C36.573298,22.7974197 32.2174853,21.4478678 27.7039056,21.4802493 C26.6528241,21.4878115 25.8067064,22.3621117 25.81408,23.4330276 C25.8215505,24.49929 26.6722357,25.358272 27.7168467,25.358272 C27.7214142,25.358272 27.7261719,25.358272 27.730549,25.358272 C27.7752719,25.3580781 27.8188528,25.3578842 27.8633853,25.3578842 C35.3575984,25.3578842 41.9961782,29.9194083 44.7994429,37.0090155 C45.0982294,37.7648421 45.8117012,38.224 46.565138,38.224 C46.8018835,38.224 47.0428159,38.178821 47.2757552,38.0830339 C48.2505224,37.6828219 48.7226812,36.5531539 48.3296913,35.5599923 Z" id="Path" fill="#FFFFFF"></path>
                            <g id="Group-50" transform="translate(25.695680, 9.315680) rotate(-90.000000) translate(-25.695680, -9.315680) translate(17.195680, -13.684320)" fill="#F8D874">
                                <path d="M7.28230188,0.597374253 C6.48559375,-0.199124751 5.19446153,-0.199124751 4.39754943,0.597374253 L0.597378119,4.39752097 C-0.19912604,5.19401998 -0.19912604,6.48555178 0.597378119,7.28225475 C0.995732183,7.68060624 1.51769227,7.87968 2.03985633,7.87968 C2.56202039,7.87968 3.0837765,7.68060624 3.48213057,7.28225475 L7.28230188,3.48210803 C8.07880604,2.68560903 8.07880604,1.39407723 7.28230188,0.597374253 Z" id="Path"></path>
                                <path d="M7.28228642,41.8261148 L3.48222071,38.0258697 C2.68569593,37.2293501 1.39453029,37.2293501 0.597393583,38.0258697 C-0.199131194,38.8223893 -0.199131194,40.1139546 0.597393583,40.9104742 L4.39766327,44.7107193 C4.79602764,45.1090811 5.31800124,45.30816 5.83997484,45.30816 C6.36194844,45.30816 6.88392204,45.1088771 7.28228642,44.7107193 C8.07881119,43.9141997 8.07881119,42.6226344 7.28228642,41.8261148 Z" id="Path"></path>
                                <path d="M14.831735,20.68416 L9.79226495,20.68416 C8.73613554,20.68416 7.87968,21.5660932 7.87968,22.65408 C7.87968,23.7420668 8.73613554,24.624 9.79226495,24.624 L14.831735,24.624 C15.8878645,24.624 16.74432,23.7420668 16.74432,22.65408 C16.74432,21.5660932 15.8878645,20.68416 14.831735,20.68416 Z" id="Path"></path>
                            </g>
                            <path d="M39.6813869,129.835515 L18.5911416,107.866376 C18.0230262,107.274593 17.1021118,107.274593 16.53356,107.866376 C15.9654446,108.458159 15.9654446,109.417742 16.53356,110.009525 L37.6239508,131.978664 C37.9080812,132.274631 38.280375,132.422539 38.6526688,132.422539 C39.0249626,132.422539 39.3972564,132.274479 39.6813869,131.978664 C40.2495023,131.386881 40.2495023,130.427298 39.6813869,129.835515 Z" id="Path" fill="#80BD59" transform="translate(28.107473, 119.922539) rotate(45.000000) translate(-28.107473, -119.922539) "></path>
                        </g>
                        <path d="M54.6090136,121.793459 C49.9934908,125.283552 46.5725055,130.109297 45.2233359,135.033335 C43.6791954,140.668595 44.9338777,145.760284 48.5723655,149.120558 C47.3200454,151.364944 46.1560345,153.681287 45.2340566,155.928084 C44.387305,153.77828 43.2598171,151.853063 41.9847837,150.137412 C43.7925801,147.205726 44.0429715,143.624204 42.6227547,139.953848 C41.285396,136.497879 38.5768813,133.311192 34.9958126,130.980383 C31.1330992,128.466344 26.5849894,127.137554 21.8433624,127.137554 C15.7589255,127.137554 9.5171309,129.377489 3.79301768,133.615154 L0.72,135.890326 L4.38356329,136.906253 C10.4271163,138.582031 15.2505112,143.337675 19.5060737,147.533427 C23.8506724,151.817085 27.9545101,155.862989 32.7086749,155.864287 C35.0503245,155.864287 37.2862211,154.909931 39.5244798,152.958751 C41.6722488,156.049186 43.2000357,176.254049 43.2000357,180.861513 L43.2000357,184.7152 L46.8341626,184.7152 C46.8341626,184.7152 46.8374333,181.644507 46.8374333,180.419386 C46.8374333,177.459511 48.5385681,156.680478 51.5694299,151.228819 C53.8202264,152.469333 55.9234773,153.074846 57.9718529,153.074846 C64.6513781,153.074846 68.9950682,146.551809 73.5938741,139.645991 C77.6986204,133.481811 82.3510296,126.495135 89.2733144,122.876892 L92.6496,121.112095 L89.1860954,119.532753 C83.707104,117.034663 78.2457382,115.768 72.9535409,115.768 C66.1651736,115.768 59.8216235,117.851596 54.6090136,121.793459 Z M22.1480594,144.582561 C18.3700899,140.875034 14.1785421,136.761483 8.928,134.341867 C13.1963395,131.818424 17.5667023,130.5424 21.9591884,130.5424 C30.7768885,130.5424 37.4411295,135.817374 39.4667853,141.027897 C39.9913458,142.377473 40.5336416,144.611722 39.6477943,146.848014 C36.3673254,143.464601 32.7566521,141.152714 30.509763,139.714169 C29.8526454,139.293285 29.285118,138.929981 28.906096,138.656388 L26.7870104,141.68374 C27.2488577,142.017512 27.8566093,142.406634 28.5599848,142.856865 C30.8745237,144.338872 34.3866476,146.588352 37.4186405,149.826332 C35.8392909,151.207483 34.3542854,151.8832 32.8943286,151.8832 C29.5864341,151.882271 26.1394003,148.499415 22.1480594,144.582561 Z M70.6725223,137.4262 C66.4603241,143.862377 62.8224423,149.4208 58.0734895,149.4208 C56.6806134,149.4208 55.1888423,148.976458 53.5377506,148.070625 C53.6999746,147.79946 53.8638317,147.526787 54.0316809,147.251287 C57.6272829,141.347642 61.278774,136.567477 61.3152472,136.519802 L58.4756018,134.172967 C58.1644003,134.579056 54.3332651,139.608715 50.6013878,145.838362 C48.4066461,143.382985 47.7586575,139.879504 48.8376103,135.872886 C49.9720894,131.660493 52.9017383,127.490686 56.8758628,124.433054 C60.0666307,121.978054 65.4604872,119.0512 73.0349316,119.0512 C76.7472115,119.0512 80.5709068,119.763316 84.4416,121.172661 C78.5050008,125.458735 74.3779067,131.7647 70.6725223,137.4262 L70.6725223,137.4262 Z" id="Shape" fill="#80BD59"></path>
                        <path d="M75.945512,185.773718 C71.2722807,183.374108 67.747762,181.985004 65.3719558,181.606405 C56.4962836,180.192013 48.4627744,181.606405 43.3044198,181.606405 C38.6558873,181.606405 33.2079634,178.296693 25.6067214,179.440293 C22.7758232,179.866199 17.843085,181.977341 10.8085066,185.773718 C9.80900921,185.773718 9,186.582727 9,187.582225 C9,188.582175 9.80900921,189.390731 10.8085066,189.390731 L75.945512,189.390731 C76.9454618,189.390731 90.1325988,190.390681 90.1325988,189.390731 C90.1325988,188.391234 76.9450094,185.773718 75.945512,185.773718 Z" id="Path" fill="#F8B19C"></path>
                    </g>
                    <g id="humaaan-12" transform="translate(0.000000, 15.000000)">
                        <g id="Head/Front" transform="translate(51.801989, 30.370528) rotate(15.000000) translate(-51.801989, -30.370528) translate(26.301989, 6.370528)">
                            <g id="Head" transform="translate(26.455128, 6.188809)" fill="#D4A181">
                                <path d="M21.0601594,5.04099077 C24.2596598,11.0020982 23.879476,26.1229415 19.7444067,27.1883577 C18.0954518,27.6132171 14.5828062,26.5725749 11.0076396,24.418714 L13.251168,40.2884858 L-5.68434189e-14,40.2884858 L4.56181039,19.0349347 C2.0176665,16.0498729 0.295743199,12.3916472 0.583480031,8.29250391 C1.41253598,-3.51835515 17.8606589,-0.920116638 21.0601594,5.04099077 Z"></path>
                            </g>
                            <path d="M43.57122,0.117941309 C46.6205608,0.117941309 49.09254,2.58886864 49.09254,5.63691196 C49.09254,8.5832182 46.7828255,10.9902912 43.8745611,11.1476946 C42.2090233,11.6608046 40.0680604,12.0383534 37.6935333,12.1974362 C37.9246699,13.0625629 38.0499,14.0462967 38.0499,15.1579985 C38.0499,16.1391792 37.9415763,17.1797645 37.7421123,18.236341 C37.2267225,17.6251695 36.5391925,17.2267503 35.841372,17.2267503 C33.8881685,17.2267503 32.52858,18.8328531 32.52858,20.5381327 C32.52858,22.7022054 33.7783211,24.2678073 35.6027584,24.3932813 C33.9602499,27.5459011 31.6875114,29.9203828 29.4169508,29.9203828 C25.1044048,29.9203828 22.038072,24.157076 22.038072,17.9605354 C22.038072,17.7427786 22.0423893,17.5264708 22.0509078,17.3117789 C20.6470245,18.2747683 19.3417152,19.5260948 18.0315031,20.7968296 L17.4212879,21.3883379 C14.6702362,24.047411 11.8269954,26.6090005 7.93703234,26.6090005 C-0.27511199,26.6090005 -3.53649686,10.0520885 7.93703234,10.0520885 C15.7406964,10.0520885 19.5788695,11.1894929 22.8868641,12.8713858 C23.5392643,11.029565 24.5362023,9.48187737 25.7553021,8.40223827 C26.0474806,8.07421002 26.4950855,7.76067249 27.0716886,7.46992858 C27.4220941,7.27838516 27.7843424,7.12221431 28.1565616,7.0042055 C30.1513181,6.27015251 33.0449771,5.75177691 36.2778892,5.63892917 C36.880558,5.61789247 37.47245,5.61173603 38.0498657,5.6194898 C38.0586213,2.58016053 40.5272572,0.117941309 43.57122,0.117941309 Z" id="hair" fill="#787474"></path>
                        </g>
                        <g id="Bottom/Skinny-Jeans-1" transform="translate(0.000000, 107.772000)">
                            <polygon id="Leg" fill="#E6967D" points="29.9376 0 49.123726 67.2077478 63.1221218 116.743481 73.332 116.743481 58.4567035 0"></polygon>
                            <path d="M24.8066578,0 C24.3628846,34.6396526 22.8496261,53.5330604 22.3836824,56.6802235 C21.9177387,59.8273865 14.8724253,79.8484724 1.24774241,116.743481 L11.8244847,116.743481 C29.1697484,81.3490244 38.8523184,61.3279385 40.8721947,56.6802235 C42.8920709,52.0325085 49.125606,33.1391006 58.5144,0 L24.8066578,0 Z" id="Leg" fill="#F2AE9A"></path>
                            <g id="Left-Shoe" transform="translate(0.302400, 114.361958)" fill="#989696">
                                <path d="M0,11.8900418 L0.5292,0.796769874 L11.6424,0.796769874 C16.9119637,4.4945272 23.7915637,7.48794979 32.2812,9.77703766 L32.2812,11.8900418 L12.1716,11.8900418 L5.292,10.8335397 L5.292,11.8900418 L0,11.8900418 Z" id="Shoe"></path>
                            </g>
                            <g id="Right-Shoe" transform="translate(61.689600, 114.361958)" fill="#747171">
                                <path d="M0,11.8900418 L0.5292,0.796769874 L11.6424,0.796769874 C16.9119637,4.4945272 23.7915637,7.48794979 32.2812,9.77703766 L32.2812,11.8900418 L12.1716,11.8900418 L5.292,10.8335397 L5.292,11.8900418 L0,11.8900418 Z" id="Shoe"></path>
                            </g>
                        </g>
                        <path d="M102.321886,119.868 L104.60191,117.969867 L103.987208,114.901989 C103.737901,113.657687 104.125731,112.379187 105.02461,111.481981 C106.503668,110.005588 108.910302,110.005674 110.389447,111.481981 L111.301631,112.39238 L112.579296,111.3287 C112.831125,111.119002 113.107388,110.943848 113.4,110.804454 L112.234075,109.640699 C109.737789,107.149057 105.676182,107.149144 103.179982,109.640699 C101.662923,111.154935 101.008395,113.312587 101.429095,115.412607 L102.321886,119.868 Z" id="Path" fill="#DCE2F1" fill-rule="nonzero"></path>
                        <path d="M107.769642,145.197829 L93.376988,130.991456 C92.6022516,130.226747 92.186302,129.168519 92.2359936,128.088082 C92.2856851,127.007731 92.7969347,125.99092 93.6386505,125.298583 L113.646971,108.826465 C114.16769,108.39772 114.934607,108.434935 115.410326,108.912043 L117.16204,110.668867 C118.61352,109.990507 120.404066,110.243038 121.603005,111.426374 L127.131624,116.883437 C128.33039,118.066687 128.591965,119.827885 127.912876,121.25269 L130.145955,123.456952 C130.622803,123.927628 130.657031,124.679561 130.22501,125.190625 L122.531247,134.289704 L126.092159,134.289704 C126.440174,134.289704 126.767425,134.155935 127.013538,133.913009 L128.093113,132.847406 C128.831449,132.11854 129.813118,131.717235 130.857335,131.717235 L132.384047,131.717235 C133.103706,131.717235 133.687148,132.293125 133.687148,133.00347 L133.812,141.541166 C133.812,142.25151 133.228559,142.8274 132.5089,142.8274 L130.982188,142.8274 C129.93797,142.8274 128.956302,142.426009 128.217965,141.697229 L127.13839,140.631541 C126.892278,140.388614 126.565026,140.254846 126.217011,140.254846 L118.276744,139.882592 L113.537163,144.939553 C112.835661,145.770375 111.805603,146.275007 110.711086,146.324056 C110.65236,146.326714 110.593547,146.328 110.535081,146.328 C109.502244,146.328 108.502853,145.92155 107.769642,145.197829 Z" id="Path" fill-opacity="0.348475743" fill="#6C789A" fill-rule="nonzero"></path>
                        <path d="M129.456832,147.254285 C128.70277,147.437037 128.200041,148.423869 128.333002,149.460307 L128.814168,153.211004 C128.947129,154.247443 129.665101,154.93843 130.419163,154.755678 C131.173225,154.572926 131.676014,153.586563 131.542993,152.549655 L131.061827,148.798958 C130.928866,147.76252 130.210894,147.071533 129.456832,147.254285 Z" id="Path" fill="#BCDAFA" fill-rule="nonzero" transform="translate(129.938005, 151.004981) rotate(10.000000) translate(-129.938005, -151.004981) "></path>
                        <path d="M135.88244,169.757655 C135.128377,169.922131 134.625648,170.810276 134.75861,171.743065 L135.239775,175.118675 C135.372797,176.051887 136.090708,176.673351 136.84477,176.508875 C137.599174,176.344324 138.101622,175.456676 137.968942,174.52339 L137.487776,171.14778 C137.354815,170.21499 136.636843,169.593105 135.88244,169.757655 Z" id="Path" fill="#BCDAFA" fill-rule="nonzero" transform="translate(136.363739, 173.133261) rotate(10.000000) translate(-136.363739, -173.133261) "></path>
                        <path d="M130.454893,160.694287 C129.700831,160.877027 129.198102,161.863798 129.331064,162.900173 L129.812289,166.651106 C129.945251,167.68748 130.663222,168.378424 131.417285,168.195684 C132.171347,168.012943 132.674076,167.026172 132.541114,165.989798 L132.059889,162.238865 C131.926927,161.20249 131.208956,160.511546 130.454893,160.694287 Z" id="Path" fill="#BCDAFA" fill-rule="nonzero" transform="translate(130.936089, 164.444985) rotate(10.000000) translate(-130.936089, -164.444985) "></path>
                        <path d="M135.494893,152.294287 C134.740831,152.477027 134.238102,153.463798 134.371064,154.500173 L134.852289,158.251106 C134.985251,159.28748 135.703222,159.978424 136.457285,159.795684 C137.211347,159.612943 137.714076,158.626172 137.581114,157.589798 L137.099889,153.838865 C136.966927,152.80249 136.248956,152.111546 135.494893,152.294287 Z" id="Path" fill="#BCDAFA" fill-rule="nonzero" transform="translate(135.976089, 156.044985) rotate(10.000000) translate(-135.976089, -156.044985) "></path>
                        <g id="Body/Long-Sleeve-1" transform="translate(68.474897, 86.496168) rotate(10.000000) translate(-68.474897, -86.496168) translate(21.974897, 46.496168)">
                            <path d="M52.685552,31.1762767 L73.0413562,39.1129777 C77.9877132,39.1227189 82.2566509,39.6396378 85.8481692,40.6637345 C85.9308664,40.7065072 86.0163374,40.7545872 86.1010695,40.8070909 L86.2271746,40.8890535 C87.0167689,41.4277632 87.581182,42.3258249 84.9088423,42.8255609 L84.6355502,42.8770624 L84.6355502,42.8770624 L84.0888413,42.9828398 C81.2688318,43.5392744 78.5734657,44.2531735 78.4448984,45.298327 C78.3343974,46.1966158 79.6408089,46.8488443 79.9844062,47.86956 C85.8262808,47.6377194 89.4668576,49.4216033 89.3776374,50.4887607 C89.2033766,52.573084 85.6010777,51.2634106 85.2557679,52.6511495 C84.9104581,54.0388884 85.8377957,54.0812509 90.7112034,56.5729738 C95.5846111,59.0646968 89.9358584,59.259343 88.6756787,59.3993102 C86.54046,59.2088056 86.6414131,65.2214236 84.2662701,64.6496051 C81.518105,63.9879809 78.4159198,56.7671772 75.3465511,55.5950612 L75.3465511,55.5950612 L48.2965674,55.7311541 L51.3998874,43.2594603 L74.1301119,48.7078392 C75.0640805,48.4820648 75.9673697,48.3064229 76.8363973,48.17451 C75.2181505,47.3271413 72.9833793,45.9200628 70.1322406,43.9533134 L51.4182931,41.4780459 L52.685552,31.1762767 Z" id="Skin" fill="#D4A181"></path>
                            <path d="M36.0133788,29.2502172 C42.6544239,30.2302889 51.717185,30.2308848 62.098672,25.7395385 L64.4954163,34.5845774 C56.9660752,40.0088723 46.976656,43.8632347 39.012126,42.3715692 C32.7356373,41.1960546 30.7208029,33.0630997 36.0133788,29.2502172 Z" id="Sleeve" fill="#566485" transform="translate(48.734898, 34.217180) rotate(31.000000) translate(-48.734898, -34.217180) "></path>
                            <path d="M36.3669657,8.76099193e-12 C37.0223652,8.41671843 39.7273513,17.4996508 42.5371265,26.6649165 L43.0194659,28.2368024 C44.4137252,32.7793946 45.806429,37.3339962 46.961375,41.829693 C52.6096906,43.3870725 58.7180678,44.4364857 65.2844127,44.9784496 C66.4739699,50.1379661 66.9117849,54.5497441 66.5978577,58.2137834 C60.2772574,61.5140158 54.5806498,63.8806493 49.4693864,65.4291736 C49.0687794,68.6990341 48.2257826,71.8503378 46.8189255,74.8405348 C43.9300748,80.9806272 33.0458486,80.3796131 22.3716552,79.0910739 L21.2491861,78.9531604 C13.5891257,77.996973 6.18669542,76.7949639 2.09560115,77.6000201 C-1.59112685,65.6319992 1.10307075,57.8554949 3.93404833,50.8248926 L4.22217265,50.1123532 C6.0948837,45.4958161 7.93487381,41.1541606 7.93866514,36.0922003 C7.94931108,21.8783902 19.3671859,8.76099193e-12 21.0470975,8.76099193e-12 L21.0470975,8.76099193e-12 Z" id="Clothes" fill="#8E9EC6"></path>
                        </g>
                    </g>
                </g>
            </g>
        </g>
    </g>
</svg>