<?xml version="1.0" encoding="UTF-8"?>
<svg width="10px" height="10px" viewBox="0 0 10 10" version="1.1" xmlns="http://www.w3.org/2000/svg" xmlns:xlink="http://www.w3.org/1999/xlink">
    <title>Path</title>
    <g id="1.--Public-User" stroke="none" stroke-width="1" fill="none" fill-rule="evenodd">
        <g id="SEEDFUND-Login2" transform="translate(-1159.000000, -840.000000)" fill="#E26640" fill-rule="nonzero">
            <g id="Group-5" transform="translate(904.000000, 824.000000)">
                <path d="M263.768269,16.6625 L258.265364,16.6625 C257.802887,16.6625 257.427955,17.0361291 257.427955,17.4969981 C257.427955,17.9578672 257.802887,18.3314963 258.265364,18.3314963 L261.746621,18.3314963 L255.976655,24.0779762 C255.649686,24.403808 255.649686,24.9321957 255.976655,25.2580992 C256.140121,25.4209972 256.35443,25.5025 256.568738,25.5025 C256.783047,25.5025 256.997392,25.4209972 257.160822,25.2580634 L262.930897,19.5116193 L262.930897,22.9807817 C262.930897,23.4416507 263.305829,23.8152798 263.768305,23.8152798 C264.230782,23.8152798 264.605714,23.4416507 264.605714,22.9807817 L264.605714,17.4969981 C264.605714,17.0361291 264.230746,16.6625 263.768269,16.6625 Z" id="Path"></path>
            </g>
        </g>
    </g>
</svg>