<?xml version="1.0" encoding="UTF-8"?>
<svg width="46px" height="45px" viewBox="0 0 46 45" version="1.1" xmlns="http://www.w3.org/2000/svg" xmlns:xlink="http://www.w3.org/1999/xlink">
    <title>Group 5</title>
    <g id="3.-DPIIT-Dashboard-" stroke="none" stroke-width="1" fill="none" fill-rule="evenodd">
        <g id="SEEDFUND-DPIIT--Incubator-Documents" transform="translate(-496.000000, -607.000000)">
            <g id="Group-5" transform="translate(496.000000, 607.000000)">
                <g id="file-(2)" opacity="0.264148801" transform="translate(12.000000, 0.000000)">
                    <path d="M3.456,41.472 L29.7216,41.472 C31.6294079,41.4698573 33.1754573,39.9238079 33.1776,38.016 L33.1776,8.9856 C33.1776,8.80227981 33.1047884,8.62646549 32.9751648,8.4968352 L24.6807648,0.2024352 C24.5511345,0.0728115875 24.3753202,0 24.192,0 L3.456,0 C1.54819213,0.00214267012 0.00214267012,1.54819213 -4.91127139e-15,3.456 L-4.91127139e-15,38.016 C0.00214267012,39.9238079 1.54819213,41.4698573 3.456,41.472 Z M24.8832,2.3598432 L30.8177568,8.2944 L26.9568,8.2944 C25.8121153,8.2931144 24.8844856,7.36548472 24.8832,6.2208 L24.8832,2.3598432 Z M1.3824,3.456 C1.38373311,2.31133499 2.31133499,1.38373311 3.456,1.3824 L23.5008,1.3824 L23.5008,6.2208 C23.5029427,8.12860787 25.0489921,9.67465733 26.9568,9.6768 L31.7952,9.6768 L31.7952,38.016 C31.7938669,39.160665 30.866265,40.0882669 29.7216,40.0896 L3.456,40.0896 C2.31133499,40.0882669 1.38373311,39.160665 1.3824,38.016 L1.3824,3.456 Z" id="Shape" fill="#000000" fill-rule="nonzero"></path>
                    <g id="Group-3" transform="translate(7.747200, 12.240000)">
                        <path d="M0.396654545,10.7712 L8.32974545,10.7712 C8.54881171,10.7712 8.7264,10.4617392 8.7264,10.08 C8.7264,9.69826078 8.54881171,9.3888 8.32974545,9.3888 L0.396654545,9.3888 C0.177588289,9.3888 -3.66426889e-13,9.69826078 -3.66426889e-13,10.08 C-3.66426889e-13,10.4617392 0.177588289,10.7712 0.396654545,10.7712 Z" id="Path" fill="#000000" fill-rule="nonzero"></path>
                        <rect id="Rectangle" stroke="#000000" stroke-width="1.44" x="0.8928" y="0.72" width="13.68" height="5.04" rx="0.72"></rect>
                        <path d="M0.414276923,17.6256 L10.3569231,17.6256 C10.5857219,17.6256 10.7712,17.3161392 10.7712,16.9344 C10.7712,16.5526608 10.5857219,16.2432 10.3569231,16.2432 L0.414276923,16.2432 C0.185478096,16.2432 -3.14628323e-13,16.5526608 -3.14628323e-13,16.9344 C-3.14628323e-13,17.3161392 0.185478096,17.6256 0.414276923,17.6256 Z" id="Path" fill="#000000" fill-rule="nonzero"></path>
                        <path d="M0.999771429,14.1984 L12.9970286,14.1984 C13.5491871,14.1984 13.9968,13.8889392 13.9968,13.5072 C13.9968,13.1254608 13.5491871,12.816 12.9970286,12.816 L0.999771429,12.816 C0.447612915,12.816 -4.71942485e-13,13.1254608 -4.71942485e-13,13.5072 C-4.71942485e-13,13.8889392 0.447612915,14.1984 0.999771429,14.1984 Z" id="Path" fill="#000000" fill-rule="nonzero"></path>
                    </g>
                </g>
                <g id="Group-2" transform="translate(0.000000, 31.800000)" fill-rule="nonzero">
                    <path d="M0,1.84 L0,10.96 C8.04974895e-16,11.9762039 0.82379606,12.8 1.84,12.8 L26.16,12.8 C27.1762039,12.8 28,11.9762039 28,10.96 L28,1.84 C28,0.82379606 27.1762039,1.39642258e-15 26.16,0 L1.84,0 C0.82379606,-3.53709696e-17 -3.46493695e-16,0.82379606 0,1.84 Z" id="Path" fill="#F16134"></path>
                    <g id="Group" transform="translate(4.800000, 2.400000)" fill="#FFFFFF">
                        <path d="M2.68546038,0.0919795968 C3.06369423,0.0919795968 3.38003528,0.155591654 3.63964124,0.28281577 C3.89924721,0.410039885 4.10555658,0.57680663 4.2637271,0.783116006 C4.42189763,0.989425382 4.53536778,1.22496192 4.60413757,1.48972562 C4.67118812,1.75277007 4.70729226,2.02441075 4.70729226,2.29948992 C4.70729226,2.67772378 4.65055718,3.00781878 4.53708703,3.28977492 C4.42361687,3.57173107 4.26544635,3.80210988 4.06257546,3.97919209 C3.85970458,4.15799355 3.61385257,4.29381389 3.32501944,4.38149537 C3.03618632,4.46917686 2.71640678,4.51731571 2.36568084,4.51731571 L1.57138975,4.51731571 L1.57138975,7.45722432 L0.08596224,7.45722432 L0.08596224,0.0919795968 L2.68546038,0.0919795968 Z M2.23157975,3.42731451 C2.52728986,3.42731451 2.76798413,3.33619453 2.94850483,3.15739308 C3.13074478,2.97859162 3.22186476,2.70007396 3.22186476,2.3218401 C3.22186476,1.95048323 3.14277949,1.66852708 2.98460897,1.47597166 C2.82643845,1.28513549 2.56167475,1.18713853 2.19031788,1.18713853 L1.57138975,1.18713853 L1.57138975,3.42731451 L2.23157975,3.42731451 L2.23157975,3.42731451 Z" id="Shape"></path>
                        <path d="M8.97789635,0.090260352 C9.49538903,0.090260352 9.90972703,0.176222592 10.2277873,0.344708582 C10.5441284,0.513194573 10.7899804,0.7521696 10.9653433,1.0667914 C11.1424255,1.37969395 11.2593342,1.75448932 11.321227,2.19633523 C11.3831198,2.6364619 11.4140662,3.12816591 11.4140662,3.66972803 C11.4140662,4.31616407 11.3762428,4.87835712 11.2971576,5.35630717 C11.2180723,5.83253798 11.082252,6.22796429 10.8896966,6.53742835 C10.6971411,6.84861166 10.4392544,7.07727122 10.1160364,7.22856476 C9.79281838,7.3798583 9.38363812,7.45550508 8.88849562,7.45550508 L6.54344571,7.45550508 L6.54344571,0.090260352 L8.97789635,0.090260352 L8.97789635,0.090260352 Z M8.68906322,6.36550387 C8.95038843,6.36550387 9.16013629,6.32080351 9.31830682,6.23140278 C9.47647734,6.14200205 9.60198221,5.994147 9.69482143,5.78783762 C9.78937989,5.58152824 9.8512727,5.30988756 9.88049987,4.97119634 C9.91144627,4.6359436 9.92691948,4.21644787 9.92691948,3.71442839 C9.92691948,3.29493266 9.91144627,2.92701427 9.8856576,2.60895398 C9.85814968,2.29261294 9.8014146,2.02956849 9.71545236,1.81982062 C9.62777088,1.61007276 9.50226601,1.45190223 9.33206077,1.3470283 C9.16357478,1.24043512 8.93835372,1.18541929 8.65639757,1.18541929 L8.02887322,1.18541929 L8.02887322,6.36550387 L8.68906322,6.36550387 Z" id="Shape"></path>
                        <polygon id="Path" points="17.5397354 0.0919795968 17.5397354 1.30920492 14.9092909 1.30920492 14.9092909 3.04220367 17.3850034 3.04220367 17.3850034 4.25942899 14.9092909 4.25942899 14.9092909 7.45722432 13.4238634 7.45722432 13.4238634 0.0919795968"></polygon>
                    </g>
                </g>
            </g>
        </g>
    </g>
</svg>