<?xml version="1.0" encoding="UTF-8"?>
<svg width="36px" height="32px" viewBox="0 0 36 32" version="1.1" xmlns="http://www.w3.org/2000/svg" xmlns:xlink="http://www.w3.org/1999/xlink">
    <title>quote-icon</title>
    <g id="1.-Public-User-Pages-VD" stroke="none" stroke-width="1" fill="none" fill-rule="evenodd">
        <g id="SEEDFUND-Home--V-2" transform="translate(-465.000000, -3980.000000)" fill="#E26640" fill-rule="nonzero">
            <g id="Group-59" transform="translate(431.000000, 3949.000000)">
                <g id="Group-58" transform="translate(14.000000, 0.000000)">
                    <g id="quote-icon" transform="translate(20.000000, 31.553438)">
                        <path d="M-1.30562228e-13,15.088 L-1.30562228e-13,30.176 L15.088,30.176 L15.088,15.088 L5.029362,15.088 C5.029362,9.54177602 9.54177602,5.029362 15.088,5.029362 L15.088,1.88293825e-13 C6.76797592,1.88293825e-13 -1.30562228e-13,6.76797592 -1.30562228e-13,15.088 Z" id="Path"></path>
                        <path d="M35.4568,5.029362 L35.4568,1.88293825e-13 C27.1367759,1.88293825e-13 20.3688,6.76797592 20.3688,15.088 L20.3688,30.176 L35.4568,30.176 L35.4568,15.088 L25.398162,15.088 C25.398162,9.54177602 29.910576,5.029362 35.4568,5.029362 Z" id="Path"></path>
                    </g>
                </g>
            </g>
        </g>
    </g>
</svg>