<?xml version="1.0" encoding="UTF-8"?>
<svg width="18px" height="18px" viewBox="0 0 18 18" version="1.1" xmlns="http://www.w3.org/2000/svg" xmlns:xlink="http://www.w3.org/1999/xlink">
    <title>5B46A585-3821-485B-91AA-E99F2A51A5EB</title>
    <g id="1.--Public-User" stroke="none" stroke-width="1" fill="none" fill-rule="evenodd">
        <g id="SEEDFUND-Portfolio-Details" transform="translate(-946.000000, -1774.000000)" fill="#25429C" fill-rule="nonzero">
            <g id="Group-11" transform="translate(339.000000, 1596.000000)">
                <path d="M621.222336,180.338478 L611.562529,180.338478 C610.750697,180.338478 610.09254,180.996632 610.09254,181.808461 C610.09254,182.62029 610.750697,183.278444 611.562529,183.278444 L617.673533,183.278444 L610.122859,190.829154 C609.548898,191.403112 609.548898,192.333876 610.122859,192.907961 C610.409807,193.194909 610.786005,193.338478 611.162203,193.338478 C611.538401,193.338478 611.914662,193.194909 612.201547,192.907898 L619.752411,185.357251 L619.752411,191.468242 C619.752411,192.280071 620.410568,192.938225 621.2224,192.938225 C622.034231,192.938225 622.692388,192.280071 622.692388,191.468242 L622.692388,181.808461 C622.692388,180.996632 622.034168,180.338478 621.222336,180.338478 Z" id="Path" transform="translate(616.192388, 186.838478) rotate(45.000000) translate(-616.192388, -186.838478) "></path>
            </g>
        </g>
    </g>
</svg>