<?xml version="1.0" encoding="UTF-8"?>
<svg width="12px" height="11px" viewBox="0 0 12 11" version="1.1" xmlns="http://www.w3.org/2000/svg" xmlns:xlink="http://www.w3.org/1999/xlink">
    <title>Path</title>
    <g id="3.-DPIIT-dashboard" stroke="none" stroke-width="1" fill="none" fill-rule="evenodd">
        <g id="SEEDFUND-DPIIT-Dashboard" transform="translate(-1037.000000, -679.000000)" fill="#25429C" fill-rule="nonzero">
            <g id="Group-9" transform="translate(824.000000, 378.000000)">
                <g id="Group-6" transform="translate(61.000000, 236.000000)">
                    <path d="M160.917969,67 L155.122085,67 C154.634985,67 154.240091,67.3948926 154.240091,67.8819899 C154.240091,68.3690873 154.634985,68.7639798 155.122085,68.7639798 L158.788687,68.7639798 L154.258282,73.2944057 C153.913906,73.6387809 153.913906,74.1972393 154.258282,74.5416902 C154.430452,74.7138588 154.65617,74.8 154.881889,74.8 C155.107608,74.8 155.333364,74.7138588 155.505496,74.5416523 L160.036014,70.0112643 L160.036014,73.6778587 C160.036014,74.164956 160.430908,74.5598486 160.918007,74.5598486 C161.405106,74.5598486 161.8,74.164956 161.8,73.6778587 L161.8,67.8819899 C161.8,67.3948926 161.405068,67 160.917969,67 Z" id="Path" transform="translate(157.900000, 70.900000) rotate(45.000000) translate(-157.900000, -70.900000) "></path>
                </g>
            </g>
        </g>
    </g>
</svg>