<?xml version="1.0" encoding="UTF-8"?>
<svg width="186px" height="169px" viewBox="0 0 186 169" version="1.1" xmlns="http://www.w3.org/2000/svg" xmlns:xlink="http://www.w3.org/1999/xlink">
    <title>Group 3</title>
    <g id="3.-DPIIT-Dashboard" stroke="none" stroke-width="1" fill="none" fill-rule="evenodd">
        <g id="SEEDFUND-DPIIT-Dashboard" transform="translate(-875.000000, -441.000000)">
            <g id="Group-9" transform="translate(824.000000, 378.000000)">
                <g id="Group-3" transform="translate(51.000000, 63.000000)">
                    <g id="Group-11" transform="translate(21.696000, 0.748800)">
                        <g id="Big-Leaf-Plant" transform="translate(0.000000, 7.593600)" opacity="0.771688772">
                            <g id="Plant-Left">
                                <path d="M74.250542,82.0422338 C78.1463062,79.1979204 82.3631784,84.5659879 78.8379131,87.4107386 C76.8890629,88.9831441 74.8516538,88.4237965 73.7046479,87.1134277 C72.9600582,88.0160292 72.2631474,88.9597866 71.5935067,89.7569337 C69.5532825,92.1859921 67.6249622,94.6730268 65.7820469,97.2180515 C61.9536752,102.505278 58.6728298,108.09112 55.2424724,113.574821 C51.8571582,118.986934 48.4989133,124.426769 45.43051,129.976003 C42.831137,134.677551 39.3665029,140.208544 38.4765585,145.362828 C39.8268401,134.431483 44.950547,123.924525 51.0519882,114.287707 C57.1037817,104.730055 64.0489178,94.2920373 73.4193394,86.7493473 C72.4656598,85.3546463 72.4391855,83.3638167 74.250542,82.0422338 Z" id="Leaf" fill="#D6EBC9"></path>
                                <path d="M0.678587952,55.5950686 C2.84901062,56.0181391 6.39545679,60.9118589 8.18453228,62.7764042 C10.3107283,64.9921548 12.2397157,67.3538296 14.0580133,69.8282772 C17.9724359,75.1544232 21.4731988,80.8172221 24.4500382,86.7225298 C29.3030657,96.3493627 33.1909718,106.23164 36.0125916,116.714722 C37.7398075,123.131796 38.8581082,129.782843 39.5208734,136.387443 C39.6460395,137.633031 40.9562536,147.23628 39.0683152,147.495114 C37.3703138,147.728178 37.8947631,140.20317 37.8128468,139.179584 C36.8868721,127.631615 34.1129147,116.395538 30.2543652,105.510999 C29.4139178,103.139905 28.6331125,100.235739 27.2890388,98.1019835 C26.3211175,96.5650734 27.2820976,97.1010435 25.5811031,96.5193972 C24.1205283,96.0196624 22.4564111,96.1417757 20.9607494,95.5300587 C17.7115722,94.2019658 15.1099134,91.6237418 12.8293813,89.0303517 C8.39750815,83.9903254 4.88547411,78.5378057 3.05479915,72.079756 C2.03926724,68.4989786 1.10604525,64.8973725 0.588164353,61.2058698 C0.454197582,60.2517248 -0.719364904,55.3225721 0.678587952,55.5950686 Z" id="Leaf" fill="#DEEED4"></path>
                                <path d="M9.2374766,4.18961721 C17.3718745,15.7729231 24.0563895,28.496881 28.3726291,41.384326 C30.9877551,49.1926893 32.8165912,57.2052174 34.6336854,65.159866 C37.4471282,77.4766475 40.1083223,89.7924788 40.8653061,102.328043 C41.6268803,114.936254 43.1328418,129.478345 38.1047919,141.622051 C40.616328,129.29289 38.2251751,116.169457 37.801799,103.763778 C37.5994777,97.8415072 37.0131882,91.9771371 36.244086,86.0894735 C35.4977489,80.3781233 34.2784452,74.6939695 33.1429987,69.0275105 C32.5899017,66.2678425 32.0090252,63.5123268 31.4176123,60.7583183 C31.2410552,59.9366565 31.1664738,57.4984992 30.5316971,56.9371858 C29.8928094,56.3721765 26.6331198,56.1418415 25.6097283,55.7272714 C23.5489692,54.8922765 21.6105472,53.7062269 19.8949933,52.4530136 C16.6062541,50.0506353 13.7452166,46.9116362 11.4870568,43.8172968 C6.26226083,36.6574824 4.17338995,27.9199016 4.27896993,19.6279255 C4.29925576,18.0179984 7.45250333,0.681659473 6.18610839,0.442923745 C6.2623561,0.36960169 6.33448061,0.293894462 6.40248797,0.215146702 C7.36125746,1.53324002 8.30208811,2.86026588 9.2374766,4.18961721 Z" id="Leaf" fill="#80BD59" opacity="0.328511083"></path>
                                <path d="M29.8168279,137.881275 L49.2738757,137.881275 C50.7495712,137.881275 51.9458589,139.077562 51.9458589,140.553258 C51.9458589,140.684314 51.9362168,140.815193 51.9170107,140.944834 L50.8721085,147.997923 C50.0957181,153.238559 45.5974017,157.119554 40.2995683,157.119554 L38.7911353,157.119554 C33.4933019,157.119554 28.9949854,153.238559 28.218595,147.997923 L27.1736928,140.944834 C26.9574316,139.48507 27.9654892,138.126384 29.4252523,137.910123 C29.5548934,137.890917 29.6857719,137.881275 29.8168279,137.881275 Z" id="Base" fill="#FCE6A3"></path>
                            </g>
                        </g>
                        <path d="M104.902166,114.504545 C110.273704,114.504545 114.628195,118.859037 114.628195,124.230574 L114.628195,157.750637 C114.628195,163.122174 110.273704,167.476666 104.902166,167.476666 L59.2245675,167.476666 C53.8530302,167.476666 49.4985388,163.122174 49.4985388,157.750637 L49.4985388,124.230574 C49.4985388,118.859037 53.8530302,114.504545 59.2245675,114.504545 L104.902166,114.504545 Z M99.1707567,125.793686 L64.0875818,125.793686 C62.7446975,125.793686 61.6560746,126.882309 61.6560746,128.225193 L61.6560746,128.225193 L61.6560746,152.019227 C61.6560746,153.362112 62.7446975,154.450734 64.0875818,154.450734 L64.0875818,154.450734 L99.1707567,154.450734 C100.513641,154.450734 101.602264,153.362112 101.602264,152.019227 L101.602264,152.019227 L101.602264,128.225193 C101.602264,126.882309 100.513641,125.793686 99.1707567,125.793686 L99.1707567,125.793686 Z" id="Seat" fill="#DCE2F1"></path>
                        <g id="A-Human/Standing" transform="translate(32.130630, 10.198786)">
                            <g id="Head/Front" transform="translate(5.343966, 0.000000)">
                                <path d="M20.612442,0 C26.5381448,5.24228444e-16 31.4452046,4.36132925 32.2987814,10.0491478 C34.192955,17.0278909 36.6638796,32.7285504 34.1436961,35.1909165 L18.2034075,35.1909165 L18.1997036,35.1064061 C12.2910223,34.4530723 7.6953117,29.4436129 7.6953117,23.3607677 L7.6953117,11.8178001 C7.6953117,5.29100933 12.986321,2.97530885e-15 19.5131118,0 L20.612442,0 Z" id="Hair-Back" fill="#8F8F8F"></path>
                                <g id="Head" transform="translate(9.344307, 2.198660)" fill="#F1D1B4">
                                    <path d="M20.9660644,5.02060435 C24.1512697,10.9576043 23.7727845,26.0172969 19.6561904,27.0784044 C18.0144681,27.5015804 14.5170773,26.4649417 10.9575819,24.3194332 L13.1919629,40.1255539 L0,40.1255539 L4.54117961,18.9576627 C2.00853938,15.9847263 0.294431231,12.3414 0.580873092,8.25896793 C1.40622489,-3.50412646 17.780859,-0.916395566 20.9660644,5.02060435 Z"></path>
                                </g>
                                <path d="M19.788724,0.549665121 C26.1538629,0.549665121 28.1629639,3.51143793 29.8735743,6.02602585 C28.5943936,10.4152298 23.6301621,11.0659842 19.2192109,13.8019699 C18.6996811,13.3794599 18.0366387,13.1262301 17.3144513,13.1262301 C15.6448072,13.1262301 14.2912932,14.4797442 14.2912932,16.1493883 C14.2912932,17.8190325 15.6448072,19.1725465 17.3144513,19.1725465 L17.4517276,19.1681856 C18.0596876,25.6974201 17.8162693,33.1541798 16.004747,34.9241426 L0.0644585331,34.9241426 C-0.823686967,19.4930406 7.75977023,25.4686541 7.75977023,10.9398709 C7.96856128,10.7358699 8.17286536,10.532683 8.37411802,10.3342218 L8.6142484,10.0985871 C8.84595279,9.87268748 9.07430023,9.65531219 9.30155535,9.45263187 L9.28322663,9.0258863 C12.0434656,3.37507218 15.545298,0.549665121 19.788724,0.549665121 Z" id="Hair-Front" fill="#8F8F8F"></path>
                            </g>
                            <g id="Bottom/Skinny-Jeans-1" transform="translate(5.343966, 79.777785)">
                                <path d="M68.8755658,9.61920591 L68.9278873,9.58749775 C72.7682173,7.35360303 79.1426028,10.2864258 79.1382078,13.5494586 C79.1319954,18.1591716 77.1424885,30.813333 74.9866158,43.235257 L74.7106343,44.8191352 C72.3594894,58.2605345 69.9034926,71.0137853 69.6640699,72.5040568 C69.1946137,75.4261578 64.1655598,76.197995 63.8727016,72.513633 C63.6160711,69.2850418 63.2381947,61.6792256 63.0951407,53.9276546 L63.0745566,52.703128 C62.9850004,46.7846919 63.0431218,40.9110748 63.4071827,36.9630414 C63.7647478,33.085452 64.1498271,29.3925707 64.5289286,26.0980192 C59.8109415,34.5798257 52.5140219,46.7238561 42.6383271,62.5300519 L37.2771544,60.0917575 C41.4871175,46.2838718 44.9392239,36.5358718 47.6334736,30.8477577 C49.0902766,27.7721474 50.5184021,24.8360404 51.8480164,22.1655201 L52.2874768,21.2853561 C54.9738017,15.9204703 57.2111007,11.7369639 58.3928427,9.82991743 C61.2567115,5.20832402 66.2418714,6.82127409 68.8755658,9.61920591 Z" id="Skin" fill="#B28B67"></path>
                                <path d="M45.0551137,62.2675159 L47.2677866,9.95272508 C48.9958131,1.81183317 63.5154534,5.56773411 63.5031215,9.92910716 C63.4750985,19.8307742 57.369485,59.3082528 57.3611384,62.2582902 C54.1863485,63.2191188 51.8865388,63.7000677 50.4617093,63.7011369 C49.1518667,63.7021179 47.3496681,63.2242442 45.0551137,62.2675159 Z" id="LegLower" fill="#E8B09F" transform="translate(54.279118, 34.426761) rotate(20.000000) translate(-54.279118, -34.426761) "></path>
                                <g id="Right-Shoe" transform="translate(46.760837, 65.295051) rotate(30.000000) translate(-46.760837, -65.295051) translate(32.760837, 60.295051)" fill="#A7A1A1">
                                    <path d="M1.31830924,2.97368653 C0.749782319,4.45231674 0.465518856,5.55057391 0.465518856,6.26845804 C0.465518856,7.10412412 0.605367333,8.32356876 0.885064286,9.92679196 C1.85890113,9.92679196 10.6109368,9.92679196 27.1411714,9.92679196 C27.8234745,7.68132815 27.4296096,6.46907449 25.9595765,6.29003099 C24.4895435,6.11098749 23.2683621,5.94932554 22.2960323,5.80504515 L10.0056359,0.350712177 C9.81679882,0.266908527 9.59577988,0.352054911 9.51197623,0.540891948 C9.51070868,0.543748132 9.50947698,0.546620087 9.50828141,0.549507136 L8.6880776,2.53011746 L8.6880776,2.53011746 C7.32721149,3.16219277 6.22136649,3.47823043 5.3705426,3.47823043 C4.64692917,3.47823043 3.63471495,3.17369839 2.33389995,2.56463431 L2.333913,2.56460643 C1.95969014,2.38938882 1.51428063,2.55071444 1.33906301,2.92493731 C1.33157171,2.94093693 1.32464945,2.95719686 1.31830924,2.97368653 Z" id="shoe"></path>
                                </g>
                                <g id="Right-Shoe" transform="translate(61.448489, 66.999748)" fill="#A7A1A1">
                                    <path d="M1.31830924,2.97368653 C0.749782319,4.45231674 0.465518856,5.55057391 0.465518856,6.26845804 C0.465518856,7.10412412 0.605367333,8.32356876 0.885064286,9.92679196 C1.85890113,9.92679196 10.6109368,9.92679196 27.1411714,9.92679196 C27.8234745,7.68132815 27.4296096,6.46907449 25.9595765,6.29003099 C24.4895435,6.11098749 23.2683621,5.94932554 22.2960323,5.80504515 L10.0056359,0.350712177 C9.81679882,0.266908527 9.59577988,0.352054911 9.51197623,0.540891948 C9.51070868,0.543748132 9.50947698,0.546620087 9.50828141,0.549507136 L8.6880776,2.53011746 L8.6880776,2.53011746 C7.32721149,3.16219277 6.22136649,3.47823043 5.3705426,3.47823043 C4.64692917,3.47823043 3.63471495,3.17369839 2.33389995,2.56463431 L2.333913,2.56460643 C1.95969014,2.38938882 1.51428063,2.55071444 1.33906301,2.92493731 C1.33157171,2.94093693 1.32464945,2.95719686 1.31830924,2.97368653 Z" id="shoe"></path>
                                </g>
                                <path d="M80.4278664,16.8835348 C80.4278664,29.1950122 74.473744,64.9474011 74.4700274,67.6582823 C72.0249263,69.6825719 70.1794335,70.7851319 68.933549,70.9659621 C67.2857583,71.2051259 64.7907383,70.7325569 61.448489,69.5482552 C63.6084703,37.980372 64.4195102,22.058404 63.8816084,21.7823513 C63.0747558,21.3682723 30.8061002,24.9895544 21.1282054,24.9895544 C7.17263314,24.9895544 1.39949238,16.2289035 0.931037712,-2.25879754e-13 L28.5765071,-2.25879754e-13 C34.2053728,0.599594619 63.566053,6.49485067 74.4700274,8.52142758 C79.1382055,9.38903986 80.4278664,13.4920397 80.4278664,16.8835348 Z" id="Leg-and-Butt" fill="#FBBDAB"></path>
                            </g>
                            <path d="M58.6809834,87.4574191 L91.691082,84.7112907 L92.8447607,83.5446736 L92.8811565,82.4187342 C92.9012583,81.7968633 92.6689611,81.2553267 92.3622735,81.2091022 L59.3521749,83.9552306 C59.0454873,83.9090061 58.7805979,84.3757429 58.7605004,84.9974774 L58.6809834,87.4574191 Z" id="Path" fill="#DAD8DB" fill-rule="nonzero" transform="translate(75.781676, 84.333261) rotate(6.000000) translate(-75.781676, -84.333261) "></path>
                            <path d="M58.6559226,84.2909603 C58.3439914,84.2446719 58.0742645,84.7208293 58.0534327,85.3545545 L58.0157155,86.5019569 C57.9740566,87.7692683 58.4460321,88.8718118 59.069826,88.9643784 L92.0783557,86.1759509 C92.7021497,86.2685176 93.2416764,85.316074 93.2833353,84.0487626 L60.2748057,86.8371901 C59.6510117,86.7446235 59.1790316,85.642219 59.2206951,84.3747686 L58.6559226,84.2909603 Z" id="Path" fill="#C8C5C9" fill-rule="nonzero" transform="translate(75.648246, 86.506571) rotate(4.000000) translate(-75.648246, -86.506571) "></path>
                            <path d="M73.0679967,65.4646376 C72.7163967,65.3960544 72.4122146,66.102555 72.3885442,67.0427501 L72.3456873,68.7450372 C72.2983518,70.6252213 72.8300422,72.260809 73.5331652,72.3979604 L110.741739,68.2515637 C111.444862,68.3887151 112.053308,66.9755228 112.100644,65.0953387 L74.8920703,69.2417353 C74.1889473,69.104584 73.6572517,67.4692024 73.7045925,65.5888121 L73.0679967,65.4646376 Z" id="Path" fill="#C8C5C9" fill-rule="nonzero" transform="translate(92.221700, 68.746650) rotate(-86.000000) translate(-92.221700, -68.746650) "></path>
                            <g id="Body/Long-Sleeve-1" transform="translate(6.412760, 30.613294)">
                                <path d="M40.4954798,33.1204005 L56.1606957,42.6564481 C60.2468832,43.3860739 64.8093888,46.3276091 67.6281406,47.6988313 C68.3113178,48.2208053 66.2465571,49.753993 63.8256348,48.5622234 C61.4047126,47.3704538 60.0083419,47.6343921 59.7247728,48.5622234 C59.6265583,48.8835791 59.7640781,49.2055436 59.9598131,49.542043 C63.1105133,49.9608832 64.9712977,50.7789414 67.3388389,52.7582821 C68.9697757,54.1217978 70.7575921,57.1800831 69.7634097,58.5115554 C69.0914086,59.4115421 62.8350637,55.2977845 61.696865,55.0358885 C60.551812,55.2591012 59.1208126,55.5420386 57.4038667,55.8847006 L56.4389925,56.0775303 L48.7230575,53.7492688 L47.6432791,46.7262603 C50.7930754,48.1177301 53.6402988,48.9435466 56.1849493,49.20371 C55.2809234,48.395123 54.2362311,47.4065863 53.0512956,46.2367752 L37.9470271,41.4588763 L40.4954798,33.1204005 Z" id="Skin" fill="#F1D1B4"></path>
                                <path d="M20.2295576,27.6504954 C25.8055431,28.4767212 33.4142065,28.4816597 42.1278096,24.7153267 L44.1443338,32.1437457 C37.8257136,36.6948793 29.4409601,39.9265242 22.753589,38.6700611 C17.483572,37.679899 15.7880299,30.8496094 20.2295576,27.6504954 Z" id="Sleeve" fill="#7C89A8" transform="translate(30.912675, 31.829304) rotate(41.000000) translate(-30.912675, -31.829304) "></path>
                                <path d="M12.0207213,1.69464442e-11 L18.481017,1.508 L22.5605105,2.40478491 C23.1576115,10.0820745 25.8347777,17.8722939 28.5481774,25.6390901 L29.1904966,27.4780895 C30.3379783,30.7692128 31.4629672,34.0541903 32.4096819,37.322629 C37.8240315,39.1133129 43.6324768,40.6331266 49.8337129,41.8834397 C50.7590041,45.1743059 51.0899378,48.3588847 50.826514,51.4371759 C44.7347618,54.6217537 39.3648765,54.1922005 34.9413241,53.1653239 C34.8897189,56.4418654 34.3791179,59.6824031 33.2418573,62.8762242 C32.046902,66.232072 25.2614357,66.2759669 17.8792782,65.8041036 C17.4523777,65.7768163 17.0044805,64.8813934 16.5541964,63.9228999 L16.3462712,63.4789714 C15.8956931,62.5201264 15.4455911,61.6220671 15.0145751,61.5898586 C14.0571474,61.5183131 13.1882853,65.4633304 12.2422782,65.3921846 C7.47171941,65.0334082 2.98096574,64.7550775 0.12747076,65.3172729 C1.24665799,57.2015555 0.224688343,51.1783173 0.12747076,46.4672871 C0.00440207688,40.5035482 0.611942362,36.4144104 0.616499728,30.3223552 C0.625432991,18.3808223 10.2064452,1.6825652e-11 11.6160993,1.6825652e-11 L11.6160993,1.6825652e-11 L11.9819596,0.079695955 C11.9948253,0.0531121565 12.0077458,0.0265468069 12.0207213,1.69464442e-11 Z" id="Clothes" fill="#8E9EC6"></path>
                            </g>
                        </g>
                        <g id="wall-clock" opacity="0.0601153706" transform="translate(85.048320, 0.650880)" fill="#000000" fill-rule="nonzero">
                            <path d="M38.7820339,8.63292371e-14 C17.3981355,8.63292371e-14 8.63292371e-14,17.3972265 8.63292371e-14,38.7820339 C8.63292371e-14,60.1668413 17.3981355,77.5640678 38.7820339,77.5640678 C60.1668413,77.5640678 77.5640678,60.1668413 77.5640678,38.7820339 C77.5640678,17.3972265 60.1659323,8.63292371e-14 38.7820339,8.63292371e-14 Z M38.7820339,71.9024969 C20.5196347,71.9024969 5.66157098,57.0444331 5.66157098,38.7820339 C5.66157098,20.5196347 20.5196347,5.66157098 38.7820339,5.66157098 C57.0444331,5.66157098 71.9024969,20.5194833 71.9024969,38.781125 C71.9024969,57.0444331 57.0444331,71.9024969 38.7820339,71.9024969 Z" id="Shape"></path>
                            <path d="M51.0889588,39.487911 L38.6829284,39.487911 L38.6829284,22.3809981 C38.6829284,20.8062106 37.4013106,19.5298714 35.8200101,19.5298714 C34.2387097,19.5298714 32.9570918,20.8062106 32.9570918,22.3809981 L32.9570918,42.3390378 C32.9570918,43.9138252 34.2387097,45.1901645 35.8200101,45.1901645 L51.0889588,45.1901645 C52.6702592,45.1901645 53.9518771,43.9138252 53.9518771,42.3390378 C53.9518771,40.7642503 52.6702592,39.487911 51.0889588,39.487911 Z" id="Path"></path>
                        </g>
                    </g>
                    <path d="M15.3961975,30.3353978 C16.9770971,28.9443549 18.7253983,25.6728068 18.7253983,23.4677602 C18.7253983,19.7520181 20.2333257,16.80384 13.6909185,16.80384 C12.8721039,16.80384 5.5581851,18.8101338 2.56592638,21.9364472 C-0.570631096,25.2135241 0.669973936,29.6415231 2.56592638,30.7260466 C6.51470597,32.9848293 14.6556206,30.9870358 15.3961975,30.3353978 Z" id="Oval" fill-opacity="0.2" fill="#8FC1F6"></path>
                    <path d="M25.8142588,123.448423 C26.6047086,122.722662 27.4788592,121.015767 27.4788592,119.865308 C27.4788592,117.92666 28.2328229,116.38848 24.9616193,116.38848 C24.5522119,116.38848 20.8952526,117.435242 19.3991232,119.066362 C17.8308445,120.776141 18.451147,123.086402 19.3991232,123.65224 C21.373513,124.830735 25.4439703,123.788408 25.8142588,123.448423 Z" id="Oval" fill-opacity="0.6" fill="#8FC1F6"></path>
                    <path d="M161.814749,115.089188 C163.516002,113.534035 164.598962,104.985888 161.814749,105.699363 C158.232099,106.617445 151.227775,102.20422 148.007718,105.699363 C144.632376,109.363056 145.967428,114.313453 148.007718,115.525924 C151.075647,117.349084 156.495027,116.691804 159.5713,115.911228 C160.755981,115.610626 161.59317,115.291738 161.814749,115.089188 Z" id="Oval" fill="#FCE8A8" opacity="0.450286156"></path>
                </g>
            </g>
        </g>
    </g>
</svg>