<?xml version="1.0" encoding="UTF-8"?>
<svg width="17px" height="17px" viewBox="0 0 17 17" version="1.1" xmlns="http://www.w3.org/2000/svg" xmlns:xlink="http://www.w3.org/1999/xlink">
    <title>search</title>
    <g id="5.-INCUBATOR-Dashboard-" stroke="none" stroke-width="1" fill="none" fill-rule="evenodd" fill-opacity="0.4">
        <g id="SEEDFUND--Incubator--upcoming-meetings" transform="translate(-798.000000, -204.000000)" fill="#2B3034">
            <g id="Group-2" transform="translate(778.000000, 192.000000)">
                <path d="M36.7917398,27.7926027 L32.7049008,23.7057637 C33.7179154,22.4706222 34.328439,20.8885865 34.328439,19.1642195 C34.328439,15.2091734 31.1192656,12 27.1642195,12 C23.2057908,12 20,15.2091734 20,19.1642195 C20,23.1192656 23.2057908,26.328439 27.1642195,26.328439 C28.8885865,26.328439 30.4670661,25.7212981 31.7022076,24.7082835 L35.7890466,28.7917398 C36.0666835,29.0694201 36.5142764,29.0694201 36.7917398,28.7917398 C37.0694201,28.5176591 37.0694201,28.0666835 36.7917398,27.7926027 Z M27.1642195,24.9026119 C23.9967219,24.9026119 21.4224878,22.3283344 21.4224878,19.1642195 C21.4224878,16.0001046 23.9967219,13.4224878 27.1642195,13.4224878 C30.3283344,13.4224878 32.906168,16.0001046 32.906168,19.1642195 C32.906168,22.3283344 30.3283344,24.9026119 27.1642195,24.9026119 Z" id="search"></path>
            </g>
        </g>
    </g>
</svg>