<?xml version="1.0" encoding="UTF-8"?>
<svg width="548px" height="321px" viewBox="0 0 548 321" version="1.1" xmlns="http://www.w3.org/2000/svg" xmlns:xlink="http://www.w3.org/1999/xlink">
    <title>seedfund</title>
    <g id="1.-Public-User-Pages-VD" stroke="none" stroke-width="1" fill="none" fill-rule="evenodd">
        <g id="SEEDFUND-About" transform="translate(-523.000000, -1561.000000)">
            <g id="Group-5" transform="translate(173.000000, 1235.000000)">
                <g id="seedfund" transform="translate(350.000000, 326.000000)">
                    <path d="M17.6668628,191.997753 C20.4816061,165.56942 45.3676126,98.2786922 118.641004,64.4285499 C242.250787,7.32448131 343.585817,67.0842565 369.837869,90.523083 C424.126807,138.994304 410.385218,240.947902 296.615655,264.242441 C182.846093,287.53698 12.2165634,243.171985 17.6668628,191.997753 Z" id="Background-Shape" fill="#1E2DBE" opacity="0.0436046512" transform="translate(209.039456, 155.528309) rotate(-10.000000) translate(-209.039456, -155.528309) "></path>
                    <path d="M36.6544332,213.789635 C39.0832982,211.652463 41.7693558,206.626117 41.7693558,203.238324 C41.7693558,197.529526 44.0861076,193 34.0344741,193 C32.7764624,193 21.5394928,196.082433 16.9422419,200.885643 C12.1232929,205.920483 14.0293356,212.723579 16.9422419,214.389821 C23.0090738,217.860173 35.5166245,214.7908 36.6544332,213.789635 Z" id="Oval" fill-opacity="0.248907343" fill="#8FC1F6"></path>
                    <path d="M53.3272166,119.846766 C54.5416491,118.73172 55.8846779,116.109278 55.8846779,114.341734 C55.8846779,111.363231 57.0430538,109 52.017237,109 C51.3882312,109 45.7697464,110.608226 43.4711209,113.114248 C41.0616465,115.741122 42.0146678,119.290563 43.4711209,120.159907 C46.5045369,121.970525 52.7583123,120.369113 53.3272166,119.846766 Z" id="Oval" fill-opacity="0.6" fill="#8FC1F6"></path>
                    <path d="M95.3791013,63.5288653 C97.9928743,61.1395578 99.6567135,48.0063416 95.3791013,49.1025123 C89.8747828,50.5130358 79.1134698,43.7326388 74.1662329,49.1025123 C68.9804204,54.7313426 71.0315689,62.3370401 74.1662329,64.1998585 C78.8797432,67.0009286 87.2059776,65.9910953 91.9323068,64.7918325 C93.7524293,64.329993 95.0386709,63.8400603 95.3791013,63.5288653 Z" id="Oval" fill="#FCE8A8" opacity="0.450286156"></path>
                    <g id="Group-42" opacity="0.71634266" transform="translate(166.500000, 141.500000) rotate(-35.000000) translate(-166.500000, -141.500000) translate(98.000000, 17.000000)">
                        <path d="M86.9728144,54.3849247 C89.0235509,51.4608243 92.8291311,44.0345692 95.7155043,42.9897003 C97.5745956,42.3167082 97.0325512,49.2782963 97.0555098,50.6057184 C97.1449176,55.7413055 96.6449499,60.844329 96.0275302,65.9367983 C94.9151874,75.1210457 91.2779238,83.3003161 86.2891471,91.1170556 C83.7220285,95.1392438 80.7110019,99.2102027 76.5405892,101.719855 C74.6209442,102.875601 72.3111292,103.069111 70.4153593,104.06488 C68.2074585,105.224086 69.4098769,104.28699 68.4148512,106.587734 C67.0330474,109.782009 66.5910677,113.902964 65.9517288,117.31137 C63.0161981,132.957802 55.909333,215.668922 57.1413909,231.584334 C57.2508173,232.995007 55.2838162,233.332347 55.1856224,231.610211 C54.6637052,222.478965 59.1799733,159.245223 61.4585072,138.565972 C63.737041,117.88672 66.0428132,99.6176357 68.3548067,92.4632621 C71.1595993,83.7834863 76.2252154,73.3453858 80.441987,65.2511192 C82.4006457,61.4907057 84.5356223,57.8598363 86.9728144,54.3849247 Z" id="Leaf" fill="#C3DAFB"></path>
                        <path d="M102.194096,155.807549 C107.530394,151.889852 113.306535,159.283715 108.477735,163.202015 C105.808261,165.367813 103.017481,164.597379 101.446348,162.792505 C100.426432,164.035729 99.4718248,165.335641 98.5545716,166.433614 C95.7599356,169.779348 93.1185821,173.204937 90.5942137,176.710401 C85.3502285,183.992915 80.8562279,191.686736 76.1574304,199.239869 C71.5203318,206.694401 66.9203117,214.187114 62.7173078,221.830512 C59.1567669,228.306324 54.4110183,235.924598 53.192,243.024 C55.041574,227.967396 62.0598692,213.495334 70.4174347,200.221784 C78.7069943,187.057275 88.220227,172.680171 101.055541,162.291028 C99.7492199,160.369997 99.7129563,157.62787 102.194096,155.807549 Z" id="Leaf" fill="#2E428C" opacity="0.257562682"></path>
                        <path d="M0.933639943,119.087015 C3.91983103,119.671016 8.7992336,126.426245 11.2607455,129.00004 C14.186087,132.058635 16.8400978,135.318661 19.3418152,138.734357 C24.7275006,146.086502 29.5440496,153.903359 33.6397547,162.054971 C40.3168263,175.343731 45.6660289,188.985103 49.5481741,203.455817 C51.924576,212.313865 53.4631978,221.494886 54.375068,230.611794 C54.5472785,232.331188 56.3499457,245.587392 53.7524126,245.944683 C51.4162056,246.266402 52.1377727,235.878976 52.0250676,234.46603 C50.751059,218.525359 46.9344904,203.015219 41.6256783,187.990338 C40.4693429,184.71731 39.3950665,180.708436 37.5458134,177.763026 C36.2140921,175.641495 37.5362633,176.381341 35.1959382,175.578444 C33.1863962,174.888616 30.896809,175.05718 28.8389925,174.212774 C24.3685895,172.379491 20.7890792,168.820543 17.6513933,165.24066 C11.5537699,158.283471 6.72171346,150.756881 4.2029666,141.84227 C2.80573998,136.89941 1.52176004,131.927798 0.809230007,126.832094 C0.624910895,125.515005 -0.989743195,118.710864 0.933639943,119.087015 Z" id="Leaf" fill="#C3DAFB"></path>
                        <path d="M12.7179451,6.69342355 C23.9663085,26.2009208 33.2097528,47.6293951 39.1783114,69.3331988 C42.7945455,82.4832984 45.3234866,95.9772328 47.8361909,109.373692 C51.7266603,130.116439 55.4065981,150.857585 56.4533662,171.968785 C57.506482,193.20233 59.5889475,217.692729 52.6360872,238.144 C56.1090758,217.380404 52.8025549,195.279172 52.2171042,174.386712 C51.9373314,164.41299 51.1266018,154.536778 50.0630761,144.621338 C49.0310303,135.002827 47.3449595,125.430118 45.7748476,115.887209 C45.010017,111.23964 44.2067726,106.599064 43.3889583,101.961026 C43.1448126,100.577262 43.0416803,96.47115 42.163902,95.5258396 C41.2804388,94.5743049 36.7728928,94.1863966 35.3577321,93.4882173 C32.5080846,92.0819987 29.8276065,90.0845673 27.4553138,87.9740251 C22.9075975,83.9281691 18.9513133,78.6417667 15.8286973,73.4305759 C8.60377362,61.3727003 5.71525269,46.6577015 5.86125022,32.6931475 C5.88930176,29.9818621 10.2496582,0.785656243 8.49846893,0.383600337 C8.60390537,0.260118336 8.70364019,0.132619456 8.79768175,0 C10.1234821,2.21980685 11.4244764,4.45465703 12.7179451,6.69342355 Z" id="Leaf" fill="#ADCEFA"></path>
                        <path d="M134.124927,77.0489963 C134.298485,76.7986606 135.428075,75.0576504 134.859249,75.168917 C136.017399,74.9423742 133.266287,77.089066 136.152,75.7718657 C134.781843,77.0658908 135.572605,78.7468497 135.590893,80.4884655 C135.620729,83.316076 135.147628,86.1204995 134.615072,88.8874404 C133.77355,93.2611294 132.519909,97.5136333 130.700272,101.58169 C126.734317,110.446909 119.999922,118.981303 112.004944,124.523774 C108.058045,127.260314 104.189907,128.192005 99.688466,129.451805 C96.8451651,130.247703 96.6196869,131.7185 95.1104559,134.477605 C91.9683503,140.22423 88.8822024,145.950184 86.1111442,151.890701 C82.8023169,158.984304 79.5902436,166.085725 76.5603263,173.304201 C66.353078,197.619253 58.0453246,222.810011 53.6823464,248.88 C53.5755224,233.517035 57.1294935,217.694496 61.6124842,203.051035 C64.8780733,192.382142 69.1292569,182.097651 73.6635595,171.917275 C74.7623128,169.450959 76.4273737,166.27844 76.8939785,163.555521 C77.2206954,161.647708 76.2218255,159.812952 75.7644875,157.80322 C73.9815314,149.976948 74.1091435,141.209001 75.674844,133.340883 C77.401149,124.66479 82.3935432,120.637921 90.8388227,119.409008 C93.9274304,118.959485 97.8531304,119.124238 100.685232,117.807313 C103.770763,116.373225 105.043592,111.659396 106.798138,108.633488 C111.51079,100.50526 117.110102,92.7097924 123.53966,85.861086 C125.319943,83.964592 127.234472,82.2149477 129.265573,80.5932422 C130.546385,79.5700361 133.252062,78.3094477 134.124927,77.0489963 Z" id="Leaf" fill="#C3DAFB"></path>
                    </g>
                    <g id="Web" opacity="0.829987282" transform="translate(348.000000, 110.000000)">
                        <rect id="Container" fill="#F2F2F2" x="0" y="0" width="199.325" height="205.87" rx="4.76"></rect>
                        <rect id="Background" fill="#FFFFFF" x="148.155" y="25.585" width="41.65" height="48.195" rx="4.76"></rect>
                        <g id="Profile-Info" transform="translate(154.105000, 34.510000)" fill="#DDE3E9">
                            <circle id="Avatar" cx="14.875" cy="9.52" r="9.52"></circle>
                            <rect id="Name" x="0" y="21.42" width="29.75" height="3.57" rx="1.785"></rect>
                            <rect id="Name" x="4.76" y="27.37" width="20.23" height="3.57" rx="1.785"></rect>
                        </g>
                        <path d="M4.76,0 L194.565,0 C197.193875,4.05261841e-16 199.325,2.13112459 199.325,4.76 L199.325,16.065 L199.325,16.065 L0,16.065 L0,4.76 C5.66234034e-16,2.13112459 2.13112459,4.82916578e-16 4.76,0 Z" id="Header" fill="#C5CFD6"></path>
                        <g id="Buttons" transform="translate(5.355000, 5.950000)" fill="#F2F2F2">
                            <circle id="buttons" cx="2.38" cy="2.38" r="2.38"></circle>
                            <circle id="buttons" cx="9.52" cy="2.38" r="2.38"></circle>
                            <circle id="buttons" cx="16.66" cy="2.38" r="2.38"></circle>
                        </g>
                        <g id="Components" transform="translate(148.155000, 78.540000)">
                            <rect id="Background" fill="#FFFFFF" x="0" y="0" width="41.65" height="115.43" rx="4.76"></rect>
                            <g id="Rows" transform="translate(10.710000, 10.710000)">
                                <rect id="Data" fill="#DDE3E9" x="0" y="0" width="20.23" height="15.47" rx="2.38"></rect>
                                <rect id="Data" fill="#AFB9C5" x="0" y="20.23" width="20.23" height="14.875" rx="2.38"></rect>
                                <rect id="Data" fill="#DDE3E9" x="0" y="39.865" width="20.23" height="14.875" rx="2.38"></rect>
                                <rect id="Data" fill="#DDE3E9" x="0" y="79.135" width="20.23" height="14.875" rx="2.38"></rect>
                                <rect id="Data" fill="#C5CFD6" x="0" y="59.5" width="20.23" height="14.875" rx="2.38"></rect>
                            </g>
                        </g>
                        <g id="Rows" transform="translate(9.520000, 26.180000)">
                            <g id="Row">
                                <rect id="Container" fill="#FFFFFF" x="0" y="0" width="133.875" height="81.515" rx="2.38"></rect>
                                <g id="Graph" transform="translate(22.185000, 13.090000)">
                                    <rect id="Value" fill="#DDE3E9" x="0" y="29.75" width="5.355" height="23.205" rx="2.0825"></rect>
                                    <rect id="Value" fill="#DDE3E9" x="13.09" y="14.875" width="5.355" height="38.08" rx="2.0825"></rect>
                                    <rect id="Value" fill="#DDE3E9" x="26.18" y="7.14" width="5.355" height="45.815" rx="2.0825"></rect>
                                    <rect id="Value" fill="#DDE3E9" x="39.27" y="14.875" width="5.355" height="38.08" rx="2.0825"></rect>
                                    <rect id="Value" fill="#C5CFD6" x="52.36" y="0" width="5.355" height="52.955" rx="2.0825"></rect>
                                </g>
                                <g id="Chart" opacity="0.631881359" transform="translate(87.210000, 23.205000)">
                                    <path d="M27.2245429,26.545806 C25.8393433,28.002366 23.8770675,28.917 21.6945915,28.917 C17.501027,28.917 14.1014845,25.560486 14.1014845,21.42 C14.1014845,17.279514 17.501027,13.923 21.6945915,13.923 L21.6945915,0 C9.76473565,0 0,9.641142 0,21.42 C0,33.198858 9.76473565,42.84 21.6945915,42.84 C27.9610743,42.84 33.6244474,40.222476 37.485,36.058428 L27.2245429,26.545806 Z" id="Value" fill="#F2F2F2"></path>
                                    <path d="M21.42,0 L21.42,13.923 C25.560486,13.923 28.917,17.279514 28.917,21.42 L42.84,21.42 C42.84,9.641142 33.198858,0 21.42,0 Z" id="Value" fill="#AFB9C5"></path>
                                    <path d="M29.0239755,21.42 C29.0239755,23.7850143 27.9101914,25.8872493 26.18,27.2445895 L34.6917339,38.08 C39.6463728,34.2008255 42.84,28.1876283 42.84,21.42 L29.0239755,21.42 Z" id="Value" fill="#C5CFD6"></path>
                                </g>
                                <g id="Check" transform="translate(117.782748, 12.197500)" fill="#F2F2F2">
                                    <circle id="Indicator" cx="1.785" cy="1.785" r="1.785"></circle>
                                </g>
                            </g>
                            <g id="Row" transform="translate(0.000000, 144.585000)">
                                <rect id="Container" fill="#FFFFFF" x="0" y="0" width="133.875" height="23.205" rx="2.38"></rect>
                                <g id="Text-Stuff" transform="translate(5.355000, 6.961500)" fill="#DDE3E9">
                                    <rect id="Label" x="0" y="0" width="99.365" height="3.48075" rx="1.740375"></rect>
                                    <rect id="Label" x="0" y="5.80125" width="66.6970548" height="3.48075" rx="1.740375"></rect>
                                </g>
                                <g id="Check" transform="translate(115.402748, 7.437500)">
                                    <circle id="Background" fill="#DDE3E9" cx="4.165" cy="4.165" r="4.165"></circle>
                                    <circle id="Indicator" fill="#F2F2F2" cx="4.165" cy="4.165" r="1.785"></circle>
                                </g>
                            </g>
                            <g id="Row" transform="translate(0.000000, 116.620000)">
                                <rect id="Container" fill="#FFFFFF" x="0" y="0" width="133.875" height="23.205" rx="2.38"></rect>
                                <g id="Text-Stuff" transform="translate(5.355000, 6.961500)" fill="#DDE3E9">
                                    <rect id="Label" x="0" y="0" width="99.365" height="3.48075" rx="1.740375"></rect>
                                    <rect id="Label" x="0" y="5.80125" width="66.6970548" height="3.48075" rx="1.740375"></rect>
                                </g>
                                <g id="Check" transform="translate(115.402748, 7.437500)">
                                    <circle id="Background" fill="#DDE3E9" cx="4.165" cy="4.165" r="4.165"></circle>
                                    <circle id="Indicator" fill="#F2F2F2" cx="4.165" cy="4.165" r="1.785"></circle>
                                </g>
                            </g>
                            <g id="Row" transform="translate(0.000000, 88.655000)">
                                <rect id="Container" fill="#FFFFFF" x="0" y="0" width="133.875" height="23.205" rx="2.38"></rect>
                                <g id="Text-Stuff" transform="translate(5.355000, 6.961500)" fill="#DDE3E9">
                                    <rect id="Label" x="0" y="0" width="99.365" height="3.48075" rx="1.740375"></rect>
                                    <rect id="Label" x="0" y="5.80125" width="66.6970548" height="3.48075" rx="1.740375"></rect>
                                </g>
                                <g id="Check" transform="translate(115.402748, 7.437500)">
                                    <circle id="Background" fill="#DDE3E9" cx="4.165" cy="4.165" r="4.165"></circle>
                                    <circle id="Indicator" fill="#F2F2F2" cx="4.165" cy="4.165" r="1.785"></circle>
                                </g>
                            </g>
                        </g>
                    </g>
                    <path d="M355.534447,98.3259073 C355.810945,98.536958 356.132758,98.813679 356.534447,98.9961972 C356.370853,99.1062515 356.208026,99.2163059 356.042896,99.3259073 C356.006798,99.0804363 355.849347,98.7543493 355.534447,98.3259073 Z M367.585246,94.3282269 C366.580854,94.5997829 365.580679,94.9456699 364.585246,95.3282269 C364.711717,95.0299118 364.841877,94.7355609 364.967821,94.4362547 C365.840472,94.3837274 366.713122,94.341111 367.585246,94.3282269 Z M364.721698,83.0360859 C365.372208,83.8983299 366.028712,84.775351 366.718994,85.5954803 C366.655795,85.7388182 366.59532,85.8836338 366.531577,86.0269717 C366.110979,85.3154541 365.511681,84.3985349 364.884053,83.4926984 C364.806689,83.2749824 364.752813,83.1209722 364.730496,83.0582516 L364.721698,83.0360859 L364.721698,83.0360859 Z M386.28986,49.9513502 C389.647559,48.3964036 393.911699,50.6578954 391.866906,55.1521427 C389.676651,59.9647687 382.465849,59.6208468 378.399954,59.2947139 C378.808497,59.2947139 380.34126,54.854746 380.823781,54.1979191 C382.246824,52.2602795 384.225534,50.9092229 386.28986,49.9513502 Z M265.800525,211.167821 C266.012829,212.537469 266.339378,213.875359 266.800525,215.167821 C266.140026,214.0237 265.845854,212.654052 265.800525,211.167821 Z M378.846835,41.3385642 C382.148461,37.9933858 384.082529,43.1770437 383.775737,45.8470484 C383.413616,48.9952321 381.832172,51.7933871 379.994724,54.2539553 C379.797766,54.5144031 379.850619,54.504035 379.822954,54.1253903 C379.78703,54.3099433 379.717662,54.4438998 379.620215,54.5384572 C379.621041,56.205655 379.70321,57.9168137 379.543827,59.3836989 C379.087149,63.5844566 378.374467,67.7964119 377.444181,71.917957 C377.217907,72.9203493 376.966858,73.9132029 376.692273,74.8961031 C378.451268,73.5494884 380.788336,72.3936475 381.697563,72.0415453 C384.057342,71.1287338 387.669062,70.1989185 389.867393,72.0701614 C391.691215,73.6224801 391.647447,76.1921212 390.004479,77.8468772 C388.048113,79.8168248 384.677532,79.5646715 382.169106,79.231232 C381.03443,79.0802718 374.975807,78.2740448 376.470127,77.3537682 C376.35699,77.3898494 376.11998,77.4794301 375.864802,77.6046773 C375.705832,78.0853446 375.540255,78.5639381 375.368897,79.0400434 C375.403582,79.0628533 375.432898,79.0869074 375.47006,79.1097173 C375.429595,79.0893957 375.401517,79.0682447 375.366007,79.0479232 C373.649542,83.8064871 371.325686,88.3012854 368.37297,92.4655473 C369.414328,92.1171776 370.487067,91.8683421 371.566,91.7891295 C374.761094,91.55398 381.309015,94.3712124 377.537086,98.4123007 C373.92041,102.286254 368.848229,97.6608175 365.016014,96.8587378 C360.994275,101.893924 356.599677,106.691057 352.015555,111.310273 C352.276514,111.407319 352.500311,111.592702 352.619642,111.869324 C354.402998,111.078856 356.27926,109.912647 357.904885,109.655517 C360.250624,109.285167 365.023447,109.23623 366.668066,111.405246 C368.69091,114.072347 366.270434,116.025706 363.696768,116.381955 C359.964891,116.898704 355.223037,114.83959 351.731886,113.433255 C351.321454,113.483851 350.88377,113.3416 350.635611,113.002355 C350.558397,112.972494 350.481183,112.943049 350.406033,112.914433 C345.768232,117.507106 340.971048,121.931816 336.206897,126.255747 C336.255207,126.255747 336.303518,126.255333 336.353893,126.255333 C337.574866,125.542834 338.874293,124.97383 340.264147,124.712967 C343.479474,124.105394 347.215067,124.297412 349.671054,126.730194 C352.117543,129.152607 352.817012,133.201575 350.027395,135.631454 C344.443618,140.495358 337.228022,128.359651 334.573013,127.729683 C329.734126,132.07518 324.647079,136.105485 319.488186,140.045381 C320.058001,139.903959 320.639791,139.808572 321.237271,139.783274 C326.10465,139.573423 337.161131,146.108257 330.911331,151.63987 C327.048273,155.058961 323.167558,150.964054 319.812315,146.993167 L319.484005,146.603258 C318.232126,145.1122 317.057483,143.674376 315.98919,142.699211 L316.057525,142.762559 L315.938202,142.737714 C311.790096,145.869994 307.624913,148.982198 303.534352,152.19042 L301.487391,153.809715 C304.002423,153.28094 306.404732,153.309556 309.021753,154.252643 C311.729614,155.229737 316.060623,157.540589 314.126555,161.165292 C312.159453,164.851375 306.917978,162.852397 304.203923,161.507027 C303.772175,161.293045 303.217871,160.940059 302.584289,160.520808 L301.428561,159.750754 C300.109883,158.875615 298.603062,157.915294 297.185285,157.335714 C289.568754,163.808755 282.887051,171.027887 277.662092,179.670773 C274.400106,185.067185 271.834699,190.880811 269.928295,196.894336 C268.71145,200.732623 266.373143,207.163776 266.507339,212.249559 C265.134001,202.011637 269.215613,190.016108 273.400039,181.148856 C277.247531,172.994931 282.735513,165.947496 289.059637,159.676427 C288.685621,158.31737 287.346235,156.732388 285.846907,155.075783 L285.534684,154.732065 C282.028603,150.883607 277.965299,146.709643 283.27725,144.113011 C287.402631,142.105738 291.316188,146.000428 291.988405,149.943227 C292.450038,152.65263 291.356653,155.969193 290.247165,158.517268 C292.23326,156.6087 294.290376,154.768562 296.403648,152.996023 C299.324157,150.546238 302.307429,148.175251 305.316302,145.837441 C300.806503,141.131547 296.985024,128.153947 303.454079,126.40339 C313.006331,123.827113 307.573679,140.971049 306.747859,144.194298 C306.561224,144.195542 306.419183,144.131674 306.318846,144.005597 C306.356008,144.306688 306.400602,144.62893 306.457997,144.95449 C312.215609,140.504897 318.050022,136.152764 323.711013,131.584559 C323.242773,131.198864 322.540414,129.782161 321.970186,129.017821 C320.683146,127.294636 319.459282,125.500946 318.600017,123.518972 C317.242783,120.386962 316.03461,115.441357 320.150493,113.85669 C324.626846,112.129772 326.41681,117.745574 326.275182,121.032276 C326.217856,122.358258 325.944997,123.634142 325.640443,124.905862 L325.375922,125.995961 C325.244069,126.541571 325.116041,127.088828 325.00631,127.641346 C324.869224,128.330621 325.093021,131.481707 324.217653,130.085326 C324.236234,130.584241 324.223847,130.944223 324.188336,131.198035 C325.20492,130.37356 326.214484,129.539132 327.218267,128.698068 C327.179867,128.583189 327.15344,128.458771 327.15344,128.316105 C327.15344,127.334034 328.158462,127.008475 328.834395,127.331546 C330.160248,126.197271 331.47454,125.047236 332.767773,123.871903 C335.508667,121.38189 338.291265,118.818884 341.058585,116.197402 C340.515196,115.67858 340.776981,115.01336 340.271992,114.466337 C339.767829,113.920558 338.736381,113.579238 338.136836,113.065393 C336.62889,111.772278 335.418239,109.940019 334.56682,108.154625 C333.161275,105.20468 331.465868,99.0820829 336.082611,97.9531992 C340.841394,96.787405 342.915852,102.704298 343.027338,106.341443 C343.039683,106.738921 342.772556,108.914966 342.443569,111.144764 L342.352476,111.752928 C342.121725,113.270189 341.871413,114.739545 341.670517,115.614298 C346.792248,110.74127 351.844197,105.671661 356.452269,100.48593 C355.141694,100.405058 351.56507,97.5231285 350.851975,96.7504944 C349.111974,94.8659803 346.404113,90.7614389 349.728448,88.8387701 C352.684055,87.1338323 356.066611,90.0049791 357.152151,92.6799605 C357.330528,93.1203993 357.829322,97.1589993 357.790509,98.9572504 C359.700629,96.7558858 361.528993,94.536688 363.238851,92.3038042 C364.378895,90.8195005 365.451634,89.2908212 366.462437,87.7252313 C366.246072,87.5871276 366.047876,87.3557106 365.864131,87.0712087 C361.139206,86.011999 355.450963,78.2533085 361.186278,75.9582159 C363.916849,74.8670723 366.675085,77.5594722 367.87211,79.7081666 C368.117379,80.147776 368.438622,82.3101564 368.702884,84.0163384 C371.647756,78.8086264 373.980695,73.2542036 375.83466,67.5309874 C375.425053,67.4061549 375.090183,67.0706418 375.072428,66.522789 C372.827026,65.0816168 371.056882,63.8867917 369.574124,61.2640657 C368.652922,59.6350227 367.033904,55.9385716 370.02915,55.2181928 C373.927017,54.2809125 376.030792,60.2712121 376.193478,63.1759517 C376.212472,63.5131238 376.160032,64.4881441 376.100573,65.3810488 C376.234769,65.3698512 376.369377,65.3789752 376.50027,65.4092502 C377.570119,61.8612709 378.464481,58.2577183 379.215151,54.6404798 C378.88303,54.5140158 378.610038,54.1212888 378.391935,53.5451962 C378.300864,53.6862108 378.187167,53.8138617 378.047643,53.9243938 C378.054879,53.4930025 378.075835,53.0657235 378.125935,52.6485813 C378.104252,52.5510164 378.082241,52.4494582 378.0612,52.3454118 L378.26698,51.8404551 C378.105904,52.2407779 377.940545,52.6411008 377.771759,53.0414236 C377.830877,52.7629733 377.900276,52.4857335 378.002234,52.2093009 C378.001954,52.2102244 378.009243,52.1875477 378.022608,52.1459964 C377.364029,48.5874516 377.769573,42.4281273 378.846835,41.3385642 Z" id="Leaf-Bottom" fill="#80BD59" opacity="0.451512536" transform="translate(329.100240, 127.708690) rotate(-12.000000) translate(-329.100240, -127.708690) "></path>
                    <g id="humaaan-10" transform="translate(413.000000, 231.000000) scale(-1, 1) translate(-413.000000, -231.000000) translate(360.000000, 141.000000)">
                        <g id="Group" transform="translate(13.898601, 8.690000)">
                            <g id="Head/Front" transform="translate(26.860000, 20.540000) rotate(-20.000000) translate(-26.860000, -20.540000) ">
                                <g id="Head" transform="translate(21.330000, 12.245000)" fill="#B28B67">
                                    <path d="M15.0666198,3.6079035 C17.3555701,7.87434661 17.0835833,18.6965334 14.125319,19.4590657 C12.9455442,19.7631686 10.432247,19.0182179 7.87432158,17.4764102 L9.48,28.835 L0,28.835 L3.26410345,13.6241931 C1.44370191,11.487628 0.211556696,8.86915793 0.417426652,5.93505429 C1.01054044,-2.51813313 12.7776696,-0.658539599 15.0666198,3.6079035 Z"></path>
                                </g>
                                <path d="M22.4480193,16.0200367 C24.6062561,7.13222468 36.8409017,12.648341 39.1946668,11.1495771 C39.7090524,14.3737338 38.0502593,16.9735392 32.218439,16.4718991 C30.9298044,17.1903185 30.0139494,18.5392577 28.91133,20.3088748 C28.6434923,20.2029997 28.3510194,20.145 28.045,20.145 C26.7360851,20.145 25.675,21.2060851 25.675,22.515 C25.675,23.1788776 25.9479628,23.7790014 26.3877784,24.2092611 C25.8413576,24.9834476 25.2264434,25.7925327 24.5217526,26.6274201 C21.9103012,25.0606555 19.9637353,20.5132417 22.4012132,16.1031181 Z" id="Hair" fill="#191847"></path>
                            </g>
                        </g>
                        <g id="Bottom/Skinny-Jeans-1" transform="translate(0.000000, 84.041599)">
                            <polygon id="Leg" fill="#80809A" points="42.56 0 61.5522476 50.2546291 74.8644149 87.295 82.455 87.295 64.1561067 3.87667676e-14"></polygon>
                            <path d="M37.8660681,0 C37.6596216,17.2434046 37.8088739,40.45885 37.3278579,41.5337161 C37.0071806,42.2502935 27.0328946,50.4147603 7.405,66.0271165 L11.3174672,72.68 C34.6202949,57.6525397 46.8673959,49.137739 48.0587702,47.1355979 C49.8458316,44.1323862 58.823888,16.4964391 63.495,0 L37.8660681,0 Z" id="Leg" fill="#8C90B4"></path>
                            <g id="Group" transform="translate(2.270000, 66.755000)" fill="#191847">
                                <g id="Left-Shoe" transform="translate(12.047500, 7.900000) rotate(50.000000) translate(-12.047500, -7.900000) ">
                                    <path d="M0,15.8 L0.395,7.505 L8.69,7.505 C12.6232533,10.27 17.7582533,12.5083333 24.095,14.22 L24.095,15.8 L9.085,15.8 L3.95,15.01 L3.95,15.8 L0,15.8 Z" id="Shoe"></path>
                                </g>
                            </g>
                            <g id="Right-Shoe" transform="translate(74.160000, 78.605000)" fill="#191847">
                                <path d="M0,15.8 L0.395,7.505 L8.69,7.505 C12.6232533,10.27 17.7582533,12.5083333 24.095,14.22 L24.095,15.8 L9.085,15.8 L3.95,15.01 L3.95,15.8 L0,15.8 Z" id="Shoe"></path>
                            </g>
                        </g>
                        <g id="Body/Long-Sleeve-1" transform="translate(65.442470, 67.284096) rotate(-10.000000) translate(-65.442470, -67.284096) translate(29.442470, 38.284096)">
                            <path d="M64.2297705,18.3310741 C65.941224,17.9787333 70.1183931,14.8720221 70.8381401,15.5028018 C71.9029595,16.4359998 70.9535011,19.3014585 69.8348136,20.7268708 C67.7439881,23.3909645 66.0128746,24.3020042 61.7341591,25.4950161 C59.4970257,26.1187843 57.0782888,27.369074 54.4779485,29.2458852 L54.135,23.2022367 L60.1573765,19.8938616 C61.0024012,16.6784447 62.0125253,15.0606598 63.1877487,15.0405068 C64.0905646,14.6204355 62.5183169,18.683415 64.2297705,18.3310741 Z M53.8643466,4.55889526 C52.7585361,6.5215997 51.6836594,8.63580261 52.2470263,9.24046937 C52.8103932,9.84513613 54.2151991,9.00044331 54.8872873,10.0051023 C55.3353461,10.6748749 52.9353464,11.7329271 47.6872881,13.1792589 L37.725038,22.3007687 L32.6620256,16.8665919 L46.3723893,9.35747961 C48.6523389,6.65003128 50.8987242,4.54731831 53.1115454,3.0493407 C53.7877123,2.76705208 54.9701571,2.59619083 53.8643466,4.55889526 Z" id="Skin" fill="#997659"></path>
                            <path d="M26.4289046,13.7263695 C31.179969,14.4274999 37.6636141,14.4274999 45.0909082,11.2125292 L46.8051614,17.5428614 C41.4182944,21.4254146 34.2715219,24.1844738 28.5736392,23.1172551 C24.0833935,22.2762278 22.6423312,16.4555203 26.4289046,13.7263695 Z" id="Sleeve" fill="#8B8B92" transform="translate(35.529821, 17.280484) rotate(-9.000000) translate(-35.529821, -17.280484) "></path>
                            <path d="M26.3047812,3.90798505e-14 C26.7200735,5.33550411 28.285657,11.0450672 30.0347919,16.8383243 L30.3753665,17.960567 L30.3753665,17.960567 L30.8914162,19.6468266 L30.8914162,19.6468266 L31.2366362,20.772248 L31.2366362,20.772248 L31.5809885,21.898122 C31.8750979,22.862454 32.1665387,23.8267694 32.4509074,24.7897455 C37.5481987,26.0623464 46.0978832,24.5630379 58.0991937,20.2925012 C61.0758111,26.4505899 62.4518267,30.8408349 62.2272405,33.4632361 C51.9314677,38.8413497 43.1072617,41.2388514 35.8375012,41.396657 C36.0709983,45.7090418 35.5460659,49.8137687 33.7822035,53.5643566 C30.1563988,61.2740847 8.92529784,54.1340168 1.78675109,55.5393566 C-0.852381747,46.9684389 1.07904958,41.4011216 3.10571442,36.3667978 L3.35404911,35.7528459 C4.67779326,32.4908507 5.96424817,29.4131638 5.96692952,25.8316632 C5.97454572,15.6586521 14.142992,3.90798505e-14 15.3448152,3.90798505e-14 L15.3448152,3.90798505e-14 Z" id="Clothes" fill="#ADB8C4"></path>
                        </g>
                    </g>
                    <g id="Group-34" opacity="0.548442042" transform="translate(159.000000, 211.000000)">
                        <path d="M95.1367216,0 C97.952055,0 100.1619,0 101.766257,0 C103.370613,0 105.643743,0 108.585647,0 L116.141849,45.1018799 C124.666198,27.0880778 134.667532,20.8090902 146.145852,26.264917 C157.624173,31.7207438 161.154218,43.4865479 156.735989,61.5623291 C160.357619,58.7792245 164.213055,58.7792245 168.302298,61.5623291 C172.391541,64.3454337 174.073279,68.1139884 173.347513,72.8679932 C180.581394,67.4790767 188.962693,67.4790767 198.491409,72.8679932 C208.020125,78.2569096 212.826554,85.7151616 212.910696,95.242749 L6.772415,95.242749 C-0.134388386,90.5456136 -1.75829789,84.7356201 1.90068648,77.8127686 C5.55967086,70.889917 12.7191862,69.2416585 23.3792325,72.8679932 C18.3775521,60.3548421 21.6880888,50.5792887 33.3108427,43.541333 C44.9335966,36.5033773 56.6556832,38.7199626 68.4771025,50.1910889 C67.2081897,41.9865967 69.7305205,37.4596273 76.0440947,36.6101807 C82.3576689,35.760734 87.0559111,38.5913005 90.1388212,45.1018799 L95.1367216,0 Z" id="Path-7" fill="#8E9EC6" opacity="0.758153161"></path>
                        <path d="M101.230325,11.3102741 L104.087973,11.3102741 C105.434891,31.635901 106.465675,43.8725238 107.180325,48.0201427 C107.894975,52.1677616 109.703641,56.0947697 112.606323,59.8011672 C115.108212,54.7294193 118.605221,52.8576768 123.09735,54.1859397 C127.589478,55.5142026 129.414935,58.1209058 128.573719,62.0060493 C135.725165,58.1944277 142.156957,58.1944277 147.869095,62.0060493 C153.581232,65.8176709 155.692735,71.5184804 154.203604,79.1084778 C159.342772,75.1487236 165.393151,75.6559077 172.354739,80.6300303 C179.316328,85.6041528 182.448839,90.8309007 181.752273,96.3102741 L32.6577712,96.3102741 C27.286848,87.4155128 27.8739232,79.8925207 34.418997,73.7412976 C40.9640708,67.5900746 47.7928469,67.0689768 54.9053252,72.1780043 C55.0982722,69.102551 56.7573217,67.0154204 59.8824736,65.9166125 C63.0076255,64.8178046 65.7797525,65.8044871 68.1988545,68.8766602 C68.2806856,63.7153286 71.0617813,60.3615656 76.5421416,58.8153714 C82.0225018,57.2691771 86.6984362,58.3327364 90.5699449,62.0060493 C93.4158578,57.8103389 95.3746455,53.4864517 96.4463082,49.0343878 C97.5179709,44.582324 99.1126432,32.0076194 101.230325,11.3102741 Z" id="Path-8" fill="#D5E9F2"></path>
                        <path d="M135.796244,79.5798777 C133.814565,79.5798777 131.918695,79.8809494 130.146007,80.4094974 C128.48514,76.2297475 123.932181,73.2048777 118.513061,73.2048777 C115.49091,73.2048777 112.759075,74.1762842 110.613253,75.7279614 C110.904764,74.9258755 111.105982,74.0895653 111.105982,73.2048777 C111.105982,68.5104753 106.684278,64.7048777 101.229877,64.7048777 C95.7754754,64.7048777 91.3537716,68.5104753 91.3537716,73.2048777 C91.3537716,74.0895653 91.5549892,74.9258755 91.8465005,75.7279614 C89.7006781,74.1762842 86.9685442,73.2048777 83.9466928,73.2048777 C78.5272729,73.2048777 73.9746133,76.2297475 72.3137461,80.4094974 C70.5410582,79.8812067 68.6448891,79.5798777 66.663509,79.5798777 C57.1183814,79.5798777 49.3803252,86.2397378 49.3803252,94.4548777 L153.080325,94.4548777 C153.080325,86.2394805 145.341372,79.5798777 135.796244,79.5798777 L135.796244,79.5798777 Z" id="Path" fill="#FFFFFF" fill-rule="nonzero" opacity="0.667650799"></path>
                    </g>
                    <g id="Group-51" transform="translate(161.000000, 56.000000)">
                        <path d="M87.4240954,0.36854808 C38.1896492,4.20852472 6.76644757,44.0420548 3.18810076,78.7986522 C2.74042949,83.1468976 -5.73942302,111.172447 12.5371094,144.311391 C16.7621475,151.972215 31.1338923,165.324484 55.6523438,184.368197 C62.462003,190.925709 66.9125314,196.708715 69.003929,201.717215 C71.0953265,206.725715 72.0768549,211.15331 71.9485139,215 L116.402384,215 L118.15766,201.717215 C117.559079,195.96923 124.837416,188.414124 139.992672,179.051895 C162.725556,165.008552 205.57597,122.060612 178.103983,49.8827652 C159.821172,1.84787374 110.892945,-1.46187438 87.4240954,0.36854808 Z" id="Path-5" fill="#F8D874"></path>
                        <path d="M71.4630663,216 L118.249419,216 C120.545373,217.098248 121.403975,219.22368 120.825224,222.376294 C120.246473,225.528909 118.012169,227.446294 114.122311,228.128451 C113.99431,231.567983 113.46526,233.873308 112.535162,235.044428 C111.605064,236.215548 109.760923,236.898391 107.002739,237.092958 L105.228207,245 L83.5690786,244.314824 L83.5690786,237.092958 C81.2243393,236.92964 79.3476287,236.246797 77.9389467,235.044428 C76.5302647,233.84206 76.05767,231.536734 76.5211627,228.128451 C72.9046284,226.160983 70.8133667,224.498677 70.2473776,223.141532 C69.6813885,221.784387 70.0866181,219.403876 71.4630663,216 Z" id="Path-6" fill="#E2C567" opacity="0.812727108"></path>
                        <path d="M103.818431,64.2158595 C108.606144,65.2028046 111,68.4624892 111,73.9949134 C110.204119,81.2812293 109.061285,86.6877799 107.571497,90.2145652 C106.081709,93.7413506 102.799783,98.8095659 97.7257196,105.419211 C100.104182,126.556133 101.533656,142.367097 102.01414,152.852102 C102.486748,163.165222 103.076368,178.216708 103.783002,198.006559 L103.818431,199 L99.8151634,199 C99.3813209,178.513886 98.6848396,163.131254 97.7257196,152.852102 C96.7665996,142.57295 94.6473472,127.778596 91.3679626,108.46904 C90.9756061,123.707064 90.9756061,136.968887 91.3679626,148.25451 C91.7543743,159.369138 92.7778125,175.944007 94.4382773,197.979118 L94.5153665,199 L90.0548214,199 C87.5863097,176.295287 86.2112931,159.380124 85.9297716,148.25451 C85.6482501,137.128895 85.6482501,123.867072 85.9297716,108.46904 C78.217541,103.229619 73.3297841,98.7439821 71.2665009,95.0121275 C68.1715761,89.4143456 65.8082575,72.563803 71.2665009,68.8489291 C74.9053298,66.3723464 77.7861469,66.102961 79.9089523,68.0407726 C83.9193695,73.4414562 86.6110326,78.1338547 87.9839417,82.117968 C89.321648,85.9999247 90.4268503,92.1679576 91.2995484,100.622067 L91.3679626,101.294246 L92.7958509,71.4080912 C95.3565256,65.626325 99.0307191,63.2289145 103.818431,64.2158595 Z M75.0502781,73.8602206 C72.009855,75.7880105 74.1034437,88.670278 76.551644,92.4724726 C78.1837775,95.0072689 81.4121912,98.0767401 86.2368851,101.680886 C85.9168834,96.1264932 85.3752469,91.9064213 84.6119758,89.0206704 C83.8487046,86.1349195 82.1579521,81.9148476 79.5397181,76.3604546 C78.5737068,73.4084387 77.0772268,72.5750274 75.0502781,73.8602206 Z M102.121683,73.1636125 C100.202804,72.5656647 99.1502479,73.6066882 98.9640128,76.286683 L98.9640128,76.286683 L97,96 L105,79.8544866 C105,75.9918517 104.040561,73.7615604 102.121683,73.1636125 Z" id="Combined-Shape" fill="#FDF1D2"></path>
                    </g>
                    <path d="M268.488712,68.3439962 C233.448035,48.5798542 228.736907,58.8927047 213.395493,58.9913325 C209.822923,59.0143654 206.947014,61.6773168 206.972242,64.9391222 C206.997469,68.1867536 209.888902,70.8030487 213.439479,70.8030487 C213.455003,70.8030487 213.471174,70.8030487 213.486052,70.8030487 C213.638063,70.8024582 213.786192,70.8018676 213.937556,70.8018676 C225.801342,70.8018676 248.190182,70.1689941 261.656785,78.0956673 C277.103976,87.1881486 283.185305,105.645396 288.275716,117.181769 C289.291275,119.483872 291.716328,120.882379 294.277219,120.882379 C295.081904,120.882379 295.90082,120.744773 296.692568,120.453023 C300.00575,119.234054 300.580426,86.4448225 268.488712,68.3439962 Z" id="Path" fill="#E2BE4E" fill-rule="nonzero" transform="translate(252.584020, 88.548611) rotate(-33.000000) translate(-252.584020, -88.548611) "></path>
                    <g id="rupee" transform="translate(184.991503, 19.519766)" fill-rule="nonzero">
                        <g id="Group" transform="translate(-0.000000, 0.000000)">
                            <path d="M64.512,32.256 C64.512,50.070528 50.070528,64.512 32.256,64.512 C22.864896,64.512 14.4111909,60.4990903 8.51690057,54.0939703 C6.96861257,52.4127086 5.59806171,50.5655589 4.43157943,48.5841189 C1.61543314,43.794432 0,38.2134857 0,32.256 C0,14.441472 14.441472,0 32.256,0 C38.2148023,0 43.7957486,1.61543314 48.5841189,4.432896 C50.5655589,5.59806171 52.411392,6.96861257 54.0926537,8.51821714 C60.4977737,14.4098743 64.512,22.864896 64.512,32.256 Z" id="Path" fill="#F0CD00"></path>
                            <path d="M64.512,32.256 C64.512,49.6689737 50.715648,63.8589806 33.4567131,64.4896183 C16.1977783,63.8589806 2.40142629,49.6689737 2.40142629,32.256 C2.40142629,14.8430263 16.1977783,0.653019429 33.4567131,0.0223817143 C50.715648,0.653019429 64.512,14.8430263 64.512,32.256 Z" id="Path" fill="#FFDE50"></path>
                            <path d="M57.3208869,32.256 C57.3208869,46.098432 46.098432,57.3208869 32.256,57.3208869 C27.4347154,57.3208869 22.9320411,55.959552 19.1100343,53.600256 C17.4445714,52.5733303 15.9094491,51.3555017 14.5323154,49.978368 C13.519872,48.9672411 12.5930057,47.867904 11.7648823,46.6948389 C10.6247314,45.0794057 9.67021714,43.3230994 8.93425371,41.4575177 C7.84413257,38.6993006 7.23061029,35.7001509 7.19374629,32.5640777 C7.19111314,32.4613851 7.19111314,32.3586926 7.19111314,32.256 C7.19111314,18.413568 18.4122514,7.19111314 32.256,7.19111314 C32.3586926,7.19111314 32.4627017,7.19111314 32.5653943,7.19374629 C35.7014674,7.23061029 38.6993006,7.84544914 41.4575177,8.93425371 C43.3230994,9.67153371 45.0794057,10.6247314 46.6948389,11.7648823 C47.867904,12.5943223 48.9659246,13.519872 49.978368,14.5323154 C51.3555017,15.9081326 52.5733303,17.4445714 53.600256,19.1100343 C55.959552,22.9320411 57.3208869,27.4347154 57.3208869,32.256 Z" id="Path" fill="#FAA300"></path>
                            <path d="M49.978368,14.5323154 L14.5323154,49.978368 C13.519872,48.9672411 12.5930057,47.867904 11.7648823,46.6948389 C10.6247314,45.0794057 9.67021714,43.3230994 8.93425371,41.4575177 C7.84413257,38.6993006 7.23061029,35.7001509 7.19374629,32.5640777 C7.19111314,32.4613851 7.19111314,32.3586926 7.19111314,32.256 C7.19111314,18.413568 18.4122514,7.19111314 32.256,7.19111314 C32.3586926,7.19111314 32.4627017,7.19111314 32.5653943,7.19374629 C35.7014674,7.23061029 38.6993006,7.84544914 41.4575177,8.93425371 C43.3230994,9.67153371 45.0794057,10.6247314 46.6948389,11.7648823 C47.867904,12.5943223 48.9659246,13.519872 49.978368,14.5323154 Z" id="Path" fill="#FFBD00"></path>
                        </g>
                        <path d="M42.2137563,24.5803886 L37.8244389,24.5803886 C37.5744219,23.6004645 37.18656,22.6754414 36.6856046,21.8246729 L42.2137563,21.8246729 C43.6680411,21.8246729 44.8468992,20.6458149 44.8468992,19.1915301 C44.8468992,17.7372453 43.6680411,16.5583872 42.2137563,16.5583872 L27.4992274,16.5583872 L17.3366126,16.5583872 C15.8823278,16.5583872 14.7034697,17.7372453 14.7034697,19.1915301 C14.7034697,20.6458149 15.8823278,21.8246729 17.3366126,21.8246729 L27.4992274,21.8246729 C29.514635,21.8246729 31.274101,22.9375707 32.1983342,24.5803886 L17.3366126,24.5803886 C15.8823278,24.5803886 14.7034697,25.7592466 14.7034697,27.2135314 C14.7034697,28.6678162 15.8823278,29.8466743 17.3366126,29.8466743 L32.1983342,29.8466743 C31.274101,31.4894921 29.514635,32.6022583 27.4993591,32.6022583 L17.3367442,32.6022583 C16.2859886,32.6022583 15.335819,33.2269714 14.9193874,34.1916233 C14.5028242,35.1562752 14.6997833,36.2762825 15.4202112,37.0410789 L29.740427,52.2410277 C30.2584978,52.7909595 30.9572023,53.0684928 31.6574866,53.0684928 C32.3051081,53.0684928 32.9540462,52.8309833 33.4626377,52.351883 C34.5211611,51.3547118 34.5706642,49.6881957 33.573493,48.6296722 L23.4349714,37.868544 L27.4992274,37.868544 C32.4658615,37.868544 36.6491355,34.4524361 37.8244389,29.8466743 L42.2137563,29.8466743 C43.6680411,29.8466743 44.8468992,28.6678162 44.8468992,27.2135314 C44.8468992,25.7592466 43.6680411,24.5803886 42.2137563,24.5803886 Z" id="Path" fill="#F68E00"></path>
                        <path d="M45.5053166,24.5803886 L41.1159991,24.5803886 C40.8659822,23.6004645 40.4781202,22.6754414 39.9771648,21.8246729 L45.5053166,21.8246729 C46.9596014,21.8246729 48.1384594,20.6458149 48.1384594,19.1915301 C48.1384594,17.7372453 46.9596014,16.5583872 45.5053166,16.5583872 L30.7909193,16.5583872 L20.6283045,16.5583872 C19.1740197,16.5583872 17.9951616,17.7372453 17.9951616,19.1915301 C17.9951616,20.6458149 19.1740197,21.8246729 20.6283045,21.8246729 L30.7909193,21.8246729 C32.8063269,21.8246729 34.5657929,22.9375707 35.4900261,24.5803886 L20.6283045,24.5803886 C19.1740197,24.5803886 17.9951616,25.7592466 17.9951616,27.2135314 C17.9951616,28.6678162 19.1740197,29.8466743 20.6283045,29.8466743 L35.4900261,29.8466743 C34.5657929,31.4894921 32.8063269,32.6022583 30.791051,32.6022583 L20.6284361,32.6022583 C19.5776805,32.6022583 18.6275109,33.2269714 18.2110793,34.1916233 C17.7945161,35.1562752 17.9914752,36.2762825 18.7119031,37.0410789 L33.0321189,52.2410277 C33.5501897,52.7909595 34.2488942,53.0684928 34.9491785,53.0684928 C35.5968,53.0684928 36.2457381,52.8309833 36.7543296,52.351883 C37.812853,51.3547118 37.8624878,49.6881957 36.8651849,48.6296722 L26.7269266,37.868544 L30.7911826,37.868544 C35.7578167,37.868544 39.9410907,34.4524361 41.1163941,29.8466743 L45.5057115,29.8466743 C46.9599963,29.8466743 48.1388544,28.6678162 48.1388544,27.2135314 C48.1388544,25.7592466 46.9596014,24.5803886 45.5053166,24.5803886 Z" id="Path" fill="#FFEA94"></path>
                    </g>
                    <g id="rupee" transform="translate(335.991503, 132.519766)" fill-rule="nonzero">
                        <g id="Group" transform="translate(0.008497, 0.480234)">
                            <path d="M58.5570462,29.2785231 C58.5570462,45.4486331 45.4486331,58.5570462 29.2785231,58.5570462 C20.7542902,58.5570462 13.0809271,54.9145589 7.73072513,49.1006807 C6.32535603,47.5746124 5.08131756,45.8979688 4.02251056,44.099431 C1.46631624,39.751869 0,34.686087 0,29.2785231 C0,13.108413 13.108413,0 29.2785231,0 C34.6872821,0 39.7530641,1.46631624 44.099431,4.0237056 C45.8979688,5.08131756 47.5734174,6.32535603 49.0994857,7.73192018 C54.9133638,13.079732 58.5570462,20.7542902 58.5570462,29.2785231 Z" id="Path" fill="#F0CD00"></path>
                            <path d="M58.5570462,29.2785231 C58.5570462,45.0841454 46.0342036,57.9643054 30.3684012,58.5367304 C14.7025988,57.9643054 2.17975617,45.0841454 2.17975617,29.2785231 C2.17975617,13.4729008 14.7025988,0.592740712 30.3684012,0.0203157099 C46.0342036,0.592740712 58.5570462,13.4729008 58.5570462,29.2785231 Z" id="Path" fill="#FFDE50"></path>
                            <path d="M52.0297281,29.2785231 C52.0297281,41.8431921 41.8431921,52.0297281 29.2785231,52.0297281 C24.9022802,52.0297281 20.8152373,50.7940549 17.3460311,48.6525401 C15.8343033,47.7204075 14.4408846,46.6149939 13.1908709,45.3649802 C12.2718838,44.4471881 11.4305744,43.4493282 10.6788932,42.384546 C9.64398699,40.9182298 8.77758171,39.3240441 8.10955337,37.6306699 C7.1200588,35.1270574 6.56316934,32.4047523 6.52970817,29.5581628 C6.52731808,29.4649496 6.52731808,29.3717363 6.52731808,29.2785231 C6.52731808,16.713854 16.712659,6.52731808 29.2785231,6.52731808 C29.3717363,6.52731808 29.4661446,6.52731808 29.5593579,6.52970817 C32.4059474,6.56316934 35.1270574,7.12125384 37.6306699,8.10955337 C39.3240441,8.77877676 40.9182298,9.64398699 42.384546,10.6788932 C43.4493282,11.4317695 44.4459931,12.2718838 45.3649802,13.1908709 C46.6149939,14.4396896 47.7204075,15.8343033 48.6525401,17.3460311 C50.7940549,20.8152373 52.0297281,24.9022802 52.0297281,29.2785231 Z" id="Path" fill="#FAA300"></path>
                            <path d="M45.3649802,13.1908709 L13.1908709,45.3649802 C12.2718838,44.4471881 11.4305744,43.4493282 10.6788932,42.384546 C9.64398699,40.9182298 8.77758171,39.3240441 8.10955337,37.6306699 C7.1200588,35.1270574 6.56316934,32.4047523 6.52970817,29.5581628 C6.52731808,29.4649496 6.52731808,29.3717363 6.52731808,29.2785231 C6.52731808,16.713854 16.712659,6.52731808 29.2785231,6.52731808 C29.3717363,6.52731808 29.4661446,6.52731808 29.5593579,6.52970817 C32.4059474,6.56316934 35.1270574,7.12125384 37.6306699,8.10955337 C39.3240441,8.77877676 40.9182298,9.64398699 42.384546,10.6788932 C43.4493282,11.4317695 44.4459931,12.2718838 45.3649802,13.1908709 Z" id="Path" fill="#FFBD00"></path>
                        </g>
                        <path d="M38.6499442,22.7309949 L34.7183554,22.7309949 C34.4944108,21.8452813 34.1469961,21.0091906 33.6982815,20.2402156 L38.6499442,20.2402156 C39.9525727,20.2402156 41.0084966,19.1746937 41.0084966,17.8602248 C41.0084966,16.5457559 39.9525727,15.480234 38.6499442,15.480234 L25.4698819,15.480234 L16.367049,15.480234 C15.0644205,15.480234 14.0084966,16.5457559 14.0084966,17.8602248 C14.0084966,19.1746937 15.0644205,20.2402156 16.367049,20.2402156 L25.4698819,20.2402156 C27.2751179,20.2402156 28.8511026,21.2461187 29.6789544,22.7309949 L16.367049,22.7309949 C15.0644205,22.7309949 14.0084966,23.7965168 14.0084966,25.1109857 C14.0084966,26.4254546 15.0644205,27.4909764 16.367049,27.4909764 L29.6789544,27.4909764 C28.8511026,28.9758527 27.2751179,29.9816368 25.4699998,29.9816368 L16.3671669,29.9816368 C15.4259866,29.9816368 14.574903,30.5462896 14.2018979,31.4181992 C13.8287749,32.2901088 14.0051946,33.3024379 14.6504946,33.9937062 L27.4773637,47.7323219 C27.9414089,48.229383 28.5672508,48.480234 29.1945078,48.480234 C29.7745937,48.480234 30.355859,48.2655589 30.8114134,47.8325195 C31.7595514,46.931217 31.8038922,45.4249209 30.9107084,44.4681646 L21.8294563,34.7416183 L25.4698819,34.7416183 C29.9185834,34.7416183 33.6656155,31.6539373 34.7183554,27.4909764 L38.6499442,27.4909764 C39.9525727,27.4909764 41.0084966,26.4254546 41.0084966,25.1109857 C41.0084966,23.7965168 39.9525727,22.7309949 38.6499442,22.7309949 Z" id="Path" fill="#F68E00"></path>
                        <path d="M41.6496111,22.7309949 L37.7180565,22.7309949 C37.4941139,21.8452813 37.1467022,21.0091906 36.6979915,20.2402156 L41.6496111,20.2402156 C42.9522282,20.2402156 44.0081428,19.1746937 44.0081428,17.8602248 C44.0081428,16.5457559 42.9522282,15.480234 41.6496111,15.480234 L28.4697818,15.480234 L19.3670284,15.480234 C18.0644113,15.480234 17.0084966,16.5457559 17.0084966,17.8602248 C17.0084966,19.1746937 18.0644113,20.2402156 19.3670284,20.2402156 L28.4697818,20.2402156 C30.275002,20.2402156 31.8509729,21.2461187 32.6788176,22.7309949 L19.3670284,22.7309949 C18.0644113,22.7309949 17.0084966,23.7965168 17.0084966,25.1109857 C17.0084966,26.4254546 18.0644113,27.4909764 19.3670284,27.4909764 L32.6788176,27.4909764 C31.8509729,28.9758527 30.275002,29.9816368 28.4698997,29.9816368 L19.3671463,29.9816368 C18.4259742,29.9816368 17.574898,30.5462896 17.2018962,31.4181992 C16.8287765,32.2901088 17.0051947,33.3024379 17.650489,33.9937062 L30.4772461,47.7323219 C30.9412872,48.229383 31.5671236,48.480234 32.1943751,48.480234 C32.774456,48.480234 33.3557162,48.2655589 33.8112666,47.8325195 C34.7593964,46.931217 34.8038547,45.4249209 33.9105608,44.4681646 L24.8296238,34.7416183 L28.4700176,34.7416183 C32.9186802,34.7416183 36.6656797,31.6539373 37.7184103,27.4909764 L41.6499648,27.4909764 C42.9525819,27.4909764 44.0084966,26.4254546 44.0084966,25.1109857 C44.0084966,23.7965168 42.9522282,22.7309949 41.6496111,22.7309949 Z" id="Path" fill="#FFEA94"></path>
                    </g>
                    <g id="humaaan-5" transform="translate(144.972632, 108.169060) rotate(20.000000) translate(-144.972632, -108.169060) translate(92.972632, 15.169060)">
                        <g id="Group" transform="translate(4.450000, 6.229140)">
                            <g id="Head/Front" transform="translate(26.520000, 20.244706) rotate(-15.000000) translate(-26.520000, -20.244706) ">
                                <path d="M29.0558471,10.5116742 C33.2507264,10.5116742 36.7260594,13.5924176 37.3427542,17.6148123 C38.6872297,22.5504213 40.4456232,33.6912001 38.6557348,35.4369817 L27.3457348,35.4369817 L27.3426496,35.3770728 C23.150586,34.9136989 19.89,31.359666 19.89,27.0440824 L19.89,18.8958271 C19.89,14.2653873 23.6437131,10.5116742 28.2741529,10.5116742 L29.0558471,10.5116742 Z" id="Hair-Back" fill="#191847"></path>
                                <g id="Head" transform="translate(21.060000, 12.068959)" fill="#B28B67">
                                    <path d="M14.8759031,3.55603434 C17.1358793,7.76114075 16.8673354,18.4277419 13.9465175,19.1793117 C12.7818272,19.4790038 10.3008348,18.7449915 7.77562607,17.2257493 L9.36,28.4204525 L0,28.4204525 L3.2222076,13.427647 C1.42516635,11.3219223 0.208900556,8.74134008 0.41214277,5.84972875 C0.997748786,-2.48193109 12.615927,-0.649072078 14.8759031,3.55603434 Z"></path>
                                </g>
                                <path d="M28.4705532,10.9009955 C32.9867651,10.9009955 34.4122683,12.9987839 35.6259856,14.7798366 C34.7183336,17.8888081 31.1958005,18.3496238 28.0660161,20.2877268 C27.6977535,19.9881488 27.2273547,19.8088269 26.715,19.8088269 C25.5303492,19.8088269 24.57,20.7675048 24.57,21.9500938 C24.57,23.1326829 25.5303492,24.0913608 26.715,24.0913608 L26.8122882,24.0870665 C27.2437922,28.7119333 27.0711631,33.9942764 25.7857348,35.248029 L14.4757348,35.248029 C13.8455752,24.318363 19.9357348,28.5508189 19.9357348,18.2602547 C20.3155289,17.8898196 20.6743982,17.5231744 21.0295059,17.2070041 L21.016662,16.9046021 C22.9751148,12.9021977 25.4597452,10.9009955 28.4705532,10.9009955 Z" id="Hair-Front" fill="#191847"></path>
                            </g>
                        </g>
                        <g id="Bottom/Skinny-Jeans-1" transform="translate(56.662443, 131.946470) rotate(-20.000000) translate(-56.662443, -131.946470) translate(22.662443, 86.946470)">
                            <polygon id="Leg" fill="#B56A53" points="21.7866667 0 35.3218526 47.3773846 45.1972641 82.2970711 52.4 82.2970711 41.9059637 0"></polygon>
                            <path d="M18.1669544,0 C17.8538869,24.4188534 16.7863324,37.7375596 16.4576243,39.9561186 C16.1289162,42.1746776 11.1586775,56.2883285 1.54690822,82.2970711 L9.00845479,82.2970711 C21.2449724,57.3461266 28.0757096,43.2324757 29.5006664,39.9561186 C30.9256232,36.6797615 35.3231788,23.3610553 41.9466667,0 L18.1669544,0 Z" id="Leg" fill="#F9987A"></path>
                            <g id="Left-Shoe" transform="translate(0.880000, 81.104603)" fill="#80809A">
                                <path d="M0,7.89539749 L0.373333333,0.0753138075 L8.21333333,0.0753138075 C11.9308386,2.68200837 16.7841719,4.79218968 22.7733333,6.40585774 L22.7733333,7.89539749 L8.58666667,7.89539749 L3.73333333,7.15062762 L3.73333333,7.89539749 L0,7.89539749 Z" id="Shoe"></path>
                            </g>
                            <g id="Right-Shoe" transform="translate(44.186667, 81.104603)" fill="#80809A">
                                <path d="M0,7.89539749 L0.373333333,0.0753138075 L8.21333333,0.0753138075 C11.9308386,2.68200837 16.7841719,4.79218968 22.7733333,6.40585774 L22.7733333,7.89539749 L8.58666667,7.89539749 L3.73333333,7.15062762 L3.73333333,7.89539749 L0,7.89539749 Z" id="Shoe"></path>
                            </g>
                        </g>
                        <g id="Body/Long-Sleeve-1" transform="translate(57.369588, 62.649159) rotate(-10.000000) translate(-57.369588, -62.649159) translate(20.369588, 32.149159)">
                            <path d="M67.0892063,17.169996 C68.5845616,16.7987431 72.2342965,13.5252784 72.863164,14.1899154 C73.7935329,15.1732031 72.9639588,18.192466 71.9865234,19.6943876 C70.1596979,22.5014773 68.6471652,23.4614172 64.9087057,24.7184644 C62.954046,25.3757135 60.8407132,26.6931128 58.5687073,28.6706623 L58.2690616,22.3026194 L63.5310171,18.8166664 C64.2693439,15.4286613 65.1519237,13.7240413 66.1787564,13.7028066 C66.9675775,13.2601879 65.5938511,17.5412488 67.0892063,17.169996 Z M59.1602901,3.14974545 C58.0684772,5.08423298 57.0072066,7.16804098 57.5634422,7.76401472 C58.1196779,8.35998846 59.5067014,7.52743941 60.1702822,8.51765485 C60.6126693,9.17779848 58.2430494,10.2206396 53.0614222,11.6461781 L43.2252765,20.6365521 L38.2263529,15.2805 L51.7631677,7.87934276 C54.0142571,5.21081816 56.2322072,3.13833493 58.417018,1.66189306 C59.0846259,1.38366276 60.252103,1.21525791 59.1602901,3.14974545 Z" id="Skin" fill="#997659"></path>
                            <path d="M24.5254103,16.9811397 C29.216321,17.6734811 41.4230173,13.6923844 48.7551292,10.5254706 L51.7419459,18.2088751 C46.4245244,22.0343437 32.2712008,27.2914146 26.6453994,26.2379811 C22.2119578,25.4078175 20.787652,19.6701642 24.5254103,16.9811397 Z" id="Sleeve" fill="#8888A6" transform="translate(37.060829, 18.450115) rotate(-9.000000) translate(-37.060829, -18.450115) "></path>
                            <path d="M17.2115449,0.736249284 L23.0884016,6.04324928 L23.7446674,6.26884484 C24.2014307,12.1269375 25.2175251,18.2515214 26.241122,24.4194799 C27.1962779,25.7757152 28.3771142,26.6943476 29.7831513,27.1763902 C34.6838385,28.8565307 44.6530209,26.3817549 59.6906983,19.7520628 C61.0738463,23.7540156 61.6545486,27.047342 61.4328053,29.6320422 C47.3720391,36.9640603 36.2858764,39.136414 28.2600134,37.7720387 C28.6306221,40.7801376 28.9033381,43.761839 29.0153916,46.6883596 C29.1704046,50.7368632 30.7366828,53.6080601 29.0712672,57.1431527 C27.0948594,61.3383726 20.7053475,60.6613755 14.1919173,59.4462954 L13.4542489,59.3066733 C8.41304768,58.3400648 3.39454966,57.1493245 0.384387152,57.7408929 C-0.971155311,53.3462588 2.80697335,51.0051135 3.27185991,47.8699879 C4.32069016,40.7968331 4.50689409,34.8043162 4.51165193,28.4602933 C4.51917172,18.4335349 14.4764947,3.50205398 15.663105,3.50205398 L15.663105,3.50205398 L15.9163128,3.58875539 C16.3117925,2.64289323 16.7435024,1.6914124 17.2115449,0.736249284 Z" id="Clothes" fill="#B0B3CC"></path>
                        </g>
                    </g>
                    <polygon id="Path-2" fill="#E9ECEE" points="17 287.201113 17 303 92.6037888 303 94.0178016 208.670372 165 208.670372 165 193 77.7354524 193 77.7354524 287.201113"></polygon>
                </g>
            </g>
        </g>
    </g>
</svg>