<?xml version="1.0" encoding="UTF-8"?>
<svg width="231px" height="199px" viewBox="0 0 231 199" version="1.1" xmlns="http://www.w3.org/2000/svg" xmlns:xlink="http://www.w3.org/1999/xlink">
    <title>88C2B83B-6DD7-469E-A247-7C50C0229A22</title>
    <g id="5.-INCUBATOR-Dashboard-" stroke="none" stroke-width="1" fill="none" fill-rule="evenodd">
        <g id="SEEDFUND--Incubator-Dashboard-blank" transform="translate(-696.000000, -597.000000)">
            <g id="Group-2" transform="translate(696.000000, 597.292675)">
                <g id="Group-38" transform="translate(0.020591, 0.000000)">
                    <path d="M199.01502,139.658878 C201.166543,165.205957 148.988461,181.869442 104.077577,170.240397 C59.1666927,158.611353 38.5637084,113.198623 59.9944336,89.0009349 C81.4251588,64.8032471 196.863498,114.1118 199.01502,139.658878 Z" id="Background-Shape" fill="#DDE3E9" opacity="0.296125545"></path>
                    <g id="Big-Leaf-Plant" transform="translate(149.560470, 58.518134)" opacity="0.771688772">
                        <g id="Plant-Left">
                            <path d="M52.0208412,12.561701 C53.2463576,10.8130818 55.5205654,6.37216303 57.2454568,5.7473289 C58.3564463,5.34487795 58.0325215,9.50792467 58.0462416,10.3017264 C58.0996715,13.37282 57.8008917,16.4244405 57.4319228,19.4697496 C56.7671888,24.961952 54.5935667,29.8531757 51.6122829,34.527605 C50.0781775,36.9328834 48.2787935,39.3673268 45.7865625,40.8681052 C44.6393862,41.559244 43.259045,41.6749636 42.1261364,42.2704359 C40.8066989,42.9636435 41.5252619,42.4032579 40.9306364,43.7791084 C40.104873,45.6892927 39.8407467,48.1536342 39.458679,50.1918688 C37.7044112,59.5484735 33.4573616,109.009926 34.1936371,118.527381 C34.2590302,119.370967 33.0835539,119.572697 33.0248735,118.542855 C32.7129767,113.082348 35.4118903,75.2684159 36.7735379,62.9021729 C38.1351856,50.5359298 39.5131108,39.6109727 40.8947539,35.3326398 C42.5708928,30.1421127 45.5980957,23.900103 48.1180308,19.0597118 C49.2885216,16.8109753 50.5643797,14.6397066 52.0208412,12.561701 Z" id="Leaf" fill="#DEEED4"></path>
                            <path d="M61.134812,73.2644531 C64.3424224,70.9225636 67.8144198,75.3424074 64.9118628,77.6846569 C63.3072605,78.9793103 61.6297425,78.5187668 60.6853455,77.4398635 C60.0722813,78.1830281 59.4984739,78.9600787 58.9471196,79.6164165 C57.2672837,81.6164023 55.6795849,83.6641234 54.162205,85.759591 C51.0100827,90.1128738 48.3087709,94.712024 45.4843571,99.2270752 C42.69703,103.683185 39.9319906,108.162119 37.4055949,112.731128 C35.265379,116.602186 32.4127432,121.156176 31.68,125.4 C32.7917658,116.399585 37.0104132,107.748592 42.0340864,99.8140361 C47.0168818,91.9446623 52.7352184,83.3504325 60.4504343,77.1400949 C59.6652142,75.991756 59.6434163,74.3525896 61.134812,73.2644531 Z" id="Leaf" fill="#D6EBC9"></path>
                            <path d="M0.558721132,51.4889559 C2.345757,51.8372945 5.26575346,55.8665801 6.73880391,57.4017693 C8.48942536,59.2261263 10.0776735,61.1706312 11.5747842,63.2079886 C14.7977572,67.593316 17.68014,72.2558293 20.1311458,77.1180144 C24.1269271,85.0443488 27.3280675,93.1810057 29.6512721,101.81234 C31.0733898,107.095892 31.9941522,112.572087 32.5398455,118.010041 C32.642902,119.035607 33.7216779,126.942523 32.1672279,127.155636 C30.7691641,127.347531 31.2009738,121.151752 31.1335273,120.308974 C30.3711183,110.800856 28.0871569,101.549537 24.9101876,92.5876595 C24.2181981,90.6353994 23.5753154,88.2442295 22.468661,86.4873839 C21.6717148,85.221956 22.4629459,85.6632515 21.0624177,85.1843481 C19.859841,84.7728872 18.4896761,84.8734302 17.2582104,84.3697679 C14.5829729,83.2762713 12.440875,81.1534688 10.5631797,79.0181791 C6.91415939,74.8684308 4.02249645,70.3790526 2.51519473,65.0617627 C1.67904794,62.1134993 0.910671718,59.1480865 0.484270097,56.1086565 C0.373967423,55.3230531 -0.59229518,51.2645936 0.558721132,51.4889559 Z" id="Leaf" fill="#DEEED4"></path>
                            <path d="M7.60575452,3.43800209 C14.3032799,13.4578097 19.8070319,24.4643057 23.3608442,35.6122215 C25.5140303,42.366623 27.019818,49.2976313 28.515938,56.1785727 C30.8324099,66.8328524 33.0235266,77.4863101 33.6467955,88.3298416 C34.2738441,99.2362142 35.5137903,111.815434 31.3739028,122.32 C33.4417974,111.655011 31.4730214,100.302961 31.1244311,89.5717827 C30.9578481,84.448892 30.4751217,79.3760863 29.8418749,74.2831313 C29.2273719,69.3426911 28.2234479,64.4257763 27.2885684,59.5241679 C26.8331713,57.1369961 26.3549017,54.753416 25.8679569,52.3711397 C25.7225872,51.6603846 25.6611799,49.5513264 25.1385312,49.0657783 C24.6124976,48.5770331 21.9286046,48.3777884 21.0859865,48.0191764 C19.3892431,47.2968879 17.7932269,46.2709296 16.3807111,45.1868733 C13.6728999,43.1087646 11.3172404,40.3934632 9.45796542,37.7167934 C5.15608544,31.5234006 3.43619593,23.9652061 3.5231261,16.7924693 C3.53982861,15.3998479 6.13608168,0.403543535 5.09338469,0.19703202 C5.15616389,0.133606872 5.21554821,0.0681184991 5.27154264,0 C6.06095362,1.14017894 6.83559449,2.28808472 7.60575452,3.43800209 Z" id="Leaf" fill="#80BD59" opacity="0.328511083"></path>
                            <path d="M80.1887507,26.213865 C80.2924579,26.0642353 80.9674284,25.0236058 80.6275344,25.0901116 C81.3195709,24.9547033 79.6756821,26.2378153 81.4,25.4505036 C80.5812819,26.2239631 81.0537904,27.2286991 81.0647181,28.2696907 C81.0825464,29.9597986 80.7998514,31.6360473 80.4816298,33.2898921 C79.9787901,35.9041158 79.2296944,38.4459054 78.1423957,40.8774475 C75.7725942,46.1763309 71.74855,51.2774744 66.9712616,54.5902978 C64.6128465,56.2259717 62.3014947,56.7828582 59.6117209,57.5358607 C57.9127458,58.0115817 57.7780145,58.8907005 56.8761944,60.5398615 C54.9986728,63.9747111 53.1545879,67.3972054 51.4987805,70.9479472 C49.5216366,75.1879066 47.6023068,79.4325393 45.7918217,83.7471378 C39.692622,98.2806329 34.7284392,113.337551 32.1214021,128.92 C32.0575709,119.737311 34.181197,110.279926 36.8599459,101.527296 C38.8112534,95.1503279 41.3514893,89.0031238 44.0608989,82.9181501 C44.7174437,81.4439937 45.7123777,79.5477287 45.991191,77.9201962 C46.1864161,76.7798662 45.5895552,75.6832033 45.3162793,74.4819538 C44.2508986,69.8040664 44.3271514,64.5633247 45.2627141,59.8604249 C46.2942437,54.6745854 49.2773796,52.2676613 54.3237392,51.5331207 C56.1692939,51.2644332 58.5150416,51.3629089 60.2073243,50.5757619 C62.0510411,49.7185845 62.811602,46.9010534 63.8600068,45.0924198 C66.6759866,40.2340481 70.0217781,35.5745729 73.8636709,31.4809917 C74.9274545,30.347427 76.0714548,29.3016367 77.2851113,28.3323173 C78.0504423,27.7207307 79.6671823,26.9672569 80.1887507,26.213865 Z" id="Leaf" fill="#DEEED4"></path>
                            <path d="M24.5499376,119.24 L40.5700624,119.24 C41.7850889,119.24 42.7700624,120.224974 42.7700624,121.44 C42.7700624,121.547906 42.7621236,121.655666 42.7463101,121.762407 L41.885981,127.569628 C41.2467334,131.884549 37.5430065,135.08 33.1809905,135.08 L31.9390095,135.08 C27.5769935,135.08 23.8732666,131.884549 23.234019,127.569628 L22.3736899,121.762407 C22.1956294,120.560499 23.0256221,119.441813 24.2275305,119.263752 C24.3342716,119.247939 24.4420315,119.24 24.5499376,119.24 Z" id="Base" fill="#FCE6A3"></path>
                        </g>
                    </g>
                    <g id="Web" opacity="0.864076126">
                        <rect id="Container" fill="#F2F2F2" x="0" y="0" width="115" height="119" rx="2.808"></rect>
                        <rect id="Background" fill="#FFFFFF" x="5.84745763" y="14.9562842" width="103.305085" height="20.1584699" rx="2.808"></rect>
                        <path d="M94.8746887,20.120994 C94.8322043,20.2209299 94.8322043,20.2209299 94.8746887,20.120994 M98.0605612,18.8382257 C98.1853171,18.8907532 98.1853171,18.8907532 98.0605612,18.8382257 M98.1501766,18.8579235 C100.014992,20.9151129 97.1472354,23.3705945 95.4005069,21.3629464 C93.5463855,19.2321809 96.9497416,18.8647906 98.1501766,18.8579235 M96.0723074,16.2750288 C89.7266144,17.3976938 91.9733449,25.8058852 97.9000378,24.5906292 C100.501929,24.0573411 101.990009,21.4512179 101.094464,18.9479242 C100.744473,17.9699325 99.9820006,16.8964564 98.9198894,16.5881909 C98.3902949,16.4346146 97.921842,16.6763303 97.4174235,16.6197965 C96.9363827,16.5659335 96.6693376,16.1679705 96.0723074,16.2750288" id="Fill-259" fill="#E8F0F4"></path>
                        <path d="M100.851448,30.1551804 C98.8733331,30.1655737 96.8947531,30.3053058 94.9169866,30.3676655 C94.3102933,30.3867199 92.7510881,29.935189 92.7486448,31.525748 C92.7459752,33.2252442 94.482854,32.5976047 95.0608453,32.5747009 C97.0226921,32.4967512 98.9895356,32.3537472 100.943597,32.0431032 C101.437109,31.964576 103.145867,32.1000738 103.144125,30.983757 C103.142264,29.8010385 101.250023,30.1551804 100.851448,30.1551804" id="Fill-261" fill="#E8F0F4"></path>
                        <path d="M90.4732171,27.3728921 C90.4732171,28.8021768 96.6394368,28.1869787 97.736396,28.185472 C98.6552901,28.1841159 104.211584,28.6914321 103.812827,27.2205617 C103.485115,26.012013 98.0121096,26.6127465 96.8465243,26.6109384 C95.8390511,26.6095824 90.4732171,25.9172397 90.4732171,27.3728921" id="Fill-286" fill="#CBDEE7" opacity="0.433979833"></path>
                        <path d="M2.808,0 L112.192,0 C113.742816,1.5920901e-16 115,1.25718442 115,2.808 L115,9.10382514 L115,9.10382514 L0,9.10382514 L0,2.808 C-1.89920133e-16,1.25718442 1.25718442,1.17305862e-15 2.808,0 Z" id="Header" fill="#D6DFE6"></path>
                        <g id="Buttons" transform="translate(3.250000, 3.250000)" fill="#F2F2F2">
                            <circle id="buttons" cx="1.404" cy="1.404" r="1.404"></circle>
                            <circle id="buttons" cx="5.616" cy="1.404" r="1.404"></circle>
                            <circle id="buttons" cx="9.828" cy="1.404" r="1.404"></circle>
                        </g>
                        <g id="Components" transform="translate(7.020369, 15.707325)">
                            <rect id="Background" fill="#FFFFFF" x="0" y="22.5057028" width="102.655367" height="74.1311475" rx="2.808"></rect>
                            <text id="?" font-family="TektonPro-Bold, Tekton Pro" font-size="35" font-weight="bold" fill="#F8D874">
                                <tspan x="43.3390403" y="59">?</tspan>
                            </text>
                            <text id="?" font-family="TektonPro-Bold, Tekton Pro" font-size="35" font-weight="bold" fill="#DCE2F1">
                                <tspan x="168.33904" y="24">?</tspan>
                            </text>
                        </g>
                        <g id="List" opacity="0.640647711" transform="translate(9.258201, 16.185466)">
                            <path d="M0.0123761988,3.09055603 C0.0114688518,4.93597737 -0.0818366584,6.81965359 0.258267219,8.6429353 C0.361251097,9.19492006 0.442458648,10.2522005 1.02482416,10.5386603 C1.60976048,10.8263249 2.17685232,10.5031164 2.32217906,9.90353896 C2.49170171,9.20591457 2.11984069,8.16188774 2.08218579,7.4294725 C2.03046702,6.42897189 2.02698885,5.4272664 2.02653518,4.42556091 C2.02623273,3.70218225 2.26426008,2.53842067 1.41029538,2.16626396 C0.77530375,1.88944323 0.0123761988,2.40407676 0.0123761988,3.09055603" id="Fill-253" fill="#DDE9EE"></path>
                            <path d="M29.1867409,0.171754021 C23.0725835,0.785488777 16.8704135,0.91305524 10.7341774,1.23310097 C7.89765965,1.38099975 4.46970291,1.19228573 1.79741495,2.29023085 C1.30139863,2.49415646 -0.475942801,3.62900097 0.966890056,4.0910717 C1.41663169,4.23520524 1.87348087,3.75069366 2.24277108,3.58833634 C2.85780108,3.31829305 3.56976597,3.23470463 4.22562659,3.1292778 C9.80142475,2.2339028 15.6335484,2.3897839 21.2666607,1.97139 C22.7100984,1.86415585 24.1541411,1.7537589 25.5945543,1.61203512 C26.623637,1.51082536 28.7866009,0.769072314 29.7362907,1.14845829 C31.3590807,1.79668268 31.3211233,6.00863512 31.3531829,7.45719975 C31.3698176,8.20633268 30.6427303,10.8954699 32.0881339,10.6228662 C33.2450013,10.4046327 32.8261094,7.61097231 32.7359796,6.84677841 C32.4994645,4.84366866 32.0958464,-0.122989272 29.1867409,0.171754021" id="Fill-255" fill="#DDE9EE"></path>
                            <path d="M31.4415131,10.525738 C26.1306603,11.0052794 20.6974668,10.5347746 15.3648376,10.723338 C12.5696042,10.8224392 9.77724395,10.9798264 6.98170804,11.0721502 C5.77266824,11.1122124 4.56241865,11.1138691 3.35277395,11.1224538 C2.77418906,11.1263697 0.141219464,11.4771398 1.77005844,12.6241837 C2.49124804,13.1320398 4.78955783,12.7229837 5.61705824,12.7130435 C6.85997232,12.6984343 8.1022815,12.6467752 9.34428824,12.5981282 C12.2213342,12.4856227 15.0965654,12.3297416 17.9751235,12.2518764 C20.7286191,12.1773246 23.4834756,12.1613599 26.2368199,12.0868081 C27.6069137,12.0496075 28.9956082,12.0075874 30.3534529,11.8075776 C30.6598337,11.7623947 31.6550421,11.7265496 31.867815,11.384816 C32.0689435,11.0617581 31.9276999,10.4788984 31.4415131,10.525738" id="Fill-257" fill="#CBDEE7"></path>
                            <path d="M5.33993936,6.53840494 C5.31135793,6.60602872 5.31135793,6.60602872 5.33993936,6.53840494 M7.6397614,5.83942506 C7.72369099,5.87496896 7.72369099,5.87496896 7.6397614,5.83942506 M7.53208957,5.8199964 C8.77152548,7.08331103 6.86549202,8.59121591 5.70454161,7.35832445 C4.47221324,6.04982689 6.73422916,5.82421347 7.53208957,5.8199964 M6.2176463,3.90875859 C1.94857895,4.6684342 3.46006773,10.358019 7.44725263,9.53568969 C9.1976761,9.17482872 10.1987822,7.41133908 9.59630385,5.71743116 C9.36084732,5.05565189 8.84789385,4.32926103 8.13335814,4.12066652 C7.77707324,4.01674579 7.4619214,4.18030798 7.12257365,4.14205311 C6.79895324,4.10560555 6.61929855,3.8363153 6.2176463,3.90875859" id="Fill-259" fill="#CBDEE7"></path>
                            <path d="M22.5557436,5.51017707 C19.9814491,5.51831 17.4065497,5.62765268 14.8327089,5.67645024 C14.0431658,5.69136061 12.0140356,5.33803012 12.0108559,6.58266914 C12.0073817,7.91255329 14.2677342,7.42141487 15.0199248,7.40349231 C17.5730479,7.34249536 20.1326736,7.23059231 22.6756646,6.98750817 C23.317915,6.92605939 25.5416711,7.03208866 25.5394045,6.15855207 C25.5369832,5.23305512 23.0744436,5.51017707 22.5557436,5.51017707" id="Fill-261" fill="#E8F0F4"></path>
                            <path d="M14.2169833,33.5793324 C14.2169833,34.2432202 14.8060026,33.5793324 14.8017684,33.5793324 C14.8060026,33.5793324 14.2169833,32.9154446 14.2169833,33.5793324" id="Fill-275" fill="#89C5CC"></path>
                            <path d="M39.2434252,1.58547231 C39.2813825,3.51508451 39.3063346,5.44650402 39.3887519,7.37461012 C39.4149138,7.98427841 39.2402495,9.17484853 39.9792836,9.48570707 C40.8017936,9.83165768 41.0575142,8.96926622 41.1523319,8.38490036 C41.4523613,6.53360524 41.1582297,4.41979731 41.1293458,2.54651317 C41.1196674,1.91756683 41.2557695,1.0419217 40.541385,0.728352192 C39.958717,0.472466216 39.2316297,0.947489387 39.2434252,1.58547231" id="Fill-277" fill="#CBDEE7"></path>
                            <path d="M70.9759033,1.615775 C71.0245976,1.73069024 71.0245976,1.73069024 70.9759033,1.615775 M71.0447105,1.59604512 C71.0841801,1.61261219 71.2440244,1.67963353 71.0447105,1.59604512 M55.4564901,0.0364810941 C52.4941535,0.082868899 49.5300023,0.118111582 46.5696317,0.244924997 C45.3061511,0.299144509 44.0281529,0.342821338 42.7690578,0.461953655 C41.877287,0.546295118 39.6618482,0.581387192 39.0834146,1.3101878 C37.8897997,2.81447805 40.4209952,2.40421707 40.9661595,2.28207256 C41.9583433,2.05962195 42.9710937,1.98838353 43.9847515,1.93491707 C46.1841605,1.81894756 48.3844768,1.75689634 50.5866078,1.71261707 C56.5583117,1.59243048 62.5344011,1.61065426 68.5073148,1.58369512 C69.0855972,1.58113475 70.1307097,1.34859329 70.6648346,1.58249024 C71.1998668,1.81698963 71.1696219,2.39337317 71.2252725,3.06268292 C71.2992213,3.9530878 70.7118654,5.65000792 71.1593386,6.39899024 C71.8536103,7.5607939 72.8630337,6.5743 73.017434,5.72727073 C73.2305093,4.55688231 72.8926737,3.15154268 72.5617946,2.03281341 C72.0951158,0.454423167 71.4471189,0.391618899 69.9203564,0.268269509 C68.1366635,0.124135972 66.3593221,0.0367823136 64.5697315,0.0202152404 C61.5326901,-0.00764756443 58.4933803,-0.0106597596 55.4564901,0.0364810941" id="Fill-279" fill="#CBDEE7"></path>
                            <path d="M67.1728494,8.01301475 C60.7477745,8.75913548 54.1398692,8.31950561 47.6804663,8.34586231 C46.1096975,8.35233853 44.5375677,8.36483914 42.9683112,8.44104768 C42.1394498,8.48110987 40.1747412,8.25263487 39.6068933,8.89197329 C38.4099514,10.2399306 40.5661102,10.4360245 41.3532337,10.3801483 C42.9447202,10.2670404 44.5399873,10.2153812 46.1355569,10.2030312 C51.7556639,10.1596556 57.407528,10.4218672 63.0230982,10.1445946 C65.3756975,10.0284745 67.675822,9.62604524 69.9848688,9.17632451 C70.4964612,9.07662085 73.9983667,8.41092573 72.0014473,7.61299524 C70.8212914,7.14143609 68.4125877,7.86827878 67.1728494,8.01301475" id="Fill-281" fill="#CBDEE7"></path>
                            <path d="M48.4133304,5.54560524 C48.368568,5.60313817 48.368568,5.60313817 48.4133304,5.54560524 M48.3702315,5.535665 C48.3549578,5.57693207 48.3077757,5.67889487 48.3702315,5.535665 M47.9649498,5.01289853 C47.9743257,5.02494731 48.0125855,5.07389548 47.9649498,5.01289853 M47.9493737,5.00898268 C48.1040764,5.19363024 48.20827,5.39966439 48.2618035,5.62693451 C46.9305743,5.98749426 46.4176209,4.91063451 47.9493737,5.00898268 M47.8651417,4.95852841 C47.8655953,4.95882963 48.0528113,5.03759853 47.8651417,4.95852841 M45.6782843,3.35408268 C44.8167584,4.42702658 44.1055496,5.67738878 45.1796972,6.90290036 C46.1401239,7.99858634 48.0724704,8.1400089 49.2913398,7.40849731 C50.5469568,6.65469548 50.4385288,5.06787109 49.5626366,4.0321278 C48.9987204,3.3652278 48.5415688,3.3837528 47.7232931,3.27486195 C47.1661821,3.20076195 46.1510121,2.76760829 45.6782843,3.35408268" id="Fill-284" fill="#CBDEE7"></path>
                            <path d="M54.5844389,5.33984219 C54.5844389,6.76852634 60.7533395,6.1535867 61.8507757,6.15208061 C62.7700693,6.15072512 68.3287791,6.65782817 67.9298489,5.18757573 C67.6019942,3.97953487 62.1266091,4.58001597 60.9605171,4.57820866 C59.9526059,4.57685317 54.5844389,3.88480134 54.5844389,5.33984219" id="Fill-286" fill="#CBDEE7"></path>
                        </g>
                        <g id="Whiteboard-Stuff" opacity="0.5" transform="translate(58.231130, 93.714732) scale(1, -1) translate(-58.231130, -93.714732) translate(26.539597, 79.203814)">
                            <path d="M10.8876901,1.10812793 C11.7863961,1.11289365 13.0019267,0.918943179 13.8968731,1.12690199 C15.6393361,1.53141076 15.5290042,4.51865245 15.5647211,5.96309969 C15.6287801,8.55406431 15.5916172,11.2778915 15.3810756,13.8627906 C15.308485,14.7552805 14.6592187,15.8864898 13.9185635,14.6562113 C13.5055781,13.970236 13.6896573,12.3677979 13.6890789,11.6099035 C13.6870545,8.91553716 14.1092945,6.13972027 13.705419,3.45921783 C13.5729629,2.58044744 13.6023173,2.52109253 12.7082385,2.53957775 C11.9991067,2.55430817 11.2899749,2.57784795 10.580843,2.59272278 C9.13669548,2.62305011 7.6919695,2.64283508 6.24840035,2.69569128 C6.13299214,2.69994775 5.95456438,2.71856099 5.73043077,2.74528527 L5.36211517,2.79067424 C4.4992043,2.89881436 3.24496339,3.059642 2.19373953,3.0587527 C2.19446254,3.07102805 2.19576397,3.0833034 2.19605317,3.09586758 C2.21716517,4.13465072 1.70787432,5.39540102 1.63860961,6.48834011 C1.47202726,9.11699726 1.67085602,11.8071756 1.42474216,14.4225464 C1.41727842,14.5019568 1.41317863,14.5864895 1.40855891,14.6716157 L1.46596079,14.6635619 L1.46596079,14.6635619 L1.54334533,14.656529 C2.68845442,14.5838878 3.8486022,14.6139263 4.99602494,14.5873538 C5.5181051,14.575255 6.04476256,14.5721848 6.5738138,14.571709 L8.16596534,14.5716301 C9.49510354,14.5673264 10.8255559,14.5390226 12.1232048,14.3861825 C12.5979356,14.3246614 12.7639395,14.933663 12.5509397,15.249356 C12.3119114,15.6037525 11.5469629,15.5857005 11.1928308,15.6381235 C10.1560291,15.7916375 9.1054902,15.8452158 8.05943398,15.8915733 C6.96074237,15.9402414 5.86118314,15.9766342 4.76176851,16.0072504 C3.80955946,16.033534 1.69647963,16.4318329 0.815559738,16.0332452 C0.128756021,15.7225049 0.145119452,15.3774449 0.425704557,15.1101981 C0.255363408,14.7383755 0.283442721,14.1260472 0.246952845,13.8323189 C0.0945415572,12.602618 0.00271881752,11.3886584 0.000549776426,10.1484152 C-0.00378830577,7.71905191 0.00112818738,5.19596274 0.673097119,2.8444396 C0.40399142,2.72659627 0.241602544,2.55286401 0.242325557,2.30244694 C0.245940626,0.815252605 5.70165739,1.17037116 6.80801295,1.14091033 C8.16771252,1.10538403 9.52770128,1.10076272 10.8876901,1.10812793 Z" id="Wireframy-Stuff" fill="#BBD0DB"></path>
                            <path d="M55.3675769,1.95132744 C56.9417223,1.94338457 58.5180368,1.97169008 60.0914592,2.02006939 C60.6750759,2.03797695 64.7339302,2.14007895 62.9197442,3.12412849 C62.8163911,3.18019423 62.7001155,3.22708369 62.5732905,3.26604622 C62.6468063,3.71198639 62.6560138,4.1749761 62.6438566,4.39778957 C62.5667834,5.81277598 62.5336693,7.23036188 62.4707672,8.64607038 C62.4007794,10.2262685 62.333973,11.8063222 62.2796023,13.3872425 C62.2506818,14.2229769 62.536706,16.1662365 61.8752931,16.7696059 C61.4292425,17.1766483 61.1245541,17.0947239 60.9193132,16.8179769 C59.3386012,17.2783516 55.6847123,16.9820246 55.0193157,16.9823449 C54.5316955,16.9825221 53.1601929,17.1108663 51.7088567,17.1680708 L51.223224,17.1842308 C49.27769,17.2361444 47.3490539,17.1222182 47.3432093,16.3700217 C47.3423828,16.2633739 47.3769315,16.1677419 47.4418966,16.0820637 C47.2648685,15.9006853 47.1033445,15.6322968 46.999749,15.2971708 C46.6291321,14.0979417 46.5941383,12.8038313 46.5666637,11.5602665 C46.5073766,8.8752872 46.5377432,6.18554215 46.5206801,3.49969633 L46.5196301,3.57905022 C46.2807149,3.25574965 46.4239044,2.88646084 46.7240928,2.62863774 C47.5369048,1.93096481 49.8787461,2.10801863 50.9103421,2.05342944 C52.395123,1.97486723 53.8809161,1.95681525 55.3675769,1.95132744 Z M58.1871857,3.30118232 C56.66958,3.3010379 55.1529865,3.28385242 53.6355253,3.31389091 C51.9965978,3.34638447 50.3400289,3.36559178 48.7126696,3.5817823 C48.6231204,3.59369521 48.5154492,3.61671102 48.3963116,3.6446031 C48.6459409,4.67806518 48.3447291,6.34641294 48.3436868,7.30722 C48.3406502,9.99739829 48.439703,12.6729906 48.5000024,15.3490161 C48.5019953,15.4374123 48.4998985,15.5194804 48.4941083,15.5954113 C50.2975106,15.2077182 53.6669536,15.4655577 54.3756889,15.4629458 C55.6951889,15.4577468 57.0151227,15.4760876 58.3336105,15.5287994 C58.7448144,15.5452263 59.7509134,15.4660074 60.5450388,15.5542475 C60.5365856,15.482802 60.5317732,15.4167989 60.528897,15.3598184 C60.4568848,13.9367447 60.5352595,12.4987962 60.5812432,11.0757225 C60.6273714,9.64138436 60.6980822,8.20820155 60.7533204,6.77415224 C60.7817771,6.03608558 60.5952305,4.4948972 60.7976777,3.43328936 C59.8401473,3.41724973 58.8341063,3.30125975 58.1871857,3.30118232 Z" id="Wireframy-Stuff" fill="#BBD0DB"></path>
                            <path d="M33.2675769,0.00132744484 C34.8417223,-0.00661542645 36.4180368,0.0216900785 37.9914592,0.0700693854 C38.5750759,0.0879769498 42.6339302,0.19007895 40.8197442,1.17412849 C40.7163911,1.23019423 40.6001155,1.27708369 40.4732905,1.31604622 C40.5468063,1.76198639 40.5560138,2.2249761 40.5438566,2.44778957 C40.4667834,3.86277598 40.4336693,5.28036188 40.3707672,6.69607038 C40.3007794,8.27626852 40.233973,9.85632224 40.1796023,11.4372425 C40.1506818,12.2729769 40.436706,14.2162365 39.7752931,14.8196059 C39.3292425,15.2266483 39.0245541,15.1447239 38.8193132,14.8679769 C37.2386012,15.3283516 33.5847123,15.0320246 32.9193157,15.0323449 C32.4316955,15.0325221 31.0601929,15.1608663 29.6088567,15.2180708 L29.123224,15.2342308 C27.17769,15.2861444 25.2490539,15.1722182 25.2432093,14.4200217 C25.2423828,14.3133739 25.2769315,14.2177419 25.3418966,14.1320637 C25.1648685,13.9506853 25.0033445,13.6822968 24.899749,13.3471708 C24.5291321,12.1479417 24.4941383,10.8538313 24.4666637,9.61026653 C24.4073766,6.9252872 24.4377432,4.23554215 24.4206801,1.54969633 L24.4196301,1.62905022 C24.1807149,1.30574965 24.3239044,0.936460841 24.6240928,0.678637742 C25.4369048,-0.0190351888 27.7787461,0.158018633 28.8103421,0.103429445 C30.295123,0.024867227 31.7809161,0.00681524682 33.2675769,0.00132744484 Z M36.0871857,1.35118232 C34.56958,1.3510379 33.0529865,1.33385242 31.5355253,1.36389091 C29.8965978,1.39638447 28.2400289,1.41559178 26.6126696,1.6317823 C26.5231204,1.64369521 26.4154492,1.66671102 26.2963116,1.6946031 C26.5459409,2.72806518 26.2447291,4.39641294 26.2436868,5.35722 C26.2406502,8.04739829 26.339703,10.7229906 26.4000024,13.3990161 C26.4019953,13.4874123 26.3998985,13.5694804 26.3941083,13.6454113 C28.1975106,13.2577182 31.5669536,13.5155577 32.2756889,13.5129458 C33.5951889,13.5077468 34.9151227,13.5260876 36.2336105,13.5787994 C36.6448144,13.5952263 37.6509134,13.5160074 38.4450388,13.6042475 C38.4365856,13.532802 38.4317732,13.4667989 38.428897,13.4098184 C38.3568848,11.9867447 38.4352595,10.5487962 38.4812432,9.1257225 C38.5273714,7.69138436 38.5980822,6.25820155 38.6533204,4.82415224 C38.6817771,4.08608558 38.4952305,2.5448972 38.6976777,1.48328936 C37.7401473,1.46724973 36.7341063,1.35125975 36.0871857,1.35118232 Z" id="Wireframy-Stuff" fill="#BBD0DB"></path>
                            <path d="M11.4057174,18.5507838 C10.4299381,19.1207931 10.9561475,21.4009748 11.2942287,22.1896297 C11.849937,23.4863396 12.9775492,24.5010053 14.1942366,25.1741275 C16.6534954,26.5345247 20.1984316,26.1731963 22.058312,28.5317958 C22.0775442,28.5562021 22.720448,29.1926427 22.8667859,28.3684615 C22.9869508,27.6920177 21.7867481,26.6590112 21.3217057,26.3199228 C19.999169,25.3558026 18.3029789,25.0448753 16.7732265,24.5632485 C15.1418184,24.0495613 13.3514919,23.1026267 12.6675209,21.4207598 C12.4253113,20.8250444 12.8870279,17.681256 11.4057174,18.5507838" id="Fill-135" fill="#C1DEE2"></path>
                            <path d="M38.5873239,20.5966688 C36.7888349,20.9937294 34.948916,20.6041511 33.1430526,20.7602817 C32.1964632,20.8423375 31.2508469,20.9726542 30.3041552,21.0490984 C29.894721,21.0822699 29.4848771,21.0836416 29.0752381,21.0907498 C28.8793037,21.0939921 27.9876641,21.38443 28.5392608,22.3341829 C28.7834874,22.754688 29.5617964,22.4159893 29.8420246,22.4077588 C30.2629301,22.3956624 30.6836308,22.3528886 31.104229,22.3126089 C32.0785236,22.2194543 33.0522037,22.0903847 34.0270105,22.0259122 C34.9594655,21.9641833 35.8923814,21.9509645 36.8247852,21.8892356 C37.2887594,21.8584335 37.7590326,21.8236408 38.2188587,21.6580326 C38.3226127,21.6206211 38.6596342,21.5909414 38.7316885,21.3079858 C38.7997995,21.0404937 38.7519681,20.5578856 38.5873239,20.5966688" id="Fill-257" fill="#89C5CC" transform="translate(33.561676, 21.569466) rotate(90.000000) translate(-33.561676, -21.569466) "></path>
                            <path d="M53.8623096,18.9970155 C52.9680862,19.2435334 53.5595114,20.4739563 53.5580654,21.0900343 C53.5563302,21.8586154 53.3106501,22.6630117 52.8369315,23.2763458 C51.6357166,24.8318488 49.2836084,25.064936 47.520178,25.5108921 C46.2397207,25.8349612 43.1761671,26.5297458 43.0562914,28.2614362 C42.9223893,30.1953087 45.6270389,27.8419082 45.8555113,27.7454384 C48.3834563,26.8181443 51.6539365,26.6390686 53.6050613,24.5978951 C54.4104985,23.7553731 54.8865308,22.6308069 54.962158,21.4701368 C55.0048158,20.8166551 55.0120459,18.6829111 53.8623096,18.9970155" id="Fill-137" fill="#C1DEE2"></path>
                        </g>
                        <g id="Group-49" transform="translate(37.683616, 38.366120)" fill="#F8D874" fill-rule="nonzero">
                            <g id="light-bulb-outlined-hand-drawn-tool">
                                <path d="M10.7892079,25.3347848 C10.3141407,25.9095661 9.9395955,26.5800409 9.50714961,27.1897513 C9.09139039,27.7756934 8.44684297,28.2781361 8.11873898,28.9143017 C8.02444929,29.0968015 8.18166578,29.3741681 8.40060282,29.2910821 C9.0107717,29.0595988 9.38230122,28.3779632 9.74578897,27.8558858 C10.238347,27.1482083 10.7656858,26.3857603 11.1072597,25.5871429 C11.1923014,25.3883153 10.9504453,25.1398842 10.7892079,25.3347848 Z" id="Path"></path>
                                <path d="M6.95172895,18.6444234 C6.13033915,18.082754 4.90217223,18.1991719 3.95630908,18.2017537 C2.69881481,18.2052744 1.38602392,18.3414083 0.163453828,18.6568632 C-0.0861644943,18.7211747 -0.0373601946,19.1511699 0.224795012,19.1316887 C1.32557823,19.0500084 2.41472006,18.939693 3.51998073,18.9342946 C4.64068864,18.9288962 5.79229102,19.3194595 6.88725354,19.1640791 C7.13933447,19.128168 7.12478273,18.762719 6.95172895,18.6444234 Z" id="Path"></path>
                                <path d="M12.0912672,8.72490079 C11.6230918,8.16337846 10.7852408,7.84636105 10.1109141,7.47061451 C9.25018426,6.9911931 8.38680524,6.48560326 7.46755343,6.08668469 C7.22527748,5.9816115 6.93339034,6.25647978 7.16266143,6.41448909 C7.89430591,6.91908013 8.70373879,7.34756302 9.48090032,7.80221433 C10.205079,8.22630252 10.9111954,8.8571412 11.7577163,9.08466661 C11.9956573,9.14878923 12.2388966,8.90168744 12.0912672,8.72490079 Z" id="Path"></path>
                                <path d="M20.2223198,0.274224009 C20.1592716,-0.00579971997 19.7912275,-0.0766567881 19.5332552,0.086122963 C19.1042646,0.35699698 19.2345643,0.974283331 19.2335134,1.35282605 C19.2300983,2.8497614 19.1804479,4.42138394 19.444725,5.90576505 C19.4820285,6.11535728 19.9307217,6.1164212 19.9664491,5.90576505 C20.1348404,4.91248939 20.0428951,3.87623136 20.0599706,2.87593384 C20.0696905,2.3075878 20.0830883,1.73839063 20.1261713,1.17110852 C20.1408825,0.978751794 20.2068204,0.780649901 20.2091847,0.58956988 C20.2102356,0.50743526 20.2078712,0.457431023 20.203668,0.423172801 C20.2236333,0.375296403 20.2336159,0.324228246 20.2223198,0.274224009 Z" id="Path"></path>
                                <path d="M32.2724135,3.21976385 C31.6504564,2.51726744 30.7861632,3.98099508 30.5197096,4.36590554 C30.1157389,4.94977153 29.7412196,5.55406702 29.3488439,6.14582622 C29.0522432,6.59365027 28.4738834,7.10833452 28.3298732,7.62069723 C28.2899863,7.762543 28.3507442,7.96103422 28.4945225,8.02557289 C28.5051899,8.03044811 28.5158574,8.03532333 28.5265248,8.0399664 C28.6733178,8.10589799 28.8363439,8.10729091 28.9569321,7.98448172 C29.0803032,7.85865454 29.1415249,7.70636186 29.3128994,7.63276921 C29.4441551,7.57612376 29.4362704,7.45285027 29.3713383,7.36045319 C29.4958689,7.2306794 29.6234141,7.10369145 29.7036517,6.99527578 C30.0090647,6.58273905 30.2936066,6.15418374 30.5818589,5.72957504 C30.8617628,5.31727047 31.1428262,4.90566237 31.439195,4.50473332 C31.5614066,4.33920789 31.6938218,4.18227215 31.8324983,4.03044377 C31.9083297,3.94779714 32.196582,3.77739649 32.0386578,3.78366463 C32.3350266,3.77182481 32.4648909,3.4370595 32.2724135,3.21976385 Z" id="Path"></path>
                                <path d="M42.0920545,16.1714655 C40.3973988,16.2267843 38.7048785,16.2668285 37.0123583,16.3696224 C36.438362,16.4045063 34.6956597,16.2686862 34.3988388,16.952947 C34.3245267,17.1242702 34.5916656,17.2553427 34.7123159,17.1294305 C34.7477636,17.0924825 35.7488404,17.1079635 35.8641522,17.100739 C36.5701163,17.0569794 37.2773618,17.0307649 37.9841801,17.0068209 C39.3495566,16.9607907 40.7262508,16.9054719 42.092268,16.9415942 C42.6154417,16.9554239 42.5945148,16.1173851 42.0920545,16.1714655 Z" id="Path"></path>
                                <path d="M35.3151577,26.7314337 C35.0823422,26.4276369 34.6139667,26.3091049 34.2869272,26.1383067 C33.7661797,25.866243 33.2568671,25.5703795 32.7466397,25.2787159 C32.2027936,24.9688526 31.1132718,24.0679623 30.453704,24.2875266 C30.330664,24.3285928 30.3091663,24.4625247 30.3834934,24.5595903 C30.8575863,25.176517 31.9384176,25.5895126 32.5947836,26.0018082 C33.2269075,26.3984706 34.3816086,27.4393594 35.1770235,27.2657613 C35.4315655,27.2099952 35.4482605,26.9047985 35.3151577,26.7314337 Z" id="Path"></path>
                            </g>
                        </g>
                    </g>
                    <path d="M160.550372,146.510559 C164.96865,146.510559 168.550372,150.092281 168.550372,154.510559 L168.550372,186.017549 C168.550372,190.435827 164.96865,194.017549 160.550372,194.017549 L123.025477,194.017549 C118.607199,194.017549 115.025477,190.435827 115.025477,186.017549 L115.025477,154.510559 C115.025477,150.092281 118.607199,146.510559 123.025477,146.510559 L160.550372,146.510559 Z M156.045486,157.512177 L127.03013,157.512177 C125.925561,157.512177 125.03013,158.407608 125.03013,159.512177 L125.03013,159.512177 L125.03013,181.01593 C125.03013,182.120499 125.925561,183.01593 127.03013,183.01593 L127.03013,183.01593 L156.045486,183.01593 C157.150056,183.01593 158.045486,182.120499 158.045486,181.01593 L158.045486,181.01593 L158.045486,159.512177 C158.045486,158.407608 157.150056,157.512177 156.045486,157.512177 L156.045486,157.512177 Z" id="Seat" fill="#DCE2F1"></path>
                    <g id="A-Human/Standing" transform="translate(137.831664, 125.746647) scale(-1, 1) translate(-137.831664, -125.746647) translate(92.535566, 53.510656)">
                        <g id="Head/Front">
                            <g id="Head" transform="translate(17.058088, 3.641866)" fill="#F1D1B4">
                                <path d="M17.1224338,4.15807035 C19.7237073,9.07510056 19.4146083,21.5475555 16.0526941,22.4263659 C14.7118594,22.7768625 11.8553608,21.9181889 8.94822771,20.1410518 L10.7735294,33.2320303 L0,33.2320303 L3.70859586,15.7006794 C1.64029147,13.2385045 0.240456743,10.2211257 0.474383788,6.84008683 C1.14842691,-2.9021216 14.5211603,-0.758959871 17.1224338,4.15807035 Z"></path>
                            </g>
                            <path d="M35.1976126,10.0076815 C35.0908956,9.37033225 34.8300858,8.66256281 34.6196432,8.05957054 C34.3483287,7.28223401 33.9377394,6.58136699 33.4858964,5.92082871 C32.6352212,4.67722987 31.6147308,3.55422948 30.4880104,2.62217018 C28.4299161,0.919676777 25.8100616,-0.0623281195 23.2337566,0.256579173 C21.9329775,0.417583925 20.670252,0.920762551 19.5954988,1.75828197 C18.6244711,2.51498879 17.6904536,3.62891521 16.4330849,3.70895226 C15.0649641,3.79596928 13.8108651,2.57137148 12.7136414,1.81505243 C11.4765169,0.962409734 10.1604329,0.341114423 8.71453536,0.0996072955 C6.29232304,-0.304843466 4.01682926,0.525075536 2.34747988,2.54042692 C0.571065624,4.68506295 -0.720252229,7.83016204 0.446330525,10.6717873 C0.663173416,11.2000163 0.94214037,11.6453387 1.34250317,12.0144243 C1.70968211,12.3528755 2.2704683,12.7129646 2.41934343,13.2537576 C2.57747109,13.8285973 2.1051056,14.5701808 1.92193353,15.0888705 C1.65952372,15.8320051 1.44407218,16.6120561 1.52066635,17.4197943 C1.64651454,18.7462997 2.46852788,20.0126222 3.33652556,20.8844987 C4.21982815,21.771731 5.30696446,22.2804936 6.46812092,22.5150208 C7.24345426,22.6716049 8.03583172,22.7580014 8.8238264,22.6992145 C9.21500625,22.6700538 9.56020176,22.5598477 9.93920724,22.4722103 C10.3077775,22.386977 10.5137679,22.4862478 10.8264752,22.6912264 C12.2791208,23.6436051 13.8410575,24.0120702 15.5184072,23.8704543 C16.9340427,23.7508641 18.5656863,23.4029511 19.7205121,22.4193176 C21.0029949,21.3268739 20.9774635,19.8204403 20.6756783,18.2109356 C20.995412,18.3716302 21.8799668,18.4711336 21.3513905,17.8306046 C21.1419914,17.5769213 20.7463592,17.4736952 20.4776883,17.3244788 C20.1648418,17.150755 19.8471951,16.9262325 19.6042643,16.6428455 C18.6233581,15.498595 19.6140734,13.1699203 20.8469543,12.7861768 C22.6786749,12.216068 23.0887772,14.8430978 24.3963739,15.5226371 C25.1481934,15.9133606 25.9346575,15.379315 26.4979482,14.8340238 C27.2524807,14.1035307 27.7667261,13.135796 28.2107079,12.1509991 C28.5764259,11.3400036 28.9167517,10.5176074 29.289496,9.7106448 C29.4635547,9.33380371 30.0661512,8.26850445 29.7635312,7.84241577 C31.0755107,7.57709917 32.5367827,8.12999073 33.6667032,8.855055 C34.133712,9.15480614 34.4897601,9.48526917 34.7388824,10.0144288 C34.7922409,10.1278146 34.9084192,10.4648699 35.0543029,10.4786747 C35.3258957,10.504423 35.2243962,10.1678331 35.1976126,10.0076815" id="hair" fill="#8F8F8F"></path>
                        </g>
                        <g id="Bottom/Skinny-Jeans-1" transform="translate(4.600980, 72.496847)">
                            <path d="M64.4424689,9.00017223 L64.4879441,8.97235873 C68.0807291,6.87856786 74.04856,9.62338052 74.0444466,12.6773425 C74.0390051,16.7150512 72.4072543,27.349239 70.5439837,38.2261985 L70.1600735,40.452403 C67.8854611,53.5584935 65.4129122,66.3882753 65.1801153,67.8373053 C64.7408758,70.5713242 60.0355189,71.2934818 59.7615106,67.8462652 C59.3255171,62.3611615 58.5154952,43.3728753 59.325955,34.583901 C59.6605362,30.9555592 60.0208653,27.5000684 60.3755975,24.4173562 C55.9615007,32.3535625 49.1341481,43.7161188 39.8938948,58.5052811 L34.8777961,56.2239284 C38.8167832,43.3047926 42.0466935,34.1842264 44.5675267,28.8622299 C48.8838053,19.7496798 52.931022,11.9459955 54.6343649,9.19721101 C57.313937,4.87302806 61.9783177,6.38226217 64.4424689,9.00017223 Z" id="Skin" fill="#B28B67"></path>
                            <path d="M42.1551235,58.2596445 L44.2253769,9.31211532 C45.8421783,1.69521504 59.4272564,5.20936598 59.4157255,9.29001757 C59.3894989,18.55436 53.6768756,55.4908555 53.6690662,58.2510126 C50.6986229,59.1499971 48.5468413,59.59999 47.2137215,59.6009914 C45.9881874,59.6019082 44.3019881,59.1547926 42.1551235,58.2596445 Z" id="LegLower" fill="#E8B09F" transform="translate(50.785425, 32.210872) rotate(20.000000) translate(-50.785425, -32.210872) "></path>
                            <g id="Right-Shoe" transform="translate(43.694640, 61.125593) rotate(30.000000) translate(-43.694640, -61.125593) translate(31.063529, 56.572949)" fill="#A7A1A1">
                                <path d="M0.797900208,2.59972189 C0.265966736,3.98317949 0,5.01074692 0,5.68242416 C0,6.46430227 0.130847076,7.60525689 0.392541227,9.10528801 C1.30369669,9.10528801 9.49240424,9.10528801 24.9586639,9.10528801 C25.5970503,7.00435434 25.2285366,5.87012786 23.8531228,5.70260856 C22.477709,5.53508926 21.3351294,5.38383275 20.425384,5.24883902 L8.9260637,0.145576287 C8.74938123,0.0671666912 8.54258826,0.146832595 8.46417866,0.323515064 C8.46299271,0.326187409 8.46184028,0.328874509 8.46072166,0.331575732 L7.69331059,2.18470331 L7.69331059,2.18470331 C6.42003715,2.77609485 5.38537029,3.07179062 4.58931001,3.07179062 C3.91227223,3.07179062 2.96520957,2.78685991 1.74812203,2.21699847 L1.74813424,2.21697239 C1.39799838,2.05303272 0.981257819,2.20397456 0.817318153,2.55411043 C0.810309033,2.56908023 0.803832325,2.58429358 0.797900208,2.59972189 Z" id="shoe"></path>
                            </g>
                            <g id="Right-Shoe" transform="translate(57.928889, 62.869846)" fill="#A7A1A1">
                                <path d="M0.797900208,2.59972189 C0.265966736,3.98317949 0,5.01074692 0,5.68242416 C0,6.46430227 0.130847076,7.60525689 0.392541227,9.10528801 C1.30369669,9.10528801 9.49240424,9.10528801 24.9586639,9.10528801 C25.5970503,7.00435434 25.2285366,5.87012786 23.8531228,5.70260856 C22.477709,5.53508926 21.3351294,5.38383275 20.425384,5.24883902 L8.9260637,0.145576287 C8.74938123,0.0671666912 8.54258826,0.146832595 8.46417866,0.323515064 C8.46299271,0.326187409 8.46184028,0.328874509 8.46072166,0.331575732 L7.69331059,2.18470331 L7.69331059,2.18470331 C6.42003715,2.77609485 5.38537029,3.07179062 4.58931001,3.07179062 C3.91227223,3.07179062 2.96520957,2.78685991 1.74812203,2.21699847 L1.74813424,2.21697239 C1.39799838,2.05303272 0.981257819,2.20397456 0.817318153,2.55411043 C0.810309033,2.56908023 0.803832325,2.58429358 0.797900208,2.59972189 Z" id="shoe"></path>
                            </g>
                            <path d="M75.2510958,15.7968196 C75.2510958,27.315864 69.6802128,60.7670367 69.6767354,63.3034309 C67.3890142,65.1974264 65.6623073,66.2290197 64.4966146,66.3982107 C62.9548846,66.6219806 60.6204575,66.1798287 57.4933333,65.071755 C59.5142867,35.5357507 60.2731236,20.6386063 59.7698441,20.3803219 C59.0149248,19.9928952 28.8232537,23.3810921 19.7682803,23.3810921 C6.71096385,23.3810921 1.30941352,15.1843239 0.871111111,-2.11340916e-13 L26.7371692,-2.11340916e-13 C32.0037309,0.56100148 59.4745995,6.07680711 69.6767354,7.97294262 C74.0444444,8.7847107 75.2510958,12.6236194 75.2510958,15.7968196 Z" id="Leg-and-Butt" fill="#FBBDAB"></path>
                        </g>
                        <path d="M54.5049397,79.6821789 L85.3903306,77.1128062 L86.4697524,76.0212788 L86.5038055,74.9678109 C86.5226135,74.385967 86.3052682,73.8792866 86.0183206,73.8360374 L55.1329297,76.4054102 C54.8459822,76.3621609 54.5981425,76.798856 54.5793386,77.3805723 L54.5049397,79.6821789 Z" id="Path" fill="#DAD8DB" fill-rule="nonzero" transform="translate(70.504940, 76.759108) rotate(6.000000) translate(-70.504940, -76.759108) "></path>
                        <path d="M54.4814919,76.7195305 C54.1896383,76.6762215 53.9372725,77.1217308 53.9177816,77.714666 L53.882492,78.7882154 C53.8435145,79.9739559 54.2851112,81.0055337 54.8687544,81.0921423 L85.7526773,78.4831929 C86.3363205,78.5698015 86.8411205,77.6786624 86.880098,76.4929219 L55.996175,79.1018712 C55.4125318,79.0152627 54.9709309,77.9838149 55.0099127,76.7979444 L54.4814919,76.7195305 Z" id="Path" fill="#C8C5C9" fill-rule="nonzero" transform="translate(70.380098, 78.792532) rotate(4.000000) translate(-70.380098, -78.792532) "></path>
                        <path d="M67.9659274,59.1049713 C67.6369582,59.0408024 67.3523549,59.7018289 67.3302081,60.581508 L67.2901097,62.1742267 C67.2458209,63.933392 67.7432889,65.4637045 68.4011551,65.5920281 L103.214784,61.7125158 C103.872651,61.8408394 104.441934,60.5186077 104.486223,58.7594424 L69.6725938,62.6389547 C69.0147276,62.5106311 68.5172548,60.9805115 68.5615484,59.2211533 L67.9659274,59.1049713 Z" id="Path" fill="#C8C5C9" fill-rule="nonzero" transform="translate(85.886795, 62.175735) rotate(-86.000000) translate(-85.886795, -62.175735) "></path>
                        <g id="Body/Long-Sleeve-1" transform="translate(5.704852, 26.496847)">
                            <path d="M37.7851013,30.9885932 L52.4420196,39.9108494 C56.265198,40.5935126 60.5340363,43.3457147 63.171358,44.6286777 C63.8105622,45.1170546 61.8787006,46.5515581 59.613602,45.4364972 C57.3485033,44.3214364 56.0420106,44.5683862 55.7766935,45.4364972 C55.684808,45.7371445 55.8134481,46.0383612 55.996561,46.3531741 C58.944342,46.7450581 60.6854172,47.5104462 62.9006773,49.362475 C64.4266383,50.6382275 66.0993812,53.499665 65.1691897,54.7454366 C64.5404422,55.5874953 58.6867894,51.7385214 57.6218513,51.4934823 C56.3557089,51.7402998 54.7158931,52.0651652 52.7024037,52.4680785 L52.7024037,52.4680785 L45.4831078,50.2896764 L44.4728298,43.7187066 C47.4204334,45.0208547 50.0848345,45.7935622 52.4660332,46.0368293 C51.6192995,45.2805548 50.6416652,44.3554813 49.5327573,43.2607274 L35.4006808,38.7903597 L37.7851013,30.9885932 Z" id="Skin" fill="#F1D1B4"></path>
                            <path d="M18.8236031,25.8707606 C24.0406881,26.6438061 31.1596169,26.6484267 39.3123656,23.1245152 L41.1990954,30.0748011 C35.2871756,34.3329993 27.44211,37.3566381 21.1851742,36.1810478 C16.2543639,35.2546178 14.667956,28.8639624 18.8236031,25.8707606 Z" id="Sleeve" fill="#7C89A8" transform="translate(28.819098, 29.780599) rotate(41.000000) translate(-28.819098, -29.780599) "></path>
                            <path d="M11.1431316,1.13686838e-13 L17.2,1.414 L21.0045233,2.25 C21.6045967,9.96550794 24.4500192,17.8029192 27.1710417,25.6041374 L27.5779658,26.7740289 C27.7130987,27.1638891 27.8476244,27.5536391 27.9812467,27.943259 L28.3791069,29.111709 C29.0346689,31.0523891 29.6604247,32.989348 30.2196895,34.9201384 C35.2854963,36.5957419 40.720128,38.0177484 46.5222755,39.187596 C47.3880099,42.2666444 47.697643,45.2462465 47.4511746,48.1264023 C41.751903,51.1058035 36.7279445,50.7041526 32.5892747,49.7435109 C32.5402063,52.8086525 32.0624759,55.8407692 30.998361,58.8291718 C29.8803195,61.9690192 23.5316024,62.0100888 16.6246003,61.5685971 C15.7643048,61.5136075 14.8128741,57.6905106 13.9442849,57.6256037 C13.0484824,57.5586632 12.2355449,61.249758 11.3504279,61.1831915 C6.886928,60.8475079 2.68522342,60.587092 0.0153947379,61.1131015 C1.06254505,53.5197553 0.106354875,47.8842052 0.0153947379,43.4764023 C-0.0997525817,37.8965218 0.46868314,34.0705829 0.472947169,28.3706451 C0.481305439,17.1977336 9.44563214,0 10.7645533,0 L10.7645533,0 L11.1067683,0.0747658084 C11.1188378,0.0498264892 11.1309588,0.0249045235 11.1431316,1.13686838e-13 Z" id="Clothes" fill="#8E9EC6"></path>
                        </g>
                    </g>
                    <path d="M187.38635,58.3924108 C188.601347,57.3236673 189.945001,54.8101244 189.945001,53.1159788 C189.945001,50.26116 191.103916,47.9960635 186.075761,47.9960635 C185.446462,47.9960635 179.825363,49.5375066 177.525668,51.9394651 C175.115072,54.4572558 176.068537,57.8593042 177.525668,58.6925478 C180.560495,60.4279791 186.817181,58.8930668 187.38635,58.3924108 Z" id="Oval" fill-opacity="0.2" fill="#8FC1F6"></path>
                    <path d="M209.733135,169.937389 C210.340634,169.379783 211.012461,168.06837 211.012461,167.184468 C211.012461,165.694997 211.591918,164.513208 209.077841,164.513208 C208.763192,164.513208 205.952642,165.317439 204.802794,166.570634 C203.597496,167.884264 204.074229,169.659246 204.802794,170.093982 C206.320208,170.999424 209.448551,170.198601 209.733135,169.937389 Z" id="Oval" fill-opacity="0.6" fill="#8FC1F6"></path>
                    <path d="M148.230472,42.7597257 C149.537966,41.5648961 150.370273,34.9973217 148.230472,35.5454877 C145.477032,36.2508533 140.093872,32.8601559 137.619102,35.5454877 C135.024989,38.360317 136.051041,42.1637254 137.619102,43.0952717 C139.976954,44.4960128 144.142008,43.9910218 146.506273,43.3913022 C147.416757,43.1603485 148.060177,42.9153461 148.230472,42.7597257 Z" id="Oval" fill="#FCE8A8" opacity="0.450286156"></path>
                </g>
            </g>
        </g>
    </g>
</svg>