<?xml version="1.0" encoding="UTF-8"?>
<svg width="430px" height="339px" viewBox="0 0 430 339" version="1.1" xmlns="http://www.w3.org/2000/svg" xmlns:xlink="http://www.w3.org/1999/xlink">
    <title>Group 38</title>
    <g id="Public-User-Pages-VD" stroke="none" stroke-width="1" fill="none" fill-rule="evenodd">
        <g id="SEEDFUND-Home--V-2" transform="translate(-754.000000, -902.000000)">
            <g id="Group-23" transform="translate(252.000000, 790.000000)">
                <g id="Group-38" transform="translate(502.000000, 112.000000)">
                    <path d="M365.87131,221.298656 C370.171439,272.385295 265.885978,305.707361 176.125065,282.452694 C86.3641509,259.198027 45.1860997,168.385931 88.0185112,119.997676 C130.850923,71.6094212 361.57118,170.212017 365.87131,221.298656 Z" id="Background-Shape" fill="#DDE3E9" opacity="0.296125545"></path>
                    <g id="Big-Leaf-Plant" transform="translate(267.000000, 59.000000)" opacity="0.771688772">
                        <g id="Plant-Left">
                            <path d="M104.041682,25.1234019 C106.492715,21.6261635 111.041131,12.7443261 114.490914,11.4946578 C116.712893,10.6897559 116.065043,19.0158493 116.092483,20.6034527 C116.199343,26.74564 115.601783,32.848881 114.863846,38.9394991 C113.534378,49.923904 109.187133,59.7063514 103.224566,69.05521 C100.156355,73.8657667 96.5575871,78.7346535 91.5731251,81.7362104 C89.2787725,83.118488 86.51809,83.3499272 84.2522727,84.5408718 C81.6133978,85.9272869 83.0505239,84.8065159 81.8612728,87.5582167 C80.2097459,91.3785855 79.6814935,96.3072684 78.917358,100.383738 C75.4088223,119.096947 66.9147232,218.019851 68.3872743,237.054762 C68.5180604,238.741933 66.1671078,239.145394 66.0497469,237.085711 C65.4259535,226.164695 70.8237806,150.536832 73.5470758,125.804346 C76.2703711,101.07186 79.0262216,79.2219454 81.7895078,70.6652795 C85.1417856,60.2842253 91.1961914,47.8002061 96.2360615,38.1194236 C98.5770432,33.6219507 101.128759,29.2794131 104.041682,25.1234019 Z" id="Leaf" fill="#DEEED4"></path>
                            <path d="M122.269624,146.528906 C128.684845,141.845127 135.62884,150.684815 129.823726,155.369314 C126.614521,157.958621 123.259485,157.037534 121.370691,154.879727 C120.144563,156.366056 118.996948,157.920157 117.894239,159.232833 C114.534567,163.232805 111.35917,167.328247 108.32441,171.519182 C102.020165,180.225748 96.6175417,189.424048 90.9687141,198.45415 C85.39406,207.36637 79.8639812,216.324237 74.8111897,225.462256 C70.5307581,233.204373 64.8254865,242.312353 63.36,250.8 C65.5835316,232.799169 74.0208264,215.497184 84.0681729,199.628072 C94.0337636,183.889325 105.470437,166.700865 120.900869,154.28019 C119.330428,151.983512 119.286833,148.705179 122.269624,146.528906 Z" id="Leaf" fill="#D6EBC9"></path>
                            <path d="M1.11744226,102.977912 C4.691514,103.674589 10.5315069,111.73316 13.4776078,114.803539 C16.9788507,118.452253 20.155347,122.341262 23.1495685,126.415977 C29.5955143,135.186632 35.3602799,144.511659 40.2622916,154.236029 C48.2538542,170.088698 54.656135,186.362011 59.3025441,203.62468 C62.1467796,214.191783 63.9883044,225.144174 65.0796911,236.020082 C65.2858041,238.071213 67.4433558,253.885045 64.3344559,254.311272 C61.5383281,254.695062 62.4019476,242.303505 62.2670547,240.617948 C60.7422366,221.601712 56.1743139,203.099074 49.8203752,185.175319 C48.4363962,181.270799 47.1506309,176.488459 44.937322,172.974768 C43.3434296,170.443912 44.9258918,171.326503 42.1248354,170.368696 C39.7196821,169.545774 36.9793522,169.74686 34.5164208,168.739536 C29.1659457,166.552543 24.8817501,162.306938 21.1263593,158.036358 C13.8283188,149.736862 8.04499289,140.758105 5.03038945,130.123525 C3.35809587,124.226999 1.82134344,118.296173 0.968540194,112.217313 C0.747934845,110.646106 -1.18459036,102.529187 1.11744226,102.977912 Z" id="Leaf" fill="#DEEED4"></path>
                            <path d="M15.211509,6.87600417 C28.6065598,26.9156194 39.6140638,48.9286113 46.7216884,71.224443 C51.0280607,84.7332459 54.039636,98.5952626 57.0318759,112.357145 C61.6648197,133.665705 66.0470531,154.97262 67.293591,176.659683 C68.5476882,198.472428 71.0275806,223.630867 62.7478056,244.64 C66.8835947,223.310022 62.9460427,200.605922 62.2488621,179.143565 C61.9156962,168.897784 60.9502434,158.752173 59.6837497,148.566263 C58.4547438,138.685382 56.4468957,128.851553 54.5771368,119.048336 C53.6663426,114.273992 52.7098034,109.506832 51.7359138,104.742279 C51.4451743,103.320769 51.3223598,99.1026527 50.2770624,98.1315565 C49.2249951,97.1540662 43.8572091,96.7555767 42.1719729,96.0383527 C38.7784861,94.5937759 35.5864538,92.5418593 32.7614222,90.3737465 C27.3457997,86.2175292 22.6344808,80.7869264 18.9159308,75.4335868 C10.3121709,63.0468011 6.87239185,47.9304123 7.04625219,33.5849385 C7.07965722,30.7996957 12.2721634,0.80708707 10.1867694,0.394064039 C10.3123278,0.267213743 10.4310964,0.136236998 10.5430853,0 C12.1219072,2.28035788 13.671189,4.57616944 15.211509,6.87600417 Z" id="Leaf" fill="#80BD59" opacity="0.328511083"></path>
                            <path d="M160.377501,52.42773 C160.584916,52.1284707 161.934857,50.0472115 161.255069,50.1802232 C162.639142,49.9094066 159.351364,52.4756306 162.8,50.9010073 C161.162564,52.4479262 162.107581,54.4573981 162.129436,56.5393814 C162.165093,59.9195973 161.599703,63.2720946 160.96326,66.5797841 C159.95758,71.8082316 158.459389,76.8918107 156.284791,81.754895 C151.545188,92.3526618 143.4971,102.554949 133.942523,109.180596 C129.225693,112.451943 124.602989,113.565716 119.223442,115.071721 C115.825492,116.023163 115.556029,117.781401 113.752389,121.079723 C109.997346,127.949422 106.309176,134.794411 102.997561,141.895894 C99.0432733,150.375813 95.2046136,158.865079 91.5836434,167.494276 C79.385244,196.561266 69.4568784,226.675103 64.2428042,257.84 C64.1151417,239.474621 68.362394,220.559852 73.7198919,203.054591 C77.6225068,190.300656 82.7029785,178.006248 88.1217978,165.8363 C89.4348873,162.887987 91.4247554,159.095457 91.9823819,155.840392 C92.3728322,153.559732 91.1791105,151.366407 90.6325586,148.963908 C88.5017972,139.608133 88.6543028,129.126649 90.5254281,119.72085 C92.5884873,109.349171 98.5547591,104.535323 108.647478,103.066241 C112.338588,102.528866 117.030083,102.725818 120.414649,101.151524 C124.102082,99.437169 125.623204,93.8021068 127.720014,90.1848396 C133.351973,80.4680962 140.043556,71.1491458 147.727342,62.9619834 C149.854909,60.694854 152.14291,58.6032733 154.570223,56.6646347 C156.100885,55.4414614 159.334365,53.9345138 160.377501,52.42773 Z" id="Leaf" fill="#DEEED4"></path>
                            <path d="M49.0998751,238.48 L81.1401249,238.48 C83.5701778,238.48 85.5401249,240.449947 85.5401249,242.88 C85.5401249,243.095812 85.5242471,243.311332 85.4926201,243.524814 L83.771962,255.139256 C82.4934668,263.769099 75.086013,270.16 66.3619811,270.16 L63.8780189,270.16 C55.153987,270.16 47.7465332,263.769099 46.468038,255.139256 L44.7473799,243.524814 C44.3912589,241.120997 46.0512443,238.883626 48.455061,238.527505 C48.6685432,238.495878 48.8840629,238.48 49.0998751,238.48 Z" id="Base" fill="#FCE6A3"></path>
                        </g>
                    </g>
                    <g id="Web" opacity="0.864076126">
                        <rect id="Container" fill="#F2F2F2" x="0" y="0" width="177" height="183" rx="4.32"></rect>
                        <rect id="Background" fill="#FFFFFF" x="9" y="23" width="159" height="31" rx="4.32"></rect>
                        <path d="M146.024521,30.9423689 C145.959132,31.0960518 145.959132,31.0960518 146.024521,30.9423689 M150.927994,28.9697084 C151.12001,29.050486 151.12001,29.050486 150.927994,28.9697084 M151.065924,29 C153.936118,32.1635769 149.522267,35.9396537 146.833824,32.8522621 C143.980089,29.5755387 149.218298,29.0105603 151.065924,29 M147.867812,25.0279854 C138.100963,26.7544367 141.558974,39.6846806 150.680928,37.8158415 C154.685578,36.995743 156.975927,32.9880074 155.597566,29.1384044 C155.058884,27.634434 153.88534,25.9836262 152.250612,25.5095709 C151.435497,25.2733989 150.714487,25.645113 149.938121,25.5581744 C149.197737,25.4753431 148.78672,24.8633496 147.867812,25.0279854" id="Fill-259" fill="#E8F0F4"></path>
                        <path d="M155.223534,46.3730925 C152.178956,46.3890755 149.133664,46.6039576 146.089623,46.6998554 C145.155843,46.7291575 142.756023,46.0347864 142.752262,48.4807722 C142.748153,51.0942831 145.421436,50.1290896 146.31104,50.0938678 C149.330578,49.9739956 152.357807,49.7540818 155.365362,49.2763687 C156.124942,49.1556085 158.754943,49.3639791 158.752262,47.6472901 C158.749398,45.8284878 155.836992,46.3730925 155.223534,46.3730925" id="Fill-261" fill="#E8F0F4"></path>
                        <path d="M139.250082,42.0944476 C139.250082,44.2924232 148.740698,43.3463622 150.429062,43.3440451 C151.84336,43.3419598 160.395221,44.1221183 159.781482,41.8601915 C159.27709,40.0016671 150.853421,40.9254841 149.059433,40.9227037 C147.5088,40.9206183 139.250082,39.8559232 139.250082,42.0944476" id="Fill-286" fill="#CBDEE7" opacity="0.433979833"></path>
                        <path d="M4.32,0 L172.68,0 C175.06587,-4.38277231e-16 177,1.93412988 177,4.32 L177,14 L177,14 L0,14 L0,4.32 C-2.9218482e-16,1.93412988 1.93412988,4.38277231e-16 4.32,0 Z" id="Header" fill="#D6DFE6"></path>
                        <g id="Buttons" transform="translate(5.000000, 5.000000)" fill="#F2F2F2">
                            <circle id="buttons" cx="2.16" cy="2.16" r="2.16"></circle>
                            <circle id="buttons" cx="8.64" cy="2.16" r="2.16"></circle>
                            <circle id="buttons" cx="15.12" cy="2.16" r="2.16"></circle>
                        </g>
                        <g id="Components" transform="translate(10.000000, 58.000000)" fill="#FFFFFF">
                            <rect id="Background" x="0.805263158" y="0.764571429" width="158" height="114" rx="4.32"></rect>
                        </g>
                        <g id="List" opacity="0.640647711" transform="translate(14.000000, 24.000000)">
                            <path d="M0.293062449,5.63400732 C0.291666531,8.47311707 0.148119592,11.3710805 0.671356327,14.1761293 C0.829793061,15.0253366 0.954727755,16.651922 1.85067469,17.0926293 C2.75057673,17.5351902 3.62302571,17.0379463 3.84660531,16.1155195 C4.10740939,15.0422512 3.53531551,13.4360561 3.4773849,12.3092634 C3.39781755,10.7700317 3.39246653,9.22894634 3.39176857,7.68786098 C3.39130327,6.57497073 3.75749918,4.78456829 2.44370735,4.21201951 C1.46679714,3.78614146 0.293062449,4.57788537 0.293062449,5.63400732" id="Fill-253" fill="#DDE9EE"></path>
                            <path d="M45.1767004,1.14354268 C35.7703045,2.08775 26.2285045,2.2840061 16.7881412,2.77638415 C12.4242678,3.00392073 7.15048816,2.71359146 3.03927592,4.4027378 C2.27617388,4.71646951 -0.458197551,6.46238415 1.76154531,7.1732622 C2.45345551,7.3950061 3.15630041,6.64960366 3.72443918,6.39982317 C4.67063918,5.98437195 5.7659698,5.85577439 6.77498612,5.69357927 C15.3531371,4.31607927 24.3256351,4.55589634 32.9919616,3.91221341 C35.2126351,3.7472378 37.4342392,3.57739634 39.6502596,3.35935976 C41.2334637,3.20365244 44.5611004,2.0624939 46.0221616,2.64616463 C48.5187616,3.64343293 48.4603657,10.1233598 48.5096882,12.3519207 C48.53528,13.5044329 47.4166841,17.6415671 49.640382,17.2221768 C51.420178,16.8864329 50.775729,12.5884939 50.6370678,11.412811 C50.2731984,8.33110366 49.6522473,0.690091463 45.1767004,1.14354268" id="Fill-255" fill="#DDE9EE"></path>
                            <path d="M48.6455808,17.0727488 C40.475038,17.8105049 32.1162788,17.0866512 23.9122339,17.3767488 C19.6118747,17.5292122 15.3159359,17.7713463 11.0151114,17.9133829 C9.1550502,17.9750171 7.29312776,17.9775659 5.43213592,17.9907732 C4.54200531,17.9967976 0.491282857,18.5364439 2.99718898,20.3011268 C4.10671143,21.0824439 7.64257265,20.4531268 8.9156502,20.4378341 C10.8278257,20.4153585 12.7390706,20.3358829 14.6498502,20.2610415 C19.0760747,20.0879561 23.4995073,19.848139 27.9280584,19.7283463 C32.1642053,19.6136512 36.4024461,19.5890902 40.6383604,19.4743951 C42.7461971,19.4171634 44.8826502,19.3525171 46.971642,19.0448098 C47.4429971,18.9752976 48.9740869,18.9201512 49.3014298,18.3944073 C49.6108584,17.8973951 49.3935604,17.0006878 48.6455808,17.0727488" id="Fill-257" fill="#CBDEE7"></path>
                            <path d="M8.48931347,10.9383902 C8.44534204,11.0424268 8.44534204,11.0424268 8.48931347,10.9383902 M12.0275012,9.86303659 C12.1566237,9.91771951 12.1566237,9.91771951 12.0275012,9.86303659 M11.8618522,9.83314634 C13.7686767,11.7767073 10.8363176,14.096561 9.05024,12.1998049 C7.1543502,10.1867317 10.6343747,9.83963415 11.8618522,9.83314634 M9.83963184,6.89278049 C3.27183592,8.0615122 5.59720327,16.8147195 11.7313339,15.5495976 C14.4242931,14.9944268 15.9644563,12.2813659 15.0375665,9.67535366 C14.6753257,8.65723171 13.8861665,7.53970732 12.7868808,7.21879268 C12.2387502,7.05891463 11.7539012,7.31054878 11.2318278,7.25169512 C10.7339502,7.19562195 10.4575584,6.78132927 9.83963184,6.89278049" id="Fill-259" fill="#CBDEE7"></path>
                            <path d="M34.9751661,9.35650122 C31.0147131,9.36901341 27.0533294,9.53723293 23.0935743,9.6123061 C21.8788927,9.63524512 18.7571539,9.09165976 18.752262,11.006489 C18.7469171,13.0524646 22.2243824,12.2968671 23.3815988,12.2692939 C27.3094804,12.1754524 31.2473661,12.0032939 35.15966,11.6293183 C36.1477376,11.5347817 39.5689008,11.6979037 39.5654137,10.3540012 C39.5616886,8.93015976 35.7731661,9.35650122 34.9751661,9.35650122" id="Fill-261" fill="#E8F0F4"></path>
                            <path d="M22.1463041,52.5398171 C22.1463041,53.5611829 23.0524878,52.5398171 23.0459735,52.5398171 C23.0524878,52.5398171 22.1463041,51.5184512 22.1463041,52.5398171" id="Fill-275" fill="#89C5CC"></path>
                            <path d="M60.6485224,3.3184939 C60.7069184,6.28712805 60.7453061,9.25854268 60.872102,12.2248598 C60.912351,13.162811 60.6436367,14.9944573 61.7806122,15.4727012 C63.0460122,16.0049329 63.4394286,14.6781768 63.585302,13.7791524 C64.0468857,10.9310061 63.5943755,7.6789939 63.5499388,4.79701829 C63.535049,3.82940854 63.7444367,2.4822622 62.6453837,1.99984756 C61.7489714,1.60617683 60.6303755,2.33698171 60.6485224,3.3184939" id="Fill-277" fill="#CBDEE7"></path>
                            <path d="M109.46772,3.36511341 C109.542634,3.5419061 109.542634,3.5419061 109.46772,3.36511341 M109.573577,3.33475976 C109.634299,3.36024756 109.880213,3.46335732 109.573577,3.33475976 M85.5916992,0.935430488 C81.0342584,1.00679634 76.4740257,1.06101585 71.9196094,1.25611341 C69.9757931,1.33952805 68.009642,1.40672317 66.0725727,1.59000366 C64.7006176,1.71975976 61.2922502,1.77374756 60.4023522,2.89497927 C58.5660216,5.20927195 62.4601686,4.57810122 63.2988829,4.39018659 C64.8253196,4.04795488 66.3833971,3.93835732 67.9428706,3.85610122 C71.3265767,3.67768659 74.7116788,3.58222317 78.0995727,3.51410122 C87.2868094,3.32919878 96.4807931,3.35723537 105.669891,3.31575976 C106.559556,3.31182073 108.167422,2.95406463 108.989152,3.3139061 C109.812279,3.67467439 109.765748,4.56141829 109.851364,5.59112561 C109.965132,6.96097927 109.061507,9.57162561 109.749928,10.7239061 C110.818038,12.5112963 112.370997,10.9936134 112.608536,9.69049146 C112.936344,7.8898939 112.416597,5.72783293 111.907552,4.00671098 C111.189585,1.57841829 110.192667,1.48179634 107.843801,1.29202805 C105.099658,1.07028415 102.365287,0.935893902 99.6120706,0.910406098 C94.9396992,0.867540244 90.263838,0.862906098 85.5916992,0.935430488" id="Fill-279" fill="#CBDEE7"></path>
                            <path d="M103.616867,13.2070207 C93.7321367,14.3548988 83.5661286,13.6785451 73.6285857,13.7190939 C71.2120184,13.7290573 68.7933571,13.748289 66.3791163,13.8655329 C65.1039449,13.9271671 62.0813163,13.5756671 61.2077041,14.5592646 C59.3662551,16.6330451 62.6834224,16.934728 63.8943816,16.8487646 C66.3428224,16.6747524 68.7970796,16.5952768 71.251802,16.5762768 C79.8981204,16.5095451 88.5932959,16.9129476 97.2326347,16.4863744 C100.852018,16.307728 104.390671,15.6886061 107.943051,14.996728 C108.730116,14.8433378 114.117663,13.8191915 111.04548,12.5916061 C109.229855,11.8661305 105.524157,12.98435 103.616867,13.2070207" id="Fill-281" fill="#CBDEE7"></path>
                            <path d="M74.756069,9.4110061 C74.6872037,9.49951829 74.6872037,9.49951829 74.756069,9.4110061 M74.6897629,9.39571341 C74.6662649,9.45920122 74.5936771,9.61606707 74.6897629,9.39571341 M74.0662527,8.59145732 C74.0806771,8.6099939 74.1395384,8.68529878 74.0662527,8.59145732 M74.0422894,8.58543293 C74.2802935,8.8695061 74.4405914,9.18648171 74.5229506,9.53612805 C72.4749057,10.0908354 71.6857465,8.43412805 74.0422894,8.58543293 M73.9127016,8.50781098 C73.9133996,8.50827439 74.2014241,8.62945732 73.9127016,8.50781098 M70.5483057,6.03943293 C69.2228812,7.69011585 68.1287139,9.61375 69.7812486,11.4991524 C71.2588282,13.1848232 74.231669,13.4023963 76.1068527,12.2769939 C78.038571,11.1172988 77.8717588,8.67603049 76.5242322,7.08257927 C75.656669,6.05657927 74.9533588,6.08507927 73.6944731,5.91755488 C72.8373792,5.80355488 71.2755792,5.13716463 70.5483057,6.03943293" id="Fill-284" fill="#CBDEE7"></path>
                            <path d="M84.250082,9.09444756 C84.250082,11.2924232 93.7406984,10.3463622 95.4290616,10.3440451 C96.8433596,10.3419598 105.395221,11.1221183 104.781482,8.86019146 C104.27709,7.00166707 95.8534208,7.92548415 94.0594331,7.92270366 C92.5088004,7.92061829 84.250082,6.85592317 84.250082,9.09444756" id="Fill-286" fill="#CBDEE7"></path>
                        </g>
                        <g id="Whiteboard-Stuff" opacity="0.5" transform="translate(89.500000, 144.000000) scale(1, -1) translate(-89.500000, -144.000000) translate(40.000000, 121.000000)">
                            <path d="M17.6193922,2.26439208 C19.0020169,2.27172396 20.872064,1.97333861 22.2489045,2.29327525 C24.9296169,2.91559644 24.7598755,7.51135287 24.8148245,9.73357941 C24.9133769,13.7196788 24.8562032,17.9101822 24.532293,21.8869501 C24.4206152,23.2600115 23.421744,25.0003335 22.2822744,23.1075972 C21.6469122,22.0522507 21.9301111,19.5869612 21.9292213,18.4209699 C21.9261067,14.2757909 22.5757067,10.0053034 21.9543599,5.88145347 C21.7505813,4.52949901 21.7957418,4.43818376 20.4202361,4.46662257 C19.329264,4.48928475 18.2382919,4.5254998 17.1473199,4.54838416 C14.9255544,4.59504158 12.7028991,4.62548 10.4820235,4.70679723 C9.63865578,4.73790218 6.60778236,5.26735287 4.24408373,5.26535327 C4.24519605,5.28423842 4.24719825,5.30312356 4.24764318,5.32245307 C4.28012318,6.92058099 3.49659879,8.86019683 3.3900377,10.5416416 C3.13375715,14.5857295 3.43964756,18.7244653 3.06101085,22.7481129 C3.049558,22.8699652 3.04325361,22.9996573 3.03616891,23.1302757 C3.10757099,23.1199447 3.17688397,23.1123039 3.24347726,23.108086 C5.00518356,22.9963304 6.7900263,23.0425434 8.55529205,23.0016627 C12.1696932,22.9179015 15.9266948,23.1154179 19.5201841,22.6921684 C20.2505392,22.5975205 20.5059299,23.534446 20.1782378,24.0201276 C19.8105019,24.565353 18.6336581,24.5375807 18.0888395,24.6182314 C16.49376,24.8544068 14.8775463,24.9368349 13.268229,25.0081541 C11.5779342,25.0830282 9.88630466,25.1390171 8.19489753,25.1861189 C6.72996055,25.2265553 3.47906849,25.8393229 2.12380712,25.226111 C1.06632309,24.7476586 1.09240237,24.2163203 1.52508835,23.8050315 C1.2620376,23.2324547 1.30511939,22.2915885 1.24902729,21.8400705 C1.01454838,19.948223 0.87328263,18.0805929 0.869945644,16.1725263 L0.869945644,16.1725263 L0.869829181,14.8480924 C0.879255335,11.5253622 0.992458843,8.12775366 1.90463386,4.93564079 C1.4906251,4.75434337 1.24079605,4.48706297 1.24190838,4.10180594 C1.2456861,2.54769865 5.11940046,2.30127683 8.13744623,2.28888301 L8.63172071,2.2888002 C9.84354832,2.29309001 10.8612436,2.32765418 11.3429659,2.31482653 C13.4348114,2.26017069 15.5271018,2.25306099 17.6193922,2.26439208 Z" id="Wireframy-Stuff" fill="#BBD0DB"></path>
                            <path d="M86.0499874,3.5616221 C88.4717496,3.5494023 90.8968488,3.59294923 93.3174986,3.66737893 C94.2153704,3.69492903 100.459762,3.85200903 97.6687063,5.36593141 C97.5092582,5.45242686 97.3298184,5.52472614 97.1340683,5.58476743 C97.2488269,6.2715942 97.2629506,6.98292474 97.2442639,7.32540998 C97.1256896,9.50231216 97.074745,11.6832135 96.9779724,13.8612266 C96.870299,16.2923007 96.7675198,18.7231526 96.6838727,21.1553375 C96.6393795,22.4410829 97.0794168,25.430713 96.0618584,26.3589735 C95.3758759,26.9849654 94.9072158,26.8592465 94.591464,26.433854 C92.1599036,27.1417119 86.537947,26.6857715 85.5142009,26.6862643 C83.6804157,26.6869308 73.7212913,27.8658084 73.7048065,25.7442286 C73.7035327,25.5798773 73.756867,25.4325306 73.8571414,25.3005467 C73.5835187,25.0209035 73.3355389,24.608475 73.1764059,24.0936889 C72.6062262,22.248721 72.5523895,20.2577819 72.510121,18.3446053 C72.41891,14.2138679 72.4656278,10.0757986 72.4393769,5.94372808 L72.4382372,6.06645408 C72.0700098,5.56891527 72.2902922,5.00045982 72.7523195,4.60363794 C74.0027995,3.53029497 77.6056323,3.80268547 79.192703,3.7187021 C81.4769814,3.59783715 83.762817,3.57006487 86.0499874,3.5616221 Z M90.3878471,5.6383219 C88.053069,5.63809972 85.7198482,5.61166051 83.3852926,5.65787358 C80.8638658,5.70786368 78.3152981,5.73741339 75.8116685,6.07001418 C75.6746905,6.08823662 75.5101516,6.12334508 75.3281158,6.16592399 C75.7081705,7.76124881 75.2456047,10.3246301 75.2440026,11.8014568 C75.2393308,15.9401926 75.3917199,20.0564885 75.4844881,24.1734509 C75.4875436,24.3089796 75.4843503,24.4348395 75.4755116,24.5513209 C78.2513938,23.9561849 83.4338025,24.3527449 84.5240058,24.3487272 C86.5540058,24.3407288 88.5846732,24.3689455 90.6131159,24.4500405 C91.2454372,24.4753007 92.7921135,24.353553 94.0135744,24.4889984 C94.0022083,24.3778993 93.9948748,24.2771378 93.9904798,24.1900698 C93.8796918,22.0007256 94.0002683,19.7884971 94.0710124,17.599153 C94.141979,15.3924789 94.2507647,13.1875823 94.3357466,10.9813526 C94.3795143,9.84617346 94.0926871,7.47609284 94.4037352,5.84289304 C92.9298448,5.81676956 91.3827815,5.63844099 90.3878471,5.6383219 Z" id="Wireframy-Stuff" fill="#BBD0DB"></path>
                            <path d="M52.0499874,0.561622099 C54.4717496,0.549402297 56.8968488,0.592949228 59.3174986,0.667378931 C60.2153704,0.69492903 66.4597616,0.85200903 63.6687063,2.36593141 C63.5092582,2.45242686 63.3298184,2.52472614 63.1340683,2.58476743 C63.2488269,3.2715942 63.2629506,3.98292474 63.2442639,4.32540998 C63.1256896,6.50231216 63.074745,8.68321354 62.9779724,10.8612266 C62.870299,13.2923007 62.7675198,15.7231526 62.6838727,18.1553375 C62.6393795,19.4410829 63.0794168,22.430713 62.0618584,23.3589735 C61.3758759,23.9849654 60.9072158,23.8592465 60.591464,23.433854 C58.1599036,24.1417119 52.537947,23.6857715 51.5142009,23.6862643 C49.6804157,23.6869308 39.7212913,24.8658084 39.7048065,22.7442286 C39.7035327,22.5798773 39.756867,22.4325306 39.8571414,22.3005467 C39.5835187,22.0209035 39.3355389,21.608475 39.1764059,21.0936889 C38.6062262,19.248721 38.5523895,17.2577819 38.510121,15.3446053 C38.41891,11.2138679 38.4656278,7.07579857 38.4393769,2.94372808 L38.4382372,3.06645408 C38.0700098,2.56891527 38.2902922,2.00045982 38.7523195,1.60363794 C40.0027995,0.53029497 43.6056323,0.802685465 45.192703,0.718702099 C47.4769814,0.597837149 49.762817,0.570064871 52.0499874,0.561622099 Z M56.3878471,2.6383219 C54.053069,2.63809972 51.7198482,2.61166051 49.3852926,2.65787358 C46.8638658,2.70786368 44.3152981,2.73741339 41.8116685,3.07001418 C41.6746905,3.08823662 41.5101516,3.12334508 41.3281158,3.16592399 C41.7081705,4.76124881 41.2456047,7.32463005 41.2440026,8.80145679 C41.2393308,12.9401926 41.3917199,17.0564885 41.4844881,21.1734509 C41.4875436,21.3089796 41.4843503,21.4348395 41.4755116,21.5513209 C44.2513938,20.9561849 49.4338025,21.3527449 50.5240058,21.3487272 C52.5540058,21.3407288 54.5846732,21.3689455 56.6131159,21.4500405 C57.2454372,21.4753007 58.7921135,21.353553 60.0135744,21.4889984 C60.0022083,21.3778993 59.9948748,21.2771378 59.9904798,21.1900698 C59.8796918,19.0007256 60.0002683,16.7884971 60.0710124,14.599153 C60.141979,12.3924789 60.2507647,10.1875823 60.3357466,7.98135255 C60.3795143,6.84617346 60.0926871,4.47609284 60.4037352,2.84289304 C58.9298448,2.81676956 57.3827815,2.63844099 56.3878471,2.6383219 Z" id="Wireframy-Stuff" fill="#BBD0DB"></path>
                            <path d="M18.4163574,29.0992472 C16.9151585,29.9761846 17.7247113,33.4841565 18.2448363,34.6974718 C19.0997722,36.69241 20.8345601,38.2534341 22.706387,39.2890068 C26.489862,41.3819256 31.94361,40.8260357 34.8049645,44.4546504 C34.8345524,44.4921985 35.8236352,45.4713379 36.0487705,44.2033668 C36.2336396,43.162684 34.3871738,41.5734432 33.6717239,41.0517688 C31.6370522,39.568507 29.0275289,39.0901573 26.6740637,38.349193 C24.164205,37.558905 21.4098565,36.1020825 20.3575935,33.5145949 C19.9849634,32.5981098 20.6952965,27.7615122 18.4163574,29.0992472" id="Fill-135" fill="#C1DEE2"></path>
                            <path d="M60.2342135,32.2467626 C57.4673073,32.857625 54.6366628,32.2582739 51.8584114,32.4984748 C50.4021202,32.6247146 48.9473259,32.8252017 47.490877,32.9428081 C46.8609783,32.9938412 46.2304492,32.9959516 45.6002353,33.0068873 C45.2987978,33.0118755 43.9270446,33.4587029 44.7756549,34.9198612 C45.1513881,35.5667921 46.3487867,35.0457173 46.7799069,35.0330549 C47.4274538,35.0144451 48.0746856,34.9486393 48.7217599,34.8866705 C50.2206747,34.7433557 51.718644,34.5447871 53.2183467,34.4455987 C54.6528929,34.3506311 56.0881481,34.3302946 57.5226155,34.235327 C58.236422,34.1879391 58.9599192,34.1344119 59.667344,33.8796301 C59.8269656,33.8220739 60.3454601,33.7764127 60.4563128,33.3410965 C60.561099,32.9295702 60.4875123,32.1870961 60.2342135,32.2467626" id="Fill-257" fill="#89C5CC" transform="translate(52.502447, 33.743373) rotate(90.000000) translate(-52.502447, -33.743373) "></path>
                            <path d="M83.7341915,29.7857576 C82.3584632,30.1650158 83.2683482,32.0579743 83.2661235,33.0057865 C83.2634539,34.188219 82.8854846,35.4257517 82.1566868,36.3693426 C80.3086638,38.7624242 76.6900358,39.1210198 73.977066,39.8071061 C72.0071317,40.3056741 67.2939723,41.3745735 67.1095482,44.0387125 C66.9035449,47.013901 71.0645443,43.3932848 71.4160402,43.2448697 C75.3051865,41.8182634 80.3366945,41.5427624 83.3384249,38.4024954 C84.5775591,37.1063077 85.3099164,35.3762059 85.426266,33.5905596 C85.4918934,32.5852032 85.5030167,29.30252 83.7341915,29.7857576" id="Fill-137" fill="#C1DEE2"></path>
                        </g>
                        <g id="Group-49" transform="translate(58.000000, 59.000000)" fill="#F8D874" fill-rule="nonzero">
                            <g id="light-bulb-outlined-hand-drawn-tool">
                                <path d="M16.6059983,38.9602153 C15.8748078,39.8441226 15.2983339,40.8751889 14.6327433,41.8128108 C13.9928356,42.7138814 13.0007931,43.4865454 12.4957983,44.4648506 C12.3506741,44.7455015 12.5926508,45.17204 12.9296235,45.0442691 C13.868753,44.6882907 14.4405854,43.6400611 15.0000404,42.8372025 C15.7581515,41.7489254 16.5697946,40.5764212 17.0955214,39.3482954 C17.2264117,39.0425353 16.8541636,38.6604941 16.6059983,38.9602153 Z" id="Path"></path>
                                <path d="M10.6996176,28.6716763 C9.43539156,27.8079326 7.54508248,27.9869618 6.08927572,27.9909322 C4.15382801,27.9963464 2.1332716,28.2056951 0.251576761,28.6908065 C-0.132618396,28.7897057 -0.0575022125,29.4509588 0.345988844,29.4210002 C2.0402378,29.295391 3.71656913,29.1257464 5.41770948,29.1174447 C7.14262513,29.1091429 8.9150914,29.709757 10.6003815,29.4708108 C10.988367,29.4155861 10.9659699,28.8535931 10.6996176,28.6716763 Z" id="Path"></path>
                                <path d="M18.6100373,13.4172844 C17.8894543,12.5537669 16.5998924,12.0662527 15.5620157,11.488424 C14.2372401,10.7511625 12.9083872,9.9736588 11.4935388,9.36019579 C11.1206445,9.19861265 10.6713921,9.62130924 11.0242702,9.86429834 C12.1503665,10.6402661 13.3961893,11.2991935 14.5923422,11.9983632 C15.7069477,12.6505324 16.793753,13.6206457 18.096659,13.9705377 C18.4628812,14.0691465 18.8372582,13.6891496 18.6100373,13.4172844 Z" id="Path"></path>
                                <path d="M31.1247879,0.421705829 C31.0277484,-0.00891889709 30.4612807,-0.117883968 30.0642276,0.132441195 C29.4039551,0.548995356 29.6045032,1.49826764 29.6028859,2.08039636 C29.5976296,4.38240619 29.521211,6.79927111 29.9279681,9.08197482 C29.9853831,9.40428892 30.6759804,9.40592503 30.7309695,9.08197482 C30.9901456,7.55450049 30.8486298,5.96092722 30.8749113,4.42265455 C30.8898715,3.54864343 30.9104924,2.67332341 30.9768027,1.8009484 C30.9994452,1.50513931 31.1009323,1.20049523 31.1045713,0.906649479 C31.1061886,0.780341618 31.1025497,0.703444346 31.0960804,0.650761534 C31.1268095,0.577136486 31.1421741,0.498603101 31.1247879,0.421705829 Z" id="Path"></path>
                                <path d="M49.6714538,4.95140155 C48.7141807,3.87109194 47.3839208,6.12203446 46.9738138,6.71395558 C46.3520503,7.61183352 45.7756162,8.54112827 45.1716989,9.45114452 C44.7151917,10.1398151 43.8250205,10.9313043 43.60337,11.7192235 C43.5419789,11.937356 43.6354933,12.2425988 43.8567868,12.3418474 C43.8732054,12.3493446 43.8896239,12.3568418 43.9060425,12.3639819 C44.1319761,12.4653725 44.3828945,12.4675146 44.5684955,12.2786568 C44.7583797,12.0851578 44.8526079,11.8509598 45.1163756,11.7377879 C45.3183952,11.6506777 45.3062597,11.4611059 45.2063207,11.3190162 C45.3979895,11.1194481 45.5942983,10.9241642 45.7177944,10.7574409 C46.1878647,10.1230357 46.6258119,9.46399685 47.0694698,8.81102716 C47.5002784,8.17697896 47.9328716,7.54400179 48.3890219,6.92744704 C48.5771214,6.67289953 48.7809257,6.43156137 48.9943669,6.1980774 C49.1110814,6.07098215 49.5547393,5.80893746 49.3116733,5.8185767 C49.7678236,5.80036924 49.9677017,5.28556208 49.6714538,4.95140155 Z" id="Path"></path>
                                <path d="M64.7851621,24.8687242 C62.176866,24.9537943 59.5718565,25.0153749 56.9668471,25.173453 C56.0833919,25.2270979 53.4011459,25.0182318 52.9442997,26.0704983 C52.8299238,26.3339617 53.2410854,26.5355271 53.4267818,26.3418973 C53.4813405,26.2850781 55.0221283,26.3088851 55.1996081,26.2977752 C56.2861791,26.2304809 57.374722,26.1901678 58.4626076,26.1533464 C60.5641002,26.0825605 62.6830122,25.9974903 64.7854908,26.0530399 C65.5907233,26.0743074 65.558514,24.7855586 64.7851621,24.8687242 Z" id="Path"></path>
                                <path d="M54.354634,41.108003 C53.9963005,40.6408198 53.2754096,40.4585394 52.7720532,40.1958834 C51.9705548,39.7774997 51.1866563,39.3225163 50.4013498,38.8739917 C49.5642997,38.3974792 47.8873835,37.0120765 46.8722227,37.3497258 C46.682848,37.412878 46.6497602,37.6188405 46.7641594,37.7681095 C47.4938503,38.7168287 49.1573906,39.3519395 50.1676235,39.9859739 C51.1405446,40.5959674 52.9177801,42.1966619 54.1420275,41.9297001 C54.5338008,41.8439422 54.5594966,41.374606 54.354634,41.108003 Z" id="Path"></path>
                            </g>
                            <path d="M39.0817308,63.4082192 C39.0817308,64.2859339 38.2798105,65 37.2941074,65 L29.3068541,65 C28.321151,65 27.5192308,64.2859339 27.5192308,63.4082192 L27.5192308,62.2820513 L39.0817308,62.2820513 L39.0817308,63.4082192 Z M41.0384615,61.4694142 C41.0384615,61.9174742 40.4636557,62.2820513 39.7569418,62.2820513 L39.3500654,62.2820513 L27.0437841,62.2820513 L26.6661351,62.2820513 C25.9594213,62.2820513 25.3846154,61.9174742 25.3846154,61.4694142 L25.3846154,56.8461538 L41.0384615,56.8461538 L41.0384615,61.4694142 L41.0384615,61.4694142 Z M29.6538462,54.1282051 L29.6538462,39.1794872 L33.9230769,39.1794872 L33.9230769,54.1282051 L29.6538462,54.1282051 L29.6538462,54.1282051 Z M45.9517503,41.7835364 C42.5598196,45.2117632 40.5882488,49.5622416 40.3363031,54.1282051 L37.0331289,54.1282051 L37.0331289,38.6858013 L38.1826151,38.6858013 C40.2268282,38.6858013 41.8900534,37.0981709 41.8900534,35.1465967 L41.8900534,34.9573605 C41.8900534,33.0057862 40.2268282,31.4181558 38.1826151,31.4181558 C36.138402,31.4181558 34.4753047,33.0057862 34.4753047,34.9573605 L34.4753047,36.2440443 L30.490982,36.2440443 L30.490982,34.9573605 C30.490982,33.0057862 28.8278847,31.4181558 26.7836716,31.4181558 L26.531726,31.4181558 C24.4875129,31.4181558 22.8244156,33.0057862 22.8244156,34.9573605 L22.8244156,35.1465967 C22.8244156,37.0980489 24.4875129,38.6858013 26.531726,38.6858013 L27.9331578,38.6858013 L27.9331578,54.1282051 L24.6650259,54.1282051 C24.4208815,49.5104764 22.4895964,45.2001648 19.1646807,41.9002523 C15.7026657,38.4642119 13.8708799,33.9422 14.0070841,29.1674663 C14.2748882,19.7679227 22.5106984,12.0668653 32.3662508,12.0004495 C37.3404515,11.9671196 42.0110385,13.7881819 45.5349528,17.1283834 C49.0592509,20.4689512 51,24.9196637 51,29.660457 C51,34.188207 49.2070931,38.493513 45.9517503,41.7835364 Z M36.7692308,36.4615385 L36.7692308,34.9946979 C36.7692308,34.3047721 37.4075849,33.7435897 38.1922285,33.7435897 C38.9770305,33.7435897 39.6153846,34.3049113 39.6153846,34.9946979 L39.6153846,35.2104303 C39.6153846,35.9003561 38.9770305,36.4615385 38.1922285,36.4615385 L36.7692308,36.4615385 Z M28.2307692,34.9946979 L28.2307692,36.4615385 L28.2307692,36.4615385 L26.6671397,36.4615385 C25.9599534,36.4615385 25.3846154,35.9003561 25.3846154,35.2104303 L25.3846154,34.9946979 C25.3846154,34.3047721 25.9599534,33.7435897 26.6671397,33.7435897 L26.9482449,33.7435897 C27.6554312,33.7435897 28.2307692,34.3050505 28.2307692,34.9946979 Z" id="Shape"></path>
                        </g>
                    </g>
                    <path d="M289,235 C297.836556,235 305,242.163444 305,251 L305,314 C305,322.836556 297.836556,330 289,330 L214,330 C205.163444,330 198,322.836556 198,314 L198,251 C198,242.163444 205.163444,235 214,235 L289,235 Z M280,257 L222,257 C219.790861,257 218,258.790861 218,261 L218,261 L218,304 C218,306.209139 219.790861,308 222,308 L222,308 L280,308 C282.209139,308 284,306.209139 284,304 L284,304 L284,261 C284,258.790861 282.209139,257 280,257 L280,257 Z" id="Seat" fill="#DCE2F1"></path>
                    <g id="A-Human/Standing" transform="translate(204.000000, 194.000000) scale(-1, 1) translate(-204.000000, -194.000000) translate(113.000000, 49.000000)">
                        <g id="Head/Front">
                            <g id="Head" transform="translate(34.914216, 7.290038)" fill="#F1D1B4">
                                <path d="M34.2448675,8.31614069 C39.4474145,18.1502011 38.8292167,43.095111 32.1053882,44.8527319 C29.4238578,45.5536888 23.7113135,43.8365556 17.897359,40.2826561 L21.5470588,66.4640605 L0,66.4640605 L7.41797976,31.402297 C3.2809385,26.4777754 0.480883778,20.4426809 0.948767576,13.6801737 C2.29685382,-5.8042432 29.0423205,-1.51791974 34.2448675,8.31614069 Z"></path>
                            </g>
                            <path d="M71.1932645,20.0216682 C70.9798304,18.7469697 70.4582109,17.3314308 70.0373256,16.1254463 C69.4946966,14.5707732 68.6735181,13.1690392 67.7698321,11.8479626 C66.0684815,9.36076491 64.0275009,7.11476414 61.7740601,5.25064554 C57.6578714,1.84565873 52.4181624,-0.118351069 47.2655523,0.519463516 C44.6639942,0.84147302 42.1385432,1.84783027 39.9890367,3.52286911 C38.0469815,5.03628275 36.1789464,7.2641356 33.6642089,7.42420968 C30.9279675,7.59824372 28.4197693,5.14904813 26.2253221,3.63641003 C23.751073,1.93112464 21.118905,0.688534016 18.2271099,0.205519761 C13.3826853,-0.603381761 8.83169773,1.05645624 5.49299897,5.08715902 C1.94017046,9.37643108 -0.642465242,15.6666292 1.69070027,21.3498798 C2.12438605,22.4063378 2.68231996,23.2969826 3.48304555,24.0351537 C4.21740345,24.7120561 5.33897582,25.4322344 5.63672608,26.5138203 C5.95298139,27.6634997 5.00825041,29.1466668 4.64190628,30.1840461 C4.11708665,31.6703154 3.68618358,33.2304173 3.83937192,34.8458937 C4.09106829,37.4989046 5.73509498,40.0315497 7.47109033,41.7753025 C9.23769552,43.5497672 11.4119681,44.5672924 13.7342811,45.0363467 C15.2849477,45.3495149 16.8697027,45.5223081 18.445692,45.4047343 C19.2280517,45.3464127 19.9184427,45.1260006 20.6764537,44.9507257 C21.4135943,44.7802592 21.8255749,44.9788007 22.4509896,45.3887579 C25.3562809,47.2935154 28.4801542,48.0304457 31.8348536,47.7472138 C34.6661247,47.5080333 37.9294119,46.8122074 40.2390635,44.8449403 C42.804029,42.6600531 42.7529662,39.6471857 42.1493958,36.4281765 C42.7888632,36.7495655 44.5579728,36.9485724 43.5008202,35.6675143 C43.082022,35.1601477 42.2907576,34.9536956 41.7534158,34.6552629 C41.1277228,34.3078152 40.4924295,33.8587702 40.0065678,33.2919962 C38.0447553,31.0034952 40.026186,26.3461458 42.4919477,25.5786588 C46.1553891,24.4384411 46.9755937,29.6925008 49.5907871,31.0515794 C51.0944259,31.8330264 52.6673543,30.7649351 53.7939356,29.6743529 C55.3030007,28.2133666 56.3314913,26.2778971 57.219455,24.3083034 C57.950891,22.6863123 58.6315426,21.04152 59.3770313,19.4275948 C59.7251487,18.6739126 60.9303416,16.5433141 60.3251015,15.6911367 C62.9490605,15.1605035 65.8716046,16.2662866 68.1314456,17.7164152 C69.0654632,18.3159174 69.7775594,18.9768435 70.2758041,20.0351628 C70.3825211,20.2619344 70.6148776,20.9360449 70.9066451,20.9636546 C71.4498306,21.0151513 71.2468317,20.3419715 71.1932645,20.0216682" id="hair" fill="#8F8F8F"></path>
                        </g>
                        <g id="Bottom/Skinny-Jeans-1" transform="translate(10.000000, 145.000000)">
                            <path d="M128.884221,17.9995861 L129.135157,17.8539104 C136.336337,13.8378989 148.09706,19.2916722 148.088893,25.354685 C148.064159,43.7079064 131.23871,130.206573 130.360231,135.674611 C129.481752,141.142648 120.071038,142.586964 119.523021,135.69253 C119.017269,129.32981 118.25987,113.882149 118.029131,98.5988281 L118.007172,97.0187604 C117.873728,86.4939406 118.003542,76.1989814 118.65191,69.167802 C119.321052,61.9113417 120.041686,55.0005623 120.75113,48.8352818 C111.923351,64.706539 98.2685341,87.4318568 79.7877896,117.010562 L69.7555921,112.447857 C77.6335665,86.6095851 84.0933869,68.3684527 89.1350535,57.7244597 C97.7676106,39.4993596 105.862044,23.891991 109.26873,18.394422 C114.627616,9.74647265 123.955737,12.7642336 128.884221,17.9995861 Z" id="Skin" fill="#B28B67"></path>
                            <path d="M84.310248,116.519287 L88.4507547,18.6242282 C91.6843575,3.39042766 118.854514,10.4187295 118.831437,18.5800327 C118.778999,37.1087175 107.353752,110.981709 107.338133,116.502023 C101.397247,118.299992 97.0936836,119.199977 94.427444,119.201977 C91.9763758,119.203813 88.6039771,118.309583 84.310248,116.519287 Z" id="LegLower" fill="#E8B09F" transform="translate(101.570843, 64.421739) rotate(20.000000) translate(-101.570843, -64.421739) "></path>
                            <g id="Right-Shoe" transform="translate(87.259016, 122.210144) rotate(30.000000) translate(-87.259016, -122.210144) translate(61.259016, 112.710144)" fill="#A7A1A1">
                                <path d="M2.46691309,5.56456405 C1.4030451,8.3314813 0.871111111,10.3866175 0.871111111,11.7299727 C0.871111111,13.2937289 1.13280526,15.5756381 1.65619357,18.5757003 C3.47850449,18.5757003 19.8559196,18.5757003 50.7884389,18.5757003 C52.0652117,14.373833 51.3281844,12.10538 48.5773568,11.7703415 C45.8265292,11.4353029 43.54137,11.1327898 41.7218792,10.8628024 L18.7232385,0.656276905 C18.3698736,0.499457714 17.9562876,0.658789522 17.7994684,1.01215446 C17.7970965,1.01749915 17.7947917,1.02287335 17.7925544,1.0282758 L16.2577323,4.73453095 L16.2577323,4.73453095 C13.7111854,5.91731404 11.6418517,6.50870558 10.0497311,6.50870558 C8.69564585,6.50870558 6.80150307,5.93883596 4.36730276,4.79909673 L4.3673018,4.79909878 C3.66706052,4.4712324 2.83361458,4.77310189 2.50574819,5.47334318 C2.49173022,5.50328209 2.47877706,5.53370812 2.46691309,5.56456405 Z" id="shoe"></path>
                            </g>
                            <g id="Right-Shoe" transform="translate(114.986667, 125.374567)" fill="#A7A1A1">
                                <path d="M2.46691309,5.56456405 C1.4030451,8.3314813 0.871111111,10.3866175 0.871111111,11.7299727 C0.871111111,13.2937289 1.13280526,15.5756381 1.65619357,18.5757003 C3.47850449,18.5757003 19.8559196,18.5757003 50.7884389,18.5757003 C52.0652117,14.373833 51.3281844,12.10538 48.5773568,11.7703415 C45.8265292,11.4353029 43.54137,11.1327898 41.7218792,10.8628024 L18.7232385,0.656276905 C18.3698736,0.499457714 17.9562876,0.658789522 17.7994684,1.01215446 C17.7970965,1.01749915 17.7947917,1.02287335 17.7925544,1.0282758 L16.2577323,4.73453095 L16.2577323,4.73453095 C13.7111854,5.91731404 11.6418517,6.50870558 10.0497311,6.50870558 C8.69564585,6.50870558 6.80150307,5.93883596 4.36730276,4.79909673 L4.3673018,4.79909878 C3.66706052,4.4712324 2.83361458,4.77310189 2.50574819,5.47334318 C2.49173022,5.50328209 2.47877706,5.53370812 2.46691309,5.56456405 Z" id="shoe"></path>
                            </g>
                            <path d="M150.502192,31.5936392 C150.502192,54.631728 139.360426,121.534073 139.353471,126.606862 C134.778028,130.394853 131.324615,132.458039 128.993229,132.796421 C125.909769,133.243961 121.240915,132.359657 114.986667,130.14351 C119.028573,71.0715015 120.546247,41.2772127 119.539688,40.7606438 C118.02985,39.9857904 57.6465074,46.7621842 39.5365606,46.7621842 C13.4219277,46.7621842 2.61882703,30.3686478 1.74222222,-4.22681833e-13 L53.4743384,-4.22681833e-13 C64.0074617,1.12200296 118.949199,12.1536142 139.353471,15.9458852 C148.088889,17.5694214 150.502192,25.2472388 150.502192,31.5936392 Z" id="Leg-and-Butt" fill="#FBBDAB"></path>
                        </g>
                        <path d="M109.807919,159.370663 L171.5787,154.231918 L173.737544,152.048863 L173.80565,149.941927 C173.843266,148.778239 173.408576,147.764878 172.83468,147.67838 L111.063899,152.817125 C110.490004,152.730627 109.994324,153.604017 109.956716,154.76745 L109.807919,159.370663 Z" id="Path" fill="#DAD8DB" fill-rule="nonzero" transform="translate(141.807919, 153.524522) rotate(6.000000) translate(-141.807919, -153.524522) "></path>
                        <path d="M109.761023,153.445366 C109.177316,153.358748 108.672584,154.249767 108.633602,155.435637 L108.563023,157.582736 C108.485068,159.954217 109.368262,162.017373 110.535548,162.19059 L172.303394,156.972691 C173.47068,157.145908 174.48028,155.36363 174.558235,152.992149 L112.790389,158.210048 C111.623103,158.036831 110.739901,155.973935 110.817865,153.602194 L109.761023,153.445366 Z" id="Path" fill="#C8C5C9" fill-rule="nonzero" transform="translate(141.558235, 157.591369) rotate(4.000000) translate(-141.558235, -157.591369) "></path>
                        <path d="M136.729894,118.216248 C136.071956,118.08791 135.502749,119.409963 135.458455,121.169321 L135.378259,124.354759 C135.289681,127.873089 136.284617,130.933714 137.600349,131.190361 L207.227608,123.431337 C208.543341,123.687984 209.681908,121.043521 209.770486,117.52519 L140.143227,125.284215 C138.827494,125.027567 137.832549,121.967328 137.921136,118.448612 L136.729894,118.216248 Z" id="Path" fill="#C8C5C9" fill-rule="nonzero" transform="translate(172.571630, 124.357776) rotate(-86.000000) translate(-172.571630, -124.357776) "></path>
                        <g id="Body/Long-Sleeve-1" transform="translate(12.000000, 53.000000)">
                            <path d="M75.7779453,61.9771864 L105.091782,79.8216988 C112.738139,81.1870252 121.275815,86.6914294 126.550459,89.2573553 C127.828867,90.2341092 123.965144,93.1031161 119.434947,90.8729944 C114.904749,88.6428727 112.291764,89.1367723 111.76113,90.8729944 C111.57734,91.4743514 111.834692,92.0768474 112.200979,92.7065441 C118.096357,93.4900857 121.578533,95.0208555 126.009097,98.72495 C129.061019,101.276455 132.406505,106.99933 130.546122,109.490873 C129.858429,110.411875 126.045488,108.526961 122.382857,106.549501 L121.757061,106.210108 C118.953105,104.683314 116.349987,103.193716 115.451445,102.986965 C112.91916,103.4806 109.639529,104.13033 105.61255,104.936157 L105.61255,104.936157 L91.1739583,100.579353 L89.1534022,87.4374132 C95.0486256,90.0417165 100.377441,91.5871329 105.139848,92.0736626 C103.447132,90.5618577 101.491521,88.7114052 99.2732572,86.5214547 L71.0091042,77.5807195 L75.7779453,61.9771864 Z" id="Skin" fill="#F1D1B4"></path>
                            <path d="M37.8549488,51.7415213 C48.2891189,53.2876121 62.5269765,53.2968534 78.8324738,46.2490304 L82.6059335,60.1496022 C70.7820939,68.6659986 55.0919627,74.7132761 42.578091,72.3620955 C32.7164704,70.5092357 29.5436546,57.7279248 37.8549488,51.7415213 Z" id="Sleeve" fill="#7C89A8" transform="translate(57.845938, 59.561197) rotate(41.000000) translate(-57.845938, -59.561197) "></path>
                            <path d="M22.4940059,3.13775672e-11 L34.5917426,2.825 L42.2167892,4.5 C43.2165115,17.3540362 47.3322799,30.3772472 51.8246191,43.3868705 L52.6207363,45.6825082 C52.7538882,46.0650785 52.8872264,46.4476278 53.0206812,46.8301514 L53.8222526,49.1249474 C56.2431913,56.0521681 58.6566662,62.9679021 60.6483472,69.8445077 C70.7810375,73.1920861 81.6492276,76.0357445 93.2522936,78.3751919 C94.9837625,84.5332887 95.6030286,90.4924929 95.1100917,96.2528045 C83.71105,102.211868 73.6627523,101.408235 65.3852055,99.4867697 C65.2881412,105.617394 64.3326788,111.681582 62.2044647,117.658344 C59.9683816,123.938038 47.2709473,124.020178 33.4569432,123.137194 C31.7363522,123.027215 29.8334907,115.381021 28.0963124,115.251207 C27.2453,115.187614 26.4316805,116.819834 25.622221,118.536925 L25.3667017,119.080106 C24.5577498,120.797215 23.7494596,122.429621 22.9085984,122.366383 C13.9815986,121.695016 5.57818946,121.174184 0.23853211,122.226203 C2.33283273,107.039511 0.420452383,95.7684104 0.23853211,86.9528045 C0.008237471,75.7930435 1.14510891,68.1411657 1.15363697,56.7412903 C1.17035351,34.3954671 19.0990069,3.11501935e-11 21.7368491,3.11501935e-11 L21.7368491,3.11501935e-11 L22.4208614,0.150395058 C22.4451384,0.100228204 22.4695198,0.0500964582 22.4940059,3.13775672e-11 Z" id="Clothes" fill="#8E9EC6"></path>
                        </g>
                    </g>
                    <path d="M342.654433,58.7896352 C345.083298,56.6524626 347.769356,51.6261166 347.769356,48.2383239 C347.769356,42.5295264 350.086108,38 340.034474,38 C338.776462,38 327.539493,41.0824327 322.942242,45.8856429 C318.123293,50.9204832 320.029336,57.723579 322.942242,59.3898209 C329.009074,62.8601728 341.516625,59.7907998 342.654433,58.7896352 Z" id="Oval" fill-opacity="0.2" fill="#8FC1F6"></path>
                    <path d="M387.327217,281.846766 C388.541649,280.73172 389.884678,278.109278 389.884678,276.341734 C389.884678,273.363231 391.043054,271 386.017237,271 C385.388231,271 379.769746,272.608226 377.471121,275.114248 C375.061646,277.741122 376.014668,281.290563 377.471121,282.159907 C380.504537,283.970525 386.758312,282.369113 387.327217,281.846766 Z" id="Oval" fill-opacity="0.6" fill="#8FC1F6"></path>
                    <path d="M264.379101,27.5288653 C266.992874,25.1395578 268.656714,12.0063416 264.379101,13.1025123 C258.874783,14.5130358 248.11347,7.73263885 243.166233,13.1025123 C237.98042,18.7313426 240.031569,26.3370401 243.166233,28.1998585 C247.879743,31.0009286 256.205978,29.9910953 260.932307,28.7918325 C262.752429,28.329993 264.038671,27.8400603 264.379101,27.5288653 Z" id="Oval" fill="#FCE8A8" opacity="0.450286156"></path>
                </g>
            </g>
        </g>
    </g>
</svg>