<?xml version="1.0" encoding="UTF-8"?>
<svg width="117px" height="103px" viewBox="0 0 117 103" version="1.1" xmlns="http://www.w3.org/2000/svg" xmlns:xlink="http://www.w3.org/1999/xlink">
    <title>Group 60</title>
    <g id="1.-Public-User-Pages-VD" stroke="none" stroke-width="1" fill="none" fill-rule="evenodd">
        <g id="SEEDFUND-Home--V-2" transform="translate(-445.000000, -3246.000000)">
            <g id="Group-27" transform="translate(334.000000, 3145.000000)">
                <g id="Group-24" transform="translate(0.000000, 81.000000)">
                    <g id="Group-60" transform="translate(111.764010, 20.365603)">
                        <path d="M73.1542128,78.0805972 C80.3540625,71.3903178 88.3163048,55.6556694 88.3163048,45.0504052 C88.3163048,27.1793869 95.1838189,13 65.3879054,13 C61.6587994,13 28.3492109,22.6493545 14.7216455,37.6854907 C0.436904049,53.4467299 6.08695901,74.7433776 14.7216455,79.9594393 C32.7054689,90.8231497 69.7814227,81.2146776 73.1542128,78.0805972 Z" id="Oval" fill-opacity="0.562855114" fill="#E9EDFB"></path>
                        <path d="M105.709043,84.0389718 C106.749985,83.1097664 107.901152,80.9243985 107.901152,79.4514452 C107.901152,76.9693593 108.894046,75 104.586203,75 C104.047055,75 99.2312112,76.3401881 97.2609608,78.4285404 C95.195697,80.6176014 96.0125724,83.5754691 97.2609608,84.2999221 C99.8610316,85.8087708 105.221411,84.4742608 105.709043,84.0389718 Z" id="Oval" fill-opacity="0.2" fill="#8FC1F6"></path>
                        <path d="M79.7090428,9.03897183 C80.7499849,8.10976636 81.9011525,5.92439853 81.9011525,4.45144516 C81.9011525,1.9693593 82.8940461,0 78.5862032,0 C78.0470553,0 73.2312112,1.34018812 71.2609608,3.42854037 C69.195697,5.61760137 70.0125724,8.57546911 71.2609608,9.29992213 C73.8610316,10.8087708 79.2214105,9.47426078 79.7090428,9.03897183 Z" id="Oval" fill-opacity="0.2" fill="#8FC1F6"></path>
                        <path d="M103.854521,12.5194859 C104.374992,12.0548832 104.950576,10.9621993 104.950576,10.2257226 C104.950576,8.98467965 105.447023,8 103.293102,8 C103.023528,8 100.615606,8.67009406 99.6304804,9.71427019 C98.5978485,10.8088007 99.0062862,12.2877346 99.6304804,12.6499611 C100.930516,13.4043854 103.610705,12.7371304 103.854521,12.5194859 Z" id="Oval" fill-opacity="0.6" fill="#8FC1F6"></path>
                        <path d="M15.3726511,22.4623549 C17.0208095,20.9756262 18.0699712,12.8035806 15.3726511,13.4856646 C11.9018108,14.3633523 5.11608443,10.144301 1.99652126,13.4856646 C-1.2734798,16.9881622 0.0199062802,21.7207506 1.99652126,22.8798754 C4.96870417,24.6228203 10.2189509,23.9944591 13.199217,23.2482268 C14.3469258,22.9608506 15.157987,22.6559937 15.3726511,22.4623549 Z" id="Oval" fill="#F8D874" opacity="0.447083939"></path>
                        <g id="leaves" transform="translate(25.235990, 31.634397)" fill="#80BD59" fill-rule="nonzero">
                            <path d="M52.7578846,5.7559792 C48.2392415,9.08998267 44.8900625,13.6999037 43.569212,18.4037204 C42.0574829,23.7869517 43.2858295,28.6509224 46.8479455,31.8609128 C45.6219116,34.004922 44.4823333,36.2176699 43.5797076,38.3639823 C42.7507294,36.3103254 41.6469074,34.4712112 40.3986369,32.8322896 C42.1684878,30.0317196 42.4136234,26.6103755 41.0232169,23.104171 C39.7139294,19.8027653 37.0622663,16.7585981 33.5563642,14.5320316 C29.774729,12.1304294 25.3220839,10.8610668 20.6799836,10.8610668 C14.7232588,10.8610668 8.61247934,13.0008242 3.00851511,17.0489659 L0,19.222384 L3.58666519,20.192875 C9.50336414,21.7937069 14.2255161,26.3366609 18.3917545,30.3447641 C22.6451601,34.4368419 26.6628585,38.3017986 31.3172334,38.3030387 C33.6097319,38.3030387 35.798697,37.3913653 37.9899748,35.5274485 C40.0926621,38.4796688 41.5883809,42.0990795 41.5883809,46.5004814 L41.5883809,69 L45.1462275,69 C45.1462275,69 45.1494296,47.2484575 45.1494296,46.0781282 C45.1494296,43.2506297 46.8148576,39.0827267 49.7821017,33.8748854 C51.985654,35.0599191 54.0447577,35.6383516 56.050138,35.6383516 C62.5894601,35.6383516 66.8419763,29.4070479 71.3442533,22.8100828 C75.3628411,16.9215868 79.9175963,10.2473792 86.6945826,6.79095706 L90,5.10508762 L86.6091943,3.59637974 C81.2452068,1.21001348 75.8984749,0 70.7173607,0 C64.0714811,0 57.8610819,1.99041017 52.7578846,5.7559792 Z M21.1393583,27.8159482 C17.3844512,24.1676284 13.2184905,20.1197681 8,17.7387921 C12.2422837,15.2556464 16.5859678,14 20.9516402,14 C29.7155132,14 36.3390728,19.1907361 38.352363,24.3180501 C38.8737214,25.6460743 39.4127068,27.8446435 38.5322671,30.0452231 C35.2718236,26.7158411 31.6831914,24.4408731 29.4500184,23.0253009 C28.7969121,22.6111387 28.2328492,22.2536359 27.8561409,21.9844121 L25.7499911,24.9634194 C26.2090191,25.2918614 26.8130607,25.6747696 27.5121425,26.1178099 C29.8125524,27.5761508 33.3032368,29.7897073 36.316721,32.9759785 C34.7470125,34.335074 33.2710721,35 31.8200276,35 C28.5323259,34.9990861 25.1063343,31.6702525 21.1393583,27.8159482 Z M68.6560971,20.5463289 C64.5739672,26.6922495 61.0484195,32 56.4461095,32 C55.0962439,32 53.6505372,31.5756967 52.0504295,30.7107152 C52.2076442,30.4517786 52.3664416,30.1914025 52.5291078,29.9283272 C56.0136812,24.2909229 59.5524181,19.726333 59.5877651,19.6808076 L56.8358049,17.4398094 C56.534213,17.8275845 52.8213793,22.6304177 49.2047385,28.5791218 C47.0777682,26.2344769 46.4497888,22.8889944 47.4954246,19.0630666 C48.5948722,15.0406421 51.4340566,11.0588845 55.2854643,8.13914484 C58.3777045,5.79485986 63.6050043,3 70.9455578,3 C74.5432062,3 78.2488298,3.68000099 82,5.02578756 C76.2467168,9.1185694 72.2470631,15.14015 68.6560971,20.5463289 L68.6560971,20.5463289 Z" id="Shape"></path>
                        </g>
                        <line x1="34.7359899" y1="101.134397" x2="114.73599" y2="101.134397" id="Line" stroke="#FF8962" stroke-width="3" opacity="0.3" stroke-linecap="square"></line>
                    </g>
                </g>
            </g>
        </g>
    </g>
</svg>