<?xml version="1.0" encoding="UTF-8"?>
<svg width="22px" height="23px" viewBox="0 0 22 23" version="1.1" xmlns="http://www.w3.org/2000/svg" xmlns:xlink="http://www.w3.org/1999/xlink">
    <title>Bullet/tick</title>
    <g id="1.-PUBLIC-User" stroke="none" stroke-width="1" fill="none" fill-rule="evenodd">
        <g id="SEEDFUND-Home--V-2" transform="translate(-666.000000, -2759.000000)">
            <g id="Group-33" transform="translate(196.000000, 2403.000000)">
                <g id="Group-35" transform="translate(457.000000, 199.000000)">
                    <g id="Group-21" transform="translate(12.532847, 152.373047)">
                        <g id="Bullet/tick" transform="translate(0.467153, 5.218022)">
                            <circle id="Oval" fill="#F8D874" cx="11" cy="11" r="11"></circle>
                            <path d="M16.7710186,7.21076196 C16.4803643,6.92974601 16.0195977,6.92974601 15.7289874,7.21076196 L15.7289874,7.21076196 L8.75921729,14.1877704 L6.28944693,11.7154195 C6.00169304,11.417159 5.52686397,11.4089327 5.22895871,11.6969872 C4.93100951,11.9850418 4.92279174,12.460367 5.21054562,12.7585835 C5.21656613,12.7648302 5.22271848,12.770989 5.22895871,12.7770158 L8.22897318,15.7801648 C8.52182472,16.0732784 8.99660985,16.0732784 9.2894614,15.7801648 L16.7894756,8.27231424 C17.0772295,7.97409772 17.0689678,7.49881651 16.7710186,7.21076196 Z" id="Path" stroke="#25429C" fill="#25429C" fill-rule="nonzero" transform="translate(11.000000, 11.500000) rotate(-8.000000) translate(-11.000000, -11.500000) "></path>
                        </g>
                    </g>
                </g>
            </g>
        </g>
    </g>
</svg>