<?xml version="1.0" encoding="UTF-8"?>
<svg width="36px" height="36px" viewBox="0 0 36 36" version="1.1" xmlns="http://www.w3.org/2000/svg" xmlns:xlink="http://www.w3.org/1999/xlink">
    <title>Toparrow</title>
    <g id="1.-Public-User-Pages-VD" stroke="none" stroke-width="1" fill="none" fill-rule="evenodd">
        <g id="SEEDFUND-About" transform="translate(-1121.000000, -4966.000000)">
            <g id="Toparrow" transform="translate(1121.000000, 4966.000000)">
                <circle id="Oval" stroke="#E26640" stroke-width="2" cx="17.77775" cy="17.77775" r="16.77775"></circle>
                <path d="M23.3391317,10.591 L12.6587284,10.591 C11.7611234,10.591 11.03343,11.3186908 11.03343,12.2162926 C11.03343,13.1138943 11.7611234,13.8415851 12.6587284,13.8415851 L19.4153833,13.8415851 L11.0669513,22.1900565 C10.4323496,22.824656 10.4323496,23.8537589 11.0669513,24.488498 C11.3842173,24.8057628 11.8001619,24.9645 12.2161064,24.9645 C12.632051,24.9645 13.0480654,24.8057628 13.3652615,24.4884282 L21.713903,16.1400266 L21.713903,22.8966669 C21.713903,23.7942686 22.4415965,24.5219594 23.3392015,24.5219594 C24.2368065,24.5219594 24.9645,23.7942686 24.9645,22.8966669 L24.9645,12.2162926 C24.9645,11.3186908 24.2367367,10.591 23.3391317,10.591 Z" id="Path" fill="#E26640" fill-rule="nonzero" transform="translate(17.777750, 17.777750) rotate(314.000000) translate(-17.777750, -17.777750) "></path>
            </g>
        </g>
    </g>
</svg>