<?xml version="1.0" encoding="UTF-8"?>
<svg width="447px" height="294px" viewBox="0 0 447 294" version="1.1" xmlns="http://www.w3.org/2000/svg" xmlns:xlink="http://www.w3.org/1999/xlink">
    <title>whatsstartupindia</title>
    <g id="1.-Public-User-Pages-VD" stroke="none" stroke-width="1" fill="none" fill-rule="evenodd">
        <g id="SEEDFUND-About" transform="translate(-551.000000, -473.000000)">
            <g id="Group-5" transform="translate(170.000000, 408.000000)">
                <g id="whatsstartupindia" transform="translate(381.000000, 65.000000)">
                    <g id="Group-57" transform="translate(0.000000, 11.000000)">
                        <path d="M18.430352,174.115073 C24.1083402,116.518976 328.756579,5.35244243 385.313462,59.9063268 C441.870346,114.460211 427.554695,229.207986 309.032358,255.425761 C190.51002,281.643537 12.7523638,231.711169 18.430352,174.115073 Z" id="Background-Shape" fill="#1E2DBE" opacity="0.0429460392"></path>
                        <g id="Group-43" transform="translate(83.015034, 41.125490)">
                            <path d="M89.2213021,17.6822954 C90.7767485,16.6588784 92.4969011,14.2519377 92.4969011,12.6296427 C92.4969011,9.89589992 93.9805501,7.72686871 87.543479,7.72686871 C86.7378477,7.72686871 79.5416867,9.20293753 76.5976049,11.5030263 C73.5115476,13.9140346 74.7321783,17.1717984 76.5976049,17.9697032 C80.4828071,19.631533 88.4926489,18.1617179 89.2213021,17.6822954 Z" id="Oval" fill-opacity="0.2" fill="#8FC1F6"></path>
                            <path d="M359.468478,99.9554267 C361.023924,98.9320097 362.744077,96.525069 362.744077,94.902774 C362.744077,92.1690312 364.227726,90 357.790655,90 C356.985023,90 349.788862,91.4760688 346.844781,93.7761576 C343.758723,96.1871659 344.979354,99.4449297 346.844781,100.242835 C350.729983,101.904664 358.739824,100.434849 359.468478,99.9554267 Z" id="Oval" fill-opacity="0.2" fill="#8FC1F6"></path>
                            <path d="M22.4869796,11.8819883 C24.8978913,10.2199519 26.4325959,1.08429908 22.4869796,1.84681109 C17.4098647,2.82799142 7.48376356,-1.88854956 2.92049384,1.84681109 C-1.86283511,5.76230586 0.0291187326,11.0529376 2.92049384,12.3487407 C7.268177,14.2972051 14.9481921,13.5947506 19.3076992,12.7605263 C20.9865576,12.4392641 22.1729708,12.09846 22.4869796,11.8819883 Z" id="Oval" fill="#F8D874" opacity="0.445562318"></path>
                        </g>
                        <path d="M371.244196,78.7491743 C371.555391,78.9867098 371.917588,79.2981566 372.369686,79.5035789 C372.185562,79.627444 372.002303,79.7513091 371.81645,79.8746645 C371.775822,79.5983893 371.598613,79.2313816 371.244196,78.7491743 Z M384.807252,74.2498242 C383.676819,74.5554578 382.551131,74.9447503 381.430781,75.3753144 L381.861366,74.3714084 L381.861366,74.3714084 C382.843525,74.3122895 383.825685,74.2643251 384.807252,74.2498242 Z M381.585546,61.5428134 C382.3165,62.5110774 383.055388,63.498156 383.832293,64.4212035 C383.761164,64.5825289 383.6931,64.7455174 383.621358,64.9068428 C383.147979,64.1060368 382.473475,63.0740532 381.767086,62.0545431 C381.694525,61.8503454 381.640323,61.6959396 381.609735,61.6092916 L381.585546,61.5428134 Z M405.859112,24.3040846 C409.638168,22.5540074 414.437416,25.0992942 412.136023,30.1575255 C409.670912,35.5740888 401.555225,35.1870081 396.9791,34.8199488 C397.438911,34.8199488 399.164021,29.8228085 399.707093,29.0835562 C401.308714,26.9027618 403.535733,25.3821609 405.859112,24.3040846 Z M270.249546,205.751642 C270.488492,207.293168 270.85602,208.798949 271.375037,210.253603 C270.631651,208.965906 270.300563,207.42438 270.249546,205.751642 Z M397.48206,14.6104783 C401.198007,10.8455128 403.374782,16.6796689 403.029491,19.6847331 C402.621927,23.2279829 400.842027,26.377279 398.773998,29.1466244 C398.552323,29.4397559 398.611808,29.4280866 398.580672,29.0019258 C398.540241,29.2096383 398.462167,29.360405 398.352491,29.4668285 C398.353421,31.3432433 398.445901,33.2691356 398.266517,34.9201005 C397.75253,39.6480121 396.950414,44.3885266 395.903387,49.0272852 C395.648717,50.1554678 395.366164,51.2729148 395.057121,52.3791593 C397.036853,50.8635577 399.667201,49.5626702 400.690527,49.1663826 C403.346434,48.1390222 407.41139,47.0925242 409.88559,49.1985897 C411.938284,50.9457092 411.889023,53.8378151 410.039879,55.7002267 C407.838008,57.9173834 404.044452,57.6335873 401.221243,57.2583044 C399.944177,57.0884002 393.125256,56.1809996 394.807099,55.1452374 C394.679764,55.1858463 394.413011,55.2866686 394.125811,55.4276331 C393.946891,55.9686193 393.760536,56.5072717 393.567675,57.0431235 C393.606712,57.0687958 393.639708,57.0958685 393.681533,57.1215408 L393.677546,57.1188134 L393.620886,57.0867665 L393.620886,57.0867665 L393.564422,57.0519921 C391.632557,62.4077092 389.017081,67.4665606 385.693827,72.1533965 C386.865865,71.7613099 388.073223,71.481248 389.287551,71.3920949 C392.883599,71.1274365 400.25322,74.2982039 396.00795,78.8464092 C391.937417,83.2065062 386.228726,78.0006222 381.915607,77.0978894 C377.389178,82.7649419 372.443102,88.1640686 367.283717,93.362951 C367.577424,93.4721751 367.829305,93.6808213 367.963611,93.9921567 C369.970761,93.1024934 372.082475,91.7899367 373.9121,91.5005394 C376.552207,91.0837139 381.923972,91.0286351 383.774974,93.4698413 C386.051666,96.4716381 383.327444,98.670124 380.430808,99.0710793 C376.230617,99.6526745 370.893707,97.3351623 366.96445,95.7523458 C366.502513,95.8092917 366.009904,95.6491896 365.730604,95.2673719 C365.6437,95.2337645 365.556796,95.2006238 365.472216,95.1684167 C360.252417,100.337426 354.853233,105.317393 349.491227,110.183935 C349.5456,110.183935 349.599973,110.183469 349.65667,110.183469 C351.030864,109.381558 352.493356,108.74115 354.057623,108.447552 C357.676442,107.763734 361.880816,107.979848 364.645004,110.71792 C367.398504,113.444323 368.18575,118.001397 365.046063,120.736201 C358.761576,126.210478 350.640494,112.551859 347.652308,111.842835 C342.206187,116.73365 336.480766,121.269719 330.674482,125.704032 C331.315804,125.544864 331.970602,125.437507 332.643061,125.409034 C338.121248,125.172848 350.565209,132.527741 343.53112,138.753517 C339.600096,142.232763 335.652826,138.798821 332.141108,134.805304 L331.785503,134.397503 L331.785503,134.397503 L331.433007,133.987328 C329.736958,132.001472 328.153537,129.984494 326.736396,128.690893 L326.812546,128.761813 L326.679424,128.733915 C322.010635,132.25937 317.322622,135.762226 312.718599,139.373156 L310.414764,141.195656 C313.245408,140.600525 315.949183,140.632732 318.894614,141.694167 C321.942286,142.793876 326.816794,145.394718 324.640019,149.474286 C322.426065,153.622936 316.526837,151.373106 313.472194,149.858905 C311.806153,149.033189 308.518683,146.3684 305.572786,145.164134 C297.000455,152.449477 289.480264,160.57454 283.599624,170.302023 C279.928291,176.375632 277.04095,182.918812 274.895311,189.686974 C273.525764,194.006929 270.894022,201.245129 271.045058,206.969127 C269.499381,195.446447 274.093194,181.945596 278.802725,171.965591 C283.133039,162.788429 289.309709,154.856609 296.427449,147.798582 C295.886889,145.834359 293.554656,143.45083 291.350319,141.015742 L291.003609,140.63088 C287.55273,136.779043 284.672583,132.846918 289.919429,130.282111 C294.562504,128.022945 298.967175,132.40638 299.723748,136.843961 C300.243312,139.893369 299.012718,143.626127 297.764,146.493961 C299.999331,144.345886 302.314594,142.274828 304.693061,140.279854 C307.980066,137.522645 311.337709,134.854121 314.724166,132.22294 C309.648431,126.926503 305.347394,112.320341 312.628253,110.350106 C323.379218,107.450531 317.264821,126.745863 316.33537,130.373598 C316.125314,130.374998 315.965448,130.303116 315.85252,130.161218 C315.894345,130.500092 315.944535,130.862773 316.009132,131.229187 C322.489268,126.221213 329.055843,121.322931 335.427232,116.181461 C334.900233,115.747365 334.109735,114.152879 333.467949,113.292623 C332.019399,111.353194 330.641952,109.334414 329.674857,107.103721 C328.147304,103.578676 326.787516,98.0124453 331.419902,96.2289178 C336.457994,94.2852882 338.47258,100.605818 338.313179,104.304969 C338.202575,106.863335 337.379081,109.255997 336.885077,111.743413 C336.730788,112.519185 336.982669,116.065702 335.997451,114.494088 C336.018364,115.055612 336.004422,115.460768 335.964455,115.746432 C337.10861,114.818493 338.244865,113.879352 339.374613,112.932743 C339.331393,112.803448 339.301651,112.663417 339.301651,112.502848 C339.301651,111.397537 340.432793,111.031123 341.193549,111.394736 C342.685784,110.118121 344.165006,108.823768 345.620527,107.500942 C348.705376,104.698456 351.837163,101.813819 354.951755,98.8633667 C354.340176,98.2794376 354.634812,97.5307388 354.066452,96.9150694 C353.499022,96.3008003 352.338137,95.9166488 351.663356,95.3383209 C349.966177,93.8829326 348.603601,91.8207435 347.645337,89.8112993 C346.06341,86.4911655 344.155247,79.6002425 349.351345,78.329695 C354.707309,77.017605 357.042091,83.6770102 357.167567,87.7705816 C357.192198,88.5636236 356.228356,95.6473226 355.640478,98.2070883 C361.404936,92.7225428 367.090856,87.0167483 372.277195,81.1802583 C370.802156,81.0892382 366.776701,77.8456547 365.97412,76.9760625 C364.015766,74.8550603 360.968094,70.2354393 364.709601,68.0714944 C368.036108,66.1526036 371.843141,69.3840511 373.064905,72.3947165 C373.265667,72.8904261 373.827055,77.4358307 373.783371,79.4597447 C375.933192,76.9821305 377.990998,74.4844451 379.915427,71.9713563 C381.198535,70.3007871 382.405892,68.5802735 383.543541,66.8182173 C383.300025,66.662783 383.076956,66.4023254 382.870153,66.0821213 C377.552297,64.8899912 371.150235,56.1576611 377.605276,53.5745569 C380.678507,52.3464854 383.782875,55.3767552 385.130115,57.7950897 C385.406162,58.2898657 385.767718,60.7236036 386.065143,62.6438947 C389.379567,56.7826659 392.005267,50.5312176 394.091886,44.0897939 C393.630878,43.9492961 393.253985,43.5716793 393.234002,42.9550764 C390.706824,41.3330512 388.714544,39.9882873 387.045714,37.0364349 C386.008911,35.202963 384.186721,31.0426435 387.557842,30.2318643 C391.944853,29.1769645 394.312631,35.9189879 394.495733,39.1882438 C394.514056,39.5135157 394.473312,40.3662185 394.419154,41.2360679 L394.391169,41.670059 C394.542205,41.6574563 394.693706,41.6677252 394.841024,41.7017994 C396.045128,37.7085835 397.051724,33.6528204 397.896595,29.5816539 C397.522965,29.4393837 397.215823,28.9977059 396.970405,28.3497949 C396.867546,28.5076659 396.739592,28.6513174 396.582577,28.7757061 C396.590724,28.2900566 396.614319,27.8090376 396.670737,27.3394351 C396.646241,27.2297449 396.621541,27.115781 396.597928,26.9990329 L396.829438,26.4302536 C396.64815,26.880813 396.46204,27.3313724 396.272072,27.7819319 C396.338609,27.4685387 396.416717,27.1565081 396.531469,26.8453859 C396.531156,26.8464182 396.539246,26.8212504 396.554093,26.7750929 C395.813255,22.7678332 396.269716,15.8366651 397.48206,14.6104783 Z" id="Leaf-Bottom" fill="#80BD59" opacity="0.393304869" transform="translate(341.492755, 111.819208) rotate(-12.000000) translate(-341.492755, -111.819208) "></path>
                        <path d="M7.13333333,254.030224 C7.37227875,255.186368 7.73980701,256.315704 8.25882353,257.406695 C7.51543778,256.440922 7.18435,255.284778 7.13333333,254.030224 Z M132.245566,63.7539988 C135.902058,60.032812 138.044005,65.7991291 137.704238,68.7692507 C137.303195,72.2712999 135.551774,75.3839762 133.516833,78.12112 C133.298705,78.4108429 133.357238,78.3993094 133.3266,77.9781039 C133.286816,78.1834012 133.209991,78.3324147 133.10207,78.4376008 C133.102813,79.9428585 133.1629,81.4803309 133.091133,82.8785854 C133.306887,82.4077635 133.550527,81.8293559 133.794385,81.2399555 L133.996431,80.7499499 C134.465447,79.6103199 134.908586,78.5303561 135.138981,78.2167339 C136.740601,76.0359396 138.967621,74.5153386 141.290999,73.4372623 C145.070056,71.6871851 149.869304,74.2324719 147.56791,79.2907033 C145.20497,84.4827689 137.650139,84.3423026 132.997567,83.9984551 C132.492433,88.6145963 131.709869,93.2416712 130.692151,97.7706102 C130.441557,98.8856745 130.163524,99.9901279 129.859426,101.083509 C131.807482,99.5855307 134.395744,98.2997698 135.402697,97.9080902 C138.01611,96.8926759 142.016027,95.8583465 144.450639,97.9399228 C146.47049,99.666727 146.422017,102.525204 144.60246,104.365959 C142.435819,106.557335 138.70296,106.276839 135.924922,105.90592 C134.668289,105.737991 127.958471,104.841142 129.613404,103.817423 C129.488107,103.85756 129.225622,103.95721 128.943017,104.096536 C128.76696,104.631231 128.583587,105.16362 128.393811,105.693241 C128.432224,105.718615 128.464691,105.745373 128.505847,105.770747 L128.502333,105.768586 L128.446171,105.736377 L128.446171,105.736377 L128.39061,105.702007 C126.489655,110.995448 123.916026,115.995476 120.645945,120.627813 C121.79923,120.240286 122.98727,119.96348 124.182169,119.875364 C127.72068,119.613783 134.972387,122.747681 130.795042,127.243 C128.102885,130.139481 124.682514,128.764682 121.440359,127.280888 L120.967274,127.063452 C119.552469,126.411711 118.180536,125.778095 116.928176,125.514812 C112.47417,131.115969 107.607231,136.452315 102.530396,141.590745 C102.819404,141.698699 103.067255,141.904919 103.199412,142.212634 C105.174448,141.333316 107.252374,140.036022 109.052725,139.749989 C111.650591,139.338011 116.936407,139.283572 118.757794,141.696392 C120.998058,144.663285 118.317423,146.836207 115.467134,147.2325 C111.334146,147.807332 106.082626,145.516768 102.216238,143.952356 C101.761692,144.00864 101.276964,143.8504 101.002133,143.473022 C100.91662,143.439805 100.831106,143.40705 100.74788,143.375217 C95.6115968,148.484121 90.2988002,153.406182 85.0225867,158.216137 L85.0225867,158.216137 L85.185382,158.215675 C86.5375889,157.423089 87.9766809,156.790128 89.5159195,156.499943 C93.0768377,155.824077 97.2139414,156.037678 99.9339031,158.743912 C102.643347,161.438613 103.417997,165.942697 100.328544,168.645702 C94.1446101,174.056324 86.1534652,160.556526 83.2130897,159.855747 C77.8541067,164.689692 72.2202924,169.173016 66.5069095,173.555767 C67.1379699,173.39845 67.7822917,173.292341 68.4439905,173.264199 C73.8345265,173.03076 86.0793842,180.30013 79.1578409,186.453513 C75.1146424,190.047943 71.0539781,186.17707 67.4835543,182.012462 L67.133964,181.602133 C65.5100874,179.685207 63.9930098,177.755934 62.631833,176.507897 C57.2504428,180.589853 51.8425298,184.640438 46.5713465,188.867256 C49.3567007,188.279045 52.0172146,188.310877 54.9155195,189.35997 C57.9144281,190.446892 62.7109442,193.017491 60.5689973,197.049623 C58.3904671,201.150033 52.5856263,198.926363 49.5798583,197.429769 C47.9404732,196.613654 44.7056028,193.979851 41.8068407,192.789588 C33.3716671,199.990219 25.9717983,208.020804 20.185249,217.635177 C16.572657,223.638162 13.7315135,230.105258 11.620205,236.794721 C10.272571,241.064444 7.68293701,248.218479 7.8315563,253.875919 C6.31060935,242.487224 10.8309222,229.14336 15.4651004,219.2794 C19.7261297,210.20895 25.8039728,202.369361 32.8078284,195.393404 C32.3459059,193.707466 30.5544027,191.708983 28.6703772,189.636001 L28.1551875,189.068974 C24.4885225,185.026192 20.8968473,180.784595 26.4039374,178.080612 C30.9727231,175.847716 35.3069189,180.180181 36.0513872,184.566162 C36.5626376,187.580111 35.3517333,191.269465 34.1229948,194.103952 C36.3225603,191.980855 38.6007797,189.93388 40.9411905,187.962103 C44.1756036,185.236954 47.4795247,182.59946 50.8117979,179.998874 C45.8172751,174.764023 41.585055,160.3277 48.7494194,158.380375 C59.3283692,155.514516 53.311803,174.585483 52.3972227,178.171036 C52.1905276,178.17242 52.0332198,178.101373 51.9220983,177.961125 C51.9632544,178.296059 52.0126417,178.654522 52.0762051,179.016676 C58.4526586,174.066935 64.914168,169.225609 71.1836157,164.143924 C70.6650486,163.714875 69.8871981,162.13893 69.2556805,161.288676 C67.8303072,159.371799 66.4748992,157.376494 65.5232785,155.171739 C64.0201658,151.687682 62.6821349,146.186175 67.2404029,144.423387 C72.1978851,142.502357 74.1802378,148.749393 74.0233873,152.405531 C73.9145523,154.934148 73.1042342,157.298988 72.6181348,159.757481 C72.4663145,160.524232 72.7141657,164.029511 71.7447106,162.476171 C71.7652887,163.031166 71.75157,163.431611 71.712243,163.713953 C72.8380913,162.796804 73.9561657,161.868584 75.067838,160.932981 C75.02531,160.80519 74.9960434,160.666787 74.9960434,160.508085 C74.9960434,159.415627 76.1090876,159.053473 76.8576715,159.412859 C78.3260301,158.151087 79.7815846,156.871785 81.2138173,155.564341 C84.2493091,152.794442 87.3309873,149.943347 90.3957457,147.027202 C89.7939519,146.450063 90.0838738,145.71007 89.524608,145.10156 C89.2764519,144.831726 88.9129457,144.606819 88.5273492,144.390022 L87.9440439,144.066308 C87.6557649,143.90289 87.3812892,143.73368 87.1599608,143.543146 C85.4899372,142.10468 84.1491626,140.06647 83.2062303,138.080392 C81.6496147,134.798864 79.7719815,127.988068 84.8849424,126.732294 C90.1552111,125.435461 92.4526367,132.017431 92.576105,136.063403 C92.6003414,136.847224 91.6519216,143.848554 91.0734496,146.378555 C96.7456764,140.957783 102.340621,135.318335 107.443979,129.549712 C105.99254,129.45975 102.031493,126.253882 101.241753,125.394402 C99.3147323,123.298062 96.3158236,118.732158 99.9974664,116.593375 C103.270749,114.696797 107.01687,117.89067 108.219086,120.866327 C108.416635,121.356273 108.969041,125.848824 108.926056,127.849204 C111.04148,125.400399 113.066361,122.931757 114.959999,120.44789 C116.222577,118.796746 117.410617,117.096238 118.530063,115.354671 C118.290443,115.201044 118.070944,114.943615 117.86745,114.627134 C112.634679,113.448866 106.33505,104.818075 112.68681,102.265007 C115.71087,101.051215 118.765568,104.046249 120.091252,106.436464 C120.362882,106.925486 120.718654,109.330925 121.01132,111.228887 C124.272713,105.435812 126.856402,99.257055 128.909635,92.8905316 C128.456003,92.7516676 128.08514,92.3784417 128.065477,91.7690085 C125.578733,90.1658441 123.618331,88.836717 121.976202,85.9191885 C120.955987,84.107036 119.162953,79.9950923 122.480135,79.1937408 C126.796954,78.1511072 129.126847,84.8147351 129.30702,88.0459764 C129.328055,88.4210476 129.269979,89.5056633 129.204129,90.4989333 C129.352749,90.486477 129.501825,90.4966265 129.646786,90.5303045 C130.831625,86.5835214 131.822115,82.5749183 132.653469,78.551091 C130.372506,77.6786927 130.609839,65.4157537 132.245566,63.7539988 Z" id="Leaf-Bottom" fill="#80BD59" opacity="0.393304869" transform="translate(77.650592, 159.974640) scale(-1, 1) rotate(4.000000) translate(-77.650592, -159.974640) "></path>
                    </g>
                    <g id="Group-42" opacity="0.71634266" transform="translate(123.151438, 161.096300) rotate(-20.000000) translate(-123.151438, -161.096300) translate(61.651438, 48.596300)">
                        <path d="M78.5619171,49.1609644 C80.4143326,46.5177393 83.8518858,39.8048153 86.459126,38.8603116 C88.1384297,38.251964 87.6488049,44.5448546 87.6695433,45.7447708 C87.7503046,50.3870576 87.2986875,54.9999086 86.7409767,59.6032192 C85.7362054,67.9052709 82.4506914,75.2988791 77.9443654,82.3647793 C75.6255056,86.000615 72.9056669,89.6805367 69.1385632,91.9491239 C67.4045617,92.9938542 65.3181224,93.1687767 63.6056871,94.0688969 C61.6113062,95.1167543 62.6974421,94.2696716 61.7986425,96.3494168 C60.5504691,99.2368649 60.1512321,102.961981 59.5737219,106.042991 C56.922078,120.1865 50.502498,194.952779 51.615407,209.339431 C51.7142511,210.614601 49.9374732,210.919538 49.8487754,209.362822 C49.3773314,201.10868 53.4568439,143.948875 55.515027,125.255976 C57.5732102,106.563076 59.6559977,90.0488336 61.7444047,83.5816755 C64.2779537,75.7356382 68.8536883,66.3001726 72.6626677,58.9834032 C74.43191,55.5841974 76.360419,52.3020922 78.5619171,49.1609644 Z" id="Leaf" fill="#C3DAFB"></path>
                        <path d="M92.3111915,140.841408 C97.1314305,137.300027 102.348977,143.98367 97.9871574,147.525596 C95.5758401,149.483358 93.0549486,148.786928 91.6357554,147.155422 C90.7144727,148.279228 89.8521832,149.454276 89.023635,150.446783 C86.4992604,153.471142 84.1133448,156.567685 81.833101,159.73643 C77.0962469,166.31942 73.0368485,173.274209 68.7924586,180.101823 C64.6038008,186.840308 60.4486357,193.613306 56.6520926,200.522516 C53.4358817,206.376291 49.1490811,213.262789 48.0479506,219.680256 C49.7186575,206.069919 56.0582331,192.987975 63.6075618,180.98942 C71.0954613,169.089432 79.6886959,156.093325 91.2827424,146.702115 C90.1027522,144.965608 90.0699955,142.486877 92.3111915,140.841408 Z" id="Leaf" fill="#2E428C" opacity="0.257562682"></path>
                        <path d="M0.843350239,107.648076 C3.54075515,108.17598 7.94828436,114.282334 10.1717504,116.608902 C12.8141903,119.373703 15.2115391,122.320586 17.4713224,125.408187 C22.3361733,132.054119 26.6869273,139.120125 30.3865482,146.488732 C36.4178989,158.501036 41.2497952,170.832081 44.756509,183.912807 C46.9030957,191.919992 48.2929217,200.219128 49.1166074,208.460308 C49.272164,210.014546 50.9005002,221.997421 48.5541674,222.320392 C46.4438883,222.611208 47.0956747,213.221549 46.993869,211.944325 C45.8430662,197.534839 42.3955872,183.514531 37.6001755,169.932869 C36.5556661,166.974233 35.58528,163.350432 33.914863,160.687945 C32.7119287,158.770198 33.9062364,159.438978 31.7922376,158.713204 C29.9770328,158.089637 27.9088652,158.24201 26.0500543,157.478713 C22.0119715,155.821527 18.7786255,152.604435 15.9443765,149.368418 C10.4364371,143.079504 6.07167537,136.275883 3.79650947,128.217568 C2.53440472,123.749496 1.37459489,119.255434 0.730971639,114.649199 C0.564477513,113.458623 -0.894027902,107.308056 0.843350239,107.648076 Z" id="Leaf" fill="#C3DAFB"></path>
                        <path d="M11.4880283,6.05048473 C21.6485939,23.6841834 29.9981306,43.0543391 35.3894866,62.6733774 C38.6560048,74.5603402 40.9403791,86.7581107 43.2100868,98.867769 C46.7243199,117.618065 50.0483812,136.366914 50.9939193,155.450271 C51.9451912,174.644222 53.8262673,196.782188 47.5457986,215.269006 C50.6829242,196.499863 47.6961677,176.521572 47.1673343,157.635944 C46.9146176,148.620251 46.1822913,139.692701 45.2216162,130.729691 C44.2893767,122.03509 42.766361,113.38189 41.3480903,104.755628 C40.6572243,100.554483 39.9316594,96.3596586 39.1929336,92.1671287 C38.9723986,90.9162823 38.87924,87.2045845 38.0863491,86.3500762 C37.2883232,85.4899414 33.2166893,85.1392938 31.9383848,84.5081783 C29.3643188,83.2370345 26.9430622,81.4314669 24.8001873,79.5236535 C20.6922679,75.8664234 17.1185849,71.087808 14.2979483,66.3771797 C7.77172677,55.477527 5.16254661,42.1759819 5.29442512,29.5527973 C5.31976388,27.1019452 9.25844247,0.710189795 7.6766058,0.346753491 C7.77184578,0.235132591 7.86193552,0.119880654 7.94688259,0 C9.1444685,2.00658263 10.3196472,4.0267636 11.4880283,6.05048473 Z" id="Leaf" fill="#ADCEFA"></path>
                        <path d="M121.154081,69.6480317 C121.310855,69.421742 122.331205,67.8479651 121.817389,67.948544 C122.863537,67.7437618 120.378477,69.6842525 122.985121,68.4935762 C121.747469,69.6633033 122.461758,71.1827972 122.478277,72.7571216 C122.505228,75.3131252 122.077879,77.8481689 121.596825,80.3493304 C120.836684,84.3029034 119.70428,88.1469318 118.060615,91.8242296 C114.478196,99.837898 108.395066,107.552518 101.17326,112.562605 C97.6080537,115.036286 94.1139932,115.878483 90.0478737,117.017273 C87.4795404,117.736721 87.2758675,119.06624 85.91259,121.560318 C83.0743487,126.754949 80.2866535,131.930895 77.7835766,137.300794 C74.7947367,143.713018 71.8932941,150.13231 69.1563915,156.657413 C59.9362576,178.636876 52.4319238,201.407928 48.4908771,224.973756 C48.3943837,211.086486 51.6046601,196.783785 55.6541134,183.546906 C58.6038965,173.902817 62.4439601,164.606206 66.539763,155.403709 C67.5322589,153.174296 69.0362964,150.306515 69.4577772,147.845146 C69.7528982,146.120589 68.8506262,144.462071 68.4375161,142.645384 C66.8269847,135.570867 66.9422558,127.645128 68.3565418,120.532785 C69.9159007,112.690076 74.4254943,109.050009 82.0540545,107.93914 C84.8439717,107.532795 88.3900282,107.681723 90.9482448,106.491296 C93.7353835,105.19496 94.8851202,100.933919 96.4699892,98.1986651 C100.726894,90.8511964 105.784712,83.8045253 111.592485,77.6136734 C113.200602,75.8993478 114.929983,74.3177661 116.764662,72.8518339 C117.921609,71.9269122 120.365628,70.78741 121.154081,69.6480317 Z" id="Leaf" fill="#C3DAFB"></path>
                    </g>
                    <g id="rocket-(2)" transform="translate(109.000000, 111.000000)" fill-rule="nonzero">
                        <path d="M20.7831439,166.835854 L20.7831439,12.9152127 C20.7831439,6.02286773 26.3662543,0.435242365 33.2530302,0.435242365 L224.459464,0.435242365 C231.34624,0.435242365 236.92935,6.02286773 236.92935,12.9152127 L236.92935,166.835854" id="Path" fill="#A3A3A3"></path>
                        <path d="M224.459464,150.195894 L216.145703,150.195894 L211.237076,145.569429 L47.8178413,145.569429 L41.5667911,150.195894 L33.2535335,150.195894 C30.9577738,150.195894 29.0969048,148.33352 29.0969048,146.035904 L29.0969048,12.9152127 C29.0969048,10.6175965 30.9577738,8.75522258 33.2535335,8.75522258 L224.459967,8.75522258 C226.755727,8.75522258 228.616596,10.6175965 228.616596,12.9152127 L228.616596,146.035904 C228.616596,148.33352 226.755223,150.195894 224.459464,150.195894 Z" id="Path" fill="#FFFFFF"></path>
                        <path d="M211.989577,141.875914 L45.7234198,141.875914 C41.1319004,141.875914 37.4101623,138.150662 37.4101623,133.555933 L37.4101623,25.395183 C37.4101623,20.7999505 41.1324037,17.0752028 45.7234198,17.0752028 L211.990081,17.0752028 C216.5816,17.0752028 220.303338,20.8004543 220.303338,25.395183 L220.303338,133.555933 C220.303338,138.151166 216.581097,141.875914 211.989577,141.875914 Z" id="Path" fill="#F4F6F7"></path>
                        <path d="M4.15662877,162.675864 L4.15662877,171.764571 L249.39974,171.764571 L257.712997,166.835854 L257.712997,162.675864 C257.712997,160.378248 255.852128,158.515874 253.556369,158.515874 L8.31325755,158.515874 C6.01749782,158.515874 4.15662877,160.378752 4.15662877,162.675864 L4.15662877,162.675864 Z" id="Path" fill="#DAD8DB"></path>
                        <path d="M8.31325755,158.515874 L4.15662877,158.515874 C1.86086904,158.515874 0,160.378248 0,162.675864 L0,166.835854 C0,171.430583 3.72224144,175.155834 8.31325755,175.155834 L249.39974,175.155834 C253.990756,175.155834 257.712997,171.430583 257.712997,166.835854 L16.6265151,166.835854 C12.035499,166.835854 8.31325755,163.111106 8.31325755,158.515874 L8.31325755,158.515874 Z" id="Path" fill="#C8C5C9"></path>
                        <line x1="236.929853" y1="166.835854" x2="20.7831439" y2="166.835854" id="Path" fill="#6F6571"></line>
                    </g>
                    <g id="Group-51" transform="translate(187.000000, 34.000000)">
                        <path d="M47.2294513,0.210667774 C19.6861786,2.40565772 2.10706732,25.1751187 0.105229385,45.0425265 C-0.145211776,47.5280507 -0.75735268,62.3161525 9.46710508,81.2588845 C11.8307221,85.6379299 17.8722922,91.8379305 27.5918152,99.8588864 C32.6437061,104.704726 35.7546477,108.559114 36.9246403,111.42205 C38.0946328,114.284986 38.6437301,119.483406 38.5719322,127.017311 L63.4408029,127.017311 L64.4227583,111.42205 C64.0878934,108.136413 68.1596205,103.817798 76.6379397,98.4662031 C89.3554185,90.4388113 113.327266,69.7717308 97.9585865,28.513759 C87.7306164,1.05627317 60.3586523,-0.835629971 47.2294513,0.210667774 Z" id="Path-5" fill="#F8D874"></path>
                        <path d="M37.7468499,127.739633 L64.0397053,127.739633 C65.329979,128.357799 65.8124935,129.554132 65.4872488,131.328632 C65.162004,133.103131 63.9063763,134.182362 61.7203657,134.566325 C61.6484319,136.50232 61.3511181,137.799909 60.8284243,138.459093 C60.3057306,139.118276 59.2693658,139.502625 57.7193298,139.61214 L56.7220832,144.062745 L44.5501507,143.677083 L44.5501507,139.61214 C43.2324611,139.520214 42.1777929,139.135865 41.3861459,138.459093 C40.594499,137.78232 40.3289117,136.484731 40.5893839,134.566325 C38.5569747,133.458904 37.3817336,132.523249 37.0636608,131.759358 C36.7455879,130.995467 36.9733176,129.655559 37.7468499,127.739633 Z" id="Path-6" fill="#E2C567" opacity="0.812727108"></path>
                        <path d="M56.2824916,36.2328213 C58.9527036,36.8671554 60.2878096,38.9622356 60.2878096,42.5180619 C59.8439295,47.201158 59.2065458,50.6760823 58.3756585,52.9428348 C57.5447712,55.2095872 55.7143693,58.467055 52.8844528,62.715238 C54.2109734,76.3004623 55.008222,86.462561 55.2761987,93.2015342 C55.5384738,99.797125 55.8653632,109.408017 56.2568671,122.034211 L56.2824916,122.861934 L54.0497813,122.861934 C53.8078179,109.695 53.419375,99.8082001 52.8844528,93.2015342 C52.3495306,86.5948684 51.1675771,77.0861698 49.3385925,64.6754385 C49.1197667,74.4692949 49.1197667,82.9929979 49.3385925,90.2465475 C49.5532101,97.3606057 50.1201743,107.955085 51.0394851,122.029984 L51.0939686,122.861934 L48.6062249,122.861934 C47.2294819,108.269051 46.4626051,97.397256 46.3055944,90.2465475 C46.2326965,86.9265756 46.1936441,83.3106395 46.1884371,79.3987389 L46.1884371,77.5722311 C46.1936441,73.5692646 46.2326965,69.2703337 46.3055944,64.6754385 C42.0043145,61.3079331 39.2783055,58.4249027 38.1275673,56.0263471 C36.40146,52.4285138 35.0833855,41.5982518 38.1275673,39.2106101 C40.1570218,37.618849 41.7637166,37.4457082 42.9476516,38.6911879 C45.1843491,42.1623413 46.6855485,45.1782622 47.45125,47.7389508 C48.190548,50.2113397 48.8025161,54.1265013 49.2871542,59.4844353 L49.3385925,60.0640205 L50.1349571,40.8554471 C51.5631014,37.1393625 53.6122796,35.5984873 56.2824916,36.2328213 Z M40.2378626,42.4314916 C38.5421522,43.67053 39.7097924,51.950283 41.0752073,54.3940478 C41.9854839,56.0232244 43.7860409,57.9960497 46.4768783,60.3125238 C46.2984063,56.7425776 45.9963238,54.0302327 45.5706308,52.1754889 C45.1449377,50.3207452 44.201968,47.6084002 42.7417217,44.038454 C42.202956,42.1411201 41.3683363,41.605466 40.2378626,42.4314916 Z M55.2761987,42.0556773 C54.1397561,41.6760518 53.5163865,42.3369774 53.4060901,44.038454 L53.4060901,44.038454 L52.2429168,56.5540558 L56.9808627,46.3035832 C56.9808627,43.8512714 56.4126414,42.4353027 55.2761987,42.0556773 Z" id="Combined-Shape" fill="#FDF1D2"></path>
                    </g>
                    <path d="M231.87779,180 C234.271166,180 236.149803,180 237.513702,180 C238.8776,180 240.810037,180 243.311014,180 L249.734704,218.357275 C256.981438,203.037284 265.483789,197.697266 275.241758,202.33722 C284.999727,206.977174 288.000696,216.983502 284.244663,232.356203 C287.323489,229.989288 290.601079,229.989288 294.077433,232.356203 C297.553787,234.723117 298.983469,237.928116 298.36648,241.9712 C304.516159,237.38815 311.641283,237.38815 319.741851,241.9712 C327.842419,246.55425 331.928469,252.897183 332,261 L156.757377,261 C150.885754,257.005282 149.505233,252.064124 152.615815,246.176526 C155.726397,240.288928 161.812856,238.887153 170.875193,241.9712 C166.623156,231.329285 169.437515,223.015583 179.31827,217.030094 C189.199025,211.044605 199.164225,212.929719 209.21387,222.685435 C208.13514,215.707856 210.279428,211.857856 215.646734,211.135437 C221.01404,210.413018 225.008118,212.820297 227.628967,218.357275 L231.87779,180 Z" id="Path-7" fill="#8E9EC6" opacity="0.758153161"></path>
                    <path d="M237.949117,184 L240.361332,184 C241.4983,201.456127 242.368412,211.965226 242.971666,215.527299 C243.574921,219.089372 245.101663,222.461979 247.551892,225.64512 C249.663801,221.289384 252.615717,219.681887 256.407639,220.82263 C260.199561,221.963374 261.740476,224.202072 261.030384,227.538725 C267.067105,224.265214 272.496347,224.265214 277.31811,227.538725 C282.139873,230.812235 283.922247,235.708224 282.665233,242.226693 C287.003338,238.825963 292.110619,239.261544 297.987076,243.533438 C303.863533,247.805331 306.507766,252.294185 305.919777,257 L180.065251,257 C175.531515,249.36097 176.027081,242.900047 181.551947,237.617232 C187.076813,232.334417 192.841159,231.886886 198.844986,236.274639 C199.007858,233.633367 200.408305,231.84089 203.046326,230.897208 C205.684348,229.953526 208.024372,230.800912 210.066399,233.439367 C210.135474,229.006694 212.483069,226.126403 217.109183,224.798495 C221.735297,223.470587 225.682374,224.383997 228.950415,227.538725 C231.352723,223.93535 233.006187,220.221894 233.910805,216.398357 C234.815423,212.574819 236.161527,201.775367 237.949117,184 Z" id="Path-8" fill="#D5E9F2"></path>
                    <path d="M266.332699,244 C264.651043,244 263.042204,244.263121 261.537898,244.725046 C260.128483,241.072155 256.264835,238.428571 251.666159,238.428571 C249.101557,238.428571 246.783317,239.277532 244.962369,240.633619 C245.209746,239.932637 245.380499,239.201744 245.380499,238.428571 C245.380499,234.3259 241.628234,231 236.999619,231 C232.371005,231 228.61874,234.3259 228.61874,238.428571 C228.61874,239.201744 228.789493,239.932637 229.03687,240.633619 C227.215922,239.277532 224.897428,238.428571 222.33308,238.428571 C217.73415,238.428571 213.870756,241.072155 212.461341,244.725046 C210.957035,244.263346 209.347942,244 207.66654,244 C199.566528,244 193,249.820382 193,257 L281,257 C281,249.820157 274.432711,244 266.332699,244 L266.332699,244 Z" id="Path" fill="#FFFFFF" fill-rule="nonzero" opacity="0.667650799"></path>
                    <g id="dollar" transform="translate(310.000000, 230.000000)" fill-rule="nonzero">
                        <path d="M96.698336,44.145096 L96.698336,54.335016 C96.698336,57.795688 87.469816,60.679704 76.1264,60.679704 C64.782984,60.679704 55.746744,57.89192 55.746744,54.431248 L55.746744,53.277752 L55.554464,45.202728 L55.650512,45.202728 C57.188568,48.182792 65.648152,50.489968 75.837888,50.489968 C86.027624,50.489968 96.506056,47.606136 96.506056,44.14528 L96.698336,44.14528 L96.698336,44.145096 Z" id="Path" fill="#E2A63B"></path>
                        <path d="M75.54956,6.269616 L75.54956,16.363304 L75.35728,16.363304 C75.35728,19.920208 65.840432,22.707992 54.593064,22.707992 C50.267224,22.80404 45.845152,22.323432 41.61536,21.265984 L41.42308,21.458264 C39.308184,19.727928 36.90496,18.382152 34.309456,17.516984 L34.309456,17.324704 L34.021128,6.654176 C34.694016,9.922568 43.634208,12.518072 54.497016,12.518072 C65.359824,12.518072 75.35728,9.730288 75.35728,6.269616 L75.54956,6.269616 Z" id="Path" fill="#F4B844"></path>
                        <path d="M75.54956,6.461896 L75.54956,6.461896 C75.54956,9.922568 66.032712,12.710352 54.689296,12.710352 C43.34588,12.710352 34.790248,10.114848 34.11736,6.846456 C34.11736,6.750408 34.021312,6.558128 34.021312,6.461896 C34.021312,3.001224 43.249832,0.117208 54.68948,0.117208 C66.12876,0.02116 75.54956,2.904992 75.54956,6.461896 Z" id="Path" fill="#FEDB41"></path>
                        <path d="M55.650512,45.202544 L55.650512,45.202544 L55.554464,43.087648 L55.362184,34.435968 C56.035072,37.70436 64.975264,40.299864 75.838072,40.299864 C86.70088,40.299864 96.31396,37.51208 96.602288,34.147456 L96.698336,34.147456 L96.698336,44.145096 L96.506056,44.145096 C96.506056,47.605768 87.181304,50.489784 75.837888,50.489784 C64.494656,50.4896 57.188752,48.182608 55.650512,45.202544 Z" id="Path" fill="#F4B844"></path>
                        <path d="M41.903872,51.64328 C44.499376,49.240056 46.518224,46.16376 47.575488,42.79932 L48.056096,42.79932 C50.170992,42.9916 52.285888,43.087648 54.593064,43.087648 L55.55428,43.087648 L55.55428,45.202544 L55.74656,53.277568 L54.689112,53.277568 C50.45932,53.373616 46.32576,52.893008 42.1922,51.931792 L41.903872,51.64328 Z" id="Path" fill="#E2A63B"></path>
                        <path d="M55.650512,33.666848 L55.650512,34.147456 L55.842792,43.087648 L54.881392,43.087648 C52.478168,43.087648 50.26704,42.9916 48.152328,42.79932 L47.67172,42.79932 C48.344608,40.780656 48.632936,38.66576 48.632936,36.550864 C48.632936,35.108856 48.440656,33.76308 48.152328,32.417304 L48.632936,32.417304 C50.6516,32.609584 52.670448,32.705632 54.881392,32.705632 L55.74656,33.18624 C55.650512,33.378336 55.650512,33.570616 55.650512,33.666848 Z" id="Path" fill="#F4B844"></path>
                        <path d="M41.615544,21.265984 C45.845336,22.323432 50.267224,22.80404 54.593248,22.707992 C65.840432,22.707992 75.357464,19.920208 75.357464,16.363304 L75.549744,16.363304 L75.549744,27.70672 C65.071496,27.70672 56.515864,30.206176 55.458416,33.378336 L54.593248,32.897728 C52.478352,32.897728 50.459688,32.80168 48.537072,32.6094 L48.056464,32.6094 C47.191296,28.187328 44.88412,24.246048 41.423448,21.362032 L41.615544,21.265984 Z" id="Path" fill="#E2A63B"></path>
                        <g id="Group" transform="translate(7.200000, 16.008000)" fill="#FEDB41">
                            <path d="M41.04856,16.6014 L41.04856,16.6014 C40.087344,12.179328 37.683936,8.142 34.223264,5.161936 C32.108368,3.23932 29.608912,1.893544 26.91736,1.124424 C24.994744,0.451536 22.879848,0.163208 20.861184,0.163208 C9.421536,0.066792 0.096784,9.199264 0.000736,20.638728 C-0.095312,32.078192 9.036976,41.402944 20.476624,41.498992 C25.763864,41.498992 30.762592,39.576376 34.703872,36.019472 C37.395608,33.520016 39.414272,30.347856 40.47172,26.887 C41.144608,24.868336 41.4329361,22.849488 41.4329361,20.734592 C41.4329361,19.389184 41.04856,17.947176 41.04856,16.6014 Z" id="Path"></path>
                            <path d="M89.402288,17.947176 L89.402288,18.139456 C89.11396,21.50408 79.789208,24.291864 68.638072,24.291864 C57.486936,24.291864 48.835072,21.69636 48.162184,18.427968 L48.162184,17.94736 C48.162184,17.75508 48.162184,17.5628 48.258232,17.37052 C49.31568,14.198176 57.871312,11.698904 68.34956,11.698904 L68.637888,11.698904 C79.981488,11.69872 89.402288,14.486504 89.402288,17.947176 Z" id="Path"></path>
                        </g>
                        <g id="rupee" transform="translate(0.000000, 11.200000)">
                            <g id="Group" transform="translate(-0.000000, 0.000000)">
                                <path d="M51.6096,25.8048 C51.6096,40.0564224 40.0564224,51.6096 25.8048,51.6096 C18.2919168,51.6096 11.5289527,48.3992722 6.81352046,43.2751762 C5.57489006,41.9301669 4.47844937,40.4524471 3.54526354,38.8672951 C1.29234651,35.0355456 0,30.5707886 0,25.8048 C0,11.5531776 11.5531776,0 25.8048,0 C30.5718418,0 35.0365989,1.29234651 38.8672951,3.5463168 C40.4524471,4.47844937 41.9291136,5.57489006 43.274123,6.81457371 C48.398219,11.5278994 51.6096,18.2919168 51.6096,25.8048 Z" id="Path" fill="#F0CD00"></path>
                                <path d="M51.6096,25.8048 C51.6096,39.735179 40.5725184,51.0871845 26.7653705,51.5916946 C12.9582226,51.0871845 1.92114103,39.735179 1.92114103,25.8048 C1.92114103,11.874421 12.9582226,0.522415543 26.7653705,0.0179053714 C40.5725184,0.522415543 51.6096,11.874421 51.6096,25.8048 Z" id="Path" fill="#FFDE50"></path>
                                <path d="M45.8567095,25.8048 C45.8567095,36.8787456 36.8787456,45.8567095 25.8048,45.8567095 C21.9477723,45.8567095 18.3456329,44.7676416 15.2880274,42.8802048 C13.9556571,42.0586642 12.7275593,41.0844014 11.6258523,39.9826944 C10.8158976,39.1737929 10.0744046,38.2943232 9.41190583,37.3558711 C8.49978514,36.0635246 7.73617371,34.6584795 7.14740297,33.1660142 C6.27530606,30.9594405 5.78448823,28.5601207 5.75499703,26.0512622 C5.75289051,25.9691081 5.75289051,25.8869541 5.75289051,25.8048 C5.75289051,14.7308544 14.7298011,5.75289051 25.8048,5.75289051 C25.8869541,5.75289051 25.9701614,5.75289051 26.0523154,5.75499703 C28.5611739,5.78448823 30.9594405,6.27635931 33.1660142,7.14740297 C34.6584795,7.73722697 36.0635246,8.49978514 37.3558711,9.41190583 C38.2943232,10.0754578 39.1727397,10.8158976 39.9826944,11.6258523 C41.0844014,12.7265061 42.0586642,13.9556571 42.8802048,15.2880274 C44.7676416,18.3456329 45.8567095,21.9477723 45.8567095,25.8048 Z" id="Path" fill="#FAA300"></path>
                                <path d="M39.9826944,11.6258523 L11.6258523,39.9826944 C10.8158976,39.1737929 10.0744046,38.2943232 9.41190583,37.3558711 C8.49978514,36.0635246 7.73617371,34.6584795 7.14740297,33.1660142 C6.27530606,30.9594405 5.78448823,28.5601207 5.75499703,26.0512622 C5.75289051,25.9691081 5.75289051,25.8869541 5.75289051,25.8048 C5.75289051,14.7308544 14.7298011,5.75289051 25.8048,5.75289051 C25.8869541,5.75289051 25.9701614,5.75289051 26.0523154,5.75499703 C28.5611739,5.78448823 30.9594405,6.27635931 33.1660142,7.14740297 C34.6584795,7.73722697 36.0635246,8.49978514 37.3558711,9.41190583 C38.2943232,10.0754578 39.1727397,10.8158976 39.9826944,11.6258523 Z" id="Path" fill="#FFBD00"></path>
                            </g>
                            <path d="M33.7710051,19.6643109 L30.2595511,19.6643109 C30.0595376,18.8803716 29.749248,18.1403531 29.3484837,17.4597383 L33.7710051,17.4597383 C34.9344329,17.4597383 35.8775194,16.5166519 35.8775194,15.353224 C35.8775194,14.1897962 34.9344329,13.2467098 33.7710051,13.2467098 L21.9993819,13.2467098 L13.8692901,13.2467098 C12.7058622,13.2467098 11.7627758,14.1897962 11.7627758,15.353224 C11.7627758,16.5166519 12.7058622,17.4597383 13.8692901,17.4597383 L21.9993819,17.4597383 C23.611708,17.4597383 25.0192808,18.3500566 25.7586673,19.6643109 L13.8692901,19.6643109 C12.7058622,19.6643109 11.7627758,20.6073973 11.7627758,21.7708251 C11.7627758,22.934253 12.7058622,23.8773394 13.8692901,23.8773394 L25.7586673,23.8773394 C25.0192808,25.1915937 23.611708,26.0818066 21.9994873,26.0818066 L13.8693954,26.0818066 C13.0287909,26.0818066 12.2686552,26.5815771 11.9355099,27.3532987 C11.6022594,28.1250202 11.7598267,29.021026 12.336169,29.6328631 L23.7923416,41.7928221 C24.2067983,42.2327676 24.7657618,42.4547942 25.3259893,42.4547942 C25.8440865,42.4547942 26.3632369,42.2647867 26.7701102,41.8815064 C27.6169289,41.0837694 27.6565314,39.7505565 26.8587944,38.9037378 L18.7479771,30.2948352 L21.9993819,30.2948352 C25.9726892,30.2948352 29.3193084,27.5619489 30.2595511,23.8773394 L33.7710051,23.8773394 C34.9344329,23.8773394 35.8775194,22.934253 35.8775194,21.7708251 C35.8775194,20.6073973 34.9344329,19.6643109 33.7710051,19.6643109 Z" id="Path" fill="#F68E00"></path>
                            <path d="M36.4042533,19.6643109 L32.8927993,19.6643109 C32.6927857,18.8803716 32.3824962,18.1403531 31.9817318,17.4597383 L36.4042533,17.4597383 C37.5676811,17.4597383 38.5107675,16.5166519 38.5107675,15.353224 C38.5107675,14.1897962 37.5676811,13.2467098 36.4042533,13.2467098 L24.6327355,13.2467098 L16.5026436,13.2467098 C15.3392157,13.2467098 14.3961293,14.1897962 14.3961293,15.353224 C14.3961293,16.5166519 15.3392157,17.4597383 16.5026436,17.4597383 L24.6327355,17.4597383 C26.2450615,17.4597383 27.6526343,18.3500566 28.3920208,19.6643109 L16.5026436,19.6643109 C15.3392157,19.6643109 14.3961293,20.6073973 14.3961293,21.7708251 C14.3961293,22.934253 15.3392157,23.8773394 16.5026436,23.8773394 L28.3920208,23.8773394 C27.6526343,25.1915937 26.2450615,26.0818066 24.6328408,26.0818066 L16.5027489,26.0818066 C15.6621444,26.0818066 14.9020087,26.5815771 14.5688635,27.3532987 C14.2356129,28.1250202 14.3931802,29.021026 14.9695225,29.6328631 L26.4256951,41.7928221 C26.8401518,42.2327676 27.3991153,42.4547942 27.9593428,42.4547942 C28.47744,42.4547942 28.9965904,42.2647867 29.4034637,41.8815064 C30.2502824,41.0837694 30.2899902,39.7505565 29.4921479,38.9037378 L21.3815413,30.2948352 L24.6329461,30.2948352 C28.6062533,30.2948352 31.9528726,27.5619489 32.8931152,23.8773394 L36.4045692,23.8773394 C37.5679971,23.8773394 38.5110835,22.934253 38.5110835,21.7708251 C38.5110835,20.6073973 37.5676811,19.6643109 36.4042533,19.6643109 Z" id="Path" fill="#FFEA94"></path>
                        </g>
                    </g>
                </g>
            </g>
        </g>
    </g>
</svg>