<?xml version="1.0" encoding="UTF-8"?>
<svg width="46px" height="45px" viewBox="0 0 46 45" version="1.1" xmlns="http://www.w3.org/2000/svg" xmlns:xlink="http://www.w3.org/1999/xlink">
    <title>Group 5</title>
    <g id="3.-DPIIT-Dashboard-" stroke="none" stroke-width="1" fill="none" fill-rule="evenodd">
        <g id="SEEDFUND-DPIIT--Incubator-Documents" transform="translate(-686.000000, -607.000000)">
            <g id="Group-5" transform="translate(686.000000, 607.000000)">
                <g id="file-(2)" opacity="0.264148801" transform="translate(12.000000, 0.000000)">
                    <path d="M3.456,41.472 L29.7216,41.472 C31.6294079,41.4698573 33.1754573,39.9238079 33.1776,38.016 L33.1776,8.9856 C33.1776,8.80227981 33.1047884,8.62646549 32.9751648,8.4968352 L24.6807648,0.2024352 C24.5511345,0.0728115875 24.3753202,0 24.192,0 L3.456,0 C1.54819213,0.00214267012 0.00214267012,1.54819213 -4.91127139e-15,3.456 L-4.91127139e-15,38.016 C0.00214267012,39.9238079 1.54819213,41.4698573 3.456,41.472 Z M24.8832,2.3598432 L30.8177568,8.2944 L26.9568,8.2944 C25.8121153,8.2931144 24.8844856,7.36548472 24.8832,6.2208 L24.8832,2.3598432 Z M1.3824,3.456 C1.38373311,2.31133499 2.31133499,1.38373311 3.456,1.3824 L23.5008,1.3824 L23.5008,6.2208 C23.5029427,8.12860787 25.0489921,9.67465733 26.9568,9.6768 L31.7952,9.6768 L31.7952,38.016 C31.7938669,39.160665 30.866265,40.0882669 29.7216,40.0896 L3.456,40.0896 C2.31133499,40.0882669 1.38373311,39.160665 1.3824,38.016 L1.3824,3.456 Z" id="Shape" fill="#000000" fill-rule="nonzero"></path>
                    <g id="Group-3" transform="translate(7.747200, 12.240000)">
                        <rect id="Rectangle" stroke="#000000" stroke-width="1.44" x="0.8928" y="0.72" width="13.68" height="14.56" rx="0.72"></rect>
                        <path d="M1.52966154,6.6256 L14.2415385,6.6256 C14.5340625,6.6256 14.7712,6.31613922 14.7712,5.9344 C14.7712,5.55266078 14.5340625,5.2432 14.2415385,5.2432 L1.52966154,5.2432 C1.23713755,5.2432 1,5.55266078 1,5.9344 C1,6.31613922 1.23713755,6.6256 1.52966154,6.6256 Z" id="Path" fill="#000000" fill-rule="nonzero"></path>
                        <path d="M-1.79749493,8.6849235 L11.0596479,8.6849235 C11.6513816,8.6849235 12.1310765,8.46106587 12.1310765,8.1849235 C12.1310765,7.90878113 11.6513816,7.6849235 11.0596479,7.6849235 L-1.79749493,7.6849235 C-2.38922859,7.6849235 -2.8689235,7.90878113 -2.8689235,8.1849235 C-2.8689235,8.46106587 -2.38922859,8.6849235 -1.79749493,8.6849235 Z" id="Path" fill="#000000" fill-rule="nonzero" transform="translate(4.631076, 8.184923) rotate(90.000000) translate(-4.631076, -8.184923) "></path>
                    </g>
                </g>
                <g id="Group-2" transform="translate(0.000000, 31.800000)" fill-rule="nonzero">
                    <path d="M0,1.84 L0,10.96 C8.04974895e-16,11.9762039 0.82379606,12.8 1.84,12.8 L26.16,12.8 C27.1762039,12.8 28,11.9762039 28,10.96 L28,1.84 C28,0.82379606 27.1762039,1.39642258e-15 26.16,0 L1.84,0 C0.82379606,-3.53709696e-17 -3.46493695e-16,0.82379606 0,1.84 Z" id="Path" fill="#80BD59"></path>
                    <g id="Group" transform="translate(6.000000, 2.000000)" fill="#FFFFFF">
                        <polygon id="Path" points="1.82226667 1.63786403e-15 2.79133333 2.55588235 3.74986667 0 5.4036 0 3.65506667 3.9057423 5.53 7.9 3.8236 7.9 2.74042222 5.22240896 1.66426667 7.9 0 7.9 1.87493333 3.9057423 0.147466667 1.63786403e-15"></polygon>
                        <polygon id="Path" points="7.11 0 8.53615963 0 8.53615963 6.59439776 11.06 6.59439776 11.06 7.9 7.11 7.9"></polygon>
                        <path d="M13.2869684,5.6242725 C13.2869684,5.80248139 13.3002737,5.96465148 13.3252211,6.10900068 C13.3534947,6.25513196 13.4017263,6.3780961 13.4749053,6.47789307 C13.5480842,6.57947214 13.6478737,6.65788405 13.7709474,6.7149109 C13.8923579,6.77015565 14.0486947,6.80045116 14.2333053,6.80045116 C14.4545053,6.80045116 14.6507579,6.72382134 14.8270526,6.5705617 C15.0016842,6.41730205 15.0914947,6.17850214 15.0914947,5.85950823 C15.0914947,5.6884277 15.0682105,5.54051432 15.0266316,5.4157681 C14.9833895,5.29102188 14.9118737,5.17875028 14.8120842,5.08073539 C14.7106316,4.97915633 14.5792421,4.89005188 14.4179158,4.8080758 C14.2565895,4.72609971 14.0536842,4.64234153 13.8141895,4.55680126 C13.4965263,4.44274758 13.2204421,4.31621926 12.9859368,4.18078051 C12.7530947,4.04712384 12.5585053,3.88851793 12.4021684,3.70496278 C12.2458316,3.52318971 12.1310737,3.31290323 12.0578947,3.07410332 C11.9847158,2.83352132 11.9481263,2.55907963 11.9481263,2.2436499 C11.9481263,1.48804421 12.1443789,0.926686217 12.5368842,0.55601173 C12.9277263,0.185337243 13.4682526,0 14.1534737,0 C14.4728,0 14.7671789,0.0374238665 15.0366105,0.112271599 C15.3060421,0.187119332 15.5388842,0.306519287 15.7351368,0.475817731 C15.9313895,0.643334085 16.0844,0.857184751 16.1941684,1.11558764 C16.3022737,1.37577261 16.3588211,1.68763817 16.3588211,2.0511843 L16.3588211,2.26503497 L14.9817263,2.26503497 C14.9817263,1.90148883 14.9218526,1.62170088 14.8037684,1.42388901 C14.6840211,1.22964133 14.4844421,1.12984435 14.2050316,1.12984435 C14.0453684,1.12984435 13.9123158,1.15657568 13.8058737,1.20469208 C13.7010947,1.25459057 13.6146105,1.32052786 13.5514105,1.40250395 C13.4882105,1.48448004 13.4466316,1.57893075 13.4233474,1.68585608 C13.3984,1.79278141 13.3884211,1.90327092 13.3884211,2.01732461 C13.3884211,2.25434243 13.4349895,2.45037221 13.5281263,2.61076021 C13.6212632,2.7729303 13.8208421,2.92084367 14.1268632,3.05450034 L15.2345263,3.56774194 C15.5072842,3.69605233 15.7301474,3.829709 15.9014526,3.97049402 C16.0744211,4.10949695 16.2141263,4.25919242 16.3155789,4.41958042 C16.4186947,4.57996842 16.4902105,4.75461313 16.5301263,4.94886082 C16.5700421,5.13954433 16.59,5.35517708 16.59,5.58863072 C16.59,6.3941349 16.3721263,6.98044214 15.9363789,7.34755245 C15.5006316,7.71466276 14.8935789,7.9 14.1152211,7.9 C13.3036,7.9 12.7231579,7.71109858 12.3722316,7.33329574 C12.0229684,6.95549289 11.85,6.41373788 11.85,5.70803068 L11.85,5.39794721 L13.2869684,5.39794721 L13.2869684,5.6242725 Z" id="Path"></path>
                    </g>
                </g>
            </g>
        </g>
    </g>
</svg>